  0
SECTION
  2
HEADER
  9
$ACADVER
  1
AC1015
  9
$ACADMAINTVER
 70
     6
  9
$DWGCODEPAGE
  3
ANSI_1251
  9
$INSBASE
 10
0.0
 20
0.0
 30
0.0
  9
$EXTMIN
 10
-3.3
 20
-14.9
 30
0.0
  9
$EXTMAX
 10
3.3
 20
0.0
 30
0.0
  9
$LIMMIN
 10
0.0
 20
0.0
  9
$LIMMAX
 10
420.0
 20
297.0
  9
$ORTHOMODE
 70
     0
  9
$REGENMODE
 70
     1
  9
$FILLMODE
 70
     1
  9
$QTEXTMODE
 70
     0
  9
$MIRRTEXT
 70
     1
  9
$LTSCALE
 40
1.0
  9
$ATTMODE
 70
     1
  9
$TEXTSIZE
 40
3.5
  9
$TRACEWID
 40
1.0
  9
$TEXTSTYLE
  7
Standard
  9
$CLAYER
  8
0
  9
$CELTYPE
  6
ByLayer
  9
$CECOLOR
 62
   256
  9
$CELTSCALE
 40
1.0
  9
$DISPSILH
 70
     0
  9
$DIMSCALE
 40
1.0
  9
$DIMASZ
 40
3.556
  9
$DIMEXO
 40
0.0
  9
$DIMDLI
 40
3.75
  9
$DIMRND
 40
0.0
  9
$DIMDLE
 40
0.0
  9
$DIMEXE
 40
1.0
  9
$DIMTP
 40
0.0
  9
$DIMTM
 40
0.0
  9
$DIMTXT
 40
3.5
  9
$DIMCEN
 40
2.5
  9
$DIMTSZ
 40
0.0
  9
$DIMTOL
 70
     0
  9
$DIMLIM
 70
     0
  9
$DIMTIH
 70
     1
  9
$DIMTOH
 70
     1
  9
$DIMSE1
 70
     0
  9
$DIMSE2
 70
     0
  9
$DIMTAD
 70
     1
  9
$DIMZIN
 70
     1
  9
$DIMBLK
  1

  9
$DIMASO
 70
     1
  9
$DIMSHO
 70
     1
  9
$DIMPOST
  1

  9
$DIMAPOST
  1

  9
$DIMALT
 70
     0
  9
$DIMALTD
 70
     3
  9
$DIMALTF
 40
0.0393700787
  9
$DIMLFAC
 40
1.0
  9
$DIMTOFL
 70
     1
  9
$DIMTVP
 40
0.0
  9
$DIMTIX
 70
     0
  9
$DIMSOXD
 70
     0
  9
$DIMSAH
 70
     0
  9
$DIMBLK1
  1

  9
$DIMBLK2
  1

  9
$DIMSTYLE
  2
ISO-25
  9
$DIMCLRD
 70
     0
  9
$DIMCLRE
 70
     0
  9
$DIMCLRT
 70
     0
  9
$DIMTFAC
 40
1.0
  9
$DIMGAP
 40
1.524
  9
$DIMJUST
 70
     0
  9
$DIMSD1
 70
     0
  9
$DIMSD2
 70
     0
  9
$DIMTOLJ
 70
     0
  9
$DIMTZIN
 70
     1
  9
$DIMALTZ
 70
     0
  9
$DIMALTTZ
 70
     0
  9
$DIMUPT
 70
     0
  9
$DIMDEC
 70
     2
  9
$DIMTDEC
 70
     2
  9
$DIMALTU
 70
     2
  9
$DIMALTTD
 70
     3
  9
$DIMTXSTY
  7
Standard
  9
$DIMAUNIT
 70
     0
  9
$DIMADEC
 70
     2
  9
$DIMALTRND
 40
0.0
  9
$DIMAZIN
 70
     0
  9
$DIMDSEP
 70
    44
  9
$DIMATFIT
 70
     3
  9
$DIMFRAC
 70
     0
  9
$DIMLDRBLK
  1

  9
$DIMLUNIT
 70
     2
  9
$DIMLWD
 70
    -2
  9
$DIMLWE
 70
    -2
  9
$DIMTMOVE
 70
     0
  9
$LUNITS
 70
     2
  9
$LUPREC
 70
     2
  9
$SKETCHINC
 40
1.0
  9
$FILLETRAD
 40
0.0
  9
$AUNITS
 70
     0
  9
$AUPREC
 70
     2
  9
$MENU
  1
.
  9
$ELEVATION
 40
0.0
  9
$PELEVATION
 40
0.0
  9
$THICKNESS
 40
0.0
  9
$LIMCHECK
 70
     0
  9
$CHAMFERA
 40
0.0
  9
$CHAMFERB
 40
0.0
  9
$CHAMFERC
 40
0.0
  9
$CHAMFERD
 40
0.0
  9
$SKPOLY
 70
     0
  9
$TDCREATE
 40
2460501.572304919
  9
$TDUCREATE
 40
2460501.405638253
  9
$TDUPDATE
 40
2460501.572357396
  9
$TDUUPDATE
 40
2460501.405690729
  9
$TDINDWG
 40
0.0000000116
  9
$TDUSRTIMER
 40
0.0000000116
  9
$USRTIMER
 70
     1
  9
$ANGBASE
 50
0.0
  9
$ANGDIR
 70
     0
  9
$PDMODE
 70
     0
  9
$PDSIZE
 40
-1.0
  9
$PLINEWID
 40
0.0
  9
$SPLFRAME
 70
     0
  9
$SPLINETYPE
 70
     6
  9
$SPLINESEGS
 70
     8
  9
$HANDSEED
  5
26A
  9
$SURFTAB1
 70
     6
  9
$SURFTAB2
 70
     6
  9
$SURFTYPE
 70
     6
  9
$SURFU
 70
     6
  9
$SURFV
 70
     6
  9
$UCSBASE
  2

  9
$UCSNAME
  2

  9
$UCSORG
 10
0.0
 20
0.0
 30
0.0
  9
$UCSXDIR
 10
1.0
 20
0.0
 30
0.0
  9
$UCSYDIR
 10
0.0
 20
1.0
 30
0.0
  9
$UCSORTHOREF
  2

  9
$UCSORTHOVIEW
 70
     0
  9
$UCSORGTOP
 10
0.0
 20
0.0
 30
0.0
  9
$UCSORGBOTTOM
 10
0.0
 20
0.0
 30
0.0
  9
$UCSORGLEFT
 10
0.0
 20
0.0
 30
0.0
  9
$UCSORGRIGHT
 10
0.0
 20
0.0
 30
0.0
  9
$UCSORGFRONT
 10
0.0
 20
0.0
 30
0.0
  9
$UCSORGBACK
 10
0.0
 20
0.0
 30
0.0
  9
$PUCSBASE
  2

  9
$PUCSNAME
  2

  9
$PUCSORG
 10
0.0
 20
0.0
 30
0.0
  9
$PUCSXDIR
 10
1.0
 20
0.0
 30
0.0
  9
$PUCSYDIR
 10
0.0
 20
1.0
 30
0.0
  9
$PUCSORTHOREF
  2

  9
$PUCSORTHOVIEW
 70
     0
  9
$PUCSORGTOP
 10
0.0
 20
0.0
 30
0.0
  9
$PUCSORGBOTTOM
 10
0.0
 20
0.0
 30
0.0
  9
$PUCSORGLEFT
 10
0.0
 20
0.0
 30
0.0
  9
$PUCSORGRIGHT
 10
0.0
 20
0.0
 30
0.0
  9
$PUCSORGFRONT
 10
0.0
 20
0.0
 30
0.0
  9
$PUCSORGBACK
 10
0.0
 20
0.0
 30
0.0
  9
$USERI1
 70
     0
  9
$USERI2
 70
     0
  9
$USERI3
 70
     0
  9
$USERI4
 70
     0
  9
$USERI5
 70
     0
  9
$USERR1
 40
0.0
  9
$USERR2
 40
0.0
  9
$USERR3
 40
0.0
  9
$USERR4
 40
0.0
  9
$USERR5
 40
0.0
  9
$WORLDVIEW
 70
     1
  9
$SHADEDGE
 70
     3
  9
$SHADEDIF
 70
    70
  9
$TILEMODE
 70
     1
  9
$MAXACTVP
 70
    64
  9
$PINSBASE
 10
0.0
 20
0.0
 30
0.0
  9
$PLIMCHECK
 70
     0
  9
$PEXTMIN
 10
1.0000000000E+20
 20
1.0000000000E+20
 30
1.0000000000E+20
  9
$PEXTMAX
 10
-1.0000000000E+20
 20
-1.0000000000E+20
 30
-1.0000000000E+20
  9
$PLIMMIN
 10
0.0
 20
0.0
  9
$PLIMMAX
 10
420.0
 20
297.0
  9
$UNITMODE
 70
     0
  9
$VISRETAIN
 70
     1
  9
$PLINEGEN
 70
     0
  9
$PSLTSCALE
 70
     1
  9
$TREEDEPTH
 70
  3020
  9
$CMLSTYLE
  2
Standard
  9
$CMLJUST
 70
     0
  9
$CMLSCALE
 40
20.0
  9
$PROXYGRAPHICS
 70
     1
  9
$MEASUREMENT
 70
     1
  9
$CELWEIGHT
370
    -1
  9
$ENDCAPS
280
     0
  9
$JOINSTYLE
280
     0
  9
$LWDISPLAY
290
     1
  9
$INSUNITS
 70
     4
  9
$HYPERLINKBASE
  1

  9
$STYLESHEET
  1

  9
$XEDIT
290
     1
  9
$CEPSNTYPE
380
     0
  9
$PSTYLEMODE
290
     1
  9
$FINGERPRINTGUID
  2
{b9b9e5d9-3660-4072-9630-ea9b172378af}
  9
$VERSIONGUID
  2
{FAEB1C32-E019-11D5-929B-00C0DF256EC4}
  9
$EXTNAMES
290
     1
  9
$PSVPSCALE
 40
0.0
  9
$OLESTARTUP
290
     0
  0
ENDSEC
  0
SECTION
  2
CLASSES
  0
CLASS
  1
ACDBDICTIONARYWDFLT
  2
AcDbDictionaryWithDefault
  3
ObjectDBX Classes
 90
        0
280
     0
281
     0
  0
CLASS
  1
VISUALSTYLE
  2
AcDbVisualStyle
  3
ObjectDBX Classes
 90
     4095
280
     0
281
     0
  0
CLASS
  1
MATERIAL
  2
AcDbMaterial
  3
ObjectDBX Classes
 90
     1153
280
     0
281
     0
  0
CLASS
  1
SCALE
  2
AcDbScale
  3
ObjectDBX Classes
 90
     1153
280
     0
281
     0
  0
CLASS
  1
TABLESTYLE
  2
AcDbTableStyle
  3
ObjectDBX Classes
 90
     4095
280
     0
281
     0
  0
CLASS
  1
MLEADERSTYLE
  2
AcDbMLeaderStyle
  3
ACDB_MLEADERSTYLE_CLASS
 90
     4095
280
     0
281
     0
  0
CLASS
  1
SUN
  2
AcDbSun
  3
SCENEOE
 90
     1153
280
     0
281
     0
  0
CLASS
  1
ACDBPLACEHOLDER
  2
AcDbPlaceHolder
  3
ObjectDBX Classes
 90
        0
280
     0
281
     0
  0
CLASS
  1
LAYOUT
  2
AcDbLayout
  3
ObjectDBX Classes
 90
        0
280
     0
281
     0
  0
ENDSEC
  0
SECTION
  2
TABLES
  0
TABLE
  2
VPORT
  5
8
330
0
100
AcDbSymbolTable
 70
     1
  0
VPORT
  5
29
330
8
100
AcDbSymbolTableRecord
100
AcDbViewportTableRecord
  2
*Active
 70
     0
 10
0.0
 20
0.0
 11
1.0
 21
1.0
 12
0.0
 22
-7.45
 13
0.0
 23
0.0
 14
10.0
 24
10.0
 15
10.0
 25
10.0
 16
0.0
 26
0.0
 36
1.0
 17
0.0
 27
0.0
 37
0.0
 40
15.198
 41
0.4429530201
 42
50.0
 43
0.0
 44
0.0
 50
0.0
 51
0.0
 71
     0
 72
   100
 73
     1
 74
     3
 75
     0
 76
     0
 77
     0
 78
     0
281
     0
 65
     1
110
0.0
120
0.0
130
0.0
111
1.0
121
0.0
131
0.0
112
0.0
122
1.0
132
0.0
 79
     0
146
0.0
  0
ENDTAB
  0
TABLE
  2
LTYPE
  5
5
330
0
100
AcDbSymbolTable
 70
     6
  0
LTYPE
  5
14
330
5
100
AcDbSymbolTableRecord
100
AcDbLinetypeTableRecord
  2
ByBlock
 70
     0
  3

 72
    65
 73
     0
 40
0.0
  0
LTYPE
  5
15
330
5
100
AcDbSymbolTableRecord
100
AcDbLinetypeTableRecord
  2
ByLayer
 70
     0
  3

 72
    65
 73
     0
 40
0.0
  0
LTYPE
  5
16
330
5
100
AcDbSymbolTableRecord
100
AcDbLinetypeTableRecord
  2
Continuous
 70
     0
  3
Solid line
 72
    65
 73
     0
 40
0.0
  0
LTYPE
  5
5E
330
5
100
AcDbSymbolTableRecord
100
AcDbLinetypeTableRecord
  2
HIDDEN
 70
     0
  3
Hidden __ __ __ __ __ __ __ __ __ __ __ __ __ __
 72
    65
 73
     2
 40
1.905
 49
1.27
 74
     0
 49
-0.635
 74
     0
  0
LTYPE
  5
5F
330
5
100
AcDbSymbolTableRecord
100
AcDbLinetypeTableRecord
  2
PHANTOM
 70
     0
  3
Phantom ______  __  __  ______  __  __  ______
 72
    65
 73
     6
 40
12.7
 49
6.35
 74
     0
 49
-1.27
 74
     0
 49
1.27
 74
     0
 49
-1.27
 74
     0
 49
1.27
 74
     0
 49
-1.27
 74
     0
  0
LTYPE
  5
60
330
5
100
AcDbSymbolTableRecord
100
AcDbLinetypeTableRecord
  2
CENTER
 70
     0
  3
Center ____ _ ____ _ ____ _ ____ _ ____ _ ____
 72
    65
 73
     4
 40
10.16
 49
6.35
 74
     0
 49
-1.27
 74
     0
 49
1.27
 74
     0
 49
-1.27
 74
     0
  0
LTYPE
  5
61
330
5
100
AcDbSymbolTableRecord
100
AcDbLinetypeTableRecord
  2
CENTERX2
 70
     0
  3
Center (2x) ________  __  ________  __  _____
 72
    65
 73
     4
 40
20.32
 49
12.7
 74
     0
 49
-2.54
 74
     0
 49
2.54
 74
     0
 49
-2.54
 74
     0
  0
LTYPE
  5
62
330
5
100
AcDbSymbolTableRecord
100
AcDbLinetypeTableRecord
  2
DOT2
 70
     0
  3
Dot (.5x) ........................................
 72
    65
 73
     2
 40
0.635
 49
0.0
 74
     0
 49
-0.635
 74
     0
  0
ENDTAB
  0
TABLE
  2
LAYER
  5
2
330
0
100
AcDbSymbolTable
 70
     1
  0
LAYER
  5
10
330
2
100
AcDbSymbolTableRecord
100
AcDbLayerTableRecord
  2
0
 70
     0
 62
     7
  6
Continuous
370
    -3
390
F
  0
ENDTAB
  0
TABLE
  2
STYLE
  5
3
330
0
100
AcDbSymbolTable
 70
     1
  0
STYLE
  5
11
330
3
100
AcDbSymbolTableRecord
100
AcDbTextStyleTableRecord
  2
Standard
 70
     0
 40
0.0
 41
1.0
 50
0.0
 71
     0
 42
3.5
  3
txt
  4

  0
ENDTAB
  0
TABLE
  2
VIEW
  5
6
330
0
100
AcDbSymbolTable
 70
     0
  0
ENDTAB
  0
TABLE
  2
UCS
  5
7
330
0
100
AcDbSymbolTable
 70
     0
  0
ENDTAB
  0
TABLE
  2
APPID
  5
9
330
0
100
AcDbSymbolTable
 70
     1
  0
APPID
  5
12
330
9
100
AcDbSymbolTableRecord
100
AcDbRegAppTableRecord
  2
ACAD
 70
     0
  0
ENDTAB
  0
TABLE
  2
DIMSTYLE
  5
A
330
0
100
AcDbSymbolTable
 70
     1
100
AcDbDimStyleTable
  0
DIMSTYLE
105
27
330
A
100
AcDbSymbolTableRecord
100
AcDbDimStyleTableRecord
  2
ISO-25
 70
     0
 41
2.5
 42
0.625
 43
3.75
 44
1.25
 73
     0
 74
     0
 77
     1
 78
     8
140
2.5
141
2.5
143
0.0393700787
147
0.625
171
     3
172
     1
178
     0
271
     2
272
     2
274
     3
278
    44
283
     0
284
     8
340
11
  0
ENDTAB
  0
TABLE
  2
BLOCK_RECORD
  5
1
330
0
100
AcDbSymbolTable
 70
     1
  0
BLOCK_RECORD
  5
1F
330
1
100
AcDbSymbolTableRecord
100
AcDbBlockTableRecord
  2
*Model_Space
340
22
  0
BLOCK_RECORD
  5
1B
330
1
100
AcDbSymbolTableRecord
100
AcDbBlockTableRecord
  2
*Paper_Space
340
1E
  0
BLOCK_RECORD
  5
23
330
1
100
AcDbSymbolTableRecord
100
AcDbBlockTableRecord
  2
*Paper_Space0
340
26
  0
ENDTAB
  0
ENDSEC
  0
SECTION
  2
BLOCKS
  0
BLOCK
  5
20
330
1F
100
AcDbEntity
  8
0
100
AcDbBlockBegin
  2
*Model_Space
 70
     0
 10
0.0
 20
0.0
 30
0.0
  3
*Model_Space
  1

  0
ENDBLK
  5
21
330
1F
100
AcDbEntity
  8
0
100
AcDbBlockEnd
  0
BLOCK
  5
1C
330
1B
100
AcDbEntity
 67
     1
  8
0
100
AcDbBlockBegin
  2
*Paper_Space
 70
     0
 10
0.0
 20
0.0
 30
0.0
  3
*Paper_Space
  1

  0
ENDBLK
  5
1D
330
1B
100
AcDbEntity
 67
     1
  8
0
100
AcDbBlockEnd
  0
BLOCK
  5
24
330
23
100
AcDbEntity
  8
0
100
AcDbBlockBegin
  2
*Paper_Space0
 70
     0
 10
0.0
 20
0.0
 30
0.0
  3
*Paper_Space0
  1

  0
ENDBLK
  5
25
330
23
100
AcDbEntity
  8
0
100
AcDbBlockEnd
  0
ENDSEC
  0
SECTION
  2
ENTITIES
  0
SPLINE
  5
63
330
1F
100
AcDbEntity
  8
0
  6
Continuous
 62
     7
370
    25
100
AcDbSpline
210
0.0
220
0.0
230
1.0
 70
     8
 71
     3
 72
     9
 73
     5
 74
     0
 42
0.00000001
 43
0.00000001
 40
0.0
 40
0.0
 40
0.0
 40
0.0
 40
0.5006072136234824
 40
1.0
 40
1.0
 40
1.0
 40
1.0
 10
3.171857008459579
 20
-12.89069951940261
 30
0.0
 10
3.108519997550358
 20
-12.8538036614306
 30
0.0
 10
2.981999625519006
 20
-12.78010145145853
 30
0.0
 10
2.854472669917337
 20
-12.70655332833207
 30
0.0
 10
2.790786628221304
 20
-12.66982392619118
 30
0.0
  0
SPLINE
  5
64
330
1F
100
AcDbEntity
  8
0
  6
Continuous
 62
     7
370
    25
100
AcDbSpline
210
0.0
220
0.0
230
1.0
 70
     8
 71
     3
 72
     9
 73
     5
 74
     0
 42
0.00000001
 43
0.00000001
 40
0.0
 40
0.0
 40
0.0
 40
0.0
 40
0.5012245471193478
 40
0.9999999999999999
 40
0.9999999999999999
 40
0.9999999999999999
 40
0.9999999999999999
 10
3.171857008459579
 20
-12.18514396384705
 30
0.0
 10
3.108679350070384
 20
-12.148165392159
 30
0.0
 10
2.98263273333485
 20
-12.07438893428085
 30
0.0
 10
2.854630833687496
 20
-12.00091524385339
 30
0.0
 10
2.790786628221304
 20
-11.96426837063562
 30
0.0
  0
SPLINE
  5
65
330
1F
100
AcDbEntity
  8
0
  6
Continuous
 62
     7
370
    25
100
AcDbSpline
210
0.0
220
0.0
230
1.0
 70
     8
 71
     3
 72
     9
 73
     5
 74
     0
 42
0.00000001
 43
0.00000001
 40
0.0
 40
0.0
 40
0.0
 40
0.0
 40
0.5018595096804028
 40
1.0
 40
1.0
 40
1.0
 40
1.0
 10
3.171857008459579
 20
-11.47958840829149
 30
0.0
 10
3.108834061521774
 20
-11.4425278777599
 30
0.0
 10
2.983255197871386
 20
-11.36868145298019
 30
0.0
 10
2.854783555262606
 20
-11.29527803146485
 30
0.0
 10
2.790786628221304
 20
-11.25871281508007
 30
0.0
  0
SPLINE
  5
66
330
1F
100
AcDbEntity
  8
0
  6
Continuous
 62
     7
370
    25
100
AcDbSpline
210
0.0
220
0.0
230
1.0
 70
     8
 71
     3
 72
     9
 73
     5
 74
     0
 42
0.00000001
 43
0.00000001
 40
0.0
 40
0.0
 40
0.0
 40
0.0
 40
0.3999044451565129
 40
1.0
 40
1.0
 40
1.0
 40
1.0
 10
3.107350744206034
 20
-10.73616942925821
 30
0.0
 10
3.065827186265059
 20
-10.71167175956035
 30
0.0
 10
2.961993486880389
 20
-10.65041295137611
 30
0.0
 10
2.854995590322997
 20
-10.5896317739288
 30
0.0
 10
2.790786628221304
 20
-10.55315725952451
 30
0.0
  0
SPLINE
  5
67
330
1F
100
AcDbEntity
  8
0
  6
Continuous
 62
     7
370
    25
100
AcDbSpline
210
0.0
220
0.0
230
1.0
 70
     8
 71
     3
 72
     9
 73
     5
 74
     0
 42
0.00000001
 43
0.00000001
 40
0.0
 40
0.0
 40
0.0
 40
0.0
 40
0.4989512741139002
 40
1.0
 40
1.0
 40
1.0
 40
1.0
 10
-2.787022916664119
 20
-13.0115567460273
 30
0.0
 10
-2.850661798050079
 20
-13.04837783274187
 30
0.0
 10
-2.978207080901552
 20
-13.12217479173342
 30
0.0
 10
-3.105760849872242
 20
-13.19593511682175
 30
0.0
 10
-3.169671503296976
 20
-13.2328926337282
 30
0.0
  0
SPLINE
  5
68
330
1F
100
AcDbEntity
  8
0
  6
Continuous
 62
     7
370
    25
100
AcDbSpline
210
0.0
220
0.0
230
1.0
 70
     8
 71
     3
 72
     9
 73
     5
 74
     0
 42
0.00000001
 43
0.00000001
 40
0.0
 40
0.0
 40
0.0
 40
0.0
 40
0.4979287636900026
 40
1.0
 40
1.0
 40
1.0
 40
1.0
 10
-2.787022916664119
 20
-12.30600119047175
 30
0.0
 10
-2.850529544072563
 20
-12.34275259345421
 30
0.0
 10
-2.978071136443757
 20
-12.41656114934103
 30
0.0
 10
-3.105628579940183
 20
-12.49030993445441
 30
0.0
 10
-3.169671503296976
 20
-12.52733707817264
 30
0.0
  0
SPLINE
  5
69
330
1F
100
AcDbEntity
  8
0
  6
Continuous
 62
     7
370
    25
100
AcDbSpline
210
0.0
220
0.0
230
1.0
 70
     8
 71
     3
 72
     9
 73
     5
 74
     0
 42
0.00000001
 43
0.00000001
 40
0.0
 40
0.0
 40
0.0
 40
0.0
 40
0.4968911012503657
 40
1.0
 40
1.0
 40
1.0
 40
1.0
 10
-2.787022916664119
 20
-11.60044563491619
 30
0.0
 10
-2.850392002059974
 20
-11.6371277321321
 30
0.0
 10
-2.977923135614982
 20
-11.71095094434822
 30
0.0
 10
-3.105490983720665
 20
-11.78468517502243
 30
0.0
 10
-3.169671503296976
 20
-11.82178152261709
 30
0.0
  0
SPLINE
  5
6A
330
1F
100
AcDbEntity
  8
0
  6
Continuous
 62
     7
370
    25
100
AcDbSpline
210
0.0
220
0.0
230
1.0
 70
     8
 71
     3
 72
     9
 73
     5
 74
     0
 42
0.00000001
 43
0.00000001
 40
0.0
 40
0.0
 40
0.0
 40
0.0
 40
0.4958430760141268
 40
0.9999999999999999
 40
0.9999999999999999
 40
0.9999999999999999
 40
0.9999999999999999
 10
-2.787022916664119
 20
-10.89489007936063
 30
0.0
 10
-2.850248878055249
 20
-10.93150306914498
 30
0.0
 10
-2.97776091654004
 20
-11.00534294219244
 30
0.0
 10
-3.105347728591799
 20
-11.07906066612198
 30
0.0
 10
-3.169671503296976
 20
-11.11622596706153
 30
0.0
  0
SPLINE
  5
6B
330
1F
100
AcDbEntity
  8
0
  6
Continuous
 62
     7
370
    25
100
AcDbSpline
210
0.0
220
0.0
230
1.0
 70
     8
 71
     3
 72
     9
 73
     5
 74
     0
 42
0.00000001
 43
0.00000001
 40
0.0
 40
0.0
 40
0.0
 40
0.0
 40
0.9672047806467515
 40
1.0
 40
1.0
 40
1.0
 40
1.0
 10
-2.787022916664119
 20
-13.71711230158286
 30
0.0
 10
-2.850788202442581
 20
-13.75400531543983
 30
0.0
 10
-2.9167155914034
 20
-13.79214926860795
 30
0.0
 10
-2.982648659401443
 20
-13.8302820299985
 30
0.0
 10
-2.984810948829071
 20
-13.83153260227285
 30
0.0
  0
SPLINE
  5
6C
330
1F
100
AcDbEntity
  8
0
  6
Continuous
 62
     7
370
    25
100
AcDbSpline
210
0.0
220
0.0
230
1.0
 70
     8
 71
     3
 72
     9
 73
     5
 74
     0
 42
0.00000001
 43
0.00000001
 40
0.0
 40
0.0
 40
0.0
 40
0.0
 40
0.5000104404458505
 40
1.0
 40
1.0
 40
1.0
 40
1.0
 10
3.171857008459579
 20
-13.59625507495816
 30
0.0
 10
3.108356170361698
 20
-13.55944279068387
 30
0.0
 10
2.981357146018811
 20
-13.48581975944982
 30
0.0
 10
2.854309249862685
 20
-13.41219239517942
 30
0.0
 10
2.790786628221304
 20
-13.37537948174673
 30
0.0
  0
SPLINE
  5
6D
330
1F
100
AcDbEntity
  8
0
  6
Continuous
 62
     7
370
    25
100
AcDbSpline
210
0.0
220
0.0
230
1.0
 70
     8
 71
     3
 72
     9
 73
     5
 74
     0
 42
0.00000001
 43
0.00000001
 40
0.0
 40
0.0
 40
0.0
 40
0.0
 40
0.5009404588735451
 40
1.0
 40
1.0
 40
1.0
 40
1.0
 10
2.786830086804035
 20
-13.20174727374246
 30
0.0
 10
2.850724028948451
 20
-13.16478339197637
 30
0.0
 10
2.978272005983673
 20
-13.0909944194322
 30
0.0
 10
3.105835526438438
 20
-13.01721893445316
 30
0.0
 10
3.169497318421068
 20
-12.98040057477314
 30
0.0
  0
SPLINE
  5
6E
330
1F
100
AcDbEntity
  8
0
  6
Continuous
 62
     7
370
    25
100
AcDbSpline
210
0.0
220
0.0
230
1.0
 70
     8
 71
     3
 72
     9
 73
     5
 74
     0
 42
0.00000001
 43
0.00000001
 40
0.0
 40
0.0
 40
0.0
 40
0.0
 40
0.5018993289146502
 40
0.9999999999999999
 40
0.9999999999999999
 40
0.9999999999999999
 40
0.9999999999999999
 10
2.786830086804035
 20
-12.4961917181869
 30
0.0
 10
2.850844600398551
 20
-12.45915622914309
 30
0.0
 10
2.978389129563286
 20
-12.38536555657156
 30
0.0
 10
3.105956116579804
 20
-12.31159178456336
 30
0.0
 10
3.169497318421068
 20
-12.27484501921758
 30
0.0
  0
SPLINE
  5
6F
330
1F
100
AcDbEntity
  8
0
  6
Continuous
 62
     7
370
    25
100
AcDbSpline
210
0.0
220
0.0
230
1.0
 70
     8
 71
     3
 72
     9
 73
     5
 74
     0
 42
0.00000001
 43
0.00000001
 40
0.0
 40
0.0
 40
0.0
 40
0.0
 40
0.5028253274996789
 40
1.0
 40
1.0
 40
1.0
 40
1.0
 10
2.786830086804035
 20
-11.79063616263135
 30
0.0
 10
2.850961018086224
 20
-11.75352799889904
 30
0.0
 10
2.97850218949277
 20
-11.67972868589144
 30
0.0
 10
3.106072560830491
 20
-11.60596359738311
 30
0.0
 10
3.169497318421068
 20
-11.56928946366202
 30
0.0
  0
SPLINE
  5
70
330
1F
100
AcDbEntity
  8
0
  6
Continuous
 62
     7
370
    25
100
AcDbSpline
210
0.0
220
0.0
230
1.0
 70
     8
 71
     3
 72
     9
 73
     5
 74
     0
 42
0.00000001
 43
0.00000001
 40
0.0
 40
0.0
 40
0.0
 40
0.0
 40
0.5037147127861352
 40
0.9999999999999999
 40
0.9999999999999999
 40
0.9999999999999999
 40
0.9999999999999999
 10
2.786830086804035
 20
-11.08508060707579
 30
0.0
 10
2.851073532560783
 20
-11.0478985492051
 30
0.0
 10
2.978612879985055
 20
-10.97408284176817
 30
0.0
 10
3.106185101717882
 20
-10.90033424943444
 30
0.0
 10
3.169497318421068
 20
-10.86373390810647
 30
0.0
  0
SPLINE
  5
71
330
1F
100
AcDbEntity
  8
0
  6
Continuous
 62
     7
370
    25
100
AcDbSpline
210
0.0
220
0.0
230
1.0
 70
     8
 71
     3
 72
     9
 73
     5
 74
     0
 42
0.00000001
 43
0.00000001
 40
0.0
 40
0.0
 40
0.0
 40
0.0
 40
0.5073832935272766
 40
1.0
 40
1.0
 40
1.0
 40
1.0
 10
-3.169496291676847
 20
-12.62762337462519
 30
0.0
 10
-3.105834513529329
 20
-12.66444170340256
 30
0.0
 10
-2.980363732445962
 20
-12.73700682181908
 30
0.0
 10
-2.854908150003127
 20
-12.80958522821222
 30
0.0
 10
-2.793106634171521
 20
-12.84533856373065
 30
0.0
  0
SPLINE
  5
72
330
1F
100
AcDbEntity
  8
0
  6
Continuous
 62
     7
370
    25
100
AcDbSpline
210
0.0
220
0.0
230
1.0
 70
     8
 71
     3
 72
     9
 73
     5
 74
     0
 42
0.00000001
 43
0.00000001
 40
0.0
 40
0.0
 40
0.0
 40
0.0
 40
0.5064078333291828
 40
1.0
 40
1.0
 40
1.0
 40
1.0
 10
-3.169496291676847
 20
-11.92206781906964
 30
0.0
 10
-3.105955113617161
 20
-11.95881454649333
 30
0.0
 10
-2.9804807945452
 20
-12.03137805164709
 30
0.0
 10
-2.855028372279548
 20
-12.10395822659959
 30
0.0
 10
-2.793106039359343
 20
-12.13978323241175
 30
0.0
  0
SPLINE
  5
73
330
1F
100
AcDbEntity
  8
0
  6
Continuous
 62
     7
370
    25
100
AcDbSpline
210
0.0
220
0.0
230
1.0
 70
     8
 71
     3
 72
     9
 73
     5
 74
     0
 42
0.00000001
 43
0.00000001
 40
0.0
 40
0.0
 40
0.0
 40
0.0
 40
0.5054652164934561
 40
1.0
 40
1.0
 40
1.0
 40
1.0
 10
-3.169496291676847
 20
-11.21651226351408
 30
0.0
 10
-3.106071568016015
 20
-11.25318633324281
 30
0.0
 10
-2.980593648682959
 20
-11.32574141424948
 30
0.0
 10
-2.855144155190771
 20
-11.39833022953551
 30
0.0
 10
-2.793105017085607
 20
-11.43422792358799
 30
0.0
  0
SPLINE
  5
74
330
1F
100
AcDbEntity
  8
0
  6
Continuous
 62
     7
370
    25
100
AcDbSpline
210
0.0
220
0.0
230
1.0
 70
     8
 71
     3
 72
     9
 73
     5
 74
     0
 42
0.00000001
 43
0.00000001
 40
0.0
 40
0.0
 40
0.0
 40
0.0
 40
0.0314154632834136
 40
1.0
 40
1.0
 40
1.0
 40
1.0
 10
-2.985616803875944
 20
-10.61727673263887
 30
0.0
 10
-2.983600502890374
 20
-10.61844255355837
 30
0.0
 10
-2.919418702756466
 20
-10.65555233319058
 30
0.0
 10
-2.855253239265839
 20
-10.69269592879439
 30
0.0
 10
-2.793103563537566
 20
-10.7286726411343
 30
0.0
  0
SPLINE
  5
75
330
1F
100
AcDbEntity
  8
0
  6
Continuous
 62
     7
370
    25
100
AcDbSpline
210
0.0
220
0.0
230
1.0
 70
     8
 71
     3
 72
     9
 73
     5
 74
     0
 42
0.00000001
 43
0.00000001
 40
0.0
 40
0.0
 40
0.0
 40
0.0
 40
0.5083875149698966
 40
1.0
 40
1.0
 40
1.0
 40
1.0
 10
-3.169496291676847
 20
-13.33317893018075
 30
0.0
 10
-3.105709495342082
 20
-13.37006794343702
 30
0.0
 10
-2.98024064637056
 20
-13.44262876007796
 30
0.0
 10
-2.854783235027824
 20
-13.51521138774399
 30
0.0
 10
-2.793106805272178
 20
-13.5508939137009
 30
0.0
  0
SPLINE
  5
76
330
1F
100
AcDbEntity
  8
0
  6
Continuous
 62
     7
370
    25
100
AcDbSpline
210
0.0
220
0.0
230
1.0
 70
     8
 71
     3
 72
     9
 73
     5
 74
     0
 42
0.00000001
 43
0.00000001
 40
0.0
 40
0.0
 40
0.0
 40
0.0
 40
0.6498331800630559
 40
1.0
 40
1.0
 40
1.0
 40
1.0
 10
2.786830086804035
 20
-13.90730282929801
 30
0.0
 10
2.850598744877716
 20
-13.87040909695899
 30
0.0
 10
2.948729557569511
 20
-13.81363493788105
 30
0.0
 10
3.046869306268202
 20
-13.75687784159875
 30
0.0
 10
3.081234589979434
 20
-13.73700338968472
 30
0.0
  0
SPLINE
  5
7A
330
1F
100
AcDbEntity
  8
0
  6
Continuous
 62
     7
370
    25
100
AcDbSpline
210
0.0
220
0.0
230
1.0
 70
     8
 71
     3
 72
     9
 73
     5
 74
     0
 42
0.00000001
 43
0.00000001
 40
0.0
 40
0.0
 40
0.0
 40
0.0
 40
0.5107187166194166
 40
1.0
 40
1.0
 40
1.0
 40
1.0
 10
2.793106795648721
 20
-13.37120152726719
 30
0.0
 10
2.793104549593371
 20
-13.34173517438192
 30
0.0
 10
2.793100151760913
 20
-13.28403931964545
 30
0.0
 10
2.793104500538147
 20
-13.22634507286108
 30
0.0
 10
2.793106628313453
 20
-13.19811635775074
 30
0.0
  0
SPLINE
  5
7B
330
1F
100
AcDbEntity
  8
0
  6
Continuous
 62
     7
370
    25
100
AcDbSpline
210
0.0
220
0.0
230
1.0
 70
     8
 71
     3
 72
     9
 73
     5
 74
     0
 42
0.00000001
 43
0.00000001
 40
0.0
 40
0.0
 40
0.0
 40
0.0
 40
0.5118689738588916
 40
0.9999999999999999
 40
0.9999999999999999
 40
0.9999999999999999
 40
0.9999999999999999
 10
2.793106795648721
 20
-12.66564597171163
 30
0.0
 10
2.793096628423886
 20
-12.63611046829553
 30
0.0
 10
2.793076765479745
 20
-12.57840917182227
 30
0.0
 10
2.793096435815612
 20
-12.52072060356893
 30
0.0
 10
2.793106037516845
 20
-12.49256102355083
 30
0.0
  0
SPLINE
  5
7C
330
1F
100
AcDbEntity
  8
0
  6
Continuous
 62
     7
370
    25
100
AcDbSpline
210
0.0
220
0.0
230
1.0
 70
     8
 71
     3
 72
     9
 73
     5
 74
     0
 42
0.00000001
 43
0.00000001
 40
0.0
 40
0.0
 40
0.0
 40
0.0
 40
0.5129683729200898
 40
1.0
 40
1.0
 40
1.0
 40
1.0
 10
2.793106795648721
 20
-11.96009041615607
 30
0.0
 10
2.793082998560608
 20
-11.93048403116923
 30
0.0
 10
2.79303660761456
 20
-11.87276822148236
 30
0.0
 10
2.793082613292268
 20
-11.81509459290202
 30
0.0
 10
2.793105019512338
 20
-11.78700571173494
 30
0.0
  0
SPLINE
  5
7D
330
1F
100
AcDbEntity
  8
0
  6
Continuous
 62
     7
370
    25
100
AcDbSpline
210
0.0
220
0.0
230
1.0
 70
     8
 71
     3
 72
     9
 73
     5
 74
     0
 42
0.00000001
 43
0.00000001
 40
0.0
 40
0.0
 40
0.0
 40
0.0
 40
0.5139952836529134
 40
1.0
 40
1.0
 40
1.0
 40
1.0
 10
2.793106795648721
 20
-11.25453486060052
 30
0.0
 10
2.793063629831055
 20
-11.22485518406986
 30
0.0
 10
2.792979648870455
 20
-11.1671120928887
 30
0.0
 10
2.793063041351598
 20
-11.10946647052206
 30
0.0
 10
2.793103570490741
 20
-11.08145042617511
 30
0.0
  0
SPLINE
  5
7E
330
1F
100
AcDbEntity
  8
0
  6
Continuous
 62
     7
370
    25
100
AcDbSpline
210
0.0
220
0.0
230
1.0
 70
     8
 71
     3
 72
     9
 73
     5
 74
     0
 42
0.00000001
 43
0.00000001
 40
0.0
 40
0.0
 40
0.0
 40
0.0
 40
0.7022119876852102
 40
1.0
 40
1.0
 40
1.0
 40
1.0
 10
2.793106795648721
 20
-10.54897930504496
 30
0.0
 10
2.793029994310165
 20
-10.51921747095997
 30
0.0
 10
2.792920623721363
 20
-10.476834494584
 30
0.0
 10
2.793005211398524
 20
-10.43458669689028
 30
0.0
 10
2.793030400594771
 20
-10.42200580919039
 30
0.0
  0
SPLINE
  5
7F
330
1F
100
AcDbEntity
  8
0
  6
Continuous
 62
     7
370
    25
100
AcDbSpline
210
0.0
220
0.0
230
1.0
 70
     8
 71
     3
 72
     9
 73
     5
 74
     0
 42
0.00000001
 43
0.00000001
 40
0.0
 40
0.0
 40
0.0
 40
0.0
 40
0.5084914079027887
 40
1.0
 40
1.0
 40
1.0
 40
1.0
 10
-2.793106805272178
 20
-12.84203308086199
 30
0.0
 10
-2.793104516851061
 20
-12.87136302471449
 30
0.0
 10
-2.793100016438503
 20
-12.92904333827861
 30
0.0
 10
-2.793104452523619
 20
-12.98672525943787
 30
0.0
 10
-2.793106632897568
 20
-13.01507641929631
 30
0.0
  0
SPLINE
  5
80
330
1F
100
AcDbEntity
  8
0
  6
Continuous
 62
     7
370
    25
100
AcDbSpline
210
0.0
220
0.0
230
1.0
 70
     8
 71
     3
 72
     9
 73
     5
 74
     0
 42
0.00000001
 43
0.00000001
 40
0.0
 40
0.0
 40
0.0
 40
0.0
 40
0.5073412390874557
 40
1.0
 40
1.0
 40
1.0
 40
1.0
 10
-2.793106805272178
 20
-12.13647752530643
 30
0.0
 10
-2.793096601401594
 20
-12.16573833619344
 30
0.0
 10
-2.793076488960896
 20
-12.22341314879026
 30
0.0
 10
-2.793096284738081
 20
-12.28110068686423
 30
0.0
 10
-2.79310603730114
 20
-12.30952095789184
 30
0.0
  0
SPLINE
  5
81
330
1F
100
AcDbEntity
  8
0
  6
Continuous
 62
     7
370
    25
100
AcDbSpline
210
0.0
220
0.0
230
1.0
 70
     8
 71
     3
 72
     9
 73
     5
 74
     0
 42
0.00000001
 43
0.00000001
 40
0.0
 40
0.0
 40
0.0
 40
0.0
 40
0.5062420967333284
 40
1.0
 40
1.0
 40
1.0
 40
1.0
 10
-2.793106805272178
 20
-11.43092196975088
 30
0.0
 10
-2.793083073834134
 20
-11.46011197538848
 30
0.0
 10
-2.793036196187655
 20
-11.51777214593922
 30
0.0
 10
-2.79308227097453
 20
-11.57547448888451
 30
0.0
 10
-2.793105020764692
 20
-11.60396547675075
 30
0.0
  0
SPLINE
  5
82
330
1F
100
AcDbEntity
  8
0
  6
Continuous
 62
     7
370
    25
100
AcDbSpline
210
0.0
220
0.0
230
1.0
 70
     8
 71
     3
 72
     9
 73
     5
 74
     0
 42
0.00000001
 43
0.00000001
 40
0.0
 40
0.0
 40
0.0
 40
0.0
 40
0.5052156560109045
 40
1.0
 40
1.0
 40
1.0
 40
1.0
 10
-2.793106805272178
 20
-10.72536641419532
 30
0.0
 10
-2.793063945458068
 20
-10.75448332247793
 30
0.0
 10
-2.792979110766979
 20
-10.81211595506992
 30
0.0
 10
-2.793062383503993
 20
-10.86984603773776
 30
0.0
 10
-2.79310358555055
 20
-10.89840997881901
 30
0.0
  0
SPLINE
  5
99
330
1F
100
AcDbEntity
  8
0
  6
Continuous
 62
     7
370
    25
100
AcDbSpline
210
0.0
220
0.0
230
1.0
 70
     8
 71
     3
 72
    11
 73
     7
 74
     0
 42
0.00000001
 43
0.00000001
 40
0.0
 40
0.0
 40
0.0
 40
0.0
 40
0.2097232834867098
 40
0.4695118757620946
 40
0.734755938986023
 40
1.0
 40
1.0
 40
1.0
 40
1.0
 10
3.10141535749828
 20
-10.72773500018501
 30
0.0
 10
3.105736745463489
 20
-10.73258227489757
 30
0.0
 10
3.115411126560854
 20
-10.74343396959159
 30
0.0
 10
3.110398816416316
 20
-10.76087460670482
 30
0.0
 10
3.091404621113683
 20
-10.78017803258263
 30
0.0
 10
3.064074743400873
 20
-10.7933926775459
 30
0.0
 10
3.050409804601395
 20
-10.80000000000001
 30
0.0
  0
SPLINE
  5
9A
330
1F
100
AcDbEntity
  8
0
  6
Continuous
 62
     7
370
    25
100
AcDbSpline
210
0.0
220
0.0
230
1.0
 70
     8
 71
     3
 72
    18
 73
    14
 74
     0
 42
0.00000001
 43
0.00000001
 40
0.0
 40
0.0
 40
0.0
 40
0.0
 40
0.1350066103230937
 40
0.2615118522879313
 40
0.3795152170987213
 40
0.489016232178445
 40
0.5900144617016988
 40
0.6825095073714639
 40
0.7665010095880772
 40
0.8419886492756293
 40
0.8996094015662806
 40
0.9572295448410097
 40
1.0
 40
1.0
 40
1.0
 40
1.0
 10
2.755859347252791
 20
-13.65
 30
0.0
 10
2.788488502395374
 20
-13.64748900134082
 30
0.0
 10
2.851692154272171
 20
-13.6426251216472
 30
0.0
 10
2.929912665756394
 20
-13.63561707145606
 30
0.0
 10
2.99401807593532
 20
-13.62912155006464
 30
0.0
 10
3.044917067355922
 20
-13.62314154854745
 30
0.0
 10
3.084592697924484
 20
-13.61767611265604
 30
0.0
 10
3.11468880782836
 20
-13.61272585372248
 30
0.0
 10
3.136797539677648
 20
-13.60828885093948
 30
0.0
 10
3.151789469075213
 20
-13.60453249277912
 30
0.0
 10
3.161860154600713
 20
-13.60128504212661
 30
0.0
 10
3.168308606182602
 20
-13.59861316510467
 30
0.0
 10
3.170637678786896
 20
-13.5969364005351
 30
0.0
 10
3.171629957914007
 20
-13.59622203101291
 30
0.0
  0
SPLINE
  5
9B
330
1F
100
AcDbEntity
  8
0
  6
Continuous
 62
     7
370
    25
100
AcDbSpline
210
0.0
220
0.0
230
1.0
 70
     8
 71
     3
 72
     9
 73
     5
 74
     0
 42
0.00000001
 43
0.00000001
 40
0.0
 40
0.0
 40
0.0
 40
0.0
 40
0.7312656326784551
 40
1.0
 40
1.0
 40
1.0
 40
1.0
 10
3.172774864959923
 20
-13.59547667516852
 30
0.0
 10
3.173753044209535
 20
-13.59451836417342
 30
0.0
 10
3.175090696638283
 20
-13.59320788142641
 30
0.0
 10
3.174801194141809
 20
-13.59191601736718
 30
0.0
 10
3.174723394871581
 20
-13.59156884909655
 30
0.0
  0
SPLINE
  5
9C
330
1F
100
AcDbEntity
  8
0
  6
Continuous
 62
     7
370
    25
100
AcDbSpline
210
0.0
220
0.0
230
1.0
 70
     8
 71
     3
 72
    76
 73
    72
 74
     0
 42
0.00000001
 43
0.00000001
 40
0.0
 40
0.0
 40
0.0
 40
0.0
 40
0.0237261982188855
 40
0.0498679606408062
 40
0.0778136356109437
 40
0.1010776729104433
 40
0.1232679626445216
 40
0.1454584108563597
 40
0.1787365081632629
 40
0.2116476982148298
 40
0.2438370888067491
 40
0.2763174672384765
 40
0.2893956212013777
 40
0.3025203935600758
 40
0.3163043030923298
 40
0.331379959988696
 40
0.3458004284971669
 40
0.3709612333869657
 40
0.3938400325359781
 40
0.4144365633253319
 40
0.4206885208631453
 40
0.4228191023435071
 40
0.4264555653302952
 40
0.431597890863368
 40
0.4382460520784079
 40
0.4464000142313247
 40
0.4589552381383019
 40
0.4739492303361815
 40
0.4913817851802901
 40
0.5004467031217018
 40
0.5100536892716165
 40
0.5202027371220054
 40
0.5308938397976104
 40
0.5384994035003045
 40
0.5633819671747966
 40
0.5865574752449594
 40
0.6080257792468813
 40
0.6247404757261248
 40
0.6402502506109365
 40
0.6466319282367203
 40
0.656193327256691
 40
0.6653042424882566
 40
0.6739646696692945
 40
0.6821746047489994
 40
0.7030373834728156
 40
0.7202655740529664
 40
0.7338586514137044
 40
0.7438162015569617
 40
0.7491644857593672
 40
0.7540938640802743
 40
0.7619033673820095
 40
0.7713839649228722
 40
0.7825355961539625
 40
0.7931052537566408
 40
0.8048353279657949
 40
0.8177257824485599
 40
0.8317765772489741
 40
0.8469876687944392
 40
0.8633590098999517
 40
0.8926632573422286
 40
0.9197180139848421
 40
0.9445229718148196
 40
0.9514037467141133
 40
0.9580890666240072
 40
0.9645789312991685
 40
0.9708733405434318
 40
0.9769722942138936
 40
0.9828757922256962
 40
0.9885838345576103
 40
0.9940964212586336
 40
1.0
 40
1.0
 40
1.0
 40
1.0
 10
-3.169458200334263
 20
-13.23288230825761
 30
0.0
 10
-3.16352789983027
 20
-13.23032735022497
 30
0.0
 10
-3.151063534937381
 20
-13.22495731388645
 30
0.0
 10
-3.107584108733045
 20
-13.21623727335567
 30
0.0
 10
-3.045807409307436
 20
-13.20737264015831
 30
0.0
 10
-2.969223409941441
 20
-13.19878282825556
 30
0.0
 10
-2.884685487896607
 20
-13.19083320610998
 30
0.0
 10
-2.772321641131384
 20
-13.18165177502287
 30
0.0
 10
-2.623353408244699
 20
-13.17115337293169
 30
0.0
 10
-2.431268320099345
 20
-13.15927919872259
 30
0.0
 10
-2.216998693600096
 20
-13.14788797027801
 30
0.0
 10
-2.029062429116744
 20
-13.13915891038264
 30
0.0
 10
-1.879139842086722
 20
-13.13274870225426
 30
0.0
 10
-1.773941829766691
 20
-13.12844407211444
 30
0.0
 10
-1.660400997492744
 20
-13.12401500118494
 30
0.0
 10
-1.540151993505549
 20
-13.11942492569134
 30
0.0
 10
-1.384490777854441
 20
-13.11357791803844
 30
0.0
 10
-1.201165713452631
 20
-13.10680957206571
 30
0.0
 10
-0.9936932313690268
 20
-13.09923210808042
 30
0.0
 10
-0.8400878969315135
 20
-13.09359840544799
 30
0.0
 10
-0.7496436750866935
 20
-13.09027130992679
 30
0.0
 10
-0.7120187184852536
 20
-13.08886092340133
 30
0.0
 10
-0.6777981186102169
 20
-13.08757521749244
 30
0.0
 10
-0.6292643667978864
 20
-13.08575446741476
 30
0.0
 10
-0.5662885134135983
 20
-13.08339794522721
 30
0.0
 10
-0.4795502130672857
 20
-13.08016351816889
 30
0.0
 10
-0.3657834890369569
 20
-13.07593988316353
 30
0.0
 10
-0.2217386567449418
 20
-13.07061653044886
 30
0.0
 10
-0.0883823526366707
 20
-13.06570432568988
 30
0.0
 10
0.0277312961620885
 20
-13.0614299381225
 30
0.0
 10
0.120402698247367
 20
-13.0580173614655
 30
0.0
 10
0.2181919791304073
 20
-13.05441212570908
 30
0.0
 10
0.3093588544866248
 20
-13.05104297790628
 30
0.0
 10
0.4473457420065156
 20
-13.0459315007511
 30
0.0
 10
0.6242091503520723
 20
-13.03939491884782
 30
0.0
 10
0.8418398088714286
 20
-13.03134582611233
 30
0.0
 10
1.030344766503807
 20
-13.02436060245039
 30
0.0
 10
1.191985312417074
 20
-13.01836178374705
 30
0.0
 10
1.305927893945926
 20
-13.01413149434112
 30
0.0
 10
1.397334855157197
 20
-13.01074802110841
 30
0.0
 10
1.469296295856483
 20
-13.00804932830874
 30
0.0
 10
1.546645721283935
 20
-13.0051046737254
 30
0.0
 10
1.619071463060965
 20
-13.00230387285579
 30
0.0
 10
1.722664733020892
 20
-12.99823401481588
 30
0.0
 10
1.846315375527014
 20
-12.99323296710694
 30
0.0
 10
1.978694223590177
 20
-12.98763637176322
 30
0.0
 10
2.07929445565212
 20
-12.98320576731404
 30
0.0
 10
2.148396853593831
 20
-12.98004195331383
 30
0.0
 10
2.195751594262929
 20
-12.97781111953515
 30
0.0
 10
2.23744890497858
 20
-12.97573477834914
 30
0.0
 10
2.287701304838077
 20
-12.97315879901091
 30
0.0
 10
2.35029756191184
 20
-12.96983808210623
 30
0.0
 10
2.416644888160456
 20
-12.96617673977831
 30
0.0
 10
2.485070519426662
 20
-12.96223823019654
 30
0.0
 10
2.554055952094362
 20
-12.95808448583709
 30
0.0
 10
2.626127510995715
 20
-12.9535104972354
 30
0.0
 10
2.700101730057998
 20
-12.94851575759643
 30
0.0
 10
2.77464256666373
 20
-12.94310224427235
 30
0.0
 10
2.86589081445964
 20
-12.93586164411417
 30
0.0
 10
2.960372409038553
 20
-12.92725218378722
 30
0.0
 10
3.04492864099986
 20
-12.91778778194524
 30
0.0
 10
3.091848253768307
 20
-12.91104491948086
 30
0.0
 10
3.11667731001592
 20
-12.90670003446573
 30
0.0
 10
3.128351340441376
 20
-12.90444311326353
 30
0.0
 10
3.138447326811915
 20
-12.9022667796969
 30
0.0
 10
3.147078922227094
 20
-12.90017105246725
 30
0.0
 10
3.154324237849377
 20
-12.89815575431218
 30
0.0
 10
3.160376405328627
 20
-12.89622153596075
 30
0.0
 10
3.165009198224521
 20
-12.8943660725448
 30
0.0
 10
3.169629876308291
 20
-12.89253488638756
 30
0.0
 10
3.169694552377734
 20
-12.89131042639244
 30
0.0
 10
3.169727997957212
 20
-12.89067722814095
 30
0.0
  0
SPLINE
  5
9D
330
1F
100
AcDbEntity
  8
0
  6
Continuous
 62
     7
370
    25
100
AcDbSpline
210
0.0
220
0.0
230
1.0
 70
     8
 71
     3
 72
    47
 73
    43
 74
     0
 42
0.00000001
 43
0.00000001
 40
0.0
 40
0.0
 40
0.0
 40
0.0
 40
0.0167818308423223
 40
0.0420160985691136
 40
0.0690498488040564
 40
0.0971200802767132
 40
0.1299221413990923
 40
0.1627245101784512
 40
0.1845981021070993
 40
0.2063798305853731
 40
0.2273747488794849
 40
0.2591141025419034
 40
0.2911581152835709
 40
0.3233291719121255
 40
0.3550875923567402
 40
0.3867573927851509
 40
0.4183386115334904
 40
0.4509066066058968
 40
0.4837019756393554
 40
0.5164977451428834
 40
0.5488415356809472
 40
0.5805929680938842
 40
0.6126268986743576
 40
0.6287547962772208
 40
0.644953403705859
 40
0.6629521686558257
 40
0.6805614152824352
 40
0.7027163593246288
 40
0.7233605565729037
 40
0.7424939036469301
 40
0.765373933166943
 40
0.7916030020756145
 40
0.8178323826200772
 40
0.8440620775738572
 40
0.8702920897103815
 40
0.892107225166559
 40
0.9137143479336448
 40
0.9351134717709273
 40
0.9563046109287725
 40
0.977287780167233
 40
0.9980629947755797
 40
1.0
 40
1.0
 40
1.0
 40
1.0
 10
-3.167979016376983
 20
-12.52729626417506
 30
0.0
 10
-3.164644644311178
 20
-12.52547781000637
 30
0.0
 10
-3.156296490483427
 20
-12.5209250082106
 30
0.0
 10
-3.121156127991258
 20
-12.51312104405272
 30
0.0
 10
-3.062088492956186
 20
-12.50384825729731
 30
0.0
 10
-2.973182464477529
 20
-12.49343610280711
 30
0.0
 10
-2.851758892102447
 20
-12.48224889523997
 30
0.0
 10
-2.712369112190759
 20
-12.47172836582395
 30
0.0
 10
-2.57277470577226
 20
-12.46249568663478
 30
0.0
 10
-2.443227058124616
 20
-12.45461183622402
 30
0.0
 10
-2.28160418569569
 20
-12.44566619230805
 30
0.0
 10
-2.081310127048287
 20
-12.43585395246148
 30
0.0
 10
-1.834441434546397
 20
-12.42514139165936
 30
0.0
 10
-1.569587286505642
 20
-12.41499762069265
 30
0.0
 10
-1.290595564701844
 20
-12.40462995347035
 30
0.0
 10
-1.001017666854311
 20
-12.39396594915569
 30
0.0
 10
-0.6993825478816623
 20
-12.38285319634563
 30
0.0
 10
-0.3872827162905714
 20
-12.37131047444742
 30
0.0
 10
-0.0673330182038109
 20
-12.35955928992714
 30
0.0
 10
0.2525674946353572
 20
-12.34774002781513
 30
0.0
 10
0.566511942948216
 20
-12.33585894216745
 30
0.0
 10
0.872435822029387
 20
-12.32449636596471
 30
0.0
 10
1.119778536460952
 20
-12.31540494488708
 30
0.0
 10
1.313149613604357
 20
-12.30829085719479
 30
0.0
 10
1.460985758986958
 20
-12.30284604229712
 30
0.0
 10
1.609093656936966
 20
-12.29731365642584
 30
0.0
 10
1.768973857544343
 20
-12.29104491726697
 30
0.0
 10
1.929512181197077
 20
-12.28440920208203
 30
0.0
 10
2.085968385742404
 20
-12.27748055201217
 30
0.0
 10
2.235998260710844
 20
-12.27033946007054
 30
0.0
 10
2.389294631362399
 20
-12.26231632892697
 30
0.0
 10
2.544583555567585
 20
-12.2533742788302
 30
0.0
 10
2.690136823511186
 20
-12.24395133284019
 30
0.0
 10
2.818103922491447
 20
-12.23445512831031
 30
0.0
 10
2.921506816991841
 20
-12.22537369428679
 30
0.0
 10
3.002943071112265
 20
-12.21691591257428
 30
0.0
 10
3.065374903614606
 20
-12.20925906012261
 30
0.0
 10
3.113710642759125
 20
-12.20184694202219
 30
0.0
 10
3.148559744880235
 20
-12.19469932206842
 30
0.0
 10
3.168593416281472
 20
-12.18778235633923
 30
0.0
 10
3.176520814172935
 20
-12.18317475745553
 30
0.0
 10
3.17467130369129
 20
-12.18075188406681
 30
0.0
 10
3.174513568714615
 20
-12.18054524999728
 30
0.0
  0
SPLINE
  5
9E
330
1F
100
AcDbEntity
  8
0
  6
Continuous
 62
     7
370
    25
100
AcDbSpline
210
0.0
220
0.0
230
1.0
 70
     8
 71
     3
 72
    53
 73
    49
 74
     0
 42
0.00000001
 43
0.00000001
 40
0.0
 40
0.0
 40
0.0
 40
0.0
 40
0.0104966595393384
 40
0.0355436384336126
 40
0.0624402552671603
 40
0.0911863193258906
 40
0.1181949871471093
 40
0.151474571164308
 40
0.1847544230149217
 40
0.2176901423912555
 40
0.249326537065154
 40
0.2707363413652564
 40
0.2923976576735843
 40
0.3143105024084545
 40
0.3346818496841
 40
0.3540305160624069
 40
0.3746730463156959
 40
0.3910053050452381
 40
0.4080654784231804
 40
0.4258535505797454
 40
0.4438697220689601
 40
0.477149098275076
 40
0.5104287327120802
 40
0.5437086268661181
 40
0.5756799668181566
 40
0.6073737688336269
 40
0.6398775092594732
 40
0.6728140260867617
 40
0.701566085644213
 40
0.7332464192757582
 40
0.7678544496102702
 40
0.8027734395569058
 40
0.8360528062165213
 40
0.8455649610405802
 40
0.8550771363076507
 40
0.8645893320500857
 40
0.8741015483002379
 40
0.8836137850904564
 40
0.8931260424530972
 40
0.9026383204205104
 40
0.9195679115325481
 40
0.939740333844774
 40
0.9631551172889045
 40
0.970674159246163
 40
0.978474821690667
 40
0.9865571034109945
 40
0.9949210031224143
 40
1.0
 40
1.0
 40
1.0
 40
1.0
 10
-3.167705076886525
 20
-11.82173250065286
 30
0.0
 10
-3.166174067554989
 20
-11.82062045492572
 30
0.0
 10
-3.160989785649428
 20
-11.81685486158635
 30
0.0
 10
-3.132930777387764
 20
-11.80993821149647
 30
0.0
 10
-3.080434990921335
 20
-11.80082377917649
 30
0.0
 10
-3.003718652450701
 20
-11.7912365835202
 30
0.0
 10
-2.898506358708519
 20
-11.78076307515139
 30
0.0
 10
-2.762589035779243
 20
-11.76971115782005
 30
0.0
 10
-2.589955056429285
 20
-11.75791075934359
 30
0.0
 10
-2.394366077578864
 20
-11.74613621978967
 30
0.0
 10
-2.202057298159298
 20
-11.73610154193867
 30
0.0
 10
-2.021735909809236
 20
-11.72770727828099
 30
0.0
 10
-1.856159535805955
 20
-11.72060476891133
 30
0.0
 10
-1.685263861472096
 20
-11.71379564922991
 30
0.0
 10
-1.51380582107409
 20
-11.70745900238264
 30
0.0
 10
-1.340320350405315
 20
-11.70101591313986
 30
0.0
 10
-1.173778401977416
 20
-11.69484097841916
 30
0.0
 10
-1.01045774486818
 20
-11.68879341814562
 30
0.0
 10
-0.8531003013579543
 20
-11.68297242627639
 30
0.0
 10
-0.6881391626232104
 20
-11.6768748721401
 30
0.0
 10
-0.4699707865609912
 20
-11.66878988657035
 30
0.0
 10
-0.1992811332761708
 20
-11.65882849403187
 30
0.0
 10
0.1222382905136965
 20
-11.64700774179527
 30
0.0
 10
0.4383292301683291
 20
-11.63527908849873
 30
0.0
 10
0.7450037868936777
 20
-11.62365256313262
 30
0.0
 10
1.042219042882444
 20
-11.61268463367396
 30
0.0
 10
1.332459647747692
 20
-11.601997188308
 30
0.0
 10
1.601317689812808
 20
-11.59219808717159
 30
0.0
 10
1.853475507580012
 20
-11.5823336695505
 30
0.0
 10
2.093855621888778
 20
-11.57177411546911
 30
0.0
 10
2.328306313136022
 20
-11.56019707777931
 30
0.0
 10
2.540846964380421
 20
-11.54811203654749
 30
0.0
 10
2.680786881608822
 20
-11.53894359478312
 30
0.0
 10
2.765543926184372
 20
-11.5327511710497
 30
0.0
 10
2.809481539993142
 20
-11.52936726455428
 30
0.0
 10
2.851071731306283
 20
-11.52597792352318
 30
0.0
 10
2.890281287119918
 20
-11.52258354291937
 30
0.0
 10
2.927076985585283
 20
-11.51918260611708
 30
0.0
 10
2.961428488280252
 20
-11.51578078467342
 30
0.0
 10
3.001591632289801
 20
-11.51146697530087
 30
0.0
 10
3.047994515737242
 20
-11.50600346868281
 30
0.0
 10
3.097719371833791
 20
-11.49916031467845
 30
0.0
 10
3.129115664554543
 20
-11.49350419558382
 30
0.0
 10
3.147109003416707
 20
-11.48926834829675
 30
0.0
 10
3.156266856059435
 20
-11.48672182295462
 30
0.0
 10
3.163795672346704
 20
-11.48409635264767
 30
0.0
 10
3.169058100536885
 20
-11.48177435278695
 30
0.0
 10
3.170897755208554
 20
-11.48033188695849
 30
0.0
 10
3.171592813767651
 20
-11.47978689433802
 30
0.0
  0
SPLINE
  5
9F
330
1F
100
AcDbEntity
  8
0
  6
Continuous
 62
     7
370
    25
100
AcDbSpline
210
0.0
220
0.0
230
1.0
 70
     8
 71
     3
 72
     9
 73
     5
 74
     0
 42
0.00000001
 43
0.00000001
 40
0.0
 40
0.0
 40
0.0
 40
0.0
 40
0.8059838412152224
 40
1.0
 40
1.0
 40
1.0
 40
1.0
 10
3.173202073114616
 20
-11.47863802877474
 30
0.0
 10
3.174097553185316
 20
-11.47768181394971
 30
0.0
 10
3.17520859291702
 20
-11.47649541941408
 30
0.0
 10
3.174847670758
 20
-11.47531559098772
 30
0.0
 10
3.174777646027087
 20
-11.47508668520841
 30
0.0
  0
SPLINE
  5
A0
330
1F
100
AcDbEntity
  8
0
  6
Continuous
 62
     7
370
    25
100
AcDbSpline
210
0.0
220
0.0
230
1.0
 70
     8
 71
     3
 72
    52
 73
    48
 74
     0
 42
0.00000001
 43
0.00000001
 40
0.0
 40
0.0
 40
0.0
 40
0.0
 40
0.004496857146158
 40
0.0379840461822673
 40
0.0746439624026788
 40
0.1008535436349889
 40
0.1254161284175881
 40
0.1494754691580434
 40
0.1700988812718847
 40
0.1907223721393877
 40
0.2113459419822215
 40
0.2319695910220516
 40
0.2492573938595548
 40
0.2669766966217442
 40
0.2859094147079596
 40
0.3060555052134839
 40
0.3274149197049627
 40
0.3499876046545999
 40
0.3699646171995495
 40
0.3876528444174153
 40
0.406469121328272
 40
0.4264134109799667
 40
0.4511060714487698
 40
0.4773336946327338
 40
0.5026235216846563
 40
0.5386934948303149
 40
0.574763589012482
 40
0.5988160694090813
 40
0.6208333091282869
 40
0.6373644065215799
 40
0.6572349193323985
 40
0.6804444281730015
 40
0.7069924347087555
 40
0.7215211951453518
 40
0.7368849069781677
 40
0.7489252242943358
 40
0.7588896730864187
 40
0.7692735549438019
 40
0.7800768683228398
 40
0.8029388528056982
 40
0.8274778432687806
 40
0.8536937143013863
 40
0.8798257612108882
 40
0.9038640120325128
 40
0.9279022633935053
 40
0.9639511310897934
 40
1.0
 40
1.0
 40
1.0
 40
1.0
 10
-3.168124984572357
 20
-11.11618550777607
 30
0.0
 10
-3.167842798485243
 20
-11.1157512099834
 30
0.0
 10
-3.1654592294688
 20
-11.11208278404113
 30
0.0
 10
-3.13385139563949
 20
-11.10443583913521
 30
0.0
 10
-3.074671313384622
 20
-11.09438297297464
 30
0.0
 10
-2.996582835272949
 20
-11.08500742854612
 30
0.0
 10
-2.915313302073637
 20
-11.07688534309136
 30
0.0
 10
-2.827161338476169
 20
-11.06935866002293
 30
0.0
 10
-2.733283041476064
 20
-11.06223569809139
 30
0.0
 10
-2.635210165367515
 20
-11.05546814239095
 30
0.0
 10
-2.528341571794118
 20
-11.04868515060496
 30
0.0
 10
-2.419245829422751
 20
-11.04223649743808
 30
0.0
 10
-2.308912568620268
 20
-11.03613579406674
 30
0.0
 10
-2.196219537606468
 20
-11.03041642212961
 30
0.0
 10
-2.071560581318163
 20
-11.02452401776581
 30
0.0
 10
-1.932495769968498
 20
-11.01838872162273
 30
0.0
 10
-1.778314936168041
 20
-11.0120096014184
 30
0.0
 10
-1.617987079812869
 20
-11.00574874803573
 30
0.0
 10
-1.461468713394108
 20
-10.99996462783323
 30
0.0
 10
-1.310669608619879
 20
-10.99436296714863
 30
0.0
 10
-1.156414536145545
 20
-10.98864017060361
 30
0.0
 10
-0.9792927013733761
 20
-10.98207759948994
 30
0.0
 10
-0.7773597916182261
 20
-10.97460889126919
 30
0.0
 10
-0.5562209887053967
 20
-10.96643491402934
 30
0.0
 10
-0.2988334382824218
 20
-10.95690203157704
 30
0.0
 10
-0.0098363423571661
 20
-10.94629317955774
 30
0.0
 10
0.2755812496802022
 20
-10.93577691287243
 30
0.0
 10
0.5172017435920871
 20
-10.92680975175672
 30
0.0
 10
0.6993826427073284
 20
-10.91989281211099
 30
0.0
 10
0.867270556324175
 20
-10.91367366431832
 30
0.0
 10
1.036171418402968
 20
-10.90752534697997
 30
0.0
 10
1.229429465647963
 20
-10.90048495129544
 30
0.0
 10
1.4027869956968
 20
-10.89408876280228
 30
0.0
 10
1.550588840753877
 20
-10.88852719101189
 30
0.0
 10
1.657869302137329
 20
-10.88441631250153
 30
0.0
 10
1.751233907831802
 20
-10.88077721464578
 30
0.0
 10
1.830515750178302
 20
-10.87756152564294
 30
0.0
 10
1.905252013431022
 20
-10.87442786389835
 30
0.0
 10
2.008600380755797
 20
-10.86994081717429
 30
0.0
 10
2.140107417048355
 20
-10.86390777011906
 30
0.0
 10
2.296668397791645
 20
-10.85612915546989
 30
0.0
 10
2.448487584992389
 20
-10.84787423573339
 30
0.0
 10
2.5864774041935
 20
-10.83954467630497
 30
0.0
 10
2.708000289549894
 20
-10.83145342928327
 30
0.0
 10
2.83105638121192
 20
-10.82228121464916
 30
0.0
 10
2.952444376690963
 20
-10.8117951256078
 30
0.0
 10
3.017754661598019
 20
-10.80393170858008
 30
0.0
 10
3.050409804601365
 20
-10.80000000000001
 30
0.0
  0
SPLINE
  5
A1
330
1F
100
AcDbEntity
  8
0
  6
Continuous
 62
     7
370
    25
100
AcDbSpline
210
0.0
220
0.0
230
1.0
 70
     8
 71
     3
 72
    39
 73
    35
 74
     0
 42
0.00000001
 43
0.00000001
 40
0.0
 40
0.0
 40
0.0
 40
0.0
 40
0.0306185418439591
 40
0.0612370836883589
 40
0.0926326855959953
 40
0.1240282875053704
 40
0.154646829328251
 40
0.1852653711529655
 40
0.2166689193853581
 40
0.2480713807428139
 40
0.2804754545561732
 40
0.3128795283669228
 40
0.3462572354530473
 40
0.3796349425368573
 40
0.4115253243218224
 40
0.4434157061066043
 40
0.4762325725964413
 40
0.5090494390882189
 40
0.5409398191023966
 40
0.5728301991191822
 40
0.6056524364726331
 40
0.6384731891793589
 40
0.6701902331453929
 40
0.7019072771086735
 40
0.734583150106003
 40
0.7672590231005681
 40
0.7983829725243123
 40
0.8295069219475086
 40
0.8615350895923091
 40
0.8935632572388714
 40
0.9246872043017966
 40
0.9558111513674982
 40
0.9878421485716519
 40
1.0
 40
1.0
 40
1.0
 40
1.0
 10
2.755859347252819
 20
-13.65
 30
0.0
 10
2.711633888952567
 20
-13.65193735186769
 30
0.0
 10
2.623182972351426
 20
-13.65581205560309
 30
0.0
 10
2.469146023607765
 20
-13.66165353860857
 30
0.0
 10
2.299739231879622
 20
-13.66748272431166
 30
0.0
 10
2.115746323632732
 20
-13.67321344788543
 30
0.0
 10
1.920436135982304
 20
-13.67876125888444
 30
0.0
 10
1.713608168613967
 20
-13.68414358131585
 30
0.0
 10
1.494483348398507
 20
-13.68935951680758
 30
0.0
 10
1.261660055456494
 20
-13.69477873315653
 30
0.0
 10
1.018042105610553
 20
-13.70055336557055
 30
0.0
 10
0.7626751111224124
 20
-13.7066059870396
 30
0.0
 10
0.4996388635606709
 20
-13.71287143318017
 30
0.0
 10
0.2348140322947021
 20
-13.71920341174032
 30
0.0
 10
-0.0271348603654371
 20
-13.72549282927663
 30
0.0
 10
-0.2868669076535317
 20
-13.7317538069588
 30
0.0
 10
-0.5465184235929409
 20
-13.73803827541466
 30
0.0
 10
-0.801692946643784
 20
-13.74424113604463
 30
0.0
 10
-1.048190104378317
 20
-13.75025155746148
 30
0.0
 10
-1.286900830546488
 20
-13.75611587611661
 30
0.0
 10
-1.518193585908328
 20
-13.76173788006285
 30
0.0
 10
-1.737489364628429
 20
-13.76734059680437
 30
0.0
 10
-1.941063664791458
 20
-13.77318459042501
 30
0.0
 10
-2.130084927782023
 20
-13.77920011931426
 30
0.0
 10
-2.304819592383041
 20
-13.78544185814401
 30
0.0
 10
-2.461035376859048
 20
-13.79176007579029
 30
0.0
 10
-2.596638525067124
 20
-13.7980440078342
 30
0.0
 10
-2.713037357316902
 20
-13.80430711134766
 30
0.0
 10
-2.810839706365392
 20
-13.81060837867542
 30
0.0
 10
-2.888010979406131
 20
-13.81684335012324
 30
0.0
 10
-2.944017222853029
 20
-13.82289858766405
 30
0.0
 10
-2.977918532984466
 20
-13.82882755190388
 30
0.0
 10
-2.992175954428936
 20
-13.83332064137802
 30
0.0
 10
-2.987088082106393
 20
-13.8359393936468
 30
0.0
 10
-2.985688235817156
 20
-13.83665990124084
 30
0.0
  0
SPLINE
  5
A2
330
1F
100
AcDbEntity
  8
0
  6
Continuous
 62
     7
370
    25
100
AcDbSpline
210
0.0
220
0.0
230
1.0
 70
     8
 71
     3
 72
    36
 73
    32
 74
     0
 42
0.00000001
 43
0.00000001
 40
0.0
 40
0.0
 40
0.0
 40
0.0
 40
0.0305521592458593
 40
0.0653194808075317
 40
0.1005727842183778
 40
0.1361169839523466
 40
0.1717470227130928
 40
0.2072548536198902
 40
0.2424366795334068
 40
0.2770998276457333
 40
0.3110686948242535
 40
0.3445497741246918
 40
0.378719099335087
 40
0.4135379962907735
 40
0.4488258166599342
 40
0.4843863045198584
 40
0.5200138369496884
 40
0.5555004546640757
 40
0.5906430937671778
 40
0.6252503979531975
 40
0.6591485563467958
 40
0.6926563921320741
 40
0.7268913622825898
 40
0.761760354681681
 40
0.7970810836208998
 40
0.8326561741107559
 40
0.868279495478149
 40
0.9037432355714683
 40
0.9388451198013888
 40
0.9733951563603829
 40
1.0
 40
1.0
 40
1.0
 40
1.0
 10
-2.785654123086821
 20
-13.717099348083
 30
0.0
 10
-2.77821860595957
 20
-13.71380550464877
 30
0.0
 10
-2.762321722391401
 20
-13.70676337904141
 30
0.0
 10
-2.700468167869465
 20
-13.69532218509401
 30
0.0
 10
-2.607780620962727
 20
-13.68302333489398
 30
0.0
 10
-2.483426342575901
 20
-13.67040320213122
 30
0.0
 10
-2.330067266558396
 20
-13.65769568916054
 30
0.0
 10
-2.150149261208422
 20
-13.64511687391253
 30
0.0
 10
-1.947328067609536
 20
-13.63288214490911
 30
0.0
 10
-1.725814683704505
 20
-13.62118403177388
 30
0.0
 10
-1.489385694204712
 20
-13.61015511432034
 30
0.0
 10
-1.238438848800552
 20
-13.59974134453298
 30
0.0
 10
-0.9722225759566454
 20
-13.58849205580445
 30
0.0
 10
-0.6905769634854677
 20
-13.57664587228218
 30
0.0
 10
-0.3973233662313416
 20
-13.56429649993767
 30
0.0
 10
-0.0972261609966171
 20
-13.55166291054512
 30
0.0
 10
0.204564273090205
 20
-13.53895715927712
 30
0.0
 10
0.5028006311524588
 20
-13.52640059612863
 30
0.0
 10
0.7924385944753828
 20
-13.51420864427692
 30
0.0
 10
1.068912452019721
 20
-13.50256112424912
 30
0.0
 10
1.329561060658173
 20
-13.49161552183248
 30
0.0
 10
1.575284668509384
 20
-13.48116680072789
 30
0.0
 10
1.806558541287368
 20
-13.46985103609881
 30
0.0
 10
2.021931667569788
 20
-13.45795466987764
 30
0.0
 10
2.217047218683967
 20
-13.44557029790459
 30
0.0
 10
2.387900001789641
 20
-13.43292107176984
 30
0.0
 10
2.531103919665329
 20
-13.42022068582626
 30
0.0
 10
2.644633312453285
 20
-13.40768496319637
 30
0.0
 10
2.725971502126015
 20
-13.39554803287461
 30
0.0
 10
2.775674175991611
 20
-13.38472574890198
 30
0.0
 10
2.784486049532117
 20
-13.37824555320329
 30
0.0
 10
2.788319570535769
 20
-13.37542640626428
 30
0.0
  0
SPLINE
  5
A3
330
1F
100
AcDbEntity
  8
0
  6
Continuous
 62
     7
370
    25
100
AcDbSpline
210
0.0
220
0.0
230
1.0
 70
     8
 71
     3
 72
    36
 73
    32
 74
     0
 42
0.00000001
 43
0.00000001
 40
0.0
 40
0.0
 40
0.0
 40
0.0
 40
0.0305436942750844
 40
0.065311085862895
 40
0.1005644602787132
 40
0.1361087316035592
 40
0.1717388421280739
 40
0.2072467445524965
 40
0.2424286413270198
 40
0.2770918592556649
 40
0.3110607948521271
 40
0.3445419415880359
 40
0.3787113356201229
 40
0.4135303027058275
 40
0.4488181941494822
 40
0.4843787536330899
 40
0.5200063578216404
 40
0.5554930470109266
 40
0.5906357568961078
 40
0.6252431307859688
 40
0.6591413574550918
 40
0.6926492607297319
 40
0.7268842998341573
 40
0.7617533624641656
 40
0.7970741625441607
 40
0.8326493246871122
 40
0.868272717804744
 40
0.9037365293268836
 40
0.9388384842567974
 40
0.9733885904042879
 40
1.0
 40
1.0
 40
1.0
 40
1.0
 10
-2.785646415623857
 20
-13.01154101106341
 30
0.0
 10
-2.778212728281814
 20
-13.00824808294683
 30
0.0
 10
-2.762317395258193
 20
-13.0012068681866
 30
0.0
 10
-2.700467904987174
 20
-12.98976662532981
 30
0.0
 10
-2.607780692460435
 20
-12.97746778048307
 30
0.0
 10
-2.483426323297293
 20
-12.96484764626702
 30
0.0
 10
-2.330067271711399
 20
-12.95214013368749
 30
0.0
 10
-2.150149259843021
 20
-12.93956131833511
 30
0.0
 10
-1.947328067968244
 20
-12.9273265893593
 30
0.0
 10
-1.725814683611082
 20
-12.91562847621683
 30
0.0
 10
-1.489385694229116
 20
-12.90459955876517
 30
0.0
 10
-1.238438848793909
 20
-12.89418578897732
 30
0.0
 10
-0.9722225759584783
 20
-12.88293650024893
 30
0.0
 10
-0.6905769634849654
 20
-12.87109031672662
 30
0.0
 10
-0.397323366231476
 20
-12.85874094438212
 30
0.0
 10
-0.0972261609965884
 20
-12.84610735498956
 30
0.0
 10
0.2045642730902264
 20
-12.83340160372156
 30
0.0
 10
0.5028006311523434
 20
-12.82084504057308
 30
0.0
 10
0.7924385944758179
 20
-12.80865308872136
 30
0.0
 10
1.068912452018135
 20
-12.79700556869359
 30
0.0
 10
1.329561060663932
 20
-12.78605996627683
 30
0.0
 10
1.57528466848796
 20
-12.77561124517271
 30
0.0
 10
1.806558541369934
 20
-12.76429548054183
 30
0.0
 10
2.021931667253785
 20
-12.75239911432757
 30
0.0
 10
2.217047219883175
 20
-12.74001474232821
 30
0.0
 10
2.387899997277816
 20
-12.72736551629267
 30
0.0
 10
2.531103936492558
 20
-12.71466512997834
 30
0.0
 10
2.644633250239689
 20
-12.70212940872173
 30
0.0
 10
2.725971730183647
 20
-12.68999247335677
 30
0.0
 10
2.775676783255244
 20
-12.67916947427772
 30
0.0
 10
2.784489167173736
 20
-12.67268859594176
 30
0.0
 10
2.78832344032933
 20
-12.66986876216487
 30
0.0
  0
SPLINE
  5
A4
330
1F
100
AcDbEntity
  8
0
  6
Continuous
 62
     7
370
    25
100
AcDbSpline
210
0.0
220
0.0
230
1.0
 70
     8
 71
     3
 72
    36
 73
    32
 74
     0
 42
0.00000001
 43
0.00000001
 40
0.0
 40
0.0
 40
0.0
 40
0.0
 40
0.0305352436328282
 40
0.0653027045139055
 40
0.1005561491915801
 40
0.1361004913580555
 40
0.1717306728952819
 40
0.2072386460888488
 40
0.2424206129827697
 40
0.277083899997058
 40
0.3110529032954214
 40
0.3445341167610422
 40
0.3787035788945549
 40
0.4135226153763191
 40
0.4488105771506244
 40
0.4843712075083248
 40
0.5199988827045916
 40
0.5554856426207431
 40
0.5906284225472204
 40
0.6252358654114243
 40
0.659134159641522
 40
0.6926421296992012
 40
0.7268772370358864
 40
0.7617463691617973
 40
0.7970672396380317
 40
0.8326424726841798
 40
0.8682659368011351
 40
0.9037298190045435
 40
0.9388318438945266
 40
0.9733820189022223
 40
1.0
 40
1.0
 40
1.0
 40
1.0
 10
-2.785638721725887
 20
-12.30598267893914
 30
0.0
 10
-2.778206861016519
 20
-12.30269066453036
 30
0.0
 10
-2.7623130757981
 20
-12.295650359014
 30
0.0
 10
-2.700467642493862
 20
-12.28421106557182
 30
0.0
 10
-2.607780763852349
 20
-12.27191222607049
 30
0.0
 10
-2.483426304047211
 20
-12.25929209040327
 30
0.0
 10
-2.330067276856778
 20
-12.24658457821431
 30
0.0
 10
-2.150149258479642
 20
-12.23400576275773
 30
0.0
 10
-1.94732806832642
 20
-12.22177103380948
 30
0.0
 10
-1.725814683517796
 20
-12.21007292065978
 30
0.0
 10
-1.489385694253484
 20
-12.19904400321001
 30
0.0
 10
-1.238438848787275
 20
-12.18863023342165
 30
0.0
 10
-0.9722225759603076
 20
-12.1773809446934
 30
0.0
 10
-0.6905769634844651
 20
-12.16553476117105
 30
0.0
 10
-0.3973233662316101
 20
-12.15318538882657
 30
0.0
 10
-0.0972261609965604
 20
-12.140551799434
 30
0.0
 10
0.2045642730902491
 20
-12.12784604816601
 30
0.0
 10
0.5028006311522267
 20
-12.11528948501752
 30
0.0
 10
0.7924385944762536
 20
-12.1030975331658
 30
0.0
 10
1.068912452016548
 20
-12.09145001313806
 30
0.0
 10
1.329561060669693
 20
-12.08050441072117
 30
0.0
 10
1.575284668466522
 20
-12.07005568961753
 30
0.0
 10
1.806558541452557
 20
-12.05873992498483
 30
0.0
 10
2.02193166693756
 20
-12.04684355877751
 30
0.0
 10
2.217047221083225
 20
-12.0344591867518
 30
0.0
 10
2.387899992762822
 20
-12.02180996081556
 30
0.0
 10
2.531103953331621
 20
-12.00910957413023
 30
0.0
 10
2.644633187982344
 20
-11.99657385424783
 30
0.0
 10
2.725971958401646
 20
-11.98443691383614
 30
0.0
 10
2.775679392994284
 20
-11.97361319898133
 30
0.0
 10
2.784492287774727
 20
-11.96713163737056
 30
0.0
 10
2.788327313736243
 20
-11.96431111611532
 30
0.0
  0
SPLINE
  5
A5
330
1F
100
AcDbEntity
  8
0
  6
Continuous
 62
     7
370
    25
100
AcDbSpline
210
0.0
220
0.0
230
1.0
 70
     8
 71
     3
 72
    36
 73
    32
 74
     0
 42
0.00000001
 43
0.00000001
 40
0.0
 40
0.0
 40
0.0
 40
0.0
 40
0.0305268060252384
 40
0.0652943354768564
 40
0.1005478496835591
 40
0.1360922619527887
 40
0.1717225137620669
 40
0.2072305569866589
 40
0.242412593268635
 40
0.2770759486480058
 40
0.3110450189421424
 40
0.3445262984414872
 40
0.3786958279661304
 40
0.4135149331201559
 40
0.4488029644915661
 40
0.4843636649841452
 40
0.5199914104475207
 40
0.5554782403528592
 40
0.5906210895901047
 40
0.6252286007092519
 40
0.6591269617956661
 40
0.6926349979398403
 40
0.7268701727971255
 40
0.7617393736940995
 40
0.7970603138323434
 40
0.8326356170421705
 40
0.8682591514179291
 40
0.9037231035654036
 40
0.9388251976857753
 40
0.9733754408354671
 40
1.0
 40
1.0
 40
1.0
 40
1.0
 10
-2.785631040214726
 20
-11.60042435128501
 30
0.0
 10
-2.778201003264908
 20
-11.5971332491141
 30
0.0
 10
-2.762308763349411
 20
-11.59009385137761
 30
0.0
 10
-2.700467380349674
 20
-11.57865550581944
 30
0.0
 10
-2.607780835149309
 20
-11.56635667165636
 30
0.0
 10
-2.483426284822732
 20
-11.55373653453994
 30
0.0
 10
-2.330067281995314
 20
-11.54102902274102
 30
0.0
 10
-2.150149257118075
 20
-11.52845020718038
 30
0.0
 10
-1.947328068684121
 20
-11.51621547825965
 30
0.0
 10
-1.725814683424636
 20
-11.50451736510273
 30
0.0
 10
-1.489385694277819
 20
-11.49348844765485
 30
0.0
 10
-1.23843884878065
 20
-11.483074677866
 30
0.0
 10
-0.972222575962135
 20
-11.47182538913787
 30
0.0
 10
-0.6905769634839648
 20
-11.45997920561549
 30
0.0
 10
-0.3973233662317437
 20
-11.44762983327102
 30
0.0
 10
-0.0972261609965326
 20
-11.43499624387845
 30
0.0
 10
0.2045642730902723
 20
-11.42229049261045
 30
0.0
 10
0.5028006311521098
 20
-11.40973392946197
 30
0.0
 10
0.7924385944766889
 20
-11.39754197761023
 30
0.0
 10
1.068912452014961
 20
-11.38589445758254
 30
0.0
 10
1.32956106067546
 20
-11.37494885516551
 30
0.0
 10
1.575284668445065
 20
-11.36450013406234
 30
0.0
 10
1.806558541535251
 20
-11.35318436942784
 30
0.0
 10
2.021931666621064
 20
-11.34128800322745
 30
0.0
 10
2.217047222284303
 20
-11.32890363117538
 30
0.0
 10
2.387899988243956
 20
-11.31625440533852
 30
0.0
 10
2.531103970185118
 20
-11.30355401828186
 30
0.0
 10
2.644633125671631
 20
-11.29101829977486
 30
0.0
 10
2.725972186815278
 20
-11.27888135431211
 30
0.0
 10
2.775682005613736
 20
-11.26805692290114
 30
0.0
 10
2.784495411819375
 20
-11.26157467727203
 30
0.0
 10
2.788331191357456
 20
-11.25875346779129
 30
0.0
  0
SPLINE
  5
A6
330
1F
100
AcDbEntity
  8
0
  6
Continuous
 62
     7
370
    25
100
AcDbSpline
210
0.0
220
0.0
230
1.0
 70
     8
 71
     3
 72
    36
 73
    32
 74
     0
 42
0.00000001
 43
0.00000001
 40
0.0
 40
0.0
 40
0.0
 40
0.0
 40
0.0305183801642563
 40
0.0652859774735304
 40
0.1005395604864118
 40
0.1360840421295814
 40
0.1717143634803373
 40
0.2072224760078859
 40
0.2424045809565333
 40
0.277068003990238
 40
0.311037140583635
 40
0.3445184854301927
 40
0.3786880816453434
 40
0.413507254757688
 40
0.4487953550026458
 40
0.4843561249009556
 40
0.519983939900917
 40
0.5554708390678088
 40
0.5906137568952422
 40
0.625221335559729
 40
0.6591197628073967
 40
0.6926278643510061
 40
0.7268631060269224
 40
0.7617323749799901
 40
0.7970533840560114
 40
0.83262875670007
 40
0.8682523606041955
 40
0.9037163819685717
 40
0.9388185445995874
 40
0.9733688551828459
 40
1.0
 40
1.0
 40
1.0
 40
1.0
 10
-2.785623369917693
 20
-10.89486602767783
 30
0.0
 10
-2.778195154132429
 20
-10.89157583641409
 30
0.0
 10
-2.762304457253532
 20
-10.88453734513206
 30
0.0
 10
-2.700467118514902
 20
-10.87309994607201
 30
0.0
 10
-2.607780906362115
 20
-10.8608011172409
 30
0.0
 10
-2.483426265620944
 20
-10.84818097867698
 30
0.0
 10
-2.330067287127783
 20
-10.83547346726763
 30
0.0
 10
-2.150149255758117
 20
-10.82289465160305
 30
0.0
 10
-1.947328069041398
 20
-10.81065992270982
 30
0.0
 10
-1.725814683331585
 20
-10.79896180954569
 30
0.0
 10
-1.489385694302124
 20
-10.78793289209967
 30
0.0
 10
-1.238438848774033
 20
-10.77751912231033
 30
0.0
 10
-0.9722225759639601
 20
-10.76626983358235
 30
0.0
 10
-0.6905769634834654
 20
-10.75442365005993
 30
0.0
 10
-0.3973233662318771
 20
-10.74207427771546
 30
0.0
 10
-0.0972261609965053
 20
-10.72944068832289
 30
0.0
 10
0.2045642730902949
 20
-10.71673493705489
 30
0.0
 10
0.5028006311519932
 20
-10.70417837390641
 30
0.0
 10
0.7924385944771253
 20
-10.69198642205467
 30
0.0
 10
1.068912452013372
 20
-10.68033890202701
 30
0.0
 10
1.329561060681232
 20
-10.66939329960985
 30
0.0
 10
1.575284668423588
 20
-10.65894457850716
 30
0.0
 10
1.806558541618028
 20
-10.64762881387085
 30
0.0
 10
2.021931666304248
 20
-10.6357324476774
 30
0.0
 10
2.217047223486597
 20
-10.62334807559893
 30
0.0
 10
2.387899983720521
 20
-10.61069884986155
 30
0.0
 10
2.531103987055658
 20
-10.5979984624332
 30
0.0
 10
2.644633063297911
 20
-10.58546274530299
 30
0.0
 10
2.725972415459871
 20
-10.57332579478407
 30
0.0
 10
2.775684621519698
 20
-10.56250064592519
 30
0.0
 10
2.784498539793272
 20
-10.55601771542791
 30
0.0
 10
2.78833507379551
 20
-10.55319581686759
 30
0.0
  0
SPLINE
  5
A7
330
1F
100
AcDbEntity
  8
0
  6
Continuous
 62
     7
370
    25
100
AcDbSpline
210
0.0
220
0.0
230
1.0
 70
     8
 71
     3
 72
    40
 73
    36
 74
     0
 42
0.00000001
 43
0.00000001
 40
0.0
 40
0.0
 40
0.0
 40
0.0
 40
0.018110402606957
 40
0.0498557530837025
 40
0.0816011035575684
 40
0.1143119442087775
 40
0.1470227848566438
 40
0.1780855606442636
 40
0.2091483364308293
 40
0.241113553258683
 40
0.2730787700880067
 40
0.3041415427295511
 40
0.3352043153740435
 40
0.3671703030751683
 40
0.3991356503074522
 40
0.4301578853298143
 40
0.4611801203492752
 40
0.4931509066643374
 40
0.5251216929755925
 40
0.5554001387122296
 40
0.5856785844473541
 40
0.6168366847774427
 40
0.6479947851086727
 40
0.6782732270354572
 40
0.7085516689652602
 40
0.7397097649616446
 40
0.7708678609614622
 40
0.8011530922109522
 40
0.8314381386658967
 40
0.8626527891776026
 40
0.8938674396850492
 40
0.9201023041201238
 40
0.9463371685538605
 40
0.9731685842768689
 40
1.0
 40
1.0
 40
1.0
 40
1.0
 10
-2.985121000243294
 20
-10.61290249893769
 30
0.0
 10
-2.984502947840163
 20
-10.61185792235159
 30
0.0
 10
-2.98280152415169
 20
-10.60898232905398
 30
0.0
 10
-2.956005113763225
 20
-10.60410556840226
 30
0.0
 10
-2.907124596890521
 20
-10.59814285012529
 30
0.0
 10
-2.835137829727888
 20
-10.59194051529889
 30
0.0
 10
-2.742985569492761
 20
-10.58564789195828
 30
0.0
 10
-2.632720501916531
 20
-10.57937822497835
 30
0.0
 10
-2.505335859450742
 20
-10.57311888754421
 30
0.0
 10
-2.358988336535449
 20
-10.56680337577522
 30
0.0
 10
-2.195909467260332
 20
-10.56053738445955
 30
0.0
 10
-2.019042945572776
 20
-10.55442952035317
 30
0.0
 10
-1.828419615865935
 20
-10.5484467815406
 30
0.0
 10
-1.623112779138932
 20
-10.54263625647657
 30
0.0
 10
-1.406455663619993
 20
-10.53704843298983
 30
0.0
 10
-1.182078157596906
 20
-10.53139464813126
 30
0.0
 10
-0.9496036490530668
 20
-10.52547340447795
 30
0.0
 10
-0.7081547872014624
 20
-10.5193087859902
 30
0.0
 10
-0.4638280139595765
 20
-10.51304089959727
 30
0.0
 10
-0.2211037500009155
 20
-10.50678758113728
 30
0.0
 10
0.0205065692605851
 20
-10.50053636415221
 30
0.0
 10
0.2637732736138448
 20
-10.49421431652809
 30
0.0
 10
0.5046016146690983
 20
-10.48792829170217
 30
0.0
 10
0.7389997758529616
 20
-10.48178181203216
 30
0.0
 10
0.9677558809231233
 20
-10.47576245878822
 30
0.0
 10
1.191232988291793
 20
-10.46983957090389
 30
0.0
 10
1.405636201310473
 20
-10.46419788609252
 30
0.0
 10
1.607347549037629
 20
-10.45863548628707
 30
0.0
 10
1.797122471873855
 20
-10.45277846754775
 30
0.0
 10
1.974923411804554
 20
-10.44665365754459
 30
0.0
 10
2.13027852498534
 20
-10.44063877401443
 30
0.0
 10
2.263053330927996
 20
-10.43486310720647
 30
0.0
 10
2.375989080794283
 20
-10.42933449617089
 30
0.0
 10
2.477243689991225
 20
-10.42373432275365
 30
0.0
 10
2.533042275092983
 20
-10.41998267749166
 30
0.0
 10
2.560941567643926
 20
-10.41810685486066
 30
0.0
  0
SPLINE
  5
A8
330
1F
100
AcDbEntity
  8
0
  6
Continuous
 62
     7
370
    25
100
AcDbSpline
210
0.0
220
0.0
230
1.0
 70
     8
 71
     3
 72
    18
 73
    14
 74
     0
 42
0.00000001
 43
0.00000001
 40
0.0
 40
0.0
 40
0.0
 40
0.0
 40
0.1021727372015734
 40
0.2035141098612805
 40
0.2961189651269305
 40
0.3903246579899008
 40
0.4856438219198985
 40
0.5815525639297076
 40
0.6775071241994862
 40
0.7729621836052555
 40
0.8673893024288062
 40
0.9602939532687771
 40
1.0
 40
1.0
 40
1.0
 40
1.0
 10
1.065128300848066
 20
-14.0318931451389
 30
0.0
 10
1.161650793743234
 20
-14.02784831768371
 30
0.0
 10
1.353910390198964
 20
-14.01979157493969
 30
0.0
 10
1.613278741959755
 20
-14.00859985289038
 30
0.0
 10
1.847858254430152
 20
-13.99684504135032
 30
0.0
 10
2.05725278078786
 20
-13.98500106745628
 30
0.0
 10
2.246218182833305
 20
-13.97270963055961
 30
0.0
 10
2.410941950704233
 20
-13.96019418653116
 30
0.0
 10
2.548232737662492
 20
-13.9476617984089
 30
0.0
 10
2.656562823409219
 20
-13.93531501352743
 30
0.0
 10
2.732585110863595
 20
-13.92339653017267
 30
0.0
 10
2.774882882346775
 20
-13.91404363468732
 30
0.0
 10
2.781382252611472
 20
-13.90890370981382
 30
0.0
 10
2.783328281884977
 20
-13.90736472313355
 30
0.0
  0
SPLINE
  5
A9
330
1F
100
AcDbEntity
  8
0
  6
Continuous
 62
     7
370
    25
100
AcDbSpline
210
0.0
220
0.0
230
1.0
 70
     8
 71
     3
 72
    37
 73
    33
 74
     0
 42
0.00000001
 43
0.00000001
 40
0.0
 40
0.0
 40
0.0
 40
0.0
 40
0.0262449678286612
 40
0.0596600994024878
 40
0.0936767414211551
 40
0.1281207348666868
 40
0.1628039699575863
 40
0.1975302963038523
 40
0.2321020975199372
 40
0.2663269891092164
 40
0.3000240794093383
 40
0.333029300231965
 40
0.3657073362237982
 40
0.3990995369025047
 40
0.4330987745536936
 40
0.4675314472226666
 40
0.5022098214809888
 40
0.5369379119665519
 40
0.571518042160639
 40
0.6057575473427231
 40
0.6394750587271589
 40
0.6725058719088487
 40
0.7051705599133661
 40
0.7385396561495773
 40
0.7725212945980243
 40
0.8069424357254683
 40
0.8416157290814503
 40
0.8763453617293698
 40
0.9109336045762614
 40
0.9451875197614792
 40
0.9789252674215673
 40
1.0
 40
1.0
 40
1.0
 40
1.0
 10
-2.790872812298726
 20
-13.54756694251556
 30
0.0
 10
-2.790029909982173
 20
-13.54480098263941
 30
0.0
 10
-2.788113823198585
 20
-13.5385133985878
 30
0.0
 10
-2.750410304049954
 20
-13.52802295521882
 30
0.0
 10
-2.682966796983479
 20
-13.51624622016137
 30
0.0
 10
-2.583951898302292
 20
-13.5040018232675
 30
0.0
 10
-2.455299347294425
 20
-13.49150511236301
 30
0.0
 10
-2.29852773000335
 20
-13.4789611131824
 30
0.0
 10
-2.116509059398914
 20
-13.46658254044061
 30
0.0
 10
-1.912804042709861
 20
-13.45457724392743
 30
0.0
 10
-1.691574234898227
 20
-13.44311080352017
 30
0.0
 10
-1.4560837980048
 20
-13.43234766067127
 30
0.0
 10
-1.206393511022025
 20
-13.42200793665833
 30
0.0
 10
-0.941637229994852
 20
-13.41081422200974
 30
0.0
 10
-0.6620580010483719
 20
-13.39905665168599
 30
0.0
 10
-0.3715891146858603
 20
-13.38682408079708
 30
0.0
 10
-0.0748666214541694
 20
-13.3743326853356
 30
0.0
 10
0.2231282711714175
 20
-13.3617867092998
 30
0.0
 10
0.5173432917750749
 20
-13.34939941741651
 30
0.0
 10
0.8029366570135734
 20
-13.33737788947245
 30
0.0
 10
1.075534066512076
 20
-13.32589304572522
 30
0.0
 10
1.332637678806931
 20
-13.31509861210966
 30
0.0
 10
1.575183311697362
 20
-13.30477653167351
 30
0.0
 10
1.803675554515905
 20
-13.29360566387401
 30
0.0
 10
2.016723578045857
 20
-13.28186630924616
 30
0.0
 10
2.210113037743469
 20
-13.26964617554779
 30
0.0
 10
2.379974151249781
 20
-13.25715992399057
 30
0.0
 10
2.522979268849296
 20
-13.24461344615006
 30
0.0
 10
2.637232187877269
 20
-13.23221316087981
 30
0.0
 10
2.719829334540655
 20
-13.22019214037455
 30
0.0
 10
2.769610665965128
 20
-13.20999989894291
 30
0.0
 10
2.779657239497415
 20
-13.20407725035342
 30
0.0
 10
2.783520024936081
 20
-13.20180006394192
 30
0.0
  0
SPLINE
  5
AA
330
1F
100
AcDbEntity
  8
0
  6
Continuous
 62
     7
370
    25
100
AcDbSpline
210
0.0
220
0.0
230
1.0
 70
     8
 71
     3
 72
    37
 73
    33
 74
     0
 42
0.00000001
 43
0.00000001
 40
0.0
 40
0.0
 40
0.0
 40
0.0
 40
0.019601217897859
 40
0.0528761577782613
 40
0.0867854445543286
 40
0.1211583410740833
 40
0.1558090944399659
 40
0.1905426551662016
 40
0.2251611596543339
 40
0.2594706489349866
 40
0.293287460233395
 40
0.3264437781817338
 40
0.3590686050103072
 40
0.3923195846128232
 40
0.4262103076469597
 40
0.4605706254322466
 40
0.4952152006333464
 40
0.5299491929182887
 40
0.5645747239699955
 40
0.598897597470104
 40
0.6327337104200502
 40
0.6659146396133627
 40
0.698536879145635
 40
0.7317637297064913
 40
0.7656356980552009
 40
0.7999832290424737
 40
0.8346214073002745
 40
0.8693556089393987
 40
0.9039879485023973
 40
0.9383239995499744
 40
0.9721792251523985
 40
1.0
 40
1.0
 40
1.0
 40
1.0
 10
-2.789735151469368
 20
-12.84201804062351
 30
0.0
 10
-2.790082102900055
 20
-12.83995594857165
 30
0.0
 10
-2.791018037528504
 20
-12.83439325827069
 30
0.0
 10
-2.760146994928937
 20
-12.8247658124605
 30
0.0
 10
-2.699186663708106
 20
-12.81309929564684
 30
0.0
 10
-2.606212049347294
 20
-12.80093122083171
 30
0.0
 10
-2.483469239614883
 20
-12.78846935481007
 30
0.0
 10
-2.332128602669222
 20
-12.77591728951225
 30
0.0
 10
-2.154919321513576
 20
-12.76348962122864
 30
0.0
 10
-1.955248427388833
 20
-12.75139076321568
 30
0.0
 10
-1.737184893897924
 20
-12.73981404165352
 30
0.0
 10
-1.504509025101246
 20
-12.72887144272606
 30
0.0
 10
-1.257720556351175
 20
-12.71860207070967
 30
0.0
 10
-0.9960855469724945
 20
-12.70755409061586
 30
0.0
 10
-0.7192040480576042
 20
-12.69590616122533
 30
0.0
 10
-0.4305651241769385
 20
-12.68375168781052
 30
0.0
 10
-0.134705819085018
 20
-12.67129641450194
 30
0.0
 10
0.1634407819389794
 20
-12.65874386438855
 30
0.0
 10
0.4588139186786693
 20
-12.64630877491678
 30
0.0
 10
0.7465075529613493
 20
-12.63419522268904
 30
0.0
 10
1.022035425809597
 20
-12.62260015398353
 30
0.0
 10
1.282187393380773
 20
-12.61162960443926
 30
0.0
 10
1.527591779088324
 20
-12.60136365576064
 30
0.0
 10
1.758912015383919
 20
-12.59034198799954
 30
0.0
 10
1.975390825904725
 20
-12.57871235678965
 30
0.0
 10
2.173058547911637
 20
-12.56657189720271
 30
0.0
 10
2.347925329778022
 20
-12.5541231413061
 30
0.0
 10
2.496544533843623
 20
-12.54157138488931
 30
0.0
 10
2.616692396068684
 20
-12.52912528135969
 30
0.0
 10
2.705761033118008
 20
-12.51701132145009
 30
0.0
 10
2.76397442342745
 20
-12.50596613958876
 30
0.0
 10
2.778386151645031
 20
-12.49924392203406
 30
0.0
 10
2.784886985729289
 20
-12.49621166800168
 30
0.0
  0
SPLINE
  5
AB
330
1F
100
AcDbEntity
  8
0
  6
Continuous
 62
     7
370
    25
100
AcDbSpline
210
0.0
220
0.0
230
1.0
 70
     8
 71
     3
 72
    38
 73
    34
 74
     0
 42
0.00000001
 43
0.00000001
 40
0.0
 40
0.0
 40
0.0
 40
0.0
 40
0.0130156824226629
 40
0.0461443920672592
 40
0.079939493247116
 40
0.1142338542774327
 40
0.1488443106747595
 40
0.1835771765183124
 40
0.2182346132960884
 40
0.2526213465157833
 40
0.2865511669690473
 40
0.319852686721332
 40
0.3524889463230543
 40
0.3855926953139797
 40
0.4193680972079236
 40
0.4536486383816257
 40
0.4882516077572284
 40
0.522983571981226
 40
0.5576467232882691
 40
0.5920455935179267
 40
0.6259935715750266
 40
0.6593186919238507
 40
0.691963127874897
 40
0.7250417523706235
 40
0.7587972681313958
 40
0.793063784345658
 40
0.8276590495076088
 40
0.8623898899870946
 40
0.8970585363368965
 40
0.9314693340769179
 40
0.9654352767468465
 40
0.9987838264259657
 40
1.0
 40
1.0
 40
1.0
 40
1.0
 10
-2.789736117770343
 20
-12.13649103663028
 30
0.0
 10
-2.7905832943851
 20
-12.13511743845432
 30
0.0
 10
-2.79358678268422
 20
-12.13024763211488
 30
0.0
 10
-2.768582462680524
 20
-12.12148768998906
 30
0.0
 10
-2.714187220470607
 20
-12.1099310542351
 30
0.0
 10
-2.627248417898605
 20
-12.09784900431685
 30
0.0
 10
-2.510488682864287
 20
-12.0854298470339
 30
0.0
 10
-2.364682489805122
 20
-12.07287860987769
 30
0.0
 10
-2.19242253540812
 20
-12.06040969002445
 30
0.0
 10
-1.996950075345393
 20
-12.04822658863729
 30
0.0
 10
-1.782232363606187
 20
-12.03653994284955
 30
0.0
 10
-1.552378533816407
 20
-12.0254381978565
 30
0.0
 10
-1.30846213263112
 20
-12.0151537566423
 30
0.0
 10
-1.049899318874308
 20
-12.00427215247745
 30
0.0
 10
-0.7758741438905404
 20
-11.99273428028491
 30
0.0
 10
-0.4892487764966867
 20
-11.9806673621195
 30
0.0
 10
-0.1944523984436431
 20
-11.96825611779955
 30
0.0
 10
0.1036409886576621
 20
-11.95570587373509
 30
0.0
 10
0.3999736013690667
 20
-11.9432308502571
 30
0.0
 10
0.6895859831751625
 20
-11.93103462889853
 30
0.0
 10
0.967888537780815
 20
-11.91932970350937
 30
0.0
 10
1.231138333835303
 20
-11.90820344515674
 30
0.0
 10
1.479429750669149
 20
-11.89790818713859
 30
0.0
 10
1.71356791919771
 20
-11.88705628088698
 30
0.0
 10
1.933297507188685
 20
-11.87553679664072
 30
0.0
 10
2.135086636021588
 20
-11.86348533245625
 30
0.0
 10
2.314801379804719
 20
-11.85108235097043
 30
0.0
 10
2.469012551650536
 20
-11.83853274573893
 30
0.0
 10
2.59469665618392
 20
-11.82605410141653
 30
0.0
 10
2.691314025365388
 20
-11.81383667706051
 30
0.0
 10
2.753800612597179
 20
-11.80214402240691
 30
0.0
 10
2.784418177524422
 20
-11.79442432329464
 30
0.0
 10
2.786282919706186
 20
-11.79076017068388
 30
0.0
 10
2.786348531403618
 20
-11.7906312460128
 30
0.0
  0
SPLINE
  5
AC
330
1F
100
AcDbEntity
  8
0
  6
Continuous
 62
     7
370
    25
100
AcDbSpline
210
0.0
220
0.0
230
1.0
 70
     8
 71
     3
 72
    38
 73
    34
 74
     0
 42
0.00000001
 43
0.00000001
 40
0.0
 40
0.0
 40
0.0
 40
0.0
 40
0.0064561698396876
 40
0.039432864842
 40
0.0731071759282624
 40
0.1073157490387864
 40
0.141878230743455
 40
0.1766025562597341
 40
0.211291183904166
 40
0.2457477866138075
 40
0.2797838413152762
 40
0.3132245726875935
 40
0.3459369723804916
 40
0.3788877360920765
 40
0.4125412373203602
 40
0.4467347677789711
 40
0.4812884638131418
 40
0.5160105557660652
 40
0.5507035780607616
 40
0.5851710543076408
 40
0.6192240992081237
 40
0.6526873918704561
 40
0.6854187223465251
 40
0.7183433959725958
 40
0.7519759047833222
 40
0.7861541906970149
 40
0.8206988857447639
 40
0.8554185223952906
 40
0.8901157187167585
 40
0.9245938564371903
 40
0.9586636947640866
 40
0.9921493727432491
 40
1.0
 40
1.0
 40
1.0
 40
1.0
 10
-2.790870635843187
 20
-11.43094801796265
 30
0.0
 10
-2.791571287169183
 20
-11.43026180738834
 30
0.0
 10
-2.795850711305379
 20
-11.42607058418606
 30
0.0
 10
-2.77567951893048
 20
-11.41819036781002
 30
0.0
 10
-2.727981512986688
 20
-11.4067392284598
 30
0.0
 10
-2.647049435240734
 20
-11.39475377579612
 30
0.0
 10
-2.53634209947643
 20
-11.38238480390078
 30
0.0
 10
-2.396164993576612
 20
-11.36984336697889
 30
0.0
 10
-2.228988462341057
 20
-11.35734110720698
 30
0.0
 10
-2.037874405708286
 20
-11.34508329514796
 30
0.0
 10
-1.826679959917988
 20
-11.33328719073549
 30
0.0
 10
-1.599661869679419
 20
-11.32204706718984
 30
0.0
 10
-1.358590739079754
 20
-11.3116622311674
 30
0.0
 10
-1.103050391945942
 20
-11.30096707837192
 30
0.0
 10
-0.8320342046721901
 20
-11.28953960714722
 30
0.0
 10
-0.5476015875151745
 20
-11.27756947621509
 30
0.0
 10
-0.25406547483156
 20
-11.26521007541152
 30
0.0
 10
0.0437698971657915
 20
-11.25267101115553
 30
0.0
 10
0.3408611755691824
 20
-11.2401640048767
 30
0.0
 10
0.6322065668663657
 20
-11.22789467043132
 30
0.0
 10
0.9131222424394672
 20
-11.21608038441814
 30
0.0
 10
1.179518383073475
 20
-11.20481923074365
 30
0.0
 10
1.430728123060886
 20
-11.19440940426223
 30
0.0
 10
1.667679293910812
 20
-11.18374721963714
 30
0.0
 10
1.890481418195357
 20
-11.17233819143932
 30
0.0
 10
2.096217067655405
 20
-11.16038503759363
 30
0.0
 10
2.280668990222707
 20
-11.1480351559546
 30
0.0
 10
2.440244138991059
 20
-11.13549834324341
 30
0.0
 10
2.57183492627371
 20
-11.12298854606942
 30
0.0
 10
2.674350905877723
 20
-11.11070146186405
 30
0.0
 10
2.74378689976997
 20
-11.09889284200641
 30
0.0
 10
2.779739399204662
 20
-11.09034679512422
 30
0.0
 10
2.783549328297766
 20
-11.08595188793452
 30
0.0
 10
2.784272913364546
 20
-11.08511720331582
 30
0.0
  0
SPLINE
  5
AD
330
1F
100
AcDbEntity
  8
0
  6
Continuous
 62
     7
370
    25
100
AcDbSpline
210
0.0
220
0.0
230
1.0
 70
     8
 71
     3
 72
    34
 73
    30
 74
     0
 42
0.00000001
 43
0.00000001
 40
0.0
 40
0.0
 40
0.0
 40
0.0
 40
0.0368269974542747
 40
0.0745965722210338
 40
0.1130062903496779
 40
0.1518565029870628
 40
0.1909330795484219
 40
0.2300142531381473
 40
0.2688781004041111
 40
0.3073100345554206
 40
0.3451096882405913
 40
0.3820966558207613
 40
0.4190177136435793
 40
0.4567626382581405
 40
0.4951540659137192
 40
0.5339929383555045
 40
0.5730655040690311
 40
0.6121501326200881
 40
0.6510247830332637
 40
0.6894745067102569
 40
0.7272983600550551
 40
0.7643151918812591
 40
0.8012093563026416
 40
0.8389294302553277
 40
0.8773023440155192
 40
0.9161296362752092
 40
0.95519794226987
 40
0.9942857764482462
 40
1.0
 40
1.0
 40
1.0
 40
1.0
 10
-2.793059712660914
 20
-10.72535140225951
 30
0.0
 10
-2.790357519187951
 20
-10.72188001486627
 30
0.0
 10
-2.784883970310898
 20
-10.71484839083261
 30
0.0
 10
-2.739611855828347
 20
-10.70352571462526
 30
0.0
 10
-2.66587093577849
 20
-10.69164304362194
 30
0.0
 10
-2.560943572502461
 20
-10.67933275765175
 30
0.0
 10
-2.426572489220585
 20
-10.66680976038986
 30
0.0
 10
-2.264582807066524
 20
-10.6542822433738
 30
0.0
 10
-2.077988886490111
 20
-10.64195935529115
 30
0.0
 10
-1.870490892233164
 20
-10.63005461563747
 30
0.0
 10
-1.64633189330572
 20
-10.61869667184242
 30
0.0
 10
-1.408082697553396
 20
-10.60812851619701
 30
0.0
 10
-1.155515173398452
 20
-10.59763725917509
 30
0.0
 10
-0.8876512272003941
 20
-10.58632091626551
 30
0.0
 10
-0.6055858106344627
 20
-10.57445639722719
 30
0.0
 10
-0.313504467539394
 20
-10.5621565925349
 30
0.0
 10
-0.0161313237022073
 20
-10.54963753156912
 30
0.0
 10
0.2815160882098106
 20
-10.5371066102421
 30
0.0
 10
0.5744049137479899
 20
-10.5247737384541
 30
0.0
 10
0.8577666388584988
 20
-10.51285130628426
 30
0.0
 10
1.127344592682945
 20
-10.50147489814512
 30
0.0
 10
1.381507290792071
 20
-10.49087231629888
 30
0.0
 10
1.621273129899405
 20
-10.48041255095984
 30
0.0
 10
1.846978444826015
 20
-10.46911559768684
 30
0.0
 10
2.056479962071728
 20
-10.45726932339197
 30
0.0
 10
2.24556093667423
 20
-10.44497982916807
 30
0.0
 10
2.410233083453399
 20
-10.4324666413604
 30
0.0
 10
2.509108113411034
 20
-10.42348028665649
 30
0.0
 10
2.555078350131326
 20
-10.41871467851202
 30
0.0
 10
2.560941567640868
 20
-10.41810685486112
 30
0.0
  0
SPLINE
  5
AE
330
1F
100
AcDbEntity
  8
0
  6
Continuous
 62
     7
370
    25
100
AcDbSpline
210
0.0
220
0.0
230
1.0
 70
     8
 71
     3
 72
    22
 73
    18
 74
     0
 42
0.00000001
 43
0.00000001
 40
0.0
 40
0.0
 40
0.0
 40
0.0
 40
0.06560459206903
 40
0.131215906475127
 40
0.1986170931266294
 40
0.2660182785740671
 40
0.3315768277153157
 40
0.3971353761483905
 40
0.4643224459662971
 40
0.5315095157885882
 40
0.6021528869423685
 40
0.6727962589579434
 40
0.7454919388547078
 40
0.8181876200806592
 40
0.8985894981325416
 40
0.9797222066295886
 40
1.0
 40
1.0
 40
1.0
 40
1.0
 10
1.065128300848144
 20
-14.0318931451389
 30
0.0
 10
1.137494193425746
 20
-14.02501759886611
 30
0.0
 10
1.282233393731425
 20
-14.01126580180066
 30
0.0
 10
1.49248439067033
 20
-13.99152902212193
 30
0.0
 10
1.696578989522236
 20
-13.97111333502024
 30
0.0
 10
1.890891207086869
 20
-13.95005962656547
 30
0.0
 10
2.072715645796665
 20
-13.928799883038
 30
0.0
 10
2.242802273832668
 20
-13.90728956951768
 30
0.0
 10
2.401369796742505
 20
-13.88546954171336
 30
0.0
 10
2.549669757016553
 20
-13.8630961773083
 30
0.0
 10
2.684440204552268
 20
-13.84049243275177
 30
0.0
 10
2.805142503487606
 20
-13.81759234598316
 30
0.0
 10
2.90778736652167
 20
-13.79492932644763
 30
0.0
 10
2.994579591497059
 20
-13.7718762102649
 30
0.0
 10
3.059445148482135
 20
-13.7487811774826
 30
0.0
 10
3.094488030973769
 20
-13.73173439076864
 30
0.0
 10
3.101208436678428
 20
-13.72247110238431
 30
0.0
 10
3.102552232397165
 20
-13.72061883812835
 30
0.0
  0
SPLINE
  5
AF
330
1F
100
AcDbEntity
  8
0
  6
Continuous
 62
     7
370
    25
100
AcDbSpline
210
0.0
220
0.0
230
1.0
 70
     8
 71
     3
 72
    84
 73
    80
 74
     0
 42
0.00000001
 43
0.00000001
 40
0.0
 40
0.0
 40
0.0
 40
0.0
 40
0.0200287612277734
 40
0.0439963806731266
 40
0.0696330173215685
 40
0.0969385193750692
 40
0.1291011293019337
 40
0.1612641072965882
 40
0.169308114542375
 40
0.1773521450303884
 40
0.1853961988100584
 40
0.1934402759308139
 40
0.2014843764420841
 40
0.2095285003932976
 40
0.2175726478338815
 40
0.2256168188132647
 40
0.2410904103378379
 40
0.2601119764603192
 40
0.2826809469900411
 40
0.2995219359141
 40
0.3179084163512511
 40
0.3229800280015726
 40
0.3281576885574383
 40
0.3334413979014204
 40
0.3388311559116112
 40
0.3443269624617378
 40
0.3499288174212716
 40
0.3689620007765698
 40
0.3900796811165022
 40
0.4132816482195406
 40
0.4229689521258067
 40
0.4329780968988152
 40
0.4433090805303017
 40
0.4539619008806007
 40
0.4649365556844366
 40
0.4762330425558885
 40
0.4996600457670144
 40
0.520971901520541
 40
0.540168374902028
 40
0.557249254405022
 40
0.5738675947934584
 40
0.5878318249335082
 40
0.5910506857573864
 40
0.5940874400103405
 40
0.5969420874870347
 40
0.5996146280057372
 40
0.6021050614108747
 40
0.6044133875765898
 40
0.6284503018513062
 40
0.6512631101972349
 40
0.6731229954034832
 40
0.6796863379406974
 40
0.6863213876259066
 40
0.6930281451060113
 40
0.6998066110038138
 40
0.7066567859189924
 40
0.7135786704290197
 40
0.7205722650900365
 40
0.7276375704376813
 40
0.7398901313014551
 40
0.7557847305863071
 40
0.7753208518579596
 40
0.786455978043793
 40
0.798501687821476
 40
0.8114579566899923
 40
0.8253247582676293
 40
0.8401020642971554
 40
0.8557898446495085
 40
0.8839902340673996
 40
0.910073192461497
 40
0.9340384396055745
 40
0.9416331105243932
 40
0.9489874863520341
 40
0.9561015665714483
 40
0.9629753507551708
 40
0.9696088385733486
 40
0.976002029803282
 40
0.9821549243408287
 40
1.0
 40
1.0
 40
1.0
 40
1.0
 10
-3.174395874420359
 20
-13.32707451970237
 30
0.0
 10
-3.17342028279406
 20
-13.32491761912766
 30
0.0
 10
-3.171277239593132
 20
-13.32017964169211
 30
0.0
 10
-3.146855867402804
 20
-13.31232417337253
 30
0.0
 10
-3.101760123291607
 20
-13.30341978759945
 30
0.0
 10
-3.028373551410974
 20
-13.29328027384417
 30
0.0
 10
-2.922325033726581
 20
-13.28219864871877
 30
0.0
 10
-2.816131361207409
 20
-13.27338670617114
 30
0.0
 10
-2.736521097262523
 20
-13.26748100747127
 30
0.0
 10
-2.694955757220665
 20
-13.2645210092401
 30
0.0
 10
-2.651670751836028
 20
-13.26155474989512
 30
0.0
 10
-2.606692847997888
 20
-13.25858210536772
 30
0.0
 10
-2.560050954367762
 20
-13.25560348143985
 30
0.0
 10
-2.511774923637626
 20
-13.25261737904638
 30
0.0
 10
-2.461895063346679
 20
-13.24962938868857
 30
0.0
 10
-2.394605896196912
 20
-13.24569176531262
 30
0.0
 10
-2.299933720793487
 20
-13.24052664264223
 30
0.0
 10
-2.165458879234191
 20
-13.23385812490455
 30
0.0
 10
-2.019046168382225
 20
-13.22717710643136
 30
0.0
 10
-1.866747210038107
 20
-13.22066804130814
 30
0.0
 10
-1.756166865973225
 20
-13.21617367398715
 30
0.0
 10
-1.675709989649561
 20
-13.21299761175132
 30
0.0
 10
-1.631627377701712
 20
-13.21127852530238
 30
0.0
 10
-1.586196974384154
 20
-13.20952781847584
 30
0.0
 10
-1.539404300778505
 20
-13.20774589680855
 30
0.0
 10
-1.491236007822257
 20
-13.2059311420765
 30
0.0
 10
-1.402390015976207
 20
-13.20262976137632
 30
0.0
 10
-1.264777328958444
 20
-13.19752547933041
 30
0.0
 10
-1.068933470133822
 20
-13.19024140879061
 30
0.0
 10
-0.897717824369054
 20
-13.18389594524442
 30
0.0
 10
-0.7597847605152868
 20
-13.17879351810663
 30
0.0
 10
-0.6624918963341999
 20
-13.17519783805415
 30
0.0
 10
-0.5613846890755906
 20
-13.1714633992899
 30
0.0
 10
-0.4565080630886295
 20
-13.16758982738412
 30
0.0
 10
-0.3479262353900848
 20
-13.16357841624041
 30
0.0
 10
-0.1966407047939809
 20
-13.15797661575975
 30
0.0
 10
-0.0103173241514002
 20
-13.15109545859584
 30
0.0
 10
0.2022559740884474
 20
-13.14327166626718
 30
0.0
 10
0.39292725609107
 20
-13.13624251983958
 30
0.0
 10
0.5667895848014726
 20
-13.1298097153736
 30
0.0
 10
0.7219545880055801
 20
-13.12404056800186
 30
0.0
 10
0.8307514811950617
 20
-13.11997724111996
 30
0.0
 10
0.8953320050512057
 20
-13.11756362544969
 30
0.0
 10
0.9243459151799278
 20
-13.11647952940379
 30
0.0
 10
0.951543232246024
 20
-13.11546398571845
 30
0.0
 10
0.9769362669927671
 20
-13.11451708589525
 30
0.0
 10
1.000537255336015
 20
-13.11363852012429
 30
0.0
 10
1.091396980837638
 20
-13.11026893345966
 30
0.0
 10
1.244180184270913
 20
-13.10462178136148
 30
0.0
 10
1.451071951356415
 20
-13.0969365261361
 30
0.0
 10
1.599907840542402
 20
-13.09147649862045
 30
0.0
 10
1.699020532472372
 20
-13.08767115867698
 30
0.0
 10
1.754561734954475
 20
-13.08548714960558
 30
0.0
 10
1.80992743080772
 20
-13.08325791284986
 30
0.0
 10
1.865068488454776
 20
-13.08098304513646
 30
0.0
 10
1.919933288260115
 20
-13.07866257256958
 30
0.0
 10
1.974468947644294
 20
-13.07629680489293
 30
0.0
 10
2.028621255904739
 20
-13.07388445634413
 30
0.0
 10
2.095297033480954
 20
-13.0708381608526
 30
0.0
 10
2.182202862404894
 20
-13.06668223053693
 30
0.0
 10
2.295089870176833
 20
-13.06096721320217
 30
0.0
 10
2.399140983739616
 20
-13.05533675507036
 30
0.0
 10
2.489363405970516
 20
-13.05014871563906
 30
0.0
 10
2.562266288733805
 20
-13.04574756313563
 30
0.0
 10
2.636588101256013
 20
-13.04100271628009
 30
0.0
 10
2.711299309632588
 20
-13.03591357009062
 30
0.0
 10
2.785259901396486
 20
-13.03048231789117
 30
0.0
 10
2.874948769389877
 20
-13.0232745514096
 30
0.0
 10
2.967535406312762
 20
-13.01471760359689
 30
0.0
 10
3.05030748706605
 20
-13.00529653990212
 30
0.0
 10
3.096810068779014
 20
-12.99846796334927
 30
0.0
 10
3.121915040187929
 20
-12.99392406869726
 30
0.0
 10
3.134455886979748
 20
-12.99136669969829
 30
0.0
 10
3.144997221957046
 20
-12.98891259302157
 30
0.0
 10
3.153683029382248
 20
-12.9865614818534
 30
0.0
 10
3.160698300731513
 20
-12.98431416956269
 30
0.0
 10
3.166064643679835
 20
-12.98216783745933
 30
0.0
 10
3.173140245850502
 20
-12.97881661315536
 30
0.0
 10
3.172519709678182
 20
-12.97616091222745
 30
0.0
 10
3.172058274196201
 20
-12.97418611254238
 30
0.0
  0
SPLINE
  5
B0
330
1F
100
AcDbEntity
  8
0
  6
Continuous
 62
     7
370
    25
100
AcDbSpline
210
0.0
220
0.0
230
1.0
 70
     8
 71
     3
 72
    95
 73
    91
 74
     0
 42
0.00000001
 43
0.00000001
 40
0.0
 40
0.0
 40
0.0
 40
0.0
 40
0.0098964550375009
 40
0.0285287591741373
 40
0.0484429232899504
 40
0.0696388814797076
 40
0.0921165601382505
 40
0.1158758785037681
 40
0.1480262844624998
 40
0.1801767998146144
 40
0.1908977094778141
 40
0.201618631332228
 40
0.2123395653880996
 40
0.2230605116556777
 40
0.2337814701452042
 40
0.2445024408669278
 40
0.2560759570129956
 40
0.269067540402964
 40
0.2834771361980344
 40
0.2993046799453379
 40
0.3144527581270218
 40
0.321160878463247
 40
0.3278689712804719
 40
0.3345770366809302
 40
0.341285074766857
 40
0.347993085640488
 40
0.3547010694040608
 40
0.361409026159815
 40
0.3681169560099897
 40
0.3798640203632295
 40
0.3953932489873792
 40
0.4147041121737399
 40
0.4281072861548953
 40
0.4428720311751488
 40
0.4589982807036128
 40
0.4764859617791712
 40
0.4953349950721482
 40
0.5229102929555477
 40
0.5479609643385449
 40
0.5704866174337532
 40
0.5874574079568408
 40
0.6026458742754257
 40
0.6063295407175139
 40
0.6098909135092832
 40
0.6133299926000368
 40
0.6166467779524866
 40
0.6198412695441092
 40
0.6229134673687863
 40
0.6229522486986808
 40
0.6232430211541158
 40
0.6240377173881225
 40
0.6270225273248111
 40
0.6318678721058145
 40
0.6385737103975505
 40
0.649615888132343
 40
0.6635851429949013
 40
0.6804811799194666
 40
0.6858314657461695
 40
0.6893880890517432
 40
0.6929844621514234
 40
0.6966205851514147
 40
0.7002964581538691
 40
0.7040120812570504
 40
0.7271356371088639
 40
0.7302703442230493
 40
0.7334295915259281
 40
0.7366133790545314
 40
0.739821706844898
 40
0.7430545749321017
 40
0.7463119833502769
 40
0.7466630506430161
 40
0.7491353893756061
 40
0.7557430648182853
 40
0.7661347797087843
 40
0.7803101674876349
 40
0.7933621706758311
 40
0.8085234906427837
 40
0.8257939611555262
 40
0.8320849825276395
 40
0.838615226503281
 40
0.8453846921618796
 40
0.8523933785491417
 40
0.8596412846770469
 40
0.8671284095238513
 40
0.8748547520340878
 40
0.903745784036942
 40
0.9307164289659662
 40
0.95576645767356
 40
0.9788956624787236
 40
1.0
 40
1.0
 40
1.0
 40
1.0
 10
-3.173867734075009
 20
-12.62152513107441
 30
0.0
 10
-3.174007931841435
 20
-12.62046422210332
 30
0.0
 10
-3.174412083459358
 20
-12.61740591320109
 30
0.0
 10
-3.163486245011565
 20
-12.61204317129859
 30
0.0
 10
-3.139925095920046
 20
-12.60526448101728
 30
0.0
 10
-3.10078788187163
 20
-12.59787436647758
 30
0.0
 10
-3.044424693795935
 20
-12.58988363841813
 30
0.0
 10
-2.960707566396164
 20
-12.58041002081585
 30
0.0
 10
-2.84260281139504
 20
-12.56967007696501
 30
0.0
 10
-2.719402416704496
 20
-12.56051491238926
 30
0.0
 10
-2.621318677354073
 20
-12.55396443906834
 30
0.0
 10
-2.559478530881897
 20
-12.55002981636447
 30
0.0
 10
-2.494737141298448
 20
-12.54609224373706
 30
0.0
 10
-2.427166599400898
 20
-12.54215005704732
 30
0.0
 10
-2.35684367989528
 20
-12.53820941888693
 30
0.0
 10
-2.281913982053754
 20
-12.5341423213706
 30
0.0
 10
-2.198874193994217
 20
-12.52986891563673
 30
0.0
 10
-2.103681502848563
 20
-12.52529217456879
 30
0.0
 10
-1.99398950560855
 20
-12.52031802998418
 30
0.0
 10
-1.874312634390845
 20
-12.51519138611443
 30
0.0
 10
-1.771344484994381
 20
-12.51099676296037
 30
0.0
 10
-1.69150911512326
 20
-12.50783494356409
 30
0.0
 10
-1.634510569670494
 20
-12.50561578788846
 30
0.0
 10
-1.576786508815271
 20
-12.50340483123065
 30
0.0
 10
-1.518362186647425
 20
-12.5012022541509
 30
0.0
 10
-1.459263645842493
 20
-12.49900757201164
 30
0.0
 10
-1.399517112109651
 20
-12.4968225427933
 30
0.0
 10
-1.339149086705068
 20
-12.49464061924843
 30
0.0
 10
-1.262920985345932
 20
-12.49194675614767
 30
0.0
 10
-1.158649853705699
 20
-12.48816065716827
 30
0.0
 10
-1.013269208468367
 20
-12.48274137718527
 30
0.0
 10
-0.8598712705396675
 20
-12.47701696804115
 30
0.0
 10
-0.7067839710306955
 20
-12.47131516436294
 30
0.0
 10
-0.5624991148238699
 20
-12.4659565986771
 30
0.0
 10
-0.403517034782823
 20
-12.4600673182459
 30
0.0
 10
-0.2299246706454187
 20
-12.45364963900219
 30
0.0
 10
-0.0175642576857442
 20
-12.44578803845891
 30
0.0
 10
0.2202527819318616
 20
-12.43700150878249
 30
0.0
 10
0.4687751470519994
 20
-12.42783941903437
 30
0.0
 10
0.6798245512973093
 20
-12.42003449211054
 30
0.0
 10
0.8561242425338259
 20
-12.41348950035381
 30
0.0
 10
0.9700536746660096
 20
-12.40924733355297
 30
0.0
 10
1.040649619015606
 20
-12.40661786934684
 30
0.0
 10
1.074139625951833
 20
-12.40537063617499
 30
0.0
 10
1.106352030059426
 20
-12.40417184771303
 30
0.0
 10
1.137296791535584
 20
-12.40302018191769
 30
0.0
 10
1.166984088041058
 20
-12.40192030205331
 30
0.0
 10
1.186440975816633
 20
-12.40119201273596
 30
0.0
 10
1.196917250226001
 20
-12.40080918175753
 30
0.0
 10
1.200378926625751
 20
-12.40068539635837
 30
0.0
 10
1.212902962991445
 20
-12.40023601377641
 30
0.0
 10
1.239376746418709
 20
-12.39928797322717
 30
0.0
 10
1.283763985972674
 20
-12.39768945333547
 30
0.0
 10
1.352206898884471
 20
-12.3952067715968
 30
0.0
 10
1.447053787737075
 20
-12.39172170406609
 30
0.0
 10
1.569893969304109
 20
-12.38711853375067
 30
0.0
 10
1.673192539733752
 20
-12.38313815264956
 30
0.0
 10
1.745166003398891
 20
-12.38030691939588
 30
0.0
 10
1.779721771578874
 20
-12.37892572561829
 30
0.0
 10
1.809313901916601
 20
-12.3777271443744
 30
0.0
 10
1.838998119013087
 20
-12.37650879444681
 30
0.0
 10
1.868763119726704
 20
-12.37527061996429
 30
0.0
 10
1.950430285649025
 20
-12.37182699025355
 30
0.0
 10
2.028180044613936
 20
-12.36838199918767
 30
0.0
 10
2.101799077759259
 20
-12.36495474774433
 30
0.0
 10
2.12531236494284
 20
-12.36384690355545
 30
0.0
 10
2.148796200549094
 20
-12.36272667764588
 30
0.0
 10
2.172243651190555
 20
-12.36159486018695
 30
0.0
 10
2.195647107952274
 20
-12.36044841089308
 30
0.0
 10
2.211995630762442
 20
-12.35964360593104
 30
0.0
 10
2.22644623798862
 20
-12.35891536621318
 30
0.0
 10
2.248760791521002
 20
-12.35776709839021
 30
0.0
 10
2.29418216946106
 20
-12.35539955636203
 30
0.0
 10
2.364912691597325
 20
-12.35159844545198
 30
0.0
 10
2.446688311660381
 20
-12.34701086439678
 30
0.0
 10
2.534180323371182
 20
-12.34183933519424
 30
0.0
 10
2.622724881224591
 20
-12.33628911674402
 30
0.0
 10
2.692706962209663
 20
-12.33156258143221
 30
0.0
 10
2.743918256226313
 20
-12.32788998758576
 30
0.0
 10
2.77612652044099
 20
-12.32549883927698
 30
0.0
 10
2.808281649258101
 20
-12.32302000884613
 30
0.0
 10
2.840235658650297
 20
-12.32045352340697
 30
0.0
 10
2.871832767745023
 20
-12.31779918742642
 30
0.0
 10
2.902910221855059
 20
-12.31505779263069
 30
0.0
 10
2.96072974423316
 20
-12.30966996742442
 30
0.0
 10
3.03287435426151
 20
-12.3019619378985
 30
0.0
 10
3.102198960930092
 20
-12.29235599935768
 30
0.0
 10
3.146287815730666
 20
-12.28364474845987
 30
0.0
 10
3.170820454479466
 20
-12.27581053328216
 30
0.0
 10
3.173626746740202
 20
-12.27103102744473
 30
0.0
 10
3.174965661417594
 20
-12.26875066961959
 30
0.0
  0
SPLINE
  5
B1
330
1F
100
AcDbEntity
  8
0
  6
Continuous
 62
     7
370
    25
100
AcDbSpline
210
0.0
220
0.0
230
1.0
 70
     8
 71
     3
 72
    88
 73
    84
 74
     0
 42
0.00000001
 43
0.00000001
 40
0.0
 40
0.0
 40
0.0
 40
0.0
 40
0.0074701118043703
 40
0.0345081598234194
 40
0.0647538019833763
 40
0.0830977072580691
 40
0.1024481101636337
 40
0.1076831899766421
 40
0.1129873378464529
 40
0.1183605537829746
 40
0.1238028377925581
 40
0.1293141898781295
 40
0.1348946100393228
 40
0.1601954074254182
 40
0.1828523249637308
 40
0.2028649720829748
 40
0.2202330038315313
 40
0.2365447856849112
 40
0.2495386134970987
 40
0.2523935496645727
 40
0.2550208354585831
 40
0.2574204705703002
 40
0.2595924547283016
 40
0.2615367877024877
 40
0.2632534693105729
 40
0.2779545508067386
 40
0.2921800884521087
 40
0.305930079360308
 40
0.3192045214501481
 40
0.3343939774791387
 40
0.3469670995021553
 40
0.3584662642842671
 40
0.3688914402281397
 40
0.378242599173889
 40
0.3865197165976079
 40
0.400231311668383
 40
0.4169857714586725
 40
0.4367827180878875
 40
0.4501228207064125
 40
0.4645584113804909
 40
0.4800894477372363
 40
0.4967158841031213
 40
0.5144376715193723
 40
0.5366875378268736
 40
0.5575576248806922
 40
0.5770478373753778
 40
0.5951580870791253
 40
0.6118882930323718
 40
0.6272383818354662
 40
0.6412082880782417
 40
0.6488316274411253
 40
0.6564549338172011
 40
0.6640782073350101
 40
0.6717014481231027
 40
0.6793246563100256
 40
0.6869478320243289
 40
0.6945709753945684
 40
0.702194086549294
 40
0.7076051604249913
 40
0.7142099954335313
 40
0.722008572579947
 40
0.7310008670103427
 40
0.7411868487944876
 40
0.7525664832979838
 40
0.765139731377853
 40
0.797302818317412
 40
0.8294662528107155
 40
0.8375103711982199
 40
0.8455545115193045
 40
0.8535986738179921
 40
0.8616428581383091
 40
0.8696870645242764
 40
0.8777312930199159
 40
0.885775543669254
 40
0.8938198165163118
 40
0.9085454030682752
 40
0.9271562024209102
 40
0.949651540908543
 40
0.9666286090723318
 40
0.985298009939291
 40
0.9904680252511748
 40
0.9957541663285379
 40
1.0
 40
1.0
 40
1.0
 40
1.0
 10
-3.17396464206505
 20
-11.91596927007534
 30
0.0
 10
-3.174168735075269
 20
-11.91516947507806
 30
0.0
 10
-3.175111542144284
 20
-11.91147482440688
 30
0.0
 10
-3.158806863661964
 20
-11.90426335018316
 30
0.0
 10
-3.120436140363766
 20
-11.89554913120261
 30
0.0
 10
-3.068287404014466
 20
-11.88754369195107
 30
0.0
 10
-3.02726901131259
 20
-11.8824116872654
 30
0.0
 10
-2.995057379923816
 20
-11.87881097502247
 30
0.0
 10
-2.977083662242615
 20
-11.87688773756157
 30
0.0
 10
-2.958033129046369
 20
-11.87493332571718
 30
0.0
 10
-2.937879000183317
 20
-11.87294760928563
 30
0.0
 10
-2.916593890024082
 20
-11.87093101389565
 30
0.0
 10
-2.867810863577156
 20
-11.86647668541999
 30
0.0
 10
-2.788136225032527
 20
-11.85991475683762
 30
0.0
 10
-2.672086513253399
 20
-11.85160233273961
 30
0.0
 10
-2.55834527900419
 20
-11.84427050796113
 30
0.0
 10
-2.448204881195536
 20
-11.83772788515999
 30
0.0
 10
-2.346139895083503
 20
-11.8320572842331
 30
0.0
 10
-2.27218809892349
 20
-11.82816774405248
 30
0.0
 10
-2.228624360492311
 20
-11.82594549490765
 30
0.0
 10
-2.209881598117759
 20
-11.82499990599178
 30
0.0
 10
-2.192631371799577
 20
-11.82413881046511
 30
0.0
 10
-2.176910210989905
 20
-11.82336233085275
 30
0.0
 10
-2.162750790077001
 20
-11.82267006156468
 30
0.0
 10
-2.117938373494602
 20
-11.82050640268189
 30
0.0
 10
-2.04136216821168
 20
-11.8169365444632
 30
0.0
 10
-1.930579979045164
 20
-11.8120390490522
 30
0.0
 10
-1.819835251174524
 20
-11.8073916122182
 30
0.0
 10
-1.703091077169498
 20
-11.80272631284326
 30
0.0
 10
-1.58630963372098
 20
-11.79830078575304
 30
0.0
 10
-1.47175785828047
 20
-11.7940146840105
 30
0.0
 10
-1.369101400739083
 20
-11.79022086022197
 30
0.0
 10
-1.274494725121837
 20
-11.78674533542913
 30
0.0
 10
-1.188476017744197
 20
-11.78359010318884
 30
0.0
 10
-1.091307787029048
 20
-11.78000964567046
 30
0.0
 10
-0.9696272854632667
 20
-11.77547196207751
 30
0.0
 10
-0.8093029468185814
 20
-11.76949144511924
 30
0.0
 10
-0.6476902301094591
 20
-11.76348545591079
 30
0.0
 10
-0.4919932029734962
 20
-11.75772239274844
 30
0.0
 10
-0.3492707175220411
 20
-11.75245315667217
 30
0.0
 10
-0.1949082409224351
 20
-11.74676266555078
 30
0.0
 10
-0.0291315308675956
 20
-11.74065317944275
 30
0.0
 10
0.1590769833646667
 20
-11.73369261809234
 30
0.0
 10
0.360848681099567
 20
-11.72622882661431
 30
0.0
 10
0.5668510442906814
 20
-11.71862703838315
 30
0.0
 10
0.7570163958126013
 20
-11.7115988077802
 30
0.0
 10
0.9311578065049785
 20
-11.70514693767114
 30
0.0
 10
1.089339120105288
 20
-11.69927161682848
 30
0.0
 10
1.231813852018198
 20
-11.69396933984611
 30
0.0
 10
1.343915057024699
 20
-11.68981046036698
 30
0.0
 10
1.431149237227665
 20
-11.68657224099572
 30
0.0
 10
1.498614370023933
 20
-11.68404245055815
 30
0.0
 10
1.565219758584273
 20
-11.68152382495264
 30
0.0
 10
1.630927573565721
 20
-11.67901483576964
 30
0.0
 10
1.695700011343131
 20
-11.6765154421041
 30
0.0
 10
1.759500036457932
 20
-11.67402733596508
 30
0.0
 10
1.822290733265031
 20
-11.67154379026401
 30
0.0
 10
1.878064933480411
 20
-11.66932735867296
 30
0.0
 10
1.930294088065317
 20
-11.6671729281627
 30
0.0
 10
1.982233874297544
 20
-11.66492313555815
 30
0.0
 10
2.042463411945935
 20
-11.66222291254213
 30
0.0
 10
2.110392476172116
 20
-11.65906500159756
 30
0.0
 10
2.185307211263502
 20
-11.65545137209102
 30
0.0
 10
2.266360035541317
 20
-11.65138148590254
 30
0.0
 10
2.394579432704777
 20
-11.64464568344127
 30
0.0
 10
2.557076430094163
 20
-11.63534846376968
 30
0.0
 10
2.690420075017939
 20
-11.6265304576807
 30
0.0
 10
2.770552648005109
 20
-11.62062468897518
 30
0.0
 10
2.808864254730672
 20
-11.61766489180495
 30
0.0
 10
2.845381800791623
 20
-11.61469922153012
 30
0.0
 10
2.880083071662784
 20
-11.61172750331462
 30
0.0
 10
2.912945633739592
 20
-11.6087501934119
 30
0.0
 10
2.943948529568812
 20
-11.60576564163815
 30
0.0
 10
2.973072158276688
 20
-11.60277999249868
 30
0.0
 10
3.007834510965528
 20
-11.59893707465675
 30
0.0
 10
3.049874531522862
 20
-11.59392574150392
 30
0.0
 10
3.097275260468236
 20
-11.58741872390851
 30
0.0
 10
3.134446392232713
 20
-11.58078668303295
 30
0.0
 10
3.159795835452041
 20
-11.57424075493341
 30
0.0
 10
3.170063416655791
 20
-11.56968586837628
 30
0.0
 10
3.17371486287631
 20
-11.56645195992217
 30
0.0
 10
3.174847049381686
 20
-11.56482235755565
 30
0.0
 10
3.174899648801791
 20
-11.56376831258857
 30
0.0
 10
3.174923078195476
 20
-11.56329880865781
 30
0.0
  0
SPLINE
  5
B2
330
1F
100
AcDbEntity
  8
0
  6
Continuous
 62
     7
370
    25
100
AcDbSpline
210
0.0
220
0.0
230
1.0
 70
     8
 71
     3
 72
    74
 73
    70
 74
     0
 42
0.00000001
 43
0.00000001
 40
0.0
 40
0.0
 40
0.0
 40
0.0
 40
0.0020797486774482
 40
0.0216339974661562
 40
0.0396906387631552
 40
0.0593477667389847
 40
0.0806052671870639
 40
0.0941296977367601
 40
0.1082304284251747
 40
0.1229074489592764
 40
0.138160748434335
 40
0.1539903153544036
 40
0.1826361732492977
 40
0.2083480276447085
 40
0.2311253338247514
 40
0.2509676099698303
 40
0.2678744375719739
 40
0.2818454622744631
 40
0.2898123073472866
 40
0.2993718399661089
 40
0.310524002454211
 40
0.3232687263878568
 40
0.3376059329464483
 40
0.3500441504586114
 40
0.3799626258704729
 40
0.3840560087082132
 40
0.3881897028592564
 40
0.3923637084220319
 40
0.396578025491505
 40
0.4008326541593052
 40
0.4051275945138478
 40
0.4113886289544298
 40
0.4204469752041906
 40
0.4339128744394122
 40
0.4508869738634541
 40
0.4713687589060761
 40
0.4790564788563723
 40
0.4871420781079494
 40
0.4956255535108988
 40
0.5045069017597511
 40
0.5137861193935568
 40
0.5234632027959328
 40
0.5335381481951121
 40
0.5581859101201427
 40
0.5813581430248623
 40
0.6030547299748105
 40
0.6232755635707782
 40
0.6420205464600925
 40
0.6592895920661334
 40
0.6900396919363272
 40
0.7210857032433716
 40
0.7524276524625854
 40
0.7840655650767231
 40
0.8162137335101719
 40
0.8483619904310102
 40
0.8590821414695036
 40
0.8698023023630213
 40
0.8805224731182617
 40
0.8912426537419275
 40
0.9019628442407168
 40
0.912683044621331
 40
0.9242673756811485
 40
0.9372572312930886
 40
0.9516525579179178
 40
0.9674532925653547
 40
0.9825861199070817
 40
0.9892955827826716
 40
0.9960050223005188
 40
1.0
 40
1.0
 40
1.0
 40
1.0
 10
-3.174229483220077
 20
-11.21042440148645
 30
0.0
 10
-3.174485764457563
 20
-11.21019945554135
 30
0.0
 10
-3.177151657554414
 20
-11.20785951896199
 30
0.0
 10
-3.168904871532218
 20
-11.20353971736325
 30
0.0
 10
-3.151791822874208
 20
-11.19706476385386
 30
0.0
 10
-3.121047345354573
 20
-11.19026248102249
 30
0.0
 10
-3.081645226186561
 20
-11.18386159977466
 30
0.0
 10
-3.03757246128353
 20
-11.17804467469367
 30
0.0
 10
-2.993612443256926
 20
-11.17296715740672
 30
0.0
 10
-2.941613140783231
 20
-11.1676401430085
 30
0.0
 10
-2.88094597950859
 20
-11.16206595870508
 30
0.0
 10
-2.792971615528189
 20
-11.15473187483361
 30
0.0
 10
-2.675105388839485
 20
-11.14610175015706
 30
0.0
 10
-2.527192110085278
 20
-11.13668390292577
 30
0.0
 10
-2.382428322671039
 20
-11.12839463610552
 30
0.0
 10
-2.246413299805859
 20
-11.1212369111859
 30
0.0
 10
-2.123660628413977
 20
-11.11521276996356
 30
0.0
 10
-2.025474500129088
 20
-11.11066926020687
 30
0.0
 10
-1.943580003831243
 20
-11.10708366845749
 30
0.0
 10
-1.867401058045672
 20
-11.10387382509101
 30
0.0
 10
-1.776395464886899
 20
-11.10017011437249
 30
0.0
 10
-1.669717016470055
 20
-11.09597500289788
 30
0.0
 10
-1.55649372972015
 20
-11.09166717366938
 30
0.0
 10
-1.390226452434753
 20
-11.08552325186267
 30
0.0
 10
-1.249216166603861
 20
-11.08029259012655
 30
0.0
 10
-1.131021805970392
 20
-11.07591607838306
 30
0.0
 10
-1.092405338541357
 20
-11.0744861470289
 30
0.0
 10
-1.053226165381548
 20
-11.07303538389848
 30
0.0
 10
-1.013484978487517
 20
-11.07156405445018
 30
0.0
 10
-0.9731837495503144
 20
-11.07007090147236
 30
0.0
 10
-0.9262176709327297
 20
-11.06833504364655
 30
0.0
 10
-0.8637016506031546
 20
-11.06599722695635
 30
0.0
 10
-0.7713229106948137
 20
-11.06252716865672
 30
0.0
 10
-0.6434081030889942
 20
-11.05774004805008
 30
0.0
 10
-0.4768293755836094
 20
-11.05154469849749
 30
0.0
 10
-0.3277683126216657
 20
-11.04603800346775
 30
0.0
 10
-0.2076111042452012
 20
-11.04161174634148
 30
0.0
 10
-0.1270839413142871
 20
-11.03864854890471
 30
0.0
 10
-0.0425059857574513
 20
-11.035537996157
 30
0.0
 10
0.046072560383047
 20
-11.03228011116426
 30
0.0
 10
0.1385818566706703
 20
-11.02887462751289
 30
0.0
 10
0.2349352088209528
 20
-11.02532265279689
 30
0.0
 10
0.3819511213887336
 20
-11.01988318619021
 30
0.0
 10
0.5726209304447265
 20
-11.01283024330927
 30
0.0
 10
0.798372532157532
 20
-11.00449399572203
 30
0.0
 10
1.005898614755588
 20
-10.9968144977407
 30
0.0
 10
1.19508047644036
 20
-10.98980101741742
 30
0.0
 10
1.366136658358388
 20
-10.98343181817722
 30
0.0
 10
1.563787650611516
 20
-10.97614283250766
 30
0.0
 10
1.788440702908194
 20
-10.96751875959696
 30
0.0
 10
2.036105824699385
 20
-10.95694241970709
 30
0.0
 10
2.266503803122512
 20
-10.94598056210079
 30
0.0
 10
2.477272587262439
 20
-10.93452708193716
 30
0.0
 10
2.66490556079313
 20
-10.92281031884139
 30
0.0
 10
2.790519713451722
 20
-10.91365843466456
 30
0.0
 10
2.869528137350381
 20
-10.90711036260676
 30
0.0
 10
2.91369602107062
 20
-10.90317798050924
 30
0.0
 10
2.954559226311519
 20
-10.89924323715649
 30
0.0
 10
2.992073185407016
 20
-10.89530452650297
 30
0.0
 10
3.026194985935847
 20
-10.89136798857294
 30
0.0
 10
3.057710341879336
 20
-10.88730434036898
 30
0.0
 10
3.087436199757131
 20
-10.88303550587248
 30
0.0
 10
3.115398371209166
 20
-10.87846640166163
 30
0.0
 10
3.140333704724624
 20
-10.87350601825146
 30
0.0
 10
3.159426025791213
 20
-10.86839587417942
 30
0.0
 10
3.169274165785166
 20
-10.86421540761497
 30
0.0
 10
3.173402193190012
 20
-10.86105945404124
 30
0.0
 10
3.174897165691337
 20
-10.85913989048536
 30
0.0
 10
3.174848344725543
 20
-10.85796471095576
 30
0.0
 10
3.17483012433431
 20
-10.85752612416319
 30
0.0
  0
SPLINE
  5
B3
330
1F
100
AcDbEntity
  8
0
  6
Continuous
 62
     7
370
    25
100
AcDbSpline
210
0.0
220
0.0
230
1.0
 70
    24
 71
     3
 72
    22
 73
    18
 74
     0
 42
0.00000001
 43
0.00000001
 40
0.0
 40
0.0
 40
0.0
 40
0.0
 40
0.0462202581630834
 40
0.1187459451287714
 40
0.1912716320944594
 40
0.261506160463907
 40
0.3322283393613365
 40
0.4027064837463515
 40
0.4731846281313666
 40
0.5457103150970595
 40
0.6182360020627524
 40
0.6884705304321038
 40
0.7591927093294362
 40
0.8187846986568893
 40
0.8783766879843427
 40
0.9391883439921714
 40
1.0
 40
1.0
 40
1.0
 40
1.0
 10
2.790917675686696
 20
-14.03189314513886
 30
0.0
 10
2.790978813776047
 20
-14.03189314513888
 30
0.0
 10
2.791135885598917
 20
-14.03189314513891
 30
0.0
 10
2.768596117801848
 20
-14.03189314513889
 30
0.0
 10
2.726236995359764
 20
-14.03189314513889
 30
0.0
 10
2.664141203084798
 20
-14.0318931451389
 30
0.0
 10
2.584467924035655
 20
-14.03189314513889
 30
0.0
 10
2.486697240042384
 20
-14.0318931451389
 30
0.0
 10
2.370843860417624
 20
-14.0318931451389
 30
0.0
 10
2.236844565139478
 20
-14.0318931451389
 30
0.0
 10
2.086883437841671
 20
-14.03189314513889
 30
0.0
 10
1.923415231949107
 20
-14.03189314513891
 30
0.0
 10
1.757243381154668
 20
-14.03189314513882
 30
0.0
 10
1.589900307608037
 20
-14.03189314513883
 30
0.0
 10
1.423303140848866
 20
-14.03189314513877
 30
0.0
 10
1.248738875189324
 20
-14.03189314513884
 30
0.0
 10
1.126331825628531
 20
-14.03189314513888
 30
0.0
 10
1.065128300848135
 20
-14.03189314513889
 30
0.0
  0
SPLINE
  5
B6
330
1F
100
AcDbEntity
  8
0
  6
Continuous
 62
     7
370
    25
100
AcDbSpline
210
0.0
220
0.0
230
1.0
 70
    24
 71
     3
 72
    12
 73
     8
 74
     0
 42
0.00000001
 43
0.00000001
 40
0.0
 40
0.0
 40
0.0
 40
0.0
 40
0.3083460728205148
 40
0.5101369641740411
 40
0.7133289247309248
 40
0.91581974949474
 40
1.0
 40
1.0
 40
1.0
 40
1.0
 10
2.560941567640801
 20
-10.41810685486113
 30
0.0
 10
2.604139151268341
 20
-10.41810685486113
 30
0.0
 10
2.675606525474967
 20
-10.41810685486114
 30
0.0
 10
2.740002733472768
 20
-10.41810685486108
 30
0.0
 10
2.776307514819017
 20
-10.41810685486127
 30
0.0
 10
2.793232325052968
 20
-10.41810685486117
 30
0.0
 10
2.791315837505782
 20
-10.41810685486115
 30
0.0
 10
2.790753065689124
 20
-10.41810685486115
 30
0.0
  0
LINE
  5
1B4
330
1F
100
AcDbEntity
  8
0
  6
Continuous
 62
     7
370
    25
100
AcDbLine
 10
-2.9870141673
 20
-13.8379858327
 30
0.0
 11
-2.675
 21
-14.15
 31
0.0
  0
LINE
  5
1B5
330
1F
100
AcDbEntity
  8
0
  6
Continuous
 62
     7
370
    25
100
AcDbLine
 10
3.1034666971
 20
-13.7215333029
 30
0.0
 11
3.175
 21
-13.65
 31
0.0
  0
LINE
  5
1B6
330
1F
100
AcDbEntity
  8
0
  6
Continuous
 62
     7
370
    25
100
AcDbLine
 10
2.675
 20
-14.15
 30
0.0
 11
2.7931068549
 21
-14.0318931451
 31
0.0
  0
LINE
  5
1B7
330
1F
100
AcDbEntity
  8
0
  6
Continuous
 62
     7
370
    25
100
AcDbLine
 10
-2.7931068053
 20
-13.5475886364
 30
0.0
 11
-2.7931068053
 21
-13.720631858
 31
0.0
  0
LINE
  5
1B8
330
1F
100
AcDbEntity
  8
0
  6
Continuous
 62
     7
370
    25
100
AcDbLine
 10
2.7931067956
 20
-14.0318931451
 30
0.0
 11
2.7931067956
 21
-13.9036717105
 31
0.0
  0
LINE
  5
1B9
330
1F
100
AcDbEntity
  8
0
  6
Continuous
 62
     7
370
    25
100
AcDbLine
 10
-3.175
 20
-13.238877668
 30
0.0
 11
-3.175
 21
-13.3270745197
 31
0.0
  0
LINE
  5
1BA
330
1F
100
AcDbEntity
  8
0
  6
Continuous
 62
     7
370
    25
100
AcDbLine
 10
-3.175
 20
-12.5333300414
 30
0.0
 11
-3.175
 21
-12.6215251311
 31
0.0
  0
LINE
  5
1BB
330
1F
100
AcDbEntity
  8
0
  6
Continuous
 62
     7
370
    25
100
AcDbLine
 10
-3.175
 20
-11.8277819134
 30
0.0
 11
-3.175
 21
-11.9159692701
 31
0.0
  0
LINE
  5
1BC
330
1F
100
AcDbEntity
  8
0
  6
Continuous
 62
     7
370
    25
100
AcDbLine
 10
-3.175
 20
-11.1221968423
 30
0.0
 11
-3.175
 21
-11.2104244015
 31
0.0
  0
LINE
  5
1BD
330
1F
100
AcDbEntity
  8
0
  6
Continuous
 62
     7
370
    25
100
AcDbLine
 10
3.175
 20
-10.8575261242
 30
0.0
 11
3.175
 21
-10.8
 31
0.0
  0
LINE
  5
1BE
330
1F
100
AcDbEntity
  8
0
  6
Continuous
 62
     7
370
    25
100
AcDbLine
 10
3.175
 20
-11.5632988087
 30
0.0
 11
3.175
 21
-11.4750866852
 31
0.0
  0
LINE
  5
1BF
330
1F
100
AcDbEntity
  8
0
  6
Continuous
 62
     7
370
    25
100
AcDbLine
 10
3.175
 20
-12.2687506696
 30
0.0
 11
3.175
 21
-12.18054525
 31
0.0
  0
LINE
  5
1C0
330
1F
100
AcDbEntity
  8
0
  6
Continuous
 62
     7
370
    25
100
AcDbLine
 10
3.175
 20
-12.9741861125
 30
0.0
 11
3.175
 21
-12.885974217
 31
0.0
  0
LINE
  5
1C1
330
1F
100
AcDbEntity
  8
0
  6
Continuous
 62
     7
370
    25
100
AcDbLine
 10
3.175
 20
-13.65
 30
0.0
 11
3.175
 21
-13.5915688491
 31
0.0
  0
LINE
  5
1C2
330
1F
100
AcDbEntity
  8
0
  6
Continuous
 62
     7
370
    25
100
AcDbLine
 10
2.7931068549
 20
-10.4181068549
 30
0.0
 11
2.675
 21
-10.3
 31
0.0
  0
LINE
  5
1C3
330
1F
100
AcDbEntity
  8
0
  6
Continuous
 62
     7
370
    25
100
AcDbLine
 10
3.175
 20
-10.8
 30
0.0
 11
3.1020751788
 21
-10.7270751788
 31
0.0
  0
LINE
  5
1C4
330
1F
100
AcDbEntity
  8
0
  6
Continuous
 62
     7
370
    25
100
AcDbLine
 10
-2.675
 20
-10.3
 30
0.0
 11
-2.9865117496
 21
-10.6115117496
 31
0.0
  0
LINE
  5
1C5
330
1F
100
AcDbEntity
  8
0
  6
Continuous
 62
     7
370
    25
100
AcDbLine
 10
3.3
 20
-8.9
 30
0.0
 11
3.3
 21
0.0
 31
0.0
  0
LINE
  5
1C6
330
1F
100
AcDbEntity
  8
0
  6
Continuous
 62
     7
370
    25
100
AcDbLine
 10
-3.3
 20
0.0
 30
0.0
 11
-3.3
 21
-8.9
 31
0.0
  0
LINE
  5
1C7
330
1F
100
AcDbEntity
  8
0
  6
Continuous
 62
     7
370
    25
100
AcDbLine
 10
-2.675
 20
-8.9
 30
0.0
 11
-2.675
 21
-10.3
 31
0.0
  0
LINE
  5
1C8
330
1F
100
AcDbEntity
  8
0
  6
Continuous
 62
     7
370
    25
100
AcDbLine
 10
2.675
 20
-10.3
 30
0.0
 11
2.675
 21
-8.9
 31
0.0
  0
LINE
  5
1C9
330
1F
100
AcDbEntity
  8
0
  6
Continuous
 62
     7
370
    25
100
AcDbLine
 10
-2.675
 20
-14.15
 30
0.0
 11
-2.675
 21
-14.9
 31
0.0
  0
LINE
  5
1CA
330
1F
100
AcDbEntity
  8
0
  6
Continuous
 62
     7
370
    25
100
AcDbLine
 10
2.675
 20
-14.9
 30
0.0
 11
2.675
 21
-14.15
 31
0.0
  0
LINE
  5
1CB
330
1F
100
AcDbEntity
  8
0
  6
Continuous
 62
     7
370
    25
100
AcDbLine
 10
0.25
 20
-1.95
 30
0.0
 11
0.25
 21
-1.15
 31
0.0
  0
LINE
  5
1CC
330
1F
100
AcDbEntity
  8
0
  6
Continuous
 62
     7
370
    25
100
AcDbLine
 10
-0.25
 20
-1.15
 30
0.0
 11
-0.25
 21
-1.95
 31
0.0
  0
LINE
  5
1CD
330
1F
100
AcDbEntity
  8
0
  6
Continuous
 62
     7
370
    25
100
AcDbLine
 10
2.7558593473
 20
-13.65
 30
0.0
 11
3.175
 21
-13.65
 31
0.0
  0
LINE
  5
1CE
330
1F
100
AcDbEntity
  8
0
  6
Continuous
 62
     7
370
    25
100
AcDbLine
 10
2.675
 20
-14.15
 30
0.0
 11
-2.675
 21
-14.15
 31
0.0
  0
LINE
  5
1CF
330
1F
100
AcDbEntity
  8
0
  6
Continuous
 62
     7
370
    25
100
AcDbLine
 10
3.175
 20
-10.8
 30
0.0
 11
3.0504098046
 21
-10.8
 31
0.0
  0
LINE
  5
1D0
330
1F
100
AcDbEntity
  8
0
  6
Continuous
 62
     7
370
    25
100
AcDbLine
 10
2.675
 20
-10.3
 30
0.0
 11
-2.675
 21
-10.3
 31
0.0
  0
LINE
  5
1D1
330
1F
100
AcDbEntity
  8
0
  6
Continuous
 62
     7
370
    25
100
AcDbLine
 10
1.7464249197
 20
-8.9
 30
0.0
 11
1.7464249197
 21
-2.0
 31
0.0
  0
LINE
  5
1D2
330
1F
100
AcDbEntity
  8
0
  6
Continuous
 62
     7
370
    25
100
AcDbLine
 10
3.2813869019
 20
-2.0
 30
0.0
 11
0.5
 21
-2.0
 31
0.0
  0
LINE
  5
1D3
330
1F
100
AcDbEntity
  8
0
  6
Continuous
 62
     7
370
    25
100
AcDbLine
 10
3.2813869019
 20
-2.0
 30
0.0
 11
3.2813869019
 21
0.0
 31
0.0
  0
LINE
  5
1D4
330
1F
100
AcDbEntity
  8
0
  6
Continuous
 62
     7
370
    25
100
AcDbLine
 10
3.3
 20
0.0
 30
0.0
 11
0.634921255
 21
0.0
 31
0.0
  0
LINE
  5
1D5
330
1F
100
AcDbEntity
  8
0
  6
Continuous
 62
     7
370
    25
100
AcDbLine
 10
-0.634921255
 20
0.0
 30
0.0
 11
-3.3
 21
0.0
 31
0.0
  0
LINE
  5
1D6
330
1F
100
AcDbEntity
  8
0
  6
Continuous
 62
     7
370
    25
100
AcDbLine
 10
-3.2813869019
 20
-2.0
 30
0.0
 11
-3.2813869019
 21
0.0
 31
0.0
  0
LINE
  5
1D7
330
1F
100
AcDbEntity
  8
0
  6
Continuous
 62
     7
370
    25
100
AcDbLine
 10
-0.5
 20
-2.0
 30
0.0
 11
-3.2813869019
 21
-2.0
 31
0.0
  0
LINE
  5
1D8
330
1F
100
AcDbEntity
  8
0
  6
Continuous
 62
     7
370
    25
100
AcDbLine
 10
-1.7464249197
 20
-8.9
 30
0.0
 11
-1.7464249197
 21
-2.0
 31
0.0
  0
LINE
  5
1D9
330
1F
100
AcDbEntity
  8
0
  6
Continuous
 62
     7
370
    25
100
AcDbLine
 10
3.3
 20
-8.9
 30
0.0
 11
-3.3
 21
-8.9
 31
0.0
  0
LINE
  5
222
330
1F
100
AcDbEntity
  8
0
  6
Continuous
 62
     7
370
    25
100
AcDbLine
 10
-0.5
 20
-2.5
 30
0.0
 11
-0.5
 21
-2.0
 31
0.0
  0
LINE
  5
223
330
1F
100
AcDbEntity
  8
0
  6
Continuous
 62
     7
370
    25
100
AcDbLine
 10
0.5
 20
-2.5
 30
0.0
 11
-0.5
 21
-2.5
 31
0.0
  0
LINE
  5
224
330
1F
100
AcDbEntity
  8
0
  6
Continuous
 62
     7
370
    25
100
AcDbLine
 10
0.5
 20
-2.5
 30
0.0
 11
0.5
 21
-2.0
 31
0.0
  0
LINE
  5
263
330
1F
100
AcDbEntity
  8
0
  6
Continuous
 62
     7
370
    25
100
AcDbLine
 10
2.675
 20
-14.9
 30
0.0
 11
-2.675
 21
-14.9
 31
0.0
  0
LINE
  5
264
330
1F
100
AcDbEntity
  8
0
  6
Continuous
 62
     7
370
    25
100
AcDbLine
 10
-0.5
 20
-2.45
 30
0.0
 11
0.5
 21
-2.45
 31
0.0
  0
LINE
  5
265
330
1F
100
AcDbEntity
  8
0
  6
Continuous
 62
     7
370
    25
100
AcDbLine
 10
-0.634921255
 20
-2.0
 30
0.0
 11
-0.634921255
 21
0.0
 31
0.0
  0
LINE
  5
266
330
1F
100
AcDbEntity
  8
0
  6
Continuous
 62
     7
370
    25
100
AcDbLine
 10
-0.634921255
 20
-1.95
 30
0.0
 11
0.634921255
 21
-1.95
 31
0.0
  0
LINE
  5
267
330
1F
100
AcDbEntity
  8
0
  6
Continuous
 62
     7
370
    25
100
AcDbLine
 10
0.634921255
 20
-2.0
 30
0.0
 11
0.634921255
 21
0.0
 31
0.0
  0
LINE
  5
268
330
1F
100
AcDbEntity
  8
0
  6
Continuous
 62
     7
370
    25
100
AcDbLine
 10
-0.25
 20
-1.15
 30
0.0
 11
0.25
 21
-1.15
 31
0.0
  0
ENDSEC
  0
SECTION
  2
OBJECTS
  0
DICTIONARY
  5
C
330
0
100
AcDbDictionary
281
     1
  3
ACAD_GROUP
350
D
  3
ACAD_LAYOUT
350
1A
  3
ACAD_MLINESTYLE
350
17
  3
ACAD_PLOTSETTINGS
350
19
  3
ACAD_PLOTSTYLENAME
350
E
  3
ACAD_SCALELIST
350
47
  3
DWGPROPS
350
269
  0
DICTIONARY
  5
D
102
{ACAD_REACTORS
330
C
102
}
330
C
100
AcDbDictionary
281
     1
  0
DICTIONARY
  5
1A
102
{ACAD_REACTORS
330
C
102
}
330
C
100
AcDbDictionary
281
     1
  3
Layout1
350
1E
  3
Layout2
350
26
  3
Model
350
22
  0
DICTIONARY
  5
17
102
{ACAD_REACTORS
330
C
102
}
330
C
100
AcDbDictionary
281
     1
  3
Standard
350
18
  0
DICTIONARY
  5
19
102
{ACAD_REACTORS
330
C
102
}
330
C
100
AcDbDictionary
281
     1
  0
ACDBDICTIONARYWDFLT
  5
E
102
{ACAD_REACTORS
330
C
102
}
330
C
100
AcDbDictionary
281
     1
  3
Normal
350
F
100
AcDbDictionaryWithDefault
340
F
  0
DICTIONARY
  5
47
102
{ACAD_REACTORS
330
C
102
}
330
C
100
AcDbDictionary
281
     1
  3
A0
350
48
  3
A1
350
49
  3
A2
350
4A
  3
A3
350
4B
  3
A4
350
4C
  3
A5
350
4D
  3
A6
350
4E
  3
A7
350
4F
  3
A8
350
50
  3
A9
350
51
  3
B0
350
52
  3
B1
350
53
  3
B2
350
54
  3
B3
350
55
  3
B4
350
56
  3
B5
350
57
  3
B6
350
58
  0
XRECORD
  5
269
102
{ACAD_REACTORS
330
C
102
}
330
C
100
AcDbXrecord
280
     1
  1
DWGPROPS COOKIE
  2

  3

  4

  6

  7

  8
s9sar
  9

300
=
301
=
302
=
303
=
304
=
305
=
306
=
307
=
308
=
309
=
 40
0.0
 41
2460501.405638253
 42
2460501.405690729
  1

 90
        0
  0
LAYOUT
  5
1E
102
{ACAD_REACTORS
330
1A
102
}
330
1A
100
AcDbPlotSettings
  1

  2
none_device
  4

  6

 40
0.0
 41
0.0
 42
0.0
 43
0.0
 44
0.0
 45
0.0
 46
0.0
 47
0.0
 48
0.0
 49
0.0
140
0.0
141
0.0
142
1.0
143
1.0
 70
   688
 72
     1
 73
     0
 74
     5
  7

 75
    16
147
1.0
148
0.0
149
0.0
100
AcDbLayout
  1
Layout1
 70
     1
 71
     1
 10
0.0
 20
0.0
 11
420.0
 21
297.0
 12
0.0
 22
0.0
 32
0.0
 14
1.0000000000E+20
 24
1.0000000000E+20
 34
1.0000000000E+20
 15
-1.0000000000E+20
 25
-1.0000000000E+20
 35
-1.0000000000E+20
146
0.0
 13
0.0
 23
0.0
 33
0.0
 16
1.0
 26
0.0
 36
0.0
 17
0.0
 27
1.0
 37
0.0
 76
     0
330
1B
  0
LAYOUT
  5
26
102
{ACAD_REACTORS
330
1A
102
}
330
1A
100
AcDbPlotSettings
  1

  2
none_device
  4

  6

 40
0.0
 41
0.0
 42
0.0
 43
0.0
 44
0.0
 45
0.0
 46
0.0
 47
0.0
 48
0.0
 49
0.0
140
0.0
141
0.0
142
1.0
143
1.0
 70
   688
 72
     1
 73
     0
 74
     5
  7

 75
    16
147
1.0
148
0.0
149
0.0
100
AcDbLayout
  1
Layout2
 70
     1
 71
     2
 10
0.0
 20
0.0
 11
0.0
 21
0.0
 12
0.0
 22
0.0
 32
0.0
 14
0.0
 24
0.0
 34
0.0
 15
0.0
 25
0.0
 35
0.0
146
0.0
 13
0.0
 23
0.0
 33
0.0
 16
1.0
 26
0.0
 36
0.0
 17
0.0
 27
1.0
 37
0.0
 76
     0
330
23
  0
LAYOUT
  5
22
102
{ACAD_REACTORS
330
1A
102
}
330
1A
100
AcDbPlotSettings
  1

  2
none_device
  4
ANSI_A_(11.00_x_8.50_Inches)
  6

 40
6.35
 41
19.05
 42
6.35000508
 43
19.05000254
 44
279.4
 45
215.9
 46
133.34999746
 47
195.77049873
 48
0.0
 49
0.0
140
0.0
141
0.0
142
0.5647651007
143
1.0
 70
  1696
 72
     0
 73
     0
 74
     0
  7

 75
     0
147
0.0179189148
148
-1300.4909072572
149
0.0
100
AcDbLayout
  1
Model
 70
     1
 71
     0
 10
0.0
 20
0.0
 11
420.0
 21
297.0
 12
0.0
 22
0.0
 32
0.0
 14
-3.3
 24
-14.9
 34
0.0
 15
3.3
 25
0.0
 35
0.0
146
0.0
 13
0.0
 23
0.0
 33
0.0
 16
1.0
 26
0.0
 36
0.0
 17
0.0
 27
1.0
 37
0.0
 76
     0
330
1F
331
29
  0
MLINESTYLE
  5
18
102
{ACAD_REACTORS
330
17
102
}
330
17
100
AcDbMlineStyle
  2
Standard
 70
     0
  3

 62
   256
 51
90.0
 52
90.0
 71
     2
 49
0.5
 62
   256
  6
BYLAYER
 49
-0.5
 62
   256
  6
BYLAYER
  0
ACDBPLACEHOLDER
  5
F
102
{ACAD_REACTORS
330
E
102
}
330
E
  0
SCALE
  5
48
102
{ACAD_REACTORS
330
47
102
}
330
47
100
AcDbScale
 70
     0
300
1:1
140
1.0
141
1.0
290
     1
  0
SCALE
  5
49
102
{ACAD_REACTORS
330
47
102
}
330
47
100
AcDbScale
 70
     0
300
1:2
140
1.0
141
2.0
290
     0
  0
SCALE
  5
4A
102
{ACAD_REACTORS
330
47
102
}
330
47
100
AcDbScale
 70
     0
300
1:4
140
1.0
141
4.0
290
     0
  0
SCALE
  5
4B
102
{ACAD_REACTORS
330
47
102
}
330
47
100
AcDbScale
 70
     0
300
1:5
140
1.0
141
5.0
290
     0
  0
SCALE
  5
4C
102
{ACAD_REACTORS
330
47
102
}
330
47
100
AcDbScale
 70
     0
300
1:8
140
1.0
141
8.0
290
     0
  0
SCALE
  5
4D
102
{ACAD_REACTORS
330
47
102
}
330
47
100
AcDbScale
 70
     0
300
1:10
140
1.0
141
10.0
290
     0
  0
SCALE
  5
4E
102
{ACAD_REACTORS
330
47
102
}
330
47
100
AcDbScale
 70
     0
300
1:16
140
1.0
141
16.0
290
     0
  0
SCALE
  5
4F
102
{ACAD_REACTORS
330
47
102
}
330
47
100
AcDbScale
 70
     0
300
1:20
140
1.0
141
20.0
290
     0
  0
SCALE
  5
50
102
{ACAD_REACTORS
330
47
102
}
330
47
100
AcDbScale
 70
     0
300
1:30
140
1.0
141
30.0
290
     0
  0
SCALE
  5
51
102
{ACAD_REACTORS
330
47
102
}
330
47
100
AcDbScale
 70
     0
300
1:40
140
1.0
141
40.0
290
     0
  0
SCALE
  5
52
102
{ACAD_REACTORS
330
47
102
}
330
47
100
AcDbScale
 70
     0
300
1:50
140
1.0
141
50.0
290
     0
  0
SCALE
  5
53
102
{ACAD_REACTORS
330
47
102
}
330
47
100
AcDbScale
 70
     0
300
1:100
140
1.0
141
100.0
290
     0
  0
SCALE
  5
54
102
{ACAD_REACTORS
330
47
102
}
330
47
100
AcDbScale
 70
     0
300
2:1
140
2.0
141
1.0
290
     0
  0
SCALE
  5
55
102
{ACAD_REACTORS
330
47
102
}
330
47
100
AcDbScale
 70
     0
300
4:1
140
4.0
141
1.0
290
     0
  0
SCALE
  5
56
102
{ACAD_REACTORS
330
47
102
}
330
47
100
AcDbScale
 70
     0
300
8:1
140
8.0
141
1.0
290
     0
  0
SCALE
  5
57
102
{ACAD_REACTORS
330
47
102
}
330
47
100
AcDbScale
 70
     0
300
10:1
140
10.0
141
1.0
290
     0
  0
SCALE
  5
58
102
{ACAD_REACTORS
330
47
102
}
330
47
100
AcDbScale
 70
     0
300
100:1
140
100.0
141
1.0
290
     0
  0
ENDSEC
  0
EOF
