  0
SECTION
  2
HEADER
  9
$ACADVER
  1
AC1015
  9
$ACADMAINTVER
 70
     6
  9
$DWGCODEPAGE
  3
ANSI_1251
  9
$INSBASE
 10
0.0
 20
0.0
 30
0.0
  9
$EXTMIN
 10
-1.905
 20
-2.11
 30
0.0
  9
$EXTMAX
 10
1.905
 20
2.11
 30
0.0
  9
$LIMMIN
 10
0.0
 20
0.0
  9
$LIMMAX
 10
420.0
 20
297.0
  9
$ORTHOMODE
 70
     0
  9
$REGENMODE
 70
     1
  9
$FILLMODE
 70
     1
  9
$QTEXTMODE
 70
     0
  9
$MIRRTEXT
 70
     1
  9
$LTSCALE
 40
1.0
  9
$ATTMODE
 70
     1
  9
$TEXTSIZE
 40
4.0
  9
$TRACEWID
 40
1.0
  9
$TEXTSTYLE
  7
Standard
  9
$CLAYER
  8
0
  9
$CELTYPE
  6
ByLayer
  9
$CECOLOR
 62
   256
  9
$CELTSCALE
 40
1.0
  9
$DISPSILH
 70
     0
  9
$DIMSCALE
 40
1.0
  9
$DIMASZ
 40
6.0
  9
$DIMEXO
 40
0.0
  9
$DIMDLI
 40
3.75
  9
$DIMRND
 40
0.0
  9
$DIMDLE
 40
0.0
  9
$DIMEXE
 40
1.0
  9
$DIMTP
 40
0.0
  9
$DIMTM
 40
0.0
  9
$DIMTXT
 40
4.0
  9
$DIMCEN
 40
2.5
  9
$DIMTSZ
 40
0.0
  9
$DIMTOL
 70
     0
  9
$DIMLIM
 70
     0
  9
$DIMTIH
 70
     1
  9
$DIMTOH
 70
     1
  9
$DIMSE1
 70
     0
  9
$DIMSE2
 70
     0
  9
$DIMTAD
 70
     1
  9
$DIMZIN
 70
     0
  9
$DIMBLK
  1

  9
$DIMASO
 70
     1
  9
$DIMSHO
 70
     1
  9
$DIMPOST
  1

  9
$DIMAPOST
  1

  9
$DIMALT
 70
     0
  9
$DIMALTD
 70
     3
  9
$DIMALTF
 40
0.0393700787
  9
$DIMLFAC
 40
1.0
  9
$DIMTOFL
 70
     1
  9
$DIMTVP
 40
0.0
  9
$DIMTIX
 70
     0
  9
$DIMSOXD
 70
     0
  9
$DIMSAH
 70
     0
  9
$DIMBLK1
  1

  9
$DIMBLK2
  1

  9
$DIMSTYLE
  2
ISO-25
  9
$DIMCLRD
 70
     0
  9
$DIMCLRE
 70
     0
  9
$DIMCLRT
 70
     0
  9
$DIMTFAC
 40
1.0
  9
$DIMGAP
 40
3.0
  9
$DIMJUST
 70
     0
  9
$DIMSD1
 70
     0
  9
$DIMSD2
 70
     0
  9
$DIMTOLJ
 70
     0
  9
$DIMTZIN
 70
     0
  9
$DIMALTZ
 70
     0
  9
$DIMALTTZ
 70
     0
  9
$DIMUPT
 70
     0
  9
$DIMDEC
 70
     2
  9
$DIMTDEC
 70
     4
  9
$DIMALTU
 70
     2
  9
$DIMALTTD
 70
     3
  9
$DIMTXSTY
  7
Standard
  9
$DIMAUNIT
 70
     0
  9
$DIMADEC
 70
     2
  9
$DIMALTRND
 40
0.0
  9
$DIMAZIN
 70
     0
  9
$DIMDSEP
 70
    44
  9
$DIMATFIT
 70
     3
  9
$DIMFRAC
 70
     0
  9
$DIMLDRBLK
  1

  9
$DIMLUNIT
 70
     2
  9
$DIMLWD
 70
    -2
  9
$DIMLWE
 70
    -2
  9
$DIMTMOVE
 70
     0
  9
$LUNITS
 70
     2
  9
$LUPREC
 70
     2
  9
$SKETCHINC
 40
1.0
  9
$FILLETRAD
 40
0.0
  9
$AUNITS
 70
     0
  9
$AUPREC
 70
     2
  9
$MENU
  1
.
  9
$ELEVATION
 40
0.0
  9
$PELEVATION
 40
0.0
  9
$THICKNESS
 40
0.0
  9
$LIMCHECK
 70
     0
  9
$CHAMFERA
 40
0.0
  9
$CHAMFERB
 40
0.0
  9
$CHAMFERC
 40
0.0
  9
$CHAMFERD
 40
0.0
  9
$SKPOLY
 70
     0
  9
$TDCREATE
 40
2460650.556697188
  9
$TDUCREATE
 40
2460650.390030521
  9
$TDUPDATE
 40
2460650.556800336
  9
$TDUUPDATE
 40
2460650.390133669
  9
$TDINDWG
 40
0.0000000116
  9
$TDUSRTIMER
 40
0.0000000116
  9
$USRTIMER
 70
     1
  9
$ANGBASE
 50
0.0
  9
$ANGDIR
 70
     0
  9
$PDMODE
 70
     0
  9
$PDSIZE
 40
-1.0
  9
$PLINEWID
 40
0.0
  9
$SPLFRAME
 70
     0
  9
$SPLINETYPE
 70
     6
  9
$SPLINESEGS
 70
     8
  9
$HANDSEED
  5
16D
  9
$SURFTAB1
 70
     6
  9
$SURFTAB2
 70
     6
  9
$SURFTYPE
 70
     6
  9
$SURFU
 70
     6
  9
$SURFV
 70
     6
  9
$UCSBASE
  2

  9
$UCSNAME
  2

  9
$UCSORG
 10
0.0
 20
0.0
 30
0.0
  9
$UCSXDIR
 10
1.0
 20
0.0
 30
0.0
  9
$UCSYDIR
 10
0.0
 20
1.0
 30
0.0
  9
$UCSORTHOREF
  2

  9
$UCSORTHOVIEW
 70
     0
  9
$UCSORGTOP
 10
0.0
 20
0.0
 30
0.0
  9
$UCSORGBOTTOM
 10
0.0
 20
0.0
 30
0.0
  9
$UCSORGLEFT
 10
0.0
 20
0.0
 30
0.0
  9
$UCSORGRIGHT
 10
0.0
 20
0.0
 30
0.0
  9
$UCSORGFRONT
 10
0.0
 20
0.0
 30
0.0
  9
$UCSORGBACK
 10
0.0
 20
0.0
 30
0.0
  9
$PUCSBASE
  2

  9
$PUCSNAME
  2

  9
$PUCSORG
 10
0.0
 20
0.0
 30
0.0
  9
$PUCSXDIR
 10
1.0
 20
0.0
 30
0.0
  9
$PUCSYDIR
 10
0.0
 20
1.0
 30
0.0
  9
$PUCSORTHOREF
  2

  9
$PUCSORTHOVIEW
 70
     0
  9
$PUCSORGTOP
 10
0.0
 20
0.0
 30
0.0
  9
$PUCSORGBOTTOM
 10
0.0
 20
0.0
 30
0.0
  9
$PUCSORGLEFT
 10
0.0
 20
0.0
 30
0.0
  9
$PUCSORGRIGHT
 10
0.0
 20
0.0
 30
0.0
  9
$PUCSORGFRONT
 10
0.0
 20
0.0
 30
0.0
  9
$PUCSORGBACK
 10
0.0
 20
0.0
 30
0.0
  9
$USERI1
 70
     0
  9
$USERI2
 70
     0
  9
$USERI3
 70
     0
  9
$USERI4
 70
     0
  9
$USERI5
 70
     0
  9
$USERR1
 40
0.0
  9
$USERR2
 40
0.0
  9
$USERR3
 40
0.0
  9
$USERR4
 40
0.0
  9
$USERR5
 40
0.0
  9
$WORLDVIEW
 70
     1
  9
$SHADEDGE
 70
     3
  9
$SHADEDIF
 70
    70
  9
$TILEMODE
 70
     1
  9
$MAXACTVP
 70
    64
  9
$PINSBASE
 10
0.0
 20
0.0
 30
0.0
  9
$PLIMCHECK
 70
     0
  9
$PEXTMIN
 10
1.0000000000E+20
 20
1.0000000000E+20
 30
1.0000000000E+20
  9
$PEXTMAX
 10
-1.0000000000E+20
 20
-1.0000000000E+20
 30
-1.0000000000E+20
  9
$PLIMMIN
 10
0.0
 20
0.0
  9
$PLIMMAX
 10
420.0
 20
297.0
  9
$UNITMODE
 70
     0
  9
$VISRETAIN
 70
     1
  9
$PLINEGEN
 70
     0
  9
$PSLTSCALE
 70
     1
  9
$TREEDEPTH
 70
  3020
  9
$CMLSTYLE
  2
Standard
  9
$CMLJUST
 70
     0
  9
$CMLSCALE
 40
20.0
  9
$PROXYGRAPHICS
 70
     1
  9
$MEASUREMENT
 70
     1
  9
$CELWEIGHT
370
    -1
  9
$ENDCAPS
280
     0
  9
$JOINSTYLE
280
     0
  9
$LWDISPLAY
290
     1
  9
$INSUNITS
 70
     4
  9
$HYPERLINKBASE
  1

  9
$STYLESHEET
  1

  9
$XEDIT
290
     1
  9
$CEPSNTYPE
380
     0
  9
$PSTYLEMODE
290
     1
  9
$FINGERPRINTGUID
  2
{c33b966a-24eb-4fed-b628-3217f31d9fe5}
  9
$VERSIONGUID
  2
{FAEB1C32-E019-11D5-929B-00C0DF256EC4}
  9
$EXTNAMES
290
     1
  9
$PSVPSCALE
 40
0.0
  9
$OLESTARTUP
290
     0
  0
ENDSEC
  0
SECTION
  2
CLASSES
  0
CLASS
  1
ACDBDICTIONARYWDFLT
  2
AcDbDictionaryWithDefault
  3
ObjectDBX Classes
 90
        0
280
     0
281
     0
  0
CLASS
  1
VISUALSTYLE
  2
AcDbVisualStyle
  3
ObjectDBX Classes
 90
     4095
280
     0
281
     0
  0
CLASS
  1
MATERIAL
  2
AcDbMaterial
  3
ObjectDBX Classes
 90
     1153
280
     0
281
     0
  0
CLASS
  1
SCALE
  2
AcDbScale
  3
ObjectDBX Classes
 90
     1153
280
     0
281
     0
  0
CLASS
  1
TABLESTYLE
  2
AcDbTableStyle
  3
ObjectDBX Classes
 90
     4095
280
     0
281
     0
  0
CLASS
  1
MLEADERSTYLE
  2
AcDbMLeaderStyle
  3
ACDB_MLEADERSTYLE_CLASS
 90
     4095
280
     0
281
     0
  0
CLASS
  1
SUN
  2
AcDbSun
  3
SCENEOE
 90
     1153
280
     0
281
     0
  0
CLASS
  1
ACDBPLACEHOLDER
  2
AcDbPlaceHolder
  3
ObjectDBX Classes
 90
        0
280
     0
281
     0
  0
CLASS
  1
LAYOUT
  2
AcDbLayout
  3
ObjectDBX Classes
 90
        0
280
     0
281
     0
  0
ENDSEC
  0
SECTION
  2
TABLES
  0
TABLE
  2
VPORT
  5
8
330
0
100
AcDbSymbolTable
 70
     1
  0
VPORT
  5
29
330
8
100
AcDbSymbolTableRecord
100
AcDbViewportTableRecord
  2
*Active
 70
     0
 10
0.0
 20
0.0
 11
1.0
 21
1.0
 12
0.0
 22
0.0
 13
0.0
 23
0.0
 14
10.0
 24
10.0
 15
10.0
 25
10.0
 16
0.0
 26
0.0
 36
1.0
 17
0.0
 27
0.0
 37
0.0
 40
4.3044
 41
0.9028436019
 42
50.0
 43
0.0
 44
0.0
 50
0.0
 51
0.0
 71
     0
 72
   100
 73
     1
 74
     3
 75
     0
 76
     0
 77
     0
 78
     0
281
     0
 65
     1
110
0.0
120
0.0
130
0.0
111
1.0
121
0.0
131
0.0
112
0.0
122
1.0
132
0.0
 79
     0
146
0.0
  0
ENDTAB
  0
TABLE
  2
LTYPE
  5
5
330
0
100
AcDbSymbolTable
 70
     6
  0
LTYPE
  5
14
330
5
100
AcDbSymbolTableRecord
100
AcDbLinetypeTableRecord
  2
ByBlock
 70
     0
  3

 72
    65
 73
     0
 40
0.0
  0
LTYPE
  5
15
330
5
100
AcDbSymbolTableRecord
100
AcDbLinetypeTableRecord
  2
ByLayer
 70
     0
  3

 72
    65
 73
     0
 40
0.0
  0
LTYPE
  5
16
330
5
100
AcDbSymbolTableRecord
100
AcDbLinetypeTableRecord
  2
Continuous
 70
     0
  3
Solid line
 72
    65
 73
     0
 40
0.0
  0
LTYPE
  5
5E
330
5
100
AcDbSymbolTableRecord
100
AcDbLinetypeTableRecord
  2
HIDDEN
 70
     0
  3
Hidden __ __ __ __ __ __ __ __ __ __ __ __ __ __
 72
    65
 73
     2
 40
1.905
 49
1.27
 74
     0
 49
-0.635
 74
     0
  0
LTYPE
  5
5F
330
5
100
AcDbSymbolTableRecord
100
AcDbLinetypeTableRecord
  2
PHANTOM
 70
     0
  3
Phantom ______  __  __  ______  __  __  ______
 72
    65
 73
     6
 40
12.7
 49
6.35
 74
     0
 49
-1.27
 74
     0
 49
1.27
 74
     0
 49
-1.27
 74
     0
 49
1.27
 74
     0
 49
-1.27
 74
     0
  0
LTYPE
  5
60
330
5
100
AcDbSymbolTableRecord
100
AcDbLinetypeTableRecord
  2
CENTER
 70
     0
  3
Center ____ _ ____ _ ____ _ ____ _ ____ _ ____
 72
    65
 73
     4
 40
10.16
 49
6.35
 74
     0
 49
-1.27
 74
     0
 49
1.27
 74
     0
 49
-1.27
 74
     0
  0
LTYPE
  5
61
330
5
100
AcDbSymbolTableRecord
100
AcDbLinetypeTableRecord
  2
CENTERX2
 70
     0
  3
Center (2x) ________  __  ________  __  _____
 72
    65
 73
     4
 40
20.32
 49
12.7
 74
     0
 49
-2.54
 74
     0
 49
2.54
 74
     0
 49
-2.54
 74
     0
  0
LTYPE
  5
62
330
5
100
AcDbSymbolTableRecord
100
AcDbLinetypeTableRecord
  2
DOT2
 70
     0
  3
Dot (.5x) ........................................
 72
    65
 73
     2
 40
0.635
 49
0.0
 74
     0
 49
-0.635
 74
     0
  0
ENDTAB
  0
TABLE
  2
LAYER
  5
2
330
0
100
AcDbSymbolTable
 70
     1
  0
LAYER
  5
10
330
2
100
AcDbSymbolTableRecord
100
AcDbLayerTableRecord
  2
0
 70
     0
 62
     7
  6
Continuous
370
    -3
390
F
  0
ENDTAB
  0
TABLE
  2
STYLE
  5
3
330
0
100
AcDbSymbolTable
 70
     1
  0
STYLE
  5
11
330
3
100
AcDbSymbolTableRecord
100
AcDbTextStyleTableRecord
  2
Standard
 70
     0
 40
0.0
 41
1.0
 50
0.0
 71
     0
 42
4.0
  3
txt
  4

  0
ENDTAB
  0
TABLE
  2
VIEW
  5
6
330
0
100
AcDbSymbolTable
 70
     0
  0
ENDTAB
  0
TABLE
  2
UCS
  5
7
330
0
100
AcDbSymbolTable
 70
     0
  0
ENDTAB
  0
TABLE
  2
APPID
  5
9
330
0
100
AcDbSymbolTable
 70
     1
  0
APPID
  5
12
330
9
100
AcDbSymbolTableRecord
100
AcDbRegAppTableRecord
  2
ACAD
 70
     0
  0
ENDTAB
  0
TABLE
  2
DIMSTYLE
  5
A
330
0
100
AcDbSymbolTable
 70
     1
100
AcDbDimStyleTable
  0
DIMSTYLE
105
27
330
A
100
AcDbSymbolTableRecord
100
AcDbDimStyleTableRecord
  2
ISO-25
 70
     0
 41
2.5
 42
0.625
 43
3.75
 44
1.25
 73
     0
 74
     0
 77
     1
 78
     8
140
2.5
141
2.5
143
0.0393700787
147
0.625
171
     3
172
     1
178
     0
271
     2
272
     2
274
     3
278
    44
283
     0
284
     8
340
11
  0
ENDTAB
  0
TABLE
  2
BLOCK_RECORD
  5
1
330
0
100
AcDbSymbolTable
 70
     1
  0
BLOCK_RECORD
  5
1F
330
1
100
AcDbSymbolTableRecord
100
AcDbBlockTableRecord
  2
*Model_Space
340
22
  0
BLOCK_RECORD
  5
1B
330
1
100
AcDbSymbolTableRecord
100
AcDbBlockTableRecord
  2
*Paper_Space
340
1E
  0
BLOCK_RECORD
  5
23
330
1
100
AcDbSymbolTableRecord
100
AcDbBlockTableRecord
  2
*Paper_Space0
340
26
  0
ENDTAB
  0
ENDSEC
  0
SECTION
  2
BLOCKS
  0
BLOCK
  5
20
330
1F
100
AcDbEntity
  8
0
100
AcDbBlockBegin
  2
*Model_Space
 70
     0
 10
0.0
 20
0.0
 30
0.0
  3
*Model_Space
  1

  0
ENDBLK
  5
21
330
1F
100
AcDbEntity
  8
0
100
AcDbBlockEnd
  0
BLOCK
  5
1C
330
1B
100
AcDbEntity
 67
     1
  8
0
100
AcDbBlockBegin
  2
*Paper_Space
 70
     0
 10
0.0
 20
0.0
 30
0.0
  3
*Paper_Space
  1

  0
ENDBLK
  5
1D
330
1B
100
AcDbEntity
 67
     1
  8
0
100
AcDbBlockEnd
  0
BLOCK
  5
24
330
23
100
AcDbEntity
  8
0
100
AcDbBlockBegin
  2
*Paper_Space0
 70
     0
 10
0.0
 20
0.0
 30
0.0
  3
*Paper_Space0
  1

  0
ENDBLK
  5
25
330
23
100
AcDbEntity
  8
0
100
AcDbBlockEnd
  0
ENDSEC
  0
SECTION
  2
ENTITIES
  0
SPLINE
  5
63
330
1F
100
AcDbEntity
  8
0
  6
Continuous
 62
     7
370
    25
100
AcDbSpline
210
0.0
220
0.0
230
1.0
 70
     8
 71
     3
 72
    16
 73
    12
 74
     0
 42
0.00000001
 43
0.00000001
 40
0.0
 40
0.0
 40
0.0
 40
0.0
 40
0.1443360890714127
 40
0.2740147703448007
 40
0.3898916100360921
 40
0.4924479397866848
 40
0.6088547172229691
 40
0.7022339935710067
 40
0.7803154614776686
 40
0.9366437635635875
 40
1.0
 40
1.0
 40
1.0
 40
1.0
 10
-1.448973755005053
 20
-0.3873302232663136
 30
0.0
 10
-1.449081669455043
 20
-0.3996124383297824
 30
0.0
 10
-1.449286539584342
 20
-0.4229296028836642
 30
0.0
 10
-1.444230904595452
 20
-0.4557887959066654
 30
0.0
 10
-1.436720208290568
 20
-0.484426455990101
 30
0.0
 10
-1.426735339562219
 20
-0.5111007500447801
 30
0.0
 10
-1.414989989400463
 20
-0.5349278112255549
 30
0.0
 10
-1.402171734116655
 20
-0.5557905331841952
 30
0.0
 10
-1.385635022803162
 20
-0.5781378469246654
 30
0.0
 10
-1.369269092780082
 20
-0.5977638528932195
 30
0.0
 10
-1.354313220235734
 20
-0.6089461081021125
 30
0.0
 10
-1.35
 20
-0.612171030573545
 30
0.0
  0
SPLINE
  5
64
330
1F
100
AcDbEntity
  8
0
  6
Continuous
 62
     7
370
    25
100
AcDbSpline
210
0.0
220
0.0
230
1.0
 70
    24
 71
     3
 72
    12
 73
     8
 74
     0
 42
0.00000001
 43
0.00000001
 40
0.0
 40
0.0
 40
0.0
 40
0.0
 40
0.199841925891743
 40
0.3997848370239679
 40
0.5998910367987501
 40
0.7997941993157773
 40
0.9999999999999999
 40
0.9999999999999999
 40
0.9999999999999999
 40
0.9999999999999999
 10
-1.448975356353882
 20
0.4125611621949216
 30
0.0
 10
-1.448975356489445
 20
0.3587986350130248
 30
0.0
 10
-1.448975356760641
 20
0.2512464130680934
 30
0.0
 10
-1.448975357164498
 20
0.0917698454843116
 30
0.0
 10
-1.448975357567986
 20
-0.0668129226953516
 30
0.0
 10
-1.448975357980407
 20
-0.226047205455668
 30
0.0
 10
-1.448975358244336
 20
-0.3336143594366807
 30
0.0
 10
-1.4489753583764
 20
-0.3874386177531823
 30
0.0
  0
SPLINE
  5
65
330
1F
100
AcDbEntity
  8
0
  6
Continuous
 62
     7
370
    25
100
AcDbSpline
210
0.0
220
0.0
230
1.0
 70
     8
 71
     3
 72
    13
 73
     9
 74
     0
 42
0.00000001
 43
0.00000001
 40
0.0
 40
0.0
 40
0.0
 40
0.0
 40
0.1242044471493913
 40
0.3557000727154012
 40
0.4933817810823464
 40
0.6460803980503411
 40
0.8145372379313639
 40
1.0
 40
1.0
 40
1.0
 40
1.0
 10
-1.35
 20
0.6126626405237473
 30
0.0
 10
-1.357228652772173
 20
0.6064806796552479
 30
0.0
 10
-1.377930265119463
 20
0.5887766120399863
 30
0.0
 10
-1.401117278601611
 20
0.5584983150428424
 30
0.0
 10
-1.421055271835951
 20
0.5238559655717637
 30
0.0
 10
-1.434649449130259
 20
0.4913849064042204
 30
0.0
 10
-1.445252049868563
 20
0.4538855511139018
 30
0.0
 10
-1.447694077138945
 20
0.4268414281494358
 30
0.0
 10
-1.448973760773638
 20
0.412669628353427
 30
0.0
  0
SPLINE
  5
66
330
1F
100
AcDbEntity
  8
0
  6
Continuous
 62
     7
370
    25
100
AcDbSpline
210
0.0
220
0.0
230
1.0
 70
    24
 71
     3
 72
    12
 73
     8
 74
     0
 42
0.00000001
 43
0.00000001
 40
0.0
 40
0.0
 40
0.0
 40
0.0
 40
0.1997236232584716
 40
0.3995505685786745
 40
0.5996560472130545
 40
0.7996751046159424
 40
1.0
 40
1.0
 40
1.0
 40
1.0
 10
-1.448616552553847
 20
0.4147949448663782
 30
0.0
 10
-1.448616552659141
 20
0.3610612341530534
 30
0.0
 10
-1.448616552869781
 20
0.2535660149241968
 30
0.0
 10
-1.448616553183688
 20
0.0941255033875202
 30
0.0
 10
-1.448616553497257
 20
-0.0644579155095393
 30
0.0
 10
-1.448616553820332
 20
-0.223727691497996
 30
0.0
 10
-1.448616554025087
 20
-0.3313518966126036
 30
0.0
 10
-1.448616554127544
 20
-0.385205108282944
 30
0.0
  0
SPLINE
  5
67
330
1F
100
AcDbEntity
  8
0
  6
Continuous
 62
     7
370
    25
100
AcDbSpline
210
0.0
220
0.0
230
1.0
 70
     8
 71
     3
 72
    17
 73
    13
 74
     0
 42
0.00000001
 43
0.00000001
 40
0.0
 40
0.0
 40
0.0
 40
0.0
 40
0.0820752899768831
 40
0.1597178153885577
 40
0.239523868108992
 40
0.3193834947121615
 40
0.3993657793108889
 40
0.4794048068055908
 40
0.5594320843496786
 40
0.7061766143343182
 40
0.8529605775436528
 40
1.0
 40
1.0
 40
1.0
 40
1.0
 10
-1.449144972832649
 20
0.4116230175268901
 30
0.0
 10
-1.449282331058638
 20
0.3895445427694876
 30
0.0
 10
-1.44954962899675
 20
0.3465800188993078
 30
0.0
 10
-1.449035727436776
 20
0.2822953691259987
 30
0.0
 10
-1.449174480313827
 20
0.2187689226820433
 30
0.0
 10
-1.449136881923064
 20
0.1549291619292127
 30
0.0
 10
-1.449146925234152
 20
0.0913708207778457
 30
0.0
 10
-1.449144198628412
 20
0.0278461800152393
 30
0.0
 10
-1.449145004210382
 20
-0.0534466075396086
 30
0.0
 10
-1.449144554760373
 20
-0.1522164206962356
 30
0.0
 10
-1.449144605067784
 20
-0.2698726899305101
 30
0.0
 10
-1.449144540519547
 20
-0.3488548856764909
 30
0.0
 10
-1.449144508217368
 20
-0.3883803183458877
 30
0.0
  0
SPLINE
  5
69
330
1F
100
AcDbEntity
  8
0
  6
Continuous
 62
     7
370
    25
100
AcDbSpline
210
0.0
220
0.0
230
1.0
 70
     8
 71
     3
 72
    21
 73
    17
 74
     0
 42
0.00000001
 43
0.00000001
 40
0.0
 40
0.0
 40
0.0
 40
0.0
 40
0.0759081126911347
 40
0.1403584703229445
 40
0.1998608518696883
 40
0.259690009532735
 40
0.3191706468154377
 40
0.3765174900418893
 40
0.5031020732302542
 40
0.6175074854743425
 40
0.6816299536822594
 40
0.7455657828607553
 40
0.8093459680845865
 40
0.872998169881637
 40
0.9332928924169707
 40
1.0
 40
1.0
 40
1.0
 40
1.0
 10
-1.449878821761248
 20
0.4043839726057325
 30
0.0
 10
-1.450022894619082
 20
0.3839666376634795
 30
0.0
 10
-1.450289293627352
 20
0.3462138099489194
 30
0.0
 10
-1.450167242700507
 20
0.2925505570913941
 30
0.0
 10
-1.449926882505067
 20
0.2433371593539931
 30
0.0
 10
-1.449866043474382
 20
0.1955801041730498
 30
0.0
 10
-1.449882052859756
 20
0.1485814594076577
 30
0.0
 10
-1.449876846711745
 20
0.0840612548587215
 30
0.0
 10
-1.449879273893385
 20
0.0050881669176712
 30
0.0
 10
-1.449879385483248
 20
-0.075674014845074
 30
0.0
 10
-1.449877663146632
 20
-0.1399175434570637
 30
0.0
 10
-1.449883437420808
 20
-0.1909350633179459
 30
0.0
 10
-1.449861778589961
 20
-0.2420497941548949
 30
0.0
 10
-1.449941038745833
 20
-0.2923445906703334
 30
0.0
 10
-1.449650553259686
 20
-0.3435129609771688
 30
0.0
 10
-1.449800213404879
 20
-0.3776734068470534
 30
0.0
 10
-1.449878821684752
 20
-0.3956160186629847
 30
0.0
  0
SPLINE
  5
6A
330
1F
100
AcDbEntity
  8
0
  6
Continuous
 62
     7
370
    25
100
AcDbSpline
210
0.0
220
0.0
230
1.0
 70
     8
 71
     3
 72
     9
 73
     5
 74
     0
 42
0.00000001
 43
0.00000001
 40
0.0
 40
0.0
 40
0.0
 40
0.0
 40
0.1580691968454069
 40
1.0
 40
1.0
 40
1.0
 40
1.0
 10
-1.444546791902484
 20
0.4492698746115038
 30
0.0
 10
-1.445138158677132
 20
0.4469580740495858
 30
0.0
 10
-1.448879347893313
 20
0.4323328301181009
 30
0.0
 10
-1.449421970811706
 20
0.4171591561318111
 30
0.0
 10
-1.449878821761198
 20
0.4043839726057283
 30
0.0
  0
SPLINE
  5
6F
330
1F
100
AcDbEntity
  8
0
  6
Continuous
 62
     7
370
    25
100
AcDbSpline
210
0.0
220
0.0
230
1.0
 70
     8
 71
     3
 72
    15
 73
    11
 74
     0
 42
0.00000001
 43
0.00000001
 40
0.0
 40
0.0
 40
0.0
 40
0.0
 40
0.0584863780048018
 40
0.1661697965359787
 40
0.2737962295861229
 40
0.4069954869803911
 40
0.5275108511256953
 40
0.668575589416435
 40
0.8322101461696007
 40
1.0
 40
1.0
 40
1.0
 40
1.0
 10
1.35
 20
-0.6129839769892114
 30
0.0
 10
1.353896579941927
 20
-0.6099729768261617
 30
0.0
 10
1.36496742956922
 20
-0.6014182107159631
 30
0.0
 10
1.380590506714946
 20
-0.5843471714375102
 30
0.0
 10
1.398922738029102
 20
-0.5614602869304474
 30
0.0
 10
1.415033074990304
 20
-0.5355749596559307
 30
0.0
 10
1.429469376877774
 20
-0.5055927692745154
 30
0.0
 10
1.440724919863115
 20
-0.4715313855092019
 30
0.0
 10
1.448207086058368
 20
-0.4323018100501314
 30
0.0
 10
1.448992173514632
 20
-0.4043824404044071
 30
0.0
 10
1.449389638835001
 20
-0.3902477333571969
 30
0.0
  0
SPLINE
  5
70
330
1F
100
AcDbEntity
  8
0
  6
Continuous
 62
     7
370
    25
100
AcDbSpline
210
0.0
220
0.0
230
1.0
 70
     8
 71
     3
 72
    20
 73
    16
 74
     0
 42
0.00000001
 43
0.00000001
 40
0.0
 40
0.0
 40
0.0
 40
0.0
 40
0.0852255640675012
 40
0.1664964502257039
 40
0.2497150991310337
 40
0.3329836115333134
 40
0.416322089306778
 40
0.4996780720984785
 40
0.5711243819208621
 40
0.6425747319103298
 40
0.7140145209264216
 40
0.7854575744224409
 40
0.8569221396573657
 40
0.9256691044772645
 40
1.0
 40
1.0
 40
1.0
 40
1.0
 10
1.449389638835026
 20
-0.3902477333572009
 30
0.0
 10
1.449285599532181
 20
-0.3673985203501003
 30
0.0
 10
1.449082348608621
 20
-0.3227603545865966
 30
0.0
 10
1.449472476324257
 20
-0.255940218399945
 30
0.0
 10
1.449367202276526
 20
-0.1897754184218083
 30
0.0
 10
1.449395673996125
 20
-0.1233085485023784
 30
0.0
 10
1.449387960695729
 20
-0.0569763733411184
 30
0.0
 10
1.449390201256328
 20
0.0062380011002675
 30
0.0
 10
1.449388930648368
 20
0.0663047660627855
 30
0.0
 10
1.449391976777346
 20
0.1231867493648921
 30
0.0
 10
1.449380997377474
 20
0.1801847979001794
 30
0.0
 10
1.449421873928825
 20
0.2373847098219843
 30
0.0
 10
1.44927123653473
 20
0.2939901208782503
 30
0.0
 10
1.449827326847573
 20
0.3514502430517952
 30
0.0
 10
1.449539282183153
 20
0.3898191386050126
 30
0.0
 10
1.449389639060132
 20
0.409752301987937
 30
0.0
  0
SPLINE
  5
71
330
1F
100
AcDbEntity
  8
0
  6
Continuous
 62
     7
370
    25
100
AcDbSpline
210
0.0
220
0.0
230
1.0
 70
     8
 71
     3
 72
    15
 73
    11
 74
     0
 42
0.00000001
 43
0.00000001
 40
0.0
 40
0.0
 40
0.0
 40
0.0
 40
0.1472132158379491
 40
0.2933894455787451
 40
0.4253759721314377
 40
0.5379194678940863
 40
0.6649194586600075
 40
0.7667076721561912
 40
0.8519079771124881
 40
1.0
 40
1.0
 40
1.0
 40
1.0
 10
1.449389639060132
 20
0.4097523019879375
 30
0.0
 10
1.448542077770274
 20
0.4211886787933912
 30
0.0
 10
1.44685292550558
 20
0.4439808733071987
 30
0.0
 10
1.439071642994989
 20
0.476247393969443
 30
0.0
 10
1.429399214245179
 20
0.5050859980760019
 30
0.0
 10
1.41713512576791
 20
0.5312941380354208
 30
0.0
 10
1.403596168305585
 20
0.5541757408022082
 30
0.0
 10
1.389153344088788
 20
0.5738747588193915
 30
0.0
 10
1.372301389720934
 20
0.5937961345874364
 30
0.0
 10
1.35865965766724
 20
0.6057901051955102
 30
0.0
 10
1.35
 20
0.6134037776476632
 30
0.0
  0
SPLINE
  5
72
330
1F
100
AcDbEntity
  8
0
  6
Continuous
 62
     7
370
    25
100
AcDbSpline
210
0.0
220
0.0
230
1.0
 70
    24
 71
     3
 72
    11
 73
     7
 74
     0
 42
0.00000001
 43
0.00000001
 40
0.0
 40
0.0
 40
0.0
 40
0.0
 40
0.2497348869506289
 40
0.4997327170004736
 40
0.749781685261136
 40
1.0
 40
1.0
 40
1.0
 40
1.0
 10
1.449114476842954
 20
-0.3881841347975741
 30
0.0
 10
1.449114476977548
 20
-0.3212530547279738
 30
0.0
 10
1.449114477246879
 20
-0.1873204235951436
 30
0.0
 10
1.449114477643077
 20
0.0114735237438855
 30
0.0
 10
1.449114478052081
 20
0.2105604469770905
 30
0.0
 10
1.449114478318255
 20
0.3447156154894259
 30
0.0
 10
1.449114478451387
 20
0.4118159063127551
 30
0.0
  0
SPLINE
  5
74
330
1F
100
AcDbEntity
  8
0
  6
Continuous
 62
     7
370
    25
100
AcDbSpline
210
0.0
220
0.0
230
1.0
 70
    24
 71
     3
 72
    11
 73
     7
 74
     0
 42
0.00000001
 43
0.00000001
 40
0.0
 40
0.0
 40
0.0
 40
0.0
 40
0.1743417410381059
 40
0.4495296888757401
 40
0.7246941849496364
 40
1.0
 40
1.0
 40
1.0
 40
1.0
 10
1.449217197515844
 20
-0.3154738131813121
 30
0.0
 10
1.449217197587617
 20
-0.2730349192801428
 30
0.0
 10
1.449217197772679
 20
-0.1636087849647043
 30
0.0
 10
1.449217198061729
 20
0.0108778459852322
 30
0.0
 10
1.449217198402593
 20
0.2099683498252877
 30
0.0
 10
1.44921719862149
 20
0.3440869949375295
 30
0.0
 10
1.449217198730966
 20
0.4111635332355982
 30
0.0
  0
SPLINE
  5
75
330
1F
100
AcDbEntity
  8
0
  6
Continuous
 62
     7
370
    25
100
AcDbSpline
210
0.0
220
0.0
230
1.0
 70
     8
 71
     3
 72
    20
 73
    16
 74
     0
 42
0.00000001
 43
0.00000001
 40
0.0
 40
0.0
 40
0.0
 40
0.0
 40
0.0852647602545839
 40
0.166577900501373
 40
0.2498520316101826
 40
0.3331664095961085
 40
0.4165218688209852
 40
0.4998805725566297
 40
0.5713254570147273
 40
0.6427653773100659
 40
0.7141766000309685
 40
0.7855693301775072
 40
0.8569909312439506
 40
0.9256888995901439
 40
1.0
 40
1.0
 40
1.0
 40
1.0
 10
1.449607777434878
 20
-0.3920981811829926
 30
0.0
 10
1.449524458546924
 20
-0.3692379350995035
 30
0.0
 10
1.44936168220901
 20
-0.3245769076578927
 30
0.0
 10
1.449674131184665
 20
-0.2577161681347098
 30
0.0
 10
1.449589806439632
 20
-0.1915076830673981
 30
0.0
 10
1.449612609282285
 20
-0.1250027560979246
 30
0.0
 10
1.449606434166282
 20
-0.0586515346831395
 30
0.0
 10
1.449608227683235
 20
0.0045675519172924
 30
0.0
 10
1.449607209821677
 20
0.0646318215065723
 30
0.0
 10
1.449609650731271
 20
0.121501717423542
 30
0.0
 10
1.449600855485169
 20
0.1784722751826773
 30
0.0
 10
1.449633590233257
 20
0.2356333788290857
 30
0.0
 10
1.449512956508528
 20
0.2921975074689463
 30
0.0
 10
1.449958317687286
 20
0.3496244794494834
 30
0.0
 10
1.449727642194185
 20
0.3879742946614022
 30
0.0
 10
1.449607777420021
 20
0.4079018208924391
 30
0.0
  0
SPLINE
  5
76
330
1F
100
AcDbEntity
  8
0
  6
Continuous
 62
     7
370
    25
100
AcDbSpline
210
0.0
220
0.0
230
1.0
 70
     8
 71
     3
 72
    20
 73
    16
 74
     0
 42
0.00000001
 43
0.00000001
 40
0.0
 40
0.0
 40
0.0
 40
0.0
 40
0.0878326742769909
 40
0.164307411057846
 40
0.2399114858619798
 40
0.3197920814889227
 40
0.3998019656944813
 40
0.4798287420987717
 40
0.5598448774417912
 40
0.6331936012316065
 40
0.7065196418610621
 40
0.7791559078452783
 40
0.8478442763544385
 40
0.9187738837207992
 40
1.0
 40
1.0
 40
1.0
 40
1.0
 10
1.449949055006526
 20
-0.3971581510709512
 30
0.0
 10
1.449846451075617
 20
-0.3736063287239459
 30
0.0
 10
1.449654511271999
 20
-0.3295482491153587
 30
0.0
 10
1.449828598213937
 20
-0.2653258861206849
 30
0.0
 10
1.449979563459367
 20
-0.2033793331949083
 30
0.0
 10
1.449940669866759
 20
-0.1406617340741847
 30
0.0
 10
1.449951326936711
 20
-0.0769651723848977
 30
0.0
 10
1.449948360238287
 20
-0.0132673853073905
 30
0.0
 10
1.449949528877439
 20
0.0487165051353597
 30
0.0
 10
1.449947909588801
 20
0.1088628457232154
 30
0.0
 10
1.449953192550514
 20
0.1671538748619311
 30
0.0
 10
1.449934156412243
 20
0.2243942578417445
 30
0.0
 10
1.4501089570135
 20
0.2811186864154626
 30
0.0
 10
1.450230044541921
 20
0.3402602117273745
 30
0.0
 10
1.450046850499133
 20
0.3810609679649241
 30
0.0
 10
1.449949055028383
 20
0.4028418572474758
 30
0.0
  0
SPLINE
  5
80
330
1F
100
AcDbEntity
  8
0
  6
Continuous
 62
     7
370
    25
100
AcDbSpline
210
0.0
220
0.0
230
1.0
 70
     8
 71
     3
 72
    21
 73
    17
 74
     0
 42
0.00000001
 43
0.00000001
 40
0.0
 40
0.0
 40
0.0
 40
0.0
 40
0.0497559387718462
 40
0.1154838218674481
 40
0.1829143987302334
 40
0.253396339852091
 40
0.3274407361117983
 40
0.4048270987702988
 40
0.4844998166998628
 40
0.5650134563964982
 40
0.6451738637274311
 40
0.7246718337048033
 40
0.8035138570998408
 40
0.8818397231628201
 40
0.9598316235377766
 40
1.0
 40
1.0
 40
1.0
 40
1.0
 10
-1.359831260048252
 20
-0.8926982957603603
 30
0.0
 10
-1.366190453400152
 20
-0.89486045793999
 30
0.0
 10
-1.380950177975723
 20
-0.8998788488730977
 30
0.0
 10
-1.402736896933977
 20
-0.9115341805135521
 30
0.0
 10
-1.425069877967354
 20
-0.9275102278579441
 30
0.0
 10
-1.446084446965574
 20
-0.9472139028235178
 30
0.0
 10
-1.465772246883978
 20
-0.9706870589716323
 30
0.0
 10
-1.483913748698769
 20
-0.9979337307265462
 30
0.0
 10
-1.500205680100559
 20
-1.028661583954255
 30
0.0
 10
-1.514349860742876
 20
-1.062310896061712
 30
0.0
 10
-1.526169970834216
 20
-1.098231131812722
 30
0.0
 10
-1.535605336042844
 20
-1.135848347511843
 30
0.0
 10
-1.542675610797037
 20
-1.174728789124556
 30
0.0
 10
-1.547359378367969
 20
-1.214487615360133
 30
0.0
 10
-1.549423559657145
 20
-1.248290399799757
 30
0.0
 10
-1.549606728037529
 20
-1.268696625994663
 30
0.0
 10
-1.54966899580345
 20
-1.275633686383407
 30
0.0
  0
SPLINE
  5
81
330
1F
100
AcDbEntity
  8
0
  6
Continuous
 62
     7
370
    25
100
AcDbSpline
210
0.0
220
0.0
230
1.0
 70
     8
 71
     3
 72
    13
 73
     9
 74
     0
 42
0.00000001
 43
0.00000001
 40
0.0
 40
0.0
 40
0.0
 40
0.0
 40
0.1093823437868962
 40
0.3209109418557768
 40
0.5317057957334617
 40
0.7408354399776065
 40
0.9474822319638848
 40
1.0
 40
1.0
 40
1.0
 40
1.0
 10
-1.36966899580345
 20
-1.275633686383407
 30
0.0
 10
-1.369619429436677
 20
-1.270290524757627
 30
0.0
 10
-1.369474009354288
 20
-1.254614511879741
 30
0.0
 10
-1.367835880406977
 20
-1.228822250997619
 30
0.0
 10
-1.364220995797191
 20
-1.1990248593794
 30
0.0
 10
-1.358863527732119
 20
-1.171139874125442
 30
0.0
 10
-1.353993482897082
 20
-1.151192633252568
 30
0.0
 10
-1.350672892844941
 20
-1.141646036319062
 30
0.0
 10
-1.35
 20
-1.139711489545982
 30
0.0
  0
SPLINE
  5
82
330
1F
100
AcDbEntity
  8
0
  6
Continuous
 62
     7
370
    25
100
AcDbSpline
210
0.0
220
0.0
230
1.0
 70
     8
 71
     3
 72
    20
 73
    16
 74
     0
 42
0.00000001
 43
0.00000001
 40
0.0
 40
0.0
 40
0.0
 40
0.0
 40
0.0456645190194125
 40
0.1306225393869789
 40
0.2158146152718224
 40
0.3014060250257268
 40
0.3875968448025918
 40
0.4745775510314169
 40
0.5624888811574971
 40
0.6513278763805274
 40
0.7407063802015957
 40
0.829414262313632
 40
0.9062890356053215
 40
0.9799107433583873
 40
1.0
 40
1.0
 40
1.0
 40
1.0
 10
-1.555633931326393
 20
1.422212298159603
 30
0.0
 10
-1.555560505666446
 20
1.414939464947653
 30
0.0
 10
-1.555350472880283
 20
1.394135655708384
 30
0.0
 10
-1.55304058997518
 20
1.359902986297935
 30
0.0
 10
-1.547910207606781
 20
1.320035469704939
 30
0.0
 10
-1.54021083003487
 20
1.281102567153714
 30
0.0
 10
-1.529971804271063
 20
1.243450826295508
 30
0.0
 10
-1.517145902191598
 20
1.207416321780699
 30
0.0
 10
-1.501678677315694
 20
1.173353473871241
 30
0.0
 10
-1.483506591800745
 20
1.141677166857406
 30
0.0
 10
-1.462634198721732
 20
1.112945785468358
 30
0.0
 10
-1.440082264377042
 20
1.088724614757892
 30
0.0
 10
-1.416559910155388
 20
1.069250296012672
 30
0.0
 10
-1.398306940153646
 20
1.057646669228376
 30
0.0
 10
-1.387757641439628
 20
1.052319467710704
 30
0.0
 10
-1.385496139057022
 20
1.05117745066754
 30
0.0
  0
SPLINE
  5
83
330
1F
100
AcDbEntity
  8
0
  6
Continuous
 62
     7
370
    25
100
AcDbSpline
210
0.0
220
0.0
230
1.0
 70
     8
 71
     3
 72
    13
 73
     9
 74
     0
 42
0.00000001
 43
0.00000001
 40
0.0
 40
0.0
 40
0.0
 40
0.0
 40
0.1269145324004861
 40
0.3102776269506079
 40
0.4965351561737852
 40
0.6850682056159834
 40
0.8751981920568704
 40
0.9999999999999999
 40
0.9999999999999999
 40
0.9999999999999999
 40
0.9999999999999999
 10
-1.35
 20
1.276182379996349
 30
0.0
 10
-1.351982806413091
 20
1.281172411862684
 30
0.0
 10
-1.356830324320768
 20
1.293371922955777
 30
0.0
 10
-1.36326885990161
 20
1.315960645962092
 30
0.0
 10
-1.369127014423912
 20
1.343004949375824
 30
0.0
 10
-1.373240590975608
 20
1.372004278836055
 30
0.0
 10
-1.375336640949643
 20
1.398680540736537
 30
0.0
 10
-1.375549556658853
 20
1.415533695808235
 30
0.0
 10
-1.375633931326393
 20
1.422212298159603
 30
0.0
  0
SPLINE
  5
88
330
1F
100
AcDbEntity
  8
0
  6
Continuous
 62
     7
370
    25
100
AcDbSpline
210
0.0
220
0.0
230
1.0
 70
     8
 71
     3
 72
    19
 73
    15
 74
     0
 42
0.00000001
 43
0.00000001
 40
0.0
 40
0.0
 40
0.0
 40
0.0
 40
0.0482738640705776
 40
0.1380837585014739
 40
0.2281410085510069
 40
0.3186201420809793
 40
0.4097324021599946
 40
0.5016787707693376
 40
0.5946075025802154
 40
0.6885148586588986
 40
0.7829896212711461
 40
0.8767544856071012
 40
0.9580194062577976
 40
0.9999999999999999
 40
0.9999999999999999
 40
0.9999999999999999
 40
0.9999999999999999
 10
1.502539418682191
 20
-1.302990024634001
 30
0.0
 10
1.502465956052446
 20
-1.295716744190861
 30
0.0
 10
1.502255821723658
 20
-1.274912072355273
 30
0.0
 10
1.499944858090045
 20
-1.240678141773439
 30
0.0
 10
1.494812170343867
 20
-1.200809408086646
 30
0.0
 10
1.48710933510684
 20
-1.161875466256744
 30
0.0
 10
1.47686598546062
 20
-1.124222609435335
 30
0.0
 10
1.464034225447152
 20
-1.088188469594381
 30
0.0
 10
1.448562778942839
 20
-1.054122391620754
 30
0.0
 10
1.430377323967887
 20
-1.022459529693839
 30
0.0
 10
1.409524997586046
 20
-0.9936828914876124
 30
0.0
 10
1.386874097405508
 20
-0.9696297702098334
 30
0.0
 10
1.366937959403431
 20
-0.9524585864853969
 30
0.0
 10
1.354303591003644
 20
-0.9448642018900605
 30
0.0
 10
1.35
 20
-0.9422773590666981
 30
0.0
  0
SPLINE
  5
89
330
1F
100
AcDbEntity
  8
0
  6
Continuous
 62
     7
370
    25
100
AcDbSpline
210
0.0
220
0.0
230
1.0
 70
     8
 71
     3
 72
    19
 73
    15
 74
     0
 42
0.00000001
 43
0.00000001
 40
0.0
 40
0.0
 40
0.0
 40
0.0
 40
0.0495062144185706
 40
0.134103161926342
 40
0.2212126736133989
 40
0.3106739138250416
 40
0.4019397161906066
 40
0.4942647873868839
 40
0.5869248433555355
 40
0.679437362341136
 40
0.7716636760170887
 40
0.8636102590406846
 40
0.9553653565949699
 40
0.9999999999999999
 40
0.9999999999999999
 40
0.9999999999999999
 40
0.9999999999999999
 10
1.35
 20
1.060427081337725
 30
0.0
 10
1.355119320617471
 20
1.063546928014588
 30
0.0
 10
1.36898661161882
 20
1.071998014590413
 30
0.0
 10
1.389651038032648
 20
1.089789697007698
 30
0.0
 10
1.412166512765107
 20
1.113333066694262
 30
0.0
 10
1.432815134104171
 20
1.140613843605349
 30
0.0
 10
1.451428886863969
 20
1.171155443523839
 30
0.0
 10
1.467705705834242
 20
1.204609665885608
 30
0.0
 10
1.481442535389405
 20
1.240460371390117
 30
0.0
 10
1.492501358841789
 20
1.278199879807917
 30
0.0
 10
1.500827392419916
 20
1.317354904341117
 30
0.0
 10
1.506343753115825
 20
1.357496963680268
 30
0.0
 10
1.508717475410753
 20
1.391271712372451
 30
0.0
 10
1.508921580199768
 20
1.411514763835687
 30
0.0
 10
1.508988375139114
 20
1.418139465790071
 30
0.0
  0
CIRCLE
  5
99
330
1F
100
AcDbEntity
  8
0
  6
Continuous
 62
     7
370
    25
100
AcDbCircle
 10
0.95
 20
1.1
 30
0.0
 40
0.25
  0
LWPOLYLINE
  5
D2
330
1F
100
AcDbEntity
  8
0
  6
Continuous
 62
     7
370
    25
100
AcDbPolyline
 90
       26
 70
   128
 43
0.0
 10
-0.1474871238
 20
-1.6507859615
 10
-0.1506994722
 20
-1.6491420541
 10
-0.1587333828
 20
-1.647574716
 10
-0.1710840555
 20
-1.6461824289
 10
-0.1869754522
 20
-1.6450526751
 10
-0.2054090578
 20
-1.6442564414
 10
-0.2252266213
 20
-1.6438437581
 10
-0.2451829321
 20
-1.6438405554
 10
-0.264024062
 20
-1.6442470347
 10
-0.2805661533
 20
-1.6450376554
 10
-0.2937698057
 20
-1.6461627399
 10
-0.3028053851
 20
-1.6475515949
 10
-0.3071051529
 20
-1.6491169537
 10
-0.3063989388
 20
-1.6507604589
 10
-0.3007311168
 20
-1.6523788431
 10
-0.2904578171
 20
-1.6538704172
 10
-0.2762245489
 20
-1.6551414602
 10
-0.2589256406
 20
-1.6561121078
 10
-0.2396480465
 20
-1.6567213705
 10
-0.2196030485
 20
-1.6569309663
 10
-0.2000501477
 20
-1.6567277253
 10
-0.1822179247
 20
-1.6561244181
 10
-0.1672268437
 20
-1.6551589525
 10
-0.1560188494
 20
-1.6538919924
 10
-0.1492981814
 20
-1.6524031455
 10
-0.1474871238
 20
-1.6507859615
  0
LWPOLYLINE
  5
F5
330
1F
100
AcDbEntity
  8
0
  6
Continuous
 62
     7
370
    25
100
AcDbPolyline
 90
       13
 70
   128
 43
0.0
 10
-1.35
 20
1.2171113344
 10
-1.3563334722
 20
1.2153084991
 10
-1.3736536797
 20
1.2072302644
 10
-1.3894776566
 20
1.1950962894
 10
-1.4029523284
 20
1.1795607198
 10
-1.413351272
 20
1.1614610823
 10
-1.4201138776
 20
1.141773133
 10
-1.4228755714
 20
1.1215582543
 10
-1.4214874699
 20
1.1019062355
 10
-1.4160244058
 20
1.0838765222
 10
-1.4067808944
 20
1.0684411007
 10
-1.3942552558
 20
1.0564320987
 10
-1.3854961391
 20
1.0511774507
  0
LINE
  5
FB
330
1F
100
AcDbEntity
  8
0
  6
Continuous
 62
     7
370
    25
100
AcDbLine
 10
-1.4498788217
 20
-0.3956160187
 30
0.0
 11
-1.4484238503
 21
-0.4190052954
 31
0.0
  0
LINE
  5
FC
330
1F
100
AcDbEntity
  8
0
  6
Continuous
 62
     7
370
    25
100
AcDbLine
 10
-0.3074315646
 20
-1.5
 30
0.0
 11
-0.3074315646
 21
-1.6497282506
 31
0.0
  0
LINE
  5
FD
330
1F
100
AcDbEntity
  8
0
  6
Continuous
 62
     7
370
    25
100
AcDbLine
 10
-0.1474380163
 20
-1.6509930636
 30
0.0
 11
-0.1474380163
 21
-1.5
 31
0.0
  0
LINE
  5
FE
330
1F
100
AcDbEntity
  8
0
  6
Continuous
 62
     7
370
    25
100
AcDbLine
 10
1.153865854
 20
1.7440719878
 30
0.0
 11
1.153865854
 21
1.5
 31
0.0
  0
LINE
  5
FF
330
1F
100
AcDbEntity
  8
0
  6
Continuous
 62
     7
370
    25
100
AcDbLine
 10
1.313865854
 20
1.5
 30
0.0
 11
1.313865854
 21
1.7440719878
 31
0.0
  0
LINE
  5
100
330
1F
100
AcDbEntity
  8
0
  6
Continuous
 62
     7
370
    25
100
AcDbLine
 10
1.4492171974
 20
-0.3888364736
 30
0.0
 11
1.4492171975
 21
-0.3282861662
 31
0.0
  0
LINE
  5
102
330
1F
100
AcDbEntity
  8
0
  6
Continuous
 62
     7
370
    25
100
AcDbLine
 10
-1.3279049477
 20
1.7076286925
 30
0.0
 11
-1.3279049477
 21
1.5
 31
0.0
  0
LINE
  5
103
330
1F
100
AcDbEntity
  8
0
  6
Continuous
 62
     7
370
    25
100
AcDbLine
 10
-1.1679049477
 20
1.5
 30
0.0
 11
-1.1679049477
 21
1.7076286925
 31
0.0
  0
LINE
  5
104
330
1F
100
AcDbEntity
  8
0
  6
Continuous
 62
     7
370
    25
100
AcDbLine
 10
-0.9701245626
 20
1.5
 30
0.0
 11
-0.9701245626
 21
1.6147796873
 31
0.0
  0
LINE
  5
105
330
1F
100
AcDbEntity
  8
0
  6
Continuous
 62
     7
370
    25
100
AcDbLine
 10
-1.1501245626
 20
1.6147796873
 30
0.0
 11
-1.1501245626
 21
1.5
 31
0.0
  0
LINE
  5
106
330
1F
100
AcDbEntity
  8
0
  6
Continuous
 62
     7
370
    25
100
AcDbLine
 10
-1.1086332995
 20
-1.7762231661
 30
0.0
 11
-1.1086332995
 21
-1.5
 31
0.0
  0
LINE
  5
107
330
1F
100
AcDbEntity
  8
0
  6
Continuous
 62
     7
370
    25
100
AcDbLine
 10
-1.2886332995
 20
-1.5
 30
0.0
 11
-1.2886332995
 21
-1.7762231661
 31
0.0
  0
LINE
  5
108
330
1F
100
AcDbEntity
  8
0
  6
Continuous
 62
     7
370
    25
100
AcDbLine
 10
-1.35
 20
-0.8897353019
 30
0.0
 11
-1.35983126
 21
-0.8926982958
 31
0.0
  0
LINE
  5
109
330
1F
100
AcDbEntity
  8
0
  6
Continuous
 62
     7
370
    25
100
AcDbLine
 10
-1.3854961391
 20
1.0511774507
 30
0.0
 11
-1.35
 21
1.0337869661
 31
0.0
  0
LINE
  5
10A
330
1F
100
AcDbEntity
  8
0
  6
Continuous
 62
     7
370
    25
100
AcDbLine
 10
-1.3696689958
 20
-1.7274387352
 30
0.0
 11
-1.3696689958
 21
-1.2756336864
 31
0.0
  0
LINE
  5
10B
330
1F
100
AcDbEntity
  8
0
  6
Continuous
 62
     7
370
    25
100
AcDbLine
 10
-1.5496689958
 20
-1.2756336864
 30
0.0
 11
-1.5496689958
 21
-1.7274387352
 31
0.0
  0
LINE
  5
10C
330
1F
100
AcDbEntity
  8
0
  6
Continuous
 62
     7
370
    25
100
AcDbLine
 10
-1.3756339313
 20
1.4222122982
 30
0.0
 11
-1.3756339313
 21
1.8400977832
 31
0.0
  0
LINE
  5
10D
330
1F
100
AcDbEntity
  8
0
  6
Continuous
 62
     7
370
    25
100
AcDbLine
 10
-1.5556339313
 20
1.8400977832
 30
0.0
 11
-1.5556339313
 21
1.4222122982
 31
0.0
  0
LINE
  5
10E
330
1F
100
AcDbEntity
  8
0
  6
Continuous
 62
     7
370
    25
100
AcDbLine
 10
1.5089883751
 20
1.4181394658
 30
0.0
 11
1.5089883751
 21
1.904474382
 31
0.0
  0
LINE
  5
10F
330
1F
100
AcDbEntity
  8
0
  6
Continuous
 62
     7
370
    25
100
AcDbLine
 10
1.3289883751
 20
1.904474382
 30
0.0
 11
1.3289883751
 21
1.5
 31
0.0
  0
LINE
  5
110
330
1F
100
AcDbEntity
  8
0
  6
Continuous
 62
     7
370
    25
100
AcDbLine
 10
1.5025394187
 20
-1.6469679867
 30
0.0
 11
1.5025394187
 21
-1.3029900246
 31
0.0
  0
LINE
  5
111
330
1F
100
AcDbEntity
  8
0
  6
Continuous
 62
     7
370
    25
100
AcDbLine
 10
1.3225394187
 20
-1.5
 30
0.0
 11
1.3225394187
 21
-1.6469679867
 31
0.0
  0
LINE
  5
115
330
1F
100
AcDbEntity
  8
0
  6
Continuous
 62
     7
370
    25
100
AcDbLine
 10
1.35
 20
1.5
 30
0.0
 11
-1.35
 21
1.5
 31
0.0
  0
LINE
  5
116
330
1F
100
AcDbEntity
  8
0
  6
Continuous
 62
     7
370
    25
100
AcDbLine
 10
1.35
 20
-1.5
 30
0.0
 11
1.35
 21
1.5
 31
0.0
  0
LINE
  5
117
330
1F
100
AcDbEntity
  8
0
  6
Continuous
 62
     7
370
    25
100
AcDbLine
 10
-1.35
 20
-1.5
 30
0.0
 11
1.35
 21
-1.5
 31
0.0
  0
LINE
  5
118
330
1F
100
AcDbEntity
  8
0
  6
Continuous
 62
     7
370
    25
100
AcDbLine
 10
-1.35
 20
1.5
 30
0.0
 11
-1.35
 21
-1.5
 31
0.0
  0
LINE
  5
127
330
1F
100
AcDbEntity
  8
0
  6
Continuous
 62
     7
370
    25
100
AcDbLine
 10
-1.57
 20
-0.4
 30
0.0
 11
-1.57
 21
0.4
 31
0.0
  0
LINE
  5
128
330
1F
100
AcDbEntity
  8
0
  6
Continuous
 62
     7
370
    25
100
AcDbLine
 10
1.57
 20
0.4
 30
0.0
 11
1.57
 21
-0.4
 31
0.0
  0
LINE
  5
129
330
1F
100
AcDbEntity
  8
0
  6
Continuous
 62
     7
370
    25
100
AcDbLine
 10
1.585
 20
1.08
 30
0.0
 11
1.585
 21
1.83
 31
0.0
  0
LINE
  5
12A
330
1F
100
AcDbEntity
  8
0
  6
Continuous
 62
     7
370
    25
100
AcDbLine
 10
1.3770870435
 20
1.08
 30
0.0
 11
1.585
 21
1.08
 31
0.0
  0
LINE
  5
12B
330
1F
100
AcDbEntity
  8
0
  6
Continuous
 62
     7
370
    25
100
AcDbLine
 10
0.885
 20
1.83
 30
0.0
 11
0.885
 21
1.5
 31
0.0
  0
LINE
  5
12C
330
1F
100
AcDbEntity
  8
0
  6
Continuous
 62
     7
370
    25
100
AcDbLine
 10
1.585
 20
1.83
 30
0.0
 11
1.5089883751
 21
1.83
 31
0.0
  0
LINE
  5
12D
330
1F
100
AcDbEntity
  8
0
  6
Continuous
 62
     7
370
    25
100
AcDbLine
 10
1.3289883751
 20
1.83
 30
0.0
 11
0.885
 21
1.83
 31
0.0
  0
LINE
  5
12E
330
1F
100
AcDbEntity
  8
0
  6
Continuous
 62
     7
370
    25
100
AcDbLine
 10
-1.5196666
 20
-1.08
 30
0.0
 11
-1.655
 21
-1.08
 31
0.0
  0
LINE
  5
12F
330
1F
100
AcDbEntity
  8
0
  6
Continuous
 62
     7
370
    25
100
AcDbLine
 10
-1.655
 20
-1.83
 30
0.0
 11
-0.955
 21
-1.83
 31
0.0
  0
LINE
  5
130
330
1F
100
AcDbEntity
  8
0
  6
Continuous
 62
     7
370
    25
100
AcDbLine
 10
-1.655
 20
-1.08
 30
0.0
 11
-1.655
 21
-1.83
 31
0.0
  0
LINE
  5
131
330
1F
100
AcDbEntity
  8
0
  6
Continuous
 62
     7
370
    25
100
AcDbLine
 10
-0.955
 20
-1.83
 30
0.0
 11
-0.955
 21
-1.5
 31
0.0
  0
LINE
  5
132
330
1F
100
AcDbEntity
  8
0
  6
Continuous
 62
     7
370
    25
100
AcDbLine
 10
0.885
 20
-1.83
 30
0.0
 11
1.585
 21
-1.83
 31
0.0
  0
LINE
  5
133
330
1F
100
AcDbEntity
  8
0
  6
Continuous
 62
     7
370
    25
100
AcDbLine
 10
0.885
 20
-1.5
 30
0.0
 11
0.885
 21
-1.83
 31
0.0
  0
LINE
  5
134
330
1F
100
AcDbEntity
  8
0
  6
Continuous
 62
     7
370
    25
100
AcDbLine
 10
1.585
 20
-1.08
 30
0.0
 11
1.4597103417
 21
-1.08
 31
0.0
  0
LINE
  5
135
330
1F
100
AcDbEntity
  8
0
  6
Continuous
 62
     7
370
    25
100
AcDbLine
 10
1.585
 20
-1.83
 30
0.0
 11
1.585
 21
-1.08
 31
0.0
  0
LINE
  5
136
330
1F
100
AcDbEntity
  8
0
  6
Continuous
 62
     7
370
    25
100
AcDbLine
 10
-0.955
 20
1.83
 30
0.0
 11
-1.3756339313
 21
1.83
 31
0.0
  0
LINE
  5
137
330
1F
100
AcDbEntity
  8
0
  6
Continuous
 62
     7
370
    25
100
AcDbLine
 10
-1.5556339313
 20
1.83
 30
0.0
 11
-1.655
 21
1.83
 31
0.0
  0
LINE
  5
138
330
1F
100
AcDbEntity
  8
0
  6
Continuous
 62
     7
370
    25
100
AcDbLine
 10
-0.955
 20
1.5
 30
0.0
 11
-0.955
 21
1.83
 31
0.0
  0
LINE
  5
139
330
1F
100
AcDbEntity
  8
0
  6
Continuous
 62
     7
370
    25
100
AcDbLine
 10
-1.655
 20
1.08
 30
0.0
 11
-1.4285893807
 21
1.08
 31
0.0
  0
LINE
  5
13A
330
1F
100
AcDbEntity
  8
0
  6
Continuous
 62
     7
370
    25
100
AcDbLine
 10
-1.655
 20
1.83
 30
0.0
 11
-1.655
 21
1.08
 31
0.0
  0
LINE
  5
13B
330
1F
100
AcDbEntity
  8
0
  6
Continuous
 62
     7
370
    25
100
AcDbLine
 10
-0.385
 20
-1.83
 30
0.0
 11
0.315
 21
-1.83
 31
0.0
  0
LINE
  5
13C
330
1F
100
AcDbEntity
  8
0
  6
Continuous
 62
     7
370
    25
100
AcDbLine
 10
0.315
 20
-1.83
 30
0.0
 11
0.315
 21
-1.5
 31
0.0
  0
LINE
  5
13D
330
1F
100
AcDbEntity
  8
0
  6
Continuous
 62
     7
370
    25
100
AcDbLine
 10
-0.385
 20
-1.5
 30
0.0
 11
-0.385
 21
-1.83
 31
0.0
  0
LINE
  5
13E
330
1F
100
AcDbEntity
  8
0
  6
Continuous
 62
     7
370
    25
100
AcDbLine
 10
1.905
 20
-1.98
 30
0.0
 11
1.905
 21
1.98
 31
0.0
  0
LINE
  5
13F
330
1F
100
AcDbEntity
  8
0
  6
Continuous
 62
     7
370
    25
100
AcDbLine
 10
1.905
 20
1.98
 30
0.0
 11
-1.905
 21
1.98
 31
0.0
  0
LINE
  5
140
330
1F
100
AcDbEntity
  8
0
  6
Continuous
 62
     7
370
    25
100
AcDbLine
 10
-1.905
 20
1.98
 30
0.0
 11
-1.905
 21
-1.98
 31
0.0
  0
LINE
  5
141
330
1F
100
AcDbEntity
  8
0
  6
Continuous
 62
     7
370
    25
100
AcDbLine
 10
-1.905
 20
-1.98
 30
0.0
 11
1.905
 21
-1.98
 31
0.0
  0
LINE
  5
142
330
1F
100
AcDbEntity
  8
0
  6
Continuous
 62
     7
370
    25
100
AcDbLine
 10
1.313865854
 20
1.7440719878
 30
0.0
 11
1.153865854
 21
1.7440719878
 31
0.0
  0
LINE
  5
143
330
1F
100
AcDbEntity
  8
0
  6
Continuous
 62
     7
370
    25
100
AcDbLine
 10
-1.1679049477
 20
1.7076286925
 30
0.0
 11
-1.3279049477
 21
1.7076286925
 31
0.0
  0
LINE
  5
144
330
1F
100
AcDbEntity
  8
0
  6
Continuous
 62
     7
370
    25
100
AcDbLine
 10
-0.970125215
 20
1.6147796873
 30
0.0
 11
-1.1501245626
 21
1.6147796873
 31
0.0
  0
LINE
  5
145
330
1F
100
AcDbEntity
  8
0
  6
Continuous
 62
     7
370
    25
100
AcDbLine
 10
-1.1086332995
 20
-1.7762231661
 30
0.0
 11
-1.2886332995
 21
-1.7762231661
 31
0.0
  0
LINE
  5
146
330
1F
100
AcDbEntity
  8
0
  6
Continuous
 62
     7
370
    25
100
AcDbLine
 10
-1.3696689958
 20
-1.7274387352
 30
0.0
 11
-1.5496689958
 21
-1.7274387352
 31
0.0
  0
LINE
  5
147
330
1F
100
AcDbEntity
  8
0
  6
Continuous
 62
     7
370
    25
100
AcDbLine
 10
-1.3756339313
 20
1.8400977832
 30
0.0
 11
-1.5556339313
 21
1.8400977832
 31
0.0
  0
LINE
  5
148
330
1F
100
AcDbEntity
  8
0
  6
Continuous
 62
     7
370
    25
100
AcDbLine
 10
1.5089883751
 20
1.904474382
 30
0.0
 11
1.3289883751
 21
1.904474382
 31
0.0
  0
LINE
  5
149
330
1F
100
AcDbEntity
  8
0
  6
Continuous
 62
     7
370
    25
100
AcDbLine
 10
1.5025394187
 20
-1.6469679867
 30
0.0
 11
1.3225394187
 21
-1.6469679867
 31
0.0
  0
LINE
  5
14A
330
1F
100
AcDbEntity
  8
0
  6
Continuous
 62
     7
370
    25
100
AcDbLine
 10
-1.12
 20
2.11
 30
0.0
 11
-1.12
 21
1.98
 31
0.0
  0
LINE
  5
14B
330
1F
100
AcDbEntity
  8
0
  6
Continuous
 62
     7
370
    25
100
AcDbLine
 10
-1.42
 20
2.11
 30
0.0
 11
-1.12
 21
2.11
 31
0.0
  0
LINE
  5
14C
330
1F
100
AcDbEntity
  8
0
  6
Continuous
 62
     7
370
    25
100
AcDbLine
 10
-1.42
 20
1.98
 30
0.0
 11
-1.42
 21
2.11
 31
0.0
  0
LINE
  5
14D
330
1F
100
AcDbEntity
  8
0
  6
Continuous
 62
     7
370
    25
100
AcDbLine
 10
-1.12
 20
-2.11
 30
0.0
 11
-1.42
 21
-2.11
 31
0.0
  0
LINE
  5
14E
330
1F
100
AcDbEntity
  8
0
  6
Continuous
 62
     7
370
    25
100
AcDbLine
 10
-1.12
 20
-1.98
 30
0.0
 11
-1.12
 21
-2.11
 31
0.0
  0
LINE
  5
14F
330
1F
100
AcDbEntity
  8
0
  6
Continuous
 62
     7
370
    25
100
AcDbLine
 10
-1.42
 20
-2.11
 30
0.0
 11
-1.42
 21
-1.98
 31
0.0
  0
LINE
  5
150
330
1F
100
AcDbEntity
  8
0
  6
Continuous
 62
     7
370
    25
100
AcDbLine
 10
1.42
 20
2.11
 30
0.0
 11
1.42
 21
1.98
 31
0.0
  0
LINE
  5
151
330
1F
100
AcDbEntity
  8
0
  6
Continuous
 62
     7
370
    25
100
AcDbLine
 10
1.12
 20
2.11
 30
0.0
 11
1.42
 21
2.11
 31
0.0
  0
LINE
  5
152
330
1F
100
AcDbEntity
  8
0
  6
Continuous
 62
     7
370
    25
100
AcDbLine
 10
1.12
 20
1.98
 30
0.0
 11
1.12
 21
2.11
 31
0.0
  0
LINE
  5
153
330
1F
100
AcDbEntity
  8
0
  6
Continuous
 62
     7
370
    25
100
AcDbLine
 10
0.15
 20
-2.11
 30
0.0
 11
-0.15
 21
-2.11
 31
0.0
  0
LINE
  5
154
330
1F
100
AcDbEntity
  8
0
  6
Continuous
 62
     7
370
    25
100
AcDbLine
 10
0.15
 20
-1.98
 30
0.0
 11
0.15
 21
-2.11
 31
0.0
  0
LINE
  5
155
330
1F
100
AcDbEntity
  8
0
  6
Continuous
 62
     7
370
    25
100
AcDbLine
 10
-0.15
 20
-2.11
 30
0.0
 11
-0.15
 21
-1.98
 31
0.0
  0
LINE
  5
156
330
1F
100
AcDbEntity
  8
0
  6
Continuous
 62
     7
370
    25
100
AcDbLine
 10
1.42
 20
-2.11
 30
0.0
 11
1.12
 21
-2.11
 31
0.0
  0
LINE
  5
157
330
1F
100
AcDbEntity
  8
0
  6
Continuous
 62
     7
370
    25
100
AcDbLine
 10
1.42
 20
-1.98
 30
0.0
 11
1.42
 21
-2.11
 31
0.0
  0
LINE
  5
158
330
1F
100
AcDbEntity
  8
0
  6
Continuous
 62
     7
370
    25
100
AcDbLine
 10
1.12
 20
-2.11
 30
0.0
 11
1.12
 21
-1.98
 31
0.0
  0
LINE
  5
159
330
1F
100
AcDbEntity
  8
0
  6
Continuous
 62
     7
370
    25
100
AcDbLine
 10
1.4490065392
 20
0.4
 30
0.0
 11
1.57
 21
0.4
 31
0.0
  0
LINE
  5
15A
330
1F
100
AcDbEntity
  8
0
  6
Continuous
 62
     7
370
    25
100
AcDbLine
 10
-1.57
 20
0.4
 30
0.0
 11
-1.4490848082
 21
0.4
 31
0.0
  0
LINE
  5
15B
330
1F
100
AcDbEntity
  8
0
  6
Continuous
 62
     7
370
    25
100
AcDbLine
 10
-1.57
 20
-0.4
 30
0.0
 11
-1.4487924678
 21
-0.4
 31
0.0
  0
LINE
  5
15C
330
1F
100
AcDbEntity
  8
0
  6
Continuous
 62
     7
370
    25
100
AcDbLine
 10
1.4487763951
 20
-0.4
 30
0.0
 11
1.57
 21
-0.4
 31
0.0
  0
LINE
  5
15D
330
1F
100
AcDbEntity
  8
0
  6
Continuous
 62
     7
370
    25
100
AcDbLine
 10
-1.3696689958
 20
-1.2756336864
 30
0.0
 11
-1.5496689851
 21
-1.2756336864
 31
0.0
  0
LINE
  5
15E
330
1F
100
AcDbEntity
  8
0
  6
Continuous
 62
     7
370
    25
100
AcDbLine
 10
-1.3756339357
 20
1.4222122982
 30
0.0
 11
-1.5556339265
 21
1.4222122982
 31
0.0
  0
LINE
  5
15F
330
1F
100
AcDbEntity
  8
0
  6
Continuous
 62
     7
370
    25
100
AcDbLine
 10
1.5025394187
 20
-1.3029900246
 30
0.0
 11
1.35
 21
-1.3029900246
 31
0.0
  0
LINE
  5
160
330
1F
100
AcDbEntity
  8
0
  6
Continuous
 62
     7
370
    25
100
AcDbLine
 10
1.5089883742
 20
1.4181394658
 30
0.0
 11
1.35
 21
1.4181394658
 31
0.0
  0
ARC
  5
161
330
1F
100
AcDbEntity
  8
0
  6
Continuous
 62
     7
370
    25
100
AcDbCircle
 10
0.405
 20
1.68
 30
0.0
 40
0.2000000000000002
100
AcDbArc
 50
295.8419327632
 51
244.1580672368
  0
ARC
  5
162
330
1F
100
AcDbEntity
  8
0
  6
Continuous
 62
     7
370
    25
100
AcDbCircle
 10
-1.403709935
 20
-0.5334060216
 30
0.0
 40
0.1529201816366755
100
AcDbArc
 50
69.4375223053
 51
107.2174135516
  0
ARC
  5
163
330
1F
100
AcDbEntity
  8
0
  6
Continuous
 62
     7
370
    25
100
AcDbCircle
 10
-1.403506121
 20
0.2682631759
 30
0.0
 40
0.1512862606029942
100
AcDbArc
 50
69.2877590799
 51
107.4906732094
  0
ARC
  5
164
330
1F
100
AcDbEntity
  8
0
  6
Continuous
 62
     7
370
    25
100
AcDbCircle
 10
1.17
 20
0.4
 30
0.0
 40
0.3999999999999979
100
AcDbArc
 50
0.0
 51
63.2563160496
  0
ARC
  5
165
330
1F
100
AcDbEntity
  8
0
  6
Continuous
 62
     7
370
    25
100
AcDbCircle
 10
-1.17
 20
0.4
 30
0.0
 40
0.4000000000000004
100
AcDbArc
 50
116.7436839504
 51
180.0
  0
ARC
  5
166
330
1F
100
AcDbEntity
  8
0
  6
Continuous
 62
     7
370
    25
100
AcDbCircle
 10
-1.17
 20
-0.4
 30
0.0
 40
0.3999999999999988
100
AcDbArc
 50
180.0
 51
243.2563160496
  0
ARC
  5
167
330
1F
100
AcDbEntity
  8
0
  6
Continuous
 62
     7
370
    25
100
AcDbCircle
 10
1.17
 20
-0.4
 30
0.0
 40
0.4
100
AcDbArc
 50
296.7436839504
 51
0.0
  0
ARC
  5
168
330
1F
100
AcDbEntity
  8
0
  6
Continuous
 62
     7
370
    25
100
AcDbCircle
 10
1.4017678421
 20
-0.5629886278
 30
0.0
 40
0.179186764954345
100
AcDbArc
 50
74.5875072215
 51
106.7923745007
  0
ARC
  5
169
330
1F
100
AcDbEntity
  8
0
  6
Continuous
 62
     7
370
    25
100
AcDbCircle
 10
1.4017715082
 20
0.2369720726
 30
0.0
 40
0.1792254481262436
100
AcDbArc
 50
74.5921292577
 51
106.7898668895
  0
ARC
  5
16A
330
1F
100
AcDbEntity
  8
0
  6
Continuous
 62
     7
370
    25
100
AcDbCircle
 10
-1.3206910256
 20
-0.9764893032
 30
0.0
 40
0.0924818408397457
100
AcDbArc
 50
115.0380948352
 51
251.5234806513
  0
ARC
  5
16B
330
1F
100
AcDbEntity
  8
0
  6
Continuous
 62
     7
370
    25
100
AcDbCircle
 10
1.2618807918
 20
1.1139596344
 30
0.0
 40
0.0977126931270725
100
AcDbArc
 50
334.3982674592
 51
25.6017325408
  0
ENDSEC
  0
SECTION
  2
OBJECTS
  0
DICTIONARY
  5
C
330
0
100
AcDbDictionary
281
     1
  3
ACAD_GROUP
350
D
  3
ACAD_LAYOUT
350
1A
  3
ACAD_MLINESTYLE
350
17
  3
ACAD_PLOTSETTINGS
350
19
  3
ACAD_PLOTSTYLENAME
350
E
  3
ACAD_SCALELIST
350
47
  3
DWGPROPS
350
16C
  0
DICTIONARY
  5
D
102
{ACAD_REACTORS
330
C
102
}
330
C
100
AcDbDictionary
281
     1
  0
DICTIONARY
  5
1A
102
{ACAD_REACTORS
330
C
102
}
330
C
100
AcDbDictionary
281
     1
  3
Layout1
350
1E
  3
Layout2
350
26
  3
Model
350
22
  0
DICTIONARY
  5
17
102
{ACAD_REACTORS
330
C
102
}
330
C
100
AcDbDictionary
281
     1
  3
Standard
350
18
  0
DICTIONARY
  5
19
102
{ACAD_REACTORS
330
C
102
}
330
C
100
AcDbDictionary
281
     1
  0
ACDBDICTIONARYWDFLT
  5
E
102
{ACAD_REACTORS
330
C
102
}
330
C
100
AcDbDictionary
281
     1
  3
Normal
350
F
100
AcDbDictionaryWithDefault
340
F
  0
DICTIONARY
  5
47
102
{ACAD_REACTORS
330
C
102
}
330
C
100
AcDbDictionary
281
     1
  3
A0
350
48
  3
A1
350
49
  3
A2
350
4A
  3
A3
350
4B
  3
A4
350
4C
  3
A5
350
4D
  3
A6
350
4E
  3
A7
350
4F
  3
A8
350
50
  3
A9
350
51
  3
B0
350
52
  3
B1
350
53
  3
B2
350
54
  3
B3
350
55
  3
B4
350
56
  3
B5
350
57
  3
B6
350
58
  0
XRECORD
  5
16C
102
{ACAD_REACTORS
330
C
102
}
330
C
100
AcDbXrecord
280
     1
  1
DWGPROPS COOKIE
  2

  3

  4

  6

  7

  8
s9sar
  9

300
=
301
=
302
=
303
=
304
=
305
=
306
=
307
=
308
=
309
=
 40
0.0
 41
2460650.390030521
 42
2460650.390133669
  1

 90
        0
  0
LAYOUT
  5
1E
102
{ACAD_REACTORS
330
1A
102
}
330
1A
100
AcDbPlotSettings
  1

  2
none_device
  4

  6

 40
0.0
 41
0.0
 42
0.0
 43
0.0
 44
0.0
 45
0.0
 46
0.0
 47
0.0
 48
0.0
 49
0.0
140
0.0
141
0.0
142
1.0
143
1.0
 70
   688
 72
     1
 73
     0
 74
     5
  7

 75
    16
147
1.0
148
0.0
149
0.0
100
AcDbLayout
  1
Layout1
 70
     1
 71
     1
 10
0.0
 20
0.0
 11
420.0
 21
297.0
 12
0.0
 22
0.0
 32
0.0
 14
1.0000000000E+20
 24
1.0000000000E+20
 34
1.0000000000E+20
 15
-1.0000000000E+20
 25
-1.0000000000E+20
 35
-1.0000000000E+20
146
0.0
 13
0.0
 23
0.0
 33
0.0
 16
1.0
 26
0.0
 36
0.0
 17
0.0
 27
1.0
 37
0.0
 76
     0
330
1B
  0
LAYOUT
  5
26
102
{ACAD_REACTORS
330
1A
102
}
330
1A
100
AcDbPlotSettings
  1

  2
none_device
  4

  6

 40
0.0
 41
0.0
 42
0.0
 43
0.0
 44
0.0
 45
0.0
 46
0.0
 47
0.0
 48
0.0
 49
0.0
140
0.0
141
0.0
142
1.0
143
1.0
 70
   688
 72
     1
 73
     0
 74
     5
  7

 75
    16
147
1.0
148
0.0
149
0.0
100
AcDbLayout
  1
Layout2
 70
     1
 71
     2
 10
0.0
 20
0.0
 11
0.0
 21
0.0
 12
0.0
 22
0.0
 32
0.0
 14
0.0
 24
0.0
 34
0.0
 15
0.0
 25
0.0
 35
0.0
146
0.0
 13
0.0
 23
0.0
 33
0.0
 16
1.0
 26
0.0
 36
0.0
 17
0.0
 27
1.0
 37
0.0
 76
     0
330
23
  0
LAYOUT
  5
22
102
{ACAD_REACTORS
330
1A
102
}
330
1A
100
AcDbPlotSettings
  1

  2
none_device
  4
ANSI_A_(11.00_x_8.50_Inches)
  6

 40
6.35
 41
19.05
 42
6.35000508
 43
19.05000254
 44
279.4
 45
215.9
 46
133.34999746
 47
88.89999873
 48
0.0
 49
0.0
140
0.0
141
0.0
142
1.9940758294
143
1.0
 70
  1696
 72
     0
 73
     0
 74
     0
  7

 75
     0
147
0.0179189148
148
-1300.4909072572
149
0.0
100
AcDbLayout
  1
Model
 70
     1
 71
     0
 10
0.0
 20
0.0
 11
420.0
 21
297.0
 12
0.0
 22
0.0
 32
0.0
 14
-1.905
 24
-2.11
 34
0.0
 15
1.905
 25
2.11
 35
0.0
146
0.0
 13
0.0
 23
0.0
 33
0.0
 16
1.0
 26
0.0
 36
0.0
 17
0.0
 27
1.0
 37
0.0
 76
     0
330
1F
331
29
  0
MLINESTYLE
  5
18
102
{ACAD_REACTORS
330
17
102
}
330
17
100
AcDbMlineStyle
  2
Standard
 70
     0
  3

 62
   256
 51
90.0
 52
90.0
 71
     2
 49
0.5
 62
   256
  6
BYLAYER
 49
-0.5
 62
   256
  6
BYLAYER
  0
ACDBPLACEHOLDER
  5
F
102
{ACAD_REACTORS
330
E
102
}
330
E
  0
SCALE
  5
48
102
{ACAD_REACTORS
330
47
102
}
330
47
100
AcDbScale
 70
     0
300
1:1
140
1.0
141
1.0
290
     1
  0
SCALE
  5
49
102
{ACAD_REACTORS
330
47
102
}
330
47
100
AcDbScale
 70
     0
300
1:2
140
1.0
141
2.0
290
     0
  0
SCALE
  5
4A
102
{ACAD_REACTORS
330
47
102
}
330
47
100
AcDbScale
 70
     0
300
1:4
140
1.0
141
4.0
290
     0
  0
SCALE
  5
4B
102
{ACAD_REACTORS
330
47
102
}
330
47
100
AcDbScale
 70
     0
300
1:5
140
1.0
141
5.0
290
     0
  0
SCALE
  5
4C
102
{ACAD_REACTORS
330
47
102
}
330
47
100
AcDbScale
 70
     0
300
1:8
140
1.0
141
8.0
290
     0
  0
SCALE
  5
4D
102
{ACAD_REACTORS
330
47
102
}
330
47
100
AcDbScale
 70
     0
300
1:10
140
1.0
141
10.0
290
     0
  0
SCALE
  5
4E
102
{ACAD_REACTORS
330
47
102
}
330
47
100
AcDbScale
 70
     0
300
1:16
140
1.0
141
16.0
290
     0
  0
SCALE
  5
4F
102
{ACAD_REACTORS
330
47
102
}
330
47
100
AcDbScale
 70
     0
300
1:20
140
1.0
141
20.0
290
     0
  0
SCALE
  5
50
102
{ACAD_REACTORS
330
47
102
}
330
47
100
AcDbScale
 70
     0
300
1:30
140
1.0
141
30.0
290
     0
  0
SCALE
  5
51
102
{ACAD_REACTORS
330
47
102
}
330
47
100
AcDbScale
 70
     0
300
1:40
140
1.0
141
40.0
290
     0
  0
SCALE
  5
52
102
{ACAD_REACTORS
330
47
102
}
330
47
100
AcDbScale
 70
     0
300
1:50
140
1.0
141
50.0
290
     0
  0
SCALE
  5
53
102
{ACAD_REACTORS
330
47
102
}
330
47
100
AcDbScale
 70
     0
300
1:100
140
1.0
141
100.0
290
     0
  0
SCALE
  5
54
102
{ACAD_REACTORS
330
47
102
}
330
47
100
AcDbScale
 70
     0
300
2:1
140
2.0
141
1.0
290
     0
  0
SCALE
  5
55
102
{ACAD_REACTORS
330
47
102
}
330
47
100
AcDbScale
 70
     0
300
4:1
140
4.0
141
1.0
290
     0
  0
SCALE
  5
56
102
{ACAD_REACTORS
330
47
102
}
330
47
100
AcDbScale
 70
     0
300
8:1
140
8.0
141
1.0
290
     0
  0
SCALE
  5
57
102
{ACAD_REACTORS
330
47
102
}
330
47
100
AcDbScale
 70
     0
300
10:1
140
10.0
141
1.0
290
     0
  0
SCALE
  5
58
102
{ACAD_REACTORS
330
47
102
}
330
47
100
AcDbScale
 70
     0
300
100:1
140
100.0
141
1.0
290
     0
  0
ENDSEC
  0
EOF
