  0
SECTION
  2
HEADER
  9
$ACADVER
  1
AC1015
  9
$ACADMAINTVER
 70
     6
  9
$DWGCODEPAGE
  3
ANSI_1251
  9
$INSBASE
 10
0.0
 20
0.0
 30
0.0
  9
$EXTMIN
 10
0.0
 20
0.0
 30
0.0
  9
$EXTMAX
 10
50.0
 20
50.0
 30
0.0
  9
$LIMMIN
 10
0.0
 20
0.0
  9
$LIMMAX
 10
50.0
 20
50.0
  9
$ORTHOMODE
 70
     0
  9
$REGENMODE
 70
     1
  9
$FILLMODE
 70
     1
  9
$QTEXTMODE
 70
     0
  9
$MIRRTEXT
 70
     1
  9
$LTSCALE
 40
1.0
  9
$ATTMODE
 70
     1
  9
$TEXTSIZE
 40
3.5
  9
$TRACEWID
 40
1.0
  9
$TEXTSTYLE
  7
Standard
  9
$CLAYER
  8
0
  9
$CELTYPE
  6
ByLayer
  9
$CECOLOR
 62
   256
  9
$CELTSCALE
 40
1.0
  9
$DISPSILH
 70
     0
  9
$DIMSCALE
 40
1.0
  9
$DIMASZ
 40
3.5
  9
$DIMEXO
 40
0.01
  9
$DIMDLI
 40
3.75
  9
$DIMRND
 40
0.0
  9
$DIMDLE
 40
0.0
  9
$DIMEXE
 40
1.0
  9
$DIMTP
 40
0.0
  9
$DIMTM
 40
0.0
  9
$DIMTXT
 40
3.5
  9
$DIMCEN
 40
2.5
  9
$DIMTSZ
 40
0.0
  9
$DIMTOL
 70
     0
  9
$DIMLIM
 70
     0
  9
$DIMTIH
 70
     1
  9
$DIMTOH
 70
     1
  9
$DIMSE1
 70
     0
  9
$DIMSE2
 70
     0
  9
$DIMTAD
 70
     1
  9
$DIMZIN
 70
     0
  9
$DIMBLK
  1

  9
$DIMASO
 70
     1
  9
$DIMSHO
 70
     1
  9
$DIMPOST
  1

  9
$DIMAPOST
  1

  9
$DIMALT
 70
     0
  9
$DIMALTD
 70
     3
  9
$DIMALTF
 40
0.0393700787
  9
$DIMLFAC
 40
1.0
  9
$DIMTOFL
 70
     1
  9
$DIMTVP
 40
0.0
  9
$DIMTIX
 70
     0
  9
$DIMSOXD
 70
     0
  9
$DIMSAH
 70
     0
  9
$DIMBLK1
  1

  9
$DIMBLK2
  1

  9
$DIMSTYLE
  2
ISO-25
  9
$DIMCLRD
 70
     0
  9
$DIMCLRE
 70
     0
  9
$DIMCLRT
 70
     0
  9
$DIMTFAC
 40
1.0
  9
$DIMGAP
 40
3.0
  9
$DIMJUST
 70
     0
  9
$DIMSD1
 70
     0
  9
$DIMSD2
 70
     0
  9
$DIMTOLJ
 70
     0
  9
$DIMTZIN
 70
     0
  9
$DIMALTZ
 70
     0
  9
$DIMALTTZ
 70
     0
  9
$DIMUPT
 70
     0
  9
$DIMDEC
 70
     2
  9
$DIMTDEC
 70
     3
  9
$DIMALTU
 70
     2
  9
$DIMALTTD
 70
     3
  9
$DIMTXSTY
  7
Standard
  9
$DIMAUNIT
 70
     0
  9
$DIMADEC
 70
     2
  9
$DIMALTRND
 40
0.0
  9
$DIMAZIN
 70
     0
  9
$DIMDSEP
 70
    44
  9
$DIMATFIT
 70
     3
  9
$DIMFRAC
 70
     0
  9
$DIMLDRBLK
  1

  9
$DIMLUNIT
 70
     2
  9
$DIMLWD
 70
    -2
  9
$DIMLWE
 70
    -2
  9
$DIMTMOVE
 70
     0
  9
$LUNITS
 70
     2
  9
$LUPREC
 70
     2
  9
$SKETCHINC
 40
1.0
  9
$FILLETRAD
 40
10.0
  9
$AUNITS
 70
     0
  9
$AUPREC
 70
     2
  9
$MENU
  1
.
  9
$ELEVATION
 40
0.0
  9
$PELEVATION
 40
0.0
  9
$THICKNESS
 40
0.0
  9
$LIMCHECK
 70
     0
  9
$CHAMFERA
 40
0.0
  9
$CHAMFERB
 40
0.0
  9
$CHAMFERC
 40
0.0
  9
$CHAMFERD
 40
0.0
  9
$SKPOLY
 70
     0
  9
$TDCREATE
 40
2459604.748220393
  9
$TDUCREATE
 40
2459604.581553727
  9
$TDUPDATE
 40
2459604.748221077
  9
$TDUUPDATE
 40
2459604.58155441
  9
$TDINDWG
 40
0.0000000116
  9
$TDUSRTIMER
 40
0.0000000116
  9
$USRTIMER
 70
     1
  9
$ANGBASE
 50
0.0
  9
$ANGDIR
 70
     0
  9
$PDMODE
 70
     0
  9
$PDSIZE
 40
-1.0
  9
$PLINEWID
 40
0.0
  9
$SPLFRAME
 70
     0
  9
$SPLINETYPE
 70
     6
  9
$SPLINESEGS
 70
     8
  9
$HANDSEED
  5
115
  9
$SURFTAB1
 70
     6
  9
$SURFTAB2
 70
     6
  9
$SURFTYPE
 70
     6
  9
$SURFU
 70
     6
  9
$SURFV
 70
     6
  9
$UCSBASE
  2

  9
$UCSNAME
  2

  9
$UCSORG
 10
0.0
 20
0.0
 30
0.0
  9
$UCSXDIR
 10
1.0
 20
0.0
 30
0.0
  9
$UCSYDIR
 10
0.0
 20
1.0
 30
0.0
  9
$UCSORTHOREF
  2

  9
$UCSORTHOVIEW
 70
     0
  9
$UCSORGTOP
 10
0.0
 20
0.0
 30
0.0
  9
$UCSORGBOTTOM
 10
0.0
 20
0.0
 30
0.0
  9
$UCSORGLEFT
 10
0.0
 20
0.0
 30
0.0
  9
$UCSORGRIGHT
 10
0.0
 20
0.0
 30
0.0
  9
$UCSORGFRONT
 10
0.0
 20
0.0
 30
0.0
  9
$UCSORGBACK
 10
0.0
 20
0.0
 30
0.0
  9
$PUCSBASE
  2

  9
$PUCSNAME
  2

  9
$PUCSORG
 10
0.0
 20
0.0
 30
0.0
  9
$PUCSXDIR
 10
1.0
 20
0.0
 30
0.0
  9
$PUCSYDIR
 10
0.0
 20
1.0
 30
0.0
  9
$PUCSORTHOREF
  2

  9
$PUCSORTHOVIEW
 70
     0
  9
$PUCSORGTOP
 10
0.0
 20
0.0
 30
0.0
  9
$PUCSORGBOTTOM
 10
0.0
 20
0.0
 30
0.0
  9
$PUCSORGLEFT
 10
0.0
 20
0.0
 30
0.0
  9
$PUCSORGRIGHT
 10
0.0
 20
0.0
 30
0.0
  9
$PUCSORGFRONT
 10
0.0
 20
0.0
 30
0.0
  9
$PUCSORGBACK
 10
0.0
 20
0.0
 30
0.0
  9
$USERI1
 70
     0
  9
$USERI2
 70
     0
  9
$USERI3
 70
     0
  9
$USERI4
 70
     0
  9
$USERI5
 70
     0
  9
$USERR1
 40
0.0
  9
$USERR2
 40
0.0
  9
$USERR3
 40
0.0
  9
$USERR4
 40
0.0
  9
$USERR5
 40
0.0
  9
$WORLDVIEW
 70
     1
  9
$SHADEDGE
 70
     3
  9
$SHADEDIF
 70
    70
  9
$TILEMODE
 70
     1
  9
$MAXACTVP
 70
    64
  9
$PINSBASE
 10
0.0
 20
0.0
 30
0.0
  9
$PLIMCHECK
 70
     0
  9
$PEXTMIN
 10
1.0000000000E+20
 20
1.0000000000E+20
 30
1.0000000000E+20
  9
$PEXTMAX
 10
-1.0000000000E+20
 20
-1.0000000000E+20
 30
-1.0000000000E+20
  9
$PLIMMIN
 10
0.0
 20
0.0
  9
$PLIMMAX
 10
420.0
 20
297.0
  9
$UNITMODE
 70
     0
  9
$VISRETAIN
 70
     1
  9
$PLINEGEN
 70
     0
  9
$PSLTSCALE
 70
     1
  9
$TREEDEPTH
 70
  3020
  9
$CMLSTYLE
  2
Standard
  9
$CMLJUST
 70
     0
  9
$CMLSCALE
 40
20.0
  9
$PROXYGRAPHICS
 70
     1
  9
$MEASUREMENT
 70
     1
  9
$CELWEIGHT
370
    -1
  9
$ENDCAPS
280
     0
  9
$JOINSTYLE
280
     0
  9
$LWDISPLAY
290
     1
  9
$INSUNITS
 70
     4
  9
$HYPERLINKBASE
  1

  9
$STYLESHEET
  1

  9
$XEDIT
290
     1
  9
$CEPSNTYPE
380
     0
  9
$PSTYLEMODE
290
     1
  9
$FINGERPRINTGUID
  2
{548F68CE-9F64-4A04-A20F-048C49E4F4F7}
  9
$VERSIONGUID
  2
{FAEB1C32-E019-11D5-929B-00C0DF256EC4}
  9
$EXTNAMES
290
     1
  9
$PSVPSCALE
 40
0.0
  9
$OLESTARTUP
290
     0
  0
ENDSEC
  0
SECTION
  2
CLASSES
  0
CLASS
  1
ACDBDICTIONARYWDFLT
  2
AcDbDictionaryWithDefault
  3
ObjectDBX Classes
 90
        0
280
     0
281
     0
  0
CLASS
  1
VISUALSTYLE
  2
AcDbVisualStyle
  3
ObjectDBX Classes
 90
     4095
280
     0
281
     0
  0
CLASS
  1
MATERIAL
  2
AcDbMaterial
  3
ObjectDBX Classes
 90
     1153
280
     0
281
     0
  0
CLASS
  1
SCALE
  2
AcDbScale
  3
ObjectDBX Classes
 90
     1153
280
     0
281
     0
  0
CLASS
  1
TABLESTYLE
  2
AcDbTableStyle
  3
ObjectDBX Classes
 90
     4095
280
     0
281
     0
  0
CLASS
  1
MLEADERSTYLE
  2
AcDbMLeaderStyle
  3
ACDB_MLEADERSTYLE_CLASS
 90
     4095
280
     0
281
     0
  0
CLASS
  1
SUN
  2
AcDbSun
  3
SCENEOE
 90
     1153
280
     0
281
     0
  0
CLASS
  1
ACDBPLACEHOLDER
  2
AcDbPlaceHolder
  3
ObjectDBX Classes
 90
        0
280
     0
281
     0
  0
CLASS
  1
LAYOUT
  2
AcDbLayout
  3
ObjectDBX Classes
 90
        0
280
     0
281
     0
  0
ENDSEC
  0
SECTION
  2
TABLES
  0
TABLE
  2
VPORT
  5
8
330
0
100
AcDbSymbolTable
 70
     1
  0
VPORT
  5
29
330
8
100
AcDbSymbolTableRecord
100
AcDbViewportTableRecord
  2
*Active
 70
     0
 10
0.0
 20
0.0
 11
1.0
 21
1.0
 12
25.0
 22
25.0
 13
0.0
 23
0.0
 14
10.0
 24
10.0
 15
10.0
 25
10.0
 16
0.0
 26
0.0
 36
1.0
 17
0.0
 27
0.0
 37
0.0
 40
50.0
 41
1.0
 42
50.0
 43
0.0
 44
0.0
 50
0.0
 51
0.0
 71
     0
 72
  2000
 73
     1
 74
     3
 75
     0
 76
     0
 77
     0
 78
     0
281
     0
 65
     1
110
0.0
120
0.0
130
0.0
111
1.0
121
0.0
131
0.0
112
0.0
122
1.0
132
0.0
 79
     0
146
0.0
  0
ENDTAB
  0
TABLE
  2
LTYPE
  5
5
330
0
100
AcDbSymbolTable
 70
     6
  0
LTYPE
  5
14
330
5
100
AcDbSymbolTableRecord
100
AcDbLinetypeTableRecord
  2
ByBlock
 70
     0
  3

 72
    65
 73
     0
 40
0.0
  0
LTYPE
  5
15
330
5
100
AcDbSymbolTableRecord
100
AcDbLinetypeTableRecord
  2
ByLayer
 70
     0
  3

 72
    65
 73
     0
 40
0.0
  0
LTYPE
  5
16
330
5
100
AcDbSymbolTableRecord
100
AcDbLinetypeTableRecord
  2
Continuous
 70
     0
  3
Solid line
 72
    65
 73
     0
 40
0.0
  0
LTYPE
  5
6E
330
5
100
AcDbSymbolTableRecord
100
AcDbLinetypeTableRecord
  2
HIDDEN
 70
     0
  3
Hidden __ __ __ __ __ __ __ __ __ __ __ __ __ __
 72
    65
 73
     2
 40
1.905
 49
1.27
 74
     0
 49
-0.635
 74
     0
  0
LTYPE
  5
6F
330
5
100
AcDbSymbolTableRecord
100
AcDbLinetypeTableRecord
  2
PHANTOM
 70
     0
  3
Phantom ______  __  __  ______  __  __  ______
 72
    65
 73
     6
 40
12.7
 49
6.35
 74
     0
 49
-1.27
 74
     0
 49
1.27
 74
     0
 49
-1.27
 74
     0
 49
1.27
 74
     0
 49
-1.27
 74
     0
  0
LTYPE
  5
70
330
5
100
AcDbSymbolTableRecord
100
AcDbLinetypeTableRecord
  2
CENTER
 70
     0
  3
Center ____ _ ____ _ ____ _ ____ _ ____ _ ____
 72
    65
 73
     4
 40
10.16
 49
6.35
 74
     0
 49
-1.27
 74
     0
 49
1.27
 74
     0
 49
-1.27
 74
     0
  0
LTYPE
  5
71
330
5
100
AcDbSymbolTableRecord
100
AcDbLinetypeTableRecord
  2
CENTERX2
 70
     0
  3
Center (2x) ________  __  ________  __  _____
 72
    65
 73
     4
 40
20.32
 49
12.7
 74
     0
 49
-2.54
 74
     0
 49
2.54
 74
     0
 49
-2.54
 74
     0
  0
LTYPE
  5
72
330
5
100
AcDbSymbolTableRecord
100
AcDbLinetypeTableRecord
  2
DOT2
 70
     0
  3
Dot (.5x) ........................................
 72
    65
 73
     2
 40
0.635
 49
0.0
 74
     0
 49
-0.635
 74
     0
  0
ENDTAB
  0
TABLE
  2
LAYER
  5
2
330
0
100
AcDbSymbolTable
 70
     1
  0
LAYER
  5
10
330
2
100
AcDbSymbolTableRecord
100
AcDbLayerTableRecord
  2
0
 70
     0
 62
     7
  6
Continuous
370
    -3
390
F
  0
ENDTAB
  0
TABLE
  2
STYLE
  5
3
330
0
100
AcDbSymbolTable
 70
     1
  0
STYLE
  5
11
330
3
100
AcDbSymbolTableRecord
100
AcDbTextStyleTableRecord
  2
Standard
 70
     0
 40
0.0
 41
1.0
 50
0.0
 71
     0
 42
3.5
  3
txt
  4

  0
ENDTAB
  0
TABLE
  2
VIEW
  5
6
330
0
100
AcDbSymbolTable
 70
     0
  0
ENDTAB
  0
TABLE
  2
UCS
  5
7
330
0
100
AcDbSymbolTable
 70
     0
  0
ENDTAB
  0
TABLE
  2
APPID
  5
9
330
0
100
AcDbSymbolTable
 70
     1
  0
APPID
  5
12
330
9
100
AcDbSymbolTableRecord
100
AcDbRegAppTableRecord
  2
ACAD
 70
     0
  0
ENDTAB
  0
TABLE
  2
DIMSTYLE
  5
A
330
0
100
AcDbSymbolTable
 70
     1
100
AcDbDimStyleTable
  0
DIMSTYLE
105
27
330
A
100
AcDbSymbolTableRecord
100
AcDbDimStyleTableRecord
  2
ISO-25
 70
     0
 41
2.5
 42
0.625
 43
3.75
 44
1.25
 73
     0
 74
     0
 77
     1
 78
     8
140
2.5
141
2.5
143
0.0393700787
147
0.625
171
     3
172
     1
178
     0
271
     2
272
     2
274
     3
278
    44
283
     0
284
     8
340
11
  0
ENDTAB
  0
TABLE
  2
BLOCK_RECORD
  5
1
330
0
100
AcDbSymbolTable
 70
     1
  0
BLOCK_RECORD
  5
1F
330
1
100
AcDbSymbolTableRecord
100
AcDbBlockTableRecord
  2
*Model_Space
340
22
  0
BLOCK_RECORD
  5
1B
330
1
100
AcDbSymbolTableRecord
100
AcDbBlockTableRecord
  2
*Paper_Space
340
1E
  0
BLOCK_RECORD
  5
23
330
1
100
AcDbSymbolTableRecord
100
AcDbBlockTableRecord
  2
*Paper_Space0
340
26
  0
ENDTAB
  0
ENDSEC
  0
SECTION
  2
BLOCKS
  0
BLOCK
  5
20
330
1F
100
AcDbEntity
  8
0
100
AcDbBlockBegin
  2
*Model_Space
 70
     0
 10
0.0
 20
0.0
 30
0.0
  3
*Model_Space
  1

  0
ENDBLK
  5
21
330
1F
100
AcDbEntity
  8
0
100
AcDbBlockEnd
  0
BLOCK
  5
1C
330
1B
100
AcDbEntity
 67
     1
  8
0
100
AcDbBlockBegin
  2
*Paper_Space
 70
     0
 10
0.0
 20
0.0
 30
0.0
  3
*Paper_Space
  1

  0
ENDBLK
  5
1D
330
1B
100
AcDbEntity
 67
     1
  8
0
100
AcDbBlockEnd
  0
BLOCK
  5
24
330
23
100
AcDbEntity
  8
0
100
AcDbBlockBegin
  2
*Paper_Space0
 70
     0
 10
0.0
 20
0.0
 30
0.0
  3
*Paper_Space0
  1

  0
ENDBLK
  5
25
330
23
100
AcDbEntity
  8
0
100
AcDbBlockEnd
  0
ENDSEC
  0
SECTION
  2
ENTITIES
  0
SPLINE
  5
73
330
1F
100
AcDbEntity
  8
0
  6
Continuous
 62
     7
370
    25
100
AcDbSpline
210
0.0
220
0.0
230
1.0
 70
     8
 71
     3
 72
     9
 73
     5
 74
     0
 42
0.000000001
 43
0.00000001
 40
0.0
 40
0.0
 40
0.0
 40
0.0
 40
0.5081299814027822
 40
0.9999999999999999
 40
0.9999999999999999
 40
0.9999999999999999
 40
0.9999999999999999
 10
21.48995857639925
 20
35.21308812765965
 30
0.0
 10
21.55374123885276
 20
35.17620128452923
 30
0.0
 10
21.67926554323926
 20
35.10360796297679
 30
0.0
 10
21.80477876379404
 20
35.03099346642259
 30
0.0
 10
21.86651495392251
 20
34.99527657265206
 30
0.0
  0
SPLINE
  5
74
330
1F
100
AcDbEntity
  8
0
  6
Continuous
 62
     7
370
    25
100
AcDbSpline
210
0.0
220
0.0
230
1.0
 70
     8
 71
     3
 72
     9
 73
     5
 74
     0
 42
0.000000001
 43
0.00000001
 40
0.0
 40
0.0
 40
0.0
 40
0.0
 40
0.508129981402783
 40
0.9999999999999999
 40
0.9999999999999999
 40
0.9999999999999999
 40
0.9999999999999999
 10
21.48995857639925
 20
34.50753257210409
 30
0.0
 10
21.55374123885276
 20
34.47064572897367
 30
0.0
 10
21.67926554323926
 20
34.39805240742123
 30
0.0
 10
21.80477876379404
 20
34.32543791086704
 30
0.0
 10
21.86651495392251
 20
34.28972101709649
 30
0.0
  0
SPLINE
  5
75
330
1F
100
AcDbEntity
  8
0
  6
Continuous
 62
     7
370
    25
100
AcDbSpline
210
0.0
220
0.0
230
1.0
 70
     8
 71
     3
 72
     9
 73
     5
 74
     0
 42
0.000000001
 43
0.00000001
 40
0.0
 40
0.0
 40
0.0
 40
0.0
 40
0.5081299814027846
 40
1.0
 40
1.0
 40
1.0
 40
1.0
 10
21.48995857639925
 20
33.80197701654853
 30
0.0
 10
21.55374123885276
 20
33.76509017341812
 30
0.0
 10
21.67926554323926
 20
33.69249685186568
 30
0.0
 10
21.80477876379404
 20
33.61988235531147
 30
0.0
 10
21.86651495392251
 20
33.58416546154094
 30
0.0
  0
SPLINE
  5
76
330
1F
100
AcDbEntity
  8
0
  6
Continuous
 62
     7
370
    25
100
AcDbSpline
210
0.0
220
0.0
230
1.0
 70
     8
 71
     3
 72
     9
 73
     5
 74
     0
 42
0.000000001
 43
0.00000001
 40
0.0
 40
0.0
 40
0.0
 40
0.0
 40
0.5081299814027849
 40
0.9999999999999999
 40
0.9999999999999999
 40
0.9999999999999999
 40
0.9999999999999999
 10
21.48995857639925
 20
33.09642146099297
 30
0.0
 10
21.55374123885276
 20
33.05953461786256
 30
0.0
 10
21.67926554323926
 20
32.98694129631011
 30
0.0
 10
21.80477876379404
 20
32.91432679975592
 30
0.0
 10
21.86651495392251
 20
32.87860990598539
 30
0.0
  0
SPLINE
  5
77
330
1F
100
AcDbEntity
  8
0
  6
Continuous
 62
     7
370
    25
100
AcDbSpline
210
0.0
220
0.0
230
1.0
 70
     8
 71
     3
 72
     9
 73
     5
 74
     0
 42
0.000000001
 43
0.00000001
 40
0.0
 40
0.0
 40
0.0
 40
0.0
 40
0.4999894266693171
 40
1.0
 40
1.0
 40
1.0
 40
1.0
 10
27.45075642035684
 20
34.64969308951524
 30
0.0
 10
27.5142922640531
 20
34.68650630450625
 30
0.0
 10
27.6413666386444
 20
34.7601342914744
 30
0.0
 10
27.76839399560448
 20
34.83375789180539
 30
0.0
 10
27.83190901718677
 20
34.87057047041757
 30
0.0
  0
SPLINE
  5
78
330
1F
100
AcDbEntity
  8
0
  6
Continuous
 62
     7
370
    25
100
AcDbSpline
210
0.0
220
0.0
230
1.0
 70
     8
 71
     3
 72
     9
 73
     5
 74
     0
 42
0.000000001
 43
0.00000001
 40
0.0
 40
0.0
 40
0.0
 40
0.0
 40
0.4999894266693178
 40
1.0
 40
1.0
 40
1.0
 40
1.0
 10
27.45075642035684
 20
33.94413753395968
 30
0.0
 10
27.5142922640531
 20
33.9809507489507
 30
0.0
 10
27.6413666386444
 20
34.05457873591885
 30
0.0
 10
27.76839399560448
 20
34.12820233624984
 30
0.0
 10
27.83190901718677
 20
34.16501491486201
 30
0.0
  0
SPLINE
  5
79
330
1F
100
AcDbEntity
  8
0
  6
Continuous
 62
     7
370
    25
100
AcDbSpline
210
0.0
220
0.0
230
1.0
 70
     8
 71
     3
 72
     9
 73
     5
 74
     0
 42
0.000000001
 43
0.00000001
 40
0.0
 40
0.0
 40
0.0
 40
0.0
 40
0.5008970058794328
 40
1.0
 40
1.0
 40
1.0
 40
1.0
 10
27.45075642035684
 20
33.23858197840413
 30
0.0
 10
27.51429227116499
 20
33.27539519405867
 30
0.0
 10
27.64113641289947
 20
33.34888977522492
 30
0.0
 10
27.76793362219437
 20
33.42237997770221
 30
0.0
 10
27.83121848899958
 20
33.45905915779716
 30
0.0
  0
SPLINE
  5
7A
330
1F
100
AcDbEntity
  8
0
  6
Continuous
 62
     7
370
    25
100
AcDbSpline
210
0.0
220
0.0
230
1.0
 70
     8
 71
     3
 72
     9
 73
     5
 74
     0
 42
0.000000001
 43
0.00000001
 40
0.0
 40
0.0
 40
0.0
 40
0.0
 40
0.5028090305380905
 40
0.9999999999999999
 40
0.9999999999999999
 40
0.9999999999999999
 40
0.9999999999999999
 10
27.45075642035684
 20
35.35524864507079
 30
0.0
 10
27.51429228614782
 20
35.39206186212319
 30
0.0
 10
27.64065410928966
 20
35.46527696928427
 30
0.0
 10
27.76696917846123
 20
35.53848771440717
 30
0.0
 10
27.82977189016029
 20
35.57488743574984
 30
0.0
  0
SPLINE
  5
7B
330
1F
100
AcDbEntity
  8
0
  6
Continuous
 62
     7
370
    25
100
AcDbSpline
210
0.0
220
0.0
230
1.0
 70
     8
 71
     3
 72
     9
 73
     5
 74
     0
 42
0.000000001
 43
0.00000001
 40
0.0
 40
0.0
 40
0.0
 40
0.0
 40
0.033842393683493
 40
1.0
 40
1.0
 40
1.0
 40
1.0
 10
21.67481577383225
 20
35.81173003208253
 30
0.0
 10
21.67697841869504
 20
35.81047925434441
 30
0.0
 10
21.74088184358307
 20
35.77352035156077
 30
0.0
 10
21.80477962570178
 20
35.73655066860166
 30
0.0
 10
21.86651495392251
 20
35.70083212820762
 30
0.0
  0
SPLINE
  5
7C
330
1F
100
AcDbEntity
  8
0
  6
Continuous
 62
     7
370
    25
100
AcDbSpline
210
0.0
220
0.0
230
1.0
 70
     8
 71
     3
 72
     9
 73
     5
 74
     0
 42
0.000000001
 43
0.00000001
 40
0.0
 40
0.0
 40
0.0
 40
0.0
 40
0.4999528679147558
 40
1.0
 40
1.0
 40
1.0
 40
1.0
 10
21.87279723395412
 20
34.82917283029263
 30
0.0
 10
21.80902847785068
 20
34.79227975187163
 30
0.0
 10
21.68147894229265
 20
34.71848663898303
 30
0.0
 10
21.55391769042315
 20
34.64471567364524
 30
0.0
 10
21.4901310522606
 20
34.60782671399691
 30
0.0
  0
SPLINE
  5
7D
330
1F
100
AcDbEntity
  8
0
  6
Continuous
 62
     7
370
    25
100
AcDbSpline
210
0.0
220
0.0
230
1.0
 70
     8
 71
     3
 72
     9
 73
     5
 74
     0
 42
0.000000001
 43
0.00000001
 40
0.0
 40
0.0
 40
0.0
 40
0.0
 40
0.49995286791475
 40
1.0
 40
1.0
 40
1.0
 40
1.0
 10
21.87279723395412
 20
34.12361727473708
 30
0.0
 10
21.80902847785068
 20
34.08672419631607
 30
0.0
 10
21.68147894229265
 20
34.01293108342748
 30
0.0
 10
21.55391769042315
 20
33.93916011808969
 30
0.0
 10
21.4901310522606
 20
33.90227115844135
 30
0.0
  0
SPLINE
  5
7E
330
1F
100
AcDbEntity
  8
0
  6
Continuous
 62
     7
370
    25
100
AcDbSpline
210
0.0
220
0.0
230
1.0
 70
     8
 71
     3
 72
     9
 73
     5
 74
     0
 42
0.000000001
 43
0.00000001
 40
0.0
 40
0.0
 40
0.0
 40
0.0
 40
0.4999528679147576
 40
1.0
 40
1.0
 40
1.0
 40
1.0
 10
21.87279723395412
 20
33.41806171918152
 30
0.0
 10
21.80902847785068
 20
33.38116864076051
 30
0.0
 10
21.68147894229265
 20
33.30737552787193
 30
0.0
 10
21.55391769042315
 20
33.23360456253413
 30
0.0
 10
21.4901310522606
 20
33.1967156028858
 30
0.0
  0
LINE
  5
7F
330
1F
100
AcDbEntity
  8
0
  6
Continuous
 62
     7
370
    25
100
AcDbLine
 10
21.872797234
 20
32.7125061636
 30
0.0
 11
21.7726965963
 21
32.6545972493
 31
0.0
  0
SPLINE
  5
80
330
1F
100
AcDbEntity
  8
0
  6
Continuous
 62
     7
370
    25
100
AcDbSpline
210
0.0
220
0.0
230
1.0
 70
     8
 71
     3
 72
     9
 73
     5
 74
     0
 42
0.000000001
 43
0.00000001
 40
0.0
 40
0.0
 40
0.0
 40
0.0
 40
0.508393753446366
 40
0.9999999999999999
 40
0.9999999999999999
 40
0.9999999999999999
 40
0.9999999999999999
 10
27.82911255174383
 20
34.96060449177469
 30
0.0
 10
27.76532589728114
 20
34.99749342061057
 30
0.0
 10
27.63985886699157
 20
35.0700531808079
 30
0.0
 10
27.51440336065937
 20
35.14263472494568
 30
0.0
 10
27.45272865008192
 20
35.17831626542832
 30
0.0
  0
SPLINE
  5
81
330
1F
100
AcDbEntity
  8
0
  6
Continuous
 62
     7
370
    25
100
AcDbSpline
210
0.0
220
0.0
230
1.0
 70
     8
 71
     3
 72
     9
 73
     5
 74
     0
 42
0.000000001
 43
0.00000001
 40
0.0
 40
0.0
 40
0.0
 40
0.0
 40
0.508393753446365
 40
0.9999999999999999
 40
0.9999999999999999
 40
0.9999999999999999
 40
0.9999999999999999
 10
27.82911255174383
 20
34.25504893621913
 30
0.0
 10
27.76532589728114
 20
34.29193786505502
 30
0.0
 10
27.63985886699157
 20
34.36449762525234
 30
0.0
 10
27.51440336065937
 20
34.43707916939012
 30
0.0
 10
27.45272865008192
 20
34.47276070987277
 30
0.0
  0
SPLINE
  5
82
330
1F
100
AcDbEntity
  8
0
  6
Continuous
 62
     7
370
    25
100
AcDbSpline
210
0.0
220
0.0
230
1.0
 70
     8
 71
     3
 72
     9
 73
     5
 74
     0
 42
0.000000001
 43
0.00000001
 40
0.0
 40
0.0
 40
0.0
 40
0.0
 40
0.508393753446365
 40
0.9999999999999999
 40
0.9999999999999999
 40
0.9999999999999999
 40
0.9999999999999999
 10
27.82911255174383
 20
33.54949338066358
 30
0.0
 10
27.76532589728114
 20
33.58638230949946
 30
0.0
 10
27.63985886699157
 20
33.65894206969678
 30
0.0
 10
27.51440336065937
 20
33.73152361383457
 30
0.0
 10
27.45272865008192
 20
33.7672051543172
 30
0.0
  0
SPLINE
  5
83
330
1F
100
AcDbEntity
  8
0
  6
Continuous
 62
     7
370
    25
100
AcDbSpline
210
0.0
220
0.0
230
1.0
 70
     8
 71
     3
 72
     9
 73
     5
 74
     0
 42
0.000000001
 43
0.00000001
 40
0.0
 40
0.0
 40
0.0
 40
0.0
 40
0.4120475799627328
 40
1.0
 40
1.0
 40
1.0
 40
1.0
 10
27.76743368267161
 20
32.87961015510172
 30
0.0
 10
27.72420709875787
 20
32.90460915323724
 30
0.0
 10
27.61930032095895
 20
32.9652793266618
 30
0.0
 10
27.51440317871767
 20
33.0259677143514
 30
0.0
 10
27.45272865008192
 20
33.06164959876165
 30
0.0
  0
SPLINE
  5
84
330
1F
100
AcDbEntity
  8
0
  6
Continuous
 62
     7
370
    25
100
AcDbSpline
210
0.0
220
0.0
230
1.0
 70
     8
 71
     3
 72
     9
 73
     5
 74
     0
 42
0.000000001
 43
0.00000001
 40
0.0
 40
0.0
 40
0.0
 40
0.0
 40
0.3577816233376589
 40
1.0
 40
1.0
 40
1.0
 40
1.0
 10
27.74084088319844
 20
35.71721247641675
 30
0.0
 10
27.70647873469309
 20
35.73708509416208
 30
0.0
 10
27.61043649477929
 20
35.79262908091003
 30
0.0
 10
27.51440307624094
 20
35.84818974286004
 30
0.0
 10
27.45272865008192
 20
35.88387182098388
 30
0.0
  0
SPLINE
  5
85
330
1F
100
AcDbEntity
  8
0
  6
Continuous
 62
     7
370
    25
100
AcDbSpline
210
0.0
220
0.0
230
1.0
 70
     8
 71
     3
 72
     9
 73
     5
 74
     0
 42
0.000000001
 43
0.00000001
 40
0.0
 40
0.0
 40
0.0
 40
0.0
 40
0.49995286791475
 40
1.0
 40
1.0
 40
1.0
 40
1.0
 10
21.87279723395412
 20
35.53472838584818
 30
0.0
 10
21.80902847785068
 20
35.49783530742718
 30
0.0
 10
21.68147894229265
 20
35.42404219453859
 30
0.0
 10
21.55391769042315
 20
35.3502712292008
 30
0.0
 10
21.4901310522606
 20
35.31338226955247
 30
0.0
  0
LINE
  5
86
330
1F
100
AcDbEntity
  8
0
  6
Continuous
 62
     7
370
    25
100
AcDbLine
 10
21.8665149539
 20
34.9986100978
 30
0.0
 11
21.8665149539
 21
34.8255384877
 31
0.0
  0
LINE
  5
87
330
1F
100
AcDbEntity
  8
0
  6
Continuous
 62
     7
370
    25
100
AcDbLine
 10
21.8665149539
 20
34.2930545423
 30
0.0
 11
21.8665149539
 21
34.1199829321
 31
0.0
  0
LINE
  5
88
330
1F
100
AcDbEntity
  8
0
  6
Continuous
 62
     7
370
    25
100
AcDbLine
 10
21.8665149539
 20
33.5874989867
 30
0.0
 11
21.8665149539
 21
33.4144273765
 31
0.0
  0
LINE
  5
89
330
1F
100
AcDbEntity
  8
0
  6
Continuous
 62
     7
370
    25
100
AcDbLine
 10
21.8665149539
 20
32.8819434311
 30
0.0
 11
21.8665149539
 21
32.708871821
 31
0.0
  0
LINE
  5
8A
330
1F
100
AcDbEntity
  8
0
  6
Continuous
 62
     7
370
    25
100
AcDbLine
 10
27.4527286501
 20
35.1749989867
 30
0.0
 11
27.4527286501
 21
35.3513878756
 31
0.0
  0
LINE
  5
8B
330
1F
100
AcDbEntity
  8
0
  6
Continuous
 62
     7
370
    25
100
AcDbLine
 10
27.4527286501
 20
34.4694434311
 30
0.0
 11
27.4527286501
 21
34.64583232
 31
0.0
  0
LINE
  5
8C
330
1F
100
AcDbEntity
  8
0
  6
Continuous
 62
     7
370
    25
100
AcDbLine
 10
27.4527286501
 20
33.7638878756
 30
0.0
 11
27.4527286501
 21
33.9402767645
 31
0.0
  0
LINE
  5
8D
330
1F
100
AcDbEntity
  8
0
  6
Continuous
 62
     7
370
    25
100
AcDbLine
 10
27.4527286501
 20
33.05833232
 30
0.0
 11
27.4527286501
 21
33.2347212089
 31
0.0
  0
LINE
  5
8E
330
1F
100
AcDbEntity
  8
0
  6
Continuous
 62
     7
370
    25
100
AcDbLine
 10
27.4527286501
 20
35.8805545423
 30
0.0
 11
27.4527286501
 21
36.0120933676
 31
0.0
  0
LINE
  5
8F
330
1F
100
AcDbEntity
  8
0
  6
Continuous
 62
     7
370
    25
100
AcDbLine
 10
21.8665149539
 20
35.7041656534
 30
0.0
 11
21.8665149539
 21
35.5310940432
 31
0.0
  0
LINE
  5
90
330
1F
100
AcDbEntity
  8
0
  6
Continuous
 62
     7
370
    25
100
AcDbLine
 10
21.7722518953
 20
32.6425701291
 30
0.0
 11
21.984621802
 21
32.4302002225
 31
0.0
  0
LINE
  5
91
330
1F
100
AcDbEntity
  8
0
  6
Continuous
 62
     7
370
    25
100
AcDbLine
 10
27.334621802
 20
32.4302002225
 30
0.0
 11
27.7755033507
 21
32.8710817711
 31
0.0
  0
LINE
  5
92
330
1F
100
AcDbEntity
  8
0
  6
Continuous
 62
     7
370
    25
100
AcDbLine
 10
27.834621802
 20
35.5715577476
 30
0.0
 11
27.834621802
 21
35.6302002225
 31
0.0
  0
LINE
  5
93
330
1F
100
AcDbEntity
  8
0
  6
Continuous
 62
     7
370
    25
100
AcDbLine
 10
27.834621802
 20
34.8662364845
 30
0.0
 11
27.834621802
 21
34.9545158487
 31
0.0
  0
LINE
  5
94
330
1F
100
AcDbEntity
  8
0
  6
Continuous
 62
     7
370
    25
100
AcDbLine
 10
27.834621802
 20
34.160877145
 30
0.0
 11
27.834621802
 21
34.2487397469
 31
0.0
  0
LINE
  5
95
330
1F
100
AcDbEntity
  8
0
  6
Continuous
 62
     7
370
    25
100
AcDbLine
 10
27.834621802
 20
33.455175215
 30
0.0
 11
27.834621802
 21
33.5432002301
 31
0.0
  0
LINE
  5
96
330
1F
100
AcDbEntity
  8
0
  6
Continuous
 62
     7
370
    25
100
AcDbLine
 10
21.484621802
 20
33.190784613
 30
0.0
 11
21.484621802
 21
33.1024716892
 31
0.0
  0
LINE
  5
97
330
1F
100
AcDbEntity
  8
0
  6
Continuous
 62
     7
370
    25
100
AcDbLine
 10
21.484621802
 20
33.8961088985
 30
0.0
 11
21.484621802
 21
33.8078335504
 31
0.0
  0
LINE
  5
98
330
1F
100
AcDbEntity
  8
0
  6
Continuous
 62
     7
370
    25
100
AcDbLine
 10
21.484621802
 20
34.6016598816
 30
0.0
 11
21.484621802
 21
34.5135503316
 31
0.0
  0
LINE
  5
99
330
1F
100
AcDbEntity
  8
0
  6
Continuous
 62
     7
370
    25
100
AcDbLine
 10
21.484621802
 20
35.3070071491
 30
0.0
 11
21.484621802
 21
35.2189818861
 31
0.0
  0
LINE
  5
9A
330
1F
100
AcDbEntity
  8
0
  6
Continuous
 62
     7
370
    25
100
AcDbLine
 10
27.44847729
 20
36.0163447344
 30
0.0
 11
27.334621802
 21
36.1302002225
 31
0.0
  0
LINE
  5
9B
330
1F
100
AcDbEntity
  8
0
  6
Continuous
 62
     7
370
    25
100
AcDbLine
 10
27.834621802
 20
35.6302002225
 30
0.0
 11
27.7618222164
 21
35.702999808
 31
0.0
  0
LINE
  5
9C
330
1F
100
AcDbEntity
  8
0
  6
Continuous
 62
     7
370
    25
100
AcDbLine
 10
21.984621802
 20
36.1302002225
 30
0.0
 11
21.6726076347
 21
35.8181860552
 31
0.0
  0
LINE
  5
9D
330
1F
100
AcDbEntity
  8
0
  6
Continuous
 62
     7
370
    25
100
AcDbLine
 10
31.659621802
 20
22.4302002225
 30
0.0
 11
31.659621802
 21
27.2302002225
 31
0.0
  0
LINE
  5
9E
330
1F
100
AcDbEntity
  8
0
  6
Continuous
 62
     7
370
    25
100
AcDbLine
 10
17.659621802
 20
27.2302002225
 30
0.0
 11
17.659621802
 21
22.4302002225
 31
0.0
  0
LINE
  5
9F
330
1F
100
AcDbEntity
  8
0
  6
Continuous
 62
     7
370
    25
100
AcDbLine
 10
27.334621802
 20
27.2302002225
 30
0.0
 11
27.334621802
 21
32.4302002225
 31
0.0
  0
LINE
  5
A0
330
1F
100
AcDbEntity
  8
0
  6
Continuous
 62
     7
370
    25
100
AcDbLine
 10
21.984621802
 20
32.4302002225
 30
0.0
 11
21.984621802
 21
27.2302002225
 31
0.0
  0
LINE
  5
A1
330
1F
100
AcDbEntity
  8
0
  6
Continuous
 62
     7
370
    25
100
AcDbLine
 10
27.334621802
 20
36.7302002225
 30
0.0
 11
27.134621802
 21
36.9302002225
 31
0.0
  0
LINE
  5
A2
330
1F
100
AcDbEntity
  8
0
  6
Continuous
 62
     7
370
    25
100
AcDbLine
 10
22.184621802
 20
36.9302002225
 30
0.0
 11
21.984621802
 21
36.7302002225
 31
0.0
  0
LINE
  5
A3
330
1F
100
AcDbEntity
  8
0
  6
Continuous
 62
     7
370
    25
100
AcDbLine
 10
27.334621802
 20
36.1302002225
 30
0.0
 11
27.334621802
 21
36.7302002225
 31
0.0
  0
LINE
  5
A4
330
1F
100
AcDbEntity
  8
0
  6
Continuous
 62
     7
370
    25
100
AcDbLine
 10
21.984621802
 20
36.7302002225
 30
0.0
 11
21.984621802
 21
36.1302002225
 31
0.0
  0
LINE
  5
A5
330
1F
100
AcDbEntity
  8
0
  6
Continuous
 62
     7
370
    25
100
AcDbLine
 10
24.534621802
 20
27.4302002225
 30
0.0
 11
24.534621802
 21
26.6302002225
 31
0.0
  0
LINE
  5
A6
330
1F
100
AcDbEntity
  8
0
  6
Continuous
 62
     7
370
    25
100
AcDbLine
 10
24.784621802
 20
26.6302002225
 30
0.0
 11
24.784621802
 21
27.4302002225
 31
0.0
  0
ARC
  5
A7
330
1F
100
AcDbEntity
  8
0
  6
Continuous
 62
     7
370
    25
100
AcDbCircle
 10
29.409621802
 20
24.6302002225
 30
0.0
 40
0.866025403784441
100
AcDbArc
 50
0.0
 51
30.0
  0
LINE
  5
A8
330
1F
100
AcDbEntity
  8
0
  6
Continuous
 62
     7
370
    25
100
AcDbLine
 10
30.159621802
 20
24.6302002225
 30
0.0
 11
30.2756472058
 21
24.6302002225
 31
0.0
  0
LINE
  5
A9
330
1F
100
AcDbEntity
  8
0
  6
Continuous
 62
     7
370
    25
100
AcDbLine
 10
30.159621802
 20
25.0632129244
 30
0.0
 11
30.159621802
 21
24.6302002225
 31
0.0
  0
ARC
  5
AA
330
1F
100
AcDbEntity
  8
0
  6
Continuous
 62
     7
370
    25
100
AcDbCircle
 10
29.409621802
 20
24.6302002225
 30
0.0
 40
0.8660254037844423
100
AcDbArc
 50
270.0
 51
330.0
  0
ARC
  5
AB
330
1F
100
AcDbEntity
  8
0
  6
Continuous
 62
     7
370
    25
100
AcDbCircle
 10
29.409621802
 20
24.6302002225
 30
0.0
 40
0.8660254037844423
100
AcDbArc
 50
330.0
 51
0.0
  0
ARC
  5
AC
330
1F
100
AcDbEntity
  8
0
  6
Continuous
 62
     7
370
    25
100
AcDbCircle
 10
29.409621802
 20
24.6302002225
 30
0.0
 40
0.8660254037844406
100
AcDbArc
 50
30.0
 51
90.0
  0
ARC
  5
AD
330
1F
100
AcDbEntity
  8
0
  6
Continuous
 62
     7
370
    25
100
AcDbCircle
 10
29.409621802
 20
24.6302002225
 30
0.0
 40
0.8660254037844375
100
AcDbArc
 50
90.0
 51
150.0
  0
ARC
  5
AE
330
1F
100
AcDbEntity
  8
0
  6
Continuous
 62
     7
370
    25
100
AcDbCircle
 10
29.409621802
 20
24.6302002225
 30
0.0
 40
0.8660254037844393
100
AcDbArc
 50
150.0
 51
210.0
  0
ARC
  5
AF
330
1F
100
AcDbEntity
  8
0
  6
Continuous
 62
     7
370
    25
100
AcDbCircle
 10
29.409621802
 20
24.6302002225
 30
0.0
 40
0.8660254037844393
100
AcDbArc
 50
210.0
 51
270.0
  0
ARC
  5
B0
330
1F
100
AcDbEntity
  8
0
  6
Continuous
 62
     7
370
    25
100
AcDbCircle
 10
29.409621802
 20
24.6302002225
 30
0.0
 40
1.700000000000003
100
AcDbArc
 50
0.0
 51
180.0
  0
ARC
  5
B1
330
1F
100
AcDbEntity
  8
0
  6
Continuous
 62
     7
370
    25
100
AcDbCircle
 10
29.409621802
 20
24.6302002225
 30
0.0
 40
1.700000000000003
100
AcDbArc
 50
180.0
 51
0.0
  0
LINE
  5
B2
330
1F
100
AcDbEntity
  8
0
  6
Continuous
 62
     7
370
    25
100
AcDbLine
 10
30.159621802
 20
24.6302002225
 30
0.0
 11
30.159621802
 21
24.1971875206
 31
0.0
  0
SPLINE
  5
B3
330
1F
100
AcDbEntity
  8
0
  6
Continuous
 62
     7
370
    25
100
AcDbSpline
210
0.0
220
0.0
230
1.0
 70
    24
 71
     3
 72
     9
 73
     5
 74
     0
 42
0.000000001
 43
0.00000001
 40
0.0
 40
0.0
 40
0.0
 40
0.0
 40
0.5000000000000003
 40
1.0
 40
1.0
 40
1.0
 40
1.0
 10
28.65962180200221
 20
25.06321292436163
 30
0.0
 10
28.78462180200222
 20
25.13538170801033
 30
0.0
 10
29.03462180200221
 20
25.27971927530774
 30
0.0
 10
29.28462180200221
 20
25.42405684260515
 30
0.0
 10
29.40962180200221
 20
25.49622562625385
 30
0.0
  0
SPLINE
  5
B4
330
1F
100
AcDbEntity
  8
0
  6
Continuous
 62
     7
370
    25
100
AcDbSpline
210
0.0
220
0.0
230
1.0
 70
    24
 71
     3
 72
     9
 73
     5
 74
     0
 42
0.000000001
 43
0.00000001
 40
0.0
 40
0.0
 40
0.0
 40
0.0
 40
0.500869502695136
 40
1.0
 40
1.0
 40
1.0
 40
1.0
 10
28.65962180200221
 20
24.19718752057719
 30
0.0
 10
28.65962180200221
 20
24.34177803473188
 30
0.0
 10
28.65962180200222
 20
24.63045704867995
 30
0.0
 10
28.65962180200221
 20
24.91912829942142
 30
0.0
 10
28.65962180200221
 20
25.06321292436163
 30
0.0
  0
SPLINE
  5
B5
330
1F
100
AcDbEntity
  8
0
  6
Continuous
 62
     7
370
    25
100
AcDbSpline
210
0.0
220
0.0
230
1.0
 70
    24
 71
     3
 72
     9
 73
     5
 74
     0
 42
0.000000001
 43
0.00000001
 40
0.0
 40
0.0
 40
0.0
 40
0.0
 40
0.5000000000000002
 40
1.0
 40
1.0
 40
1.0
 40
1.0
 10
29.40962180200221
 20
23.76417481868497
 30
0.0
 10
29.28462180200221
 20
23.83634360233367
 30
0.0
 10
29.03462180200221
 20
23.98068116963108
 30
0.0
 10
28.78462180200221
 20
24.12501873692849
 30
0.0
 10
28.65962180200221
 20
24.19718752057719
 30
0.0
  0
SPLINE
  5
B6
330
1F
100
AcDbEntity
  8
0
  6
Continuous
 62
     7
370
    25
100
AcDbSpline
210
0.0
220
0.0
230
1.0
 70
    24
 71
     3
 72
     9
 73
     5
 74
     0
 42
0.000000001
 43
0.00000001
 40
0.0
 40
0.0
 40
0.0
 40
0.0
 40
0.4999999999999973
 40
0.9999999999999999
 40
0.9999999999999999
 40
0.9999999999999999
 40
0.9999999999999999
 10
30.15962180200222
 20
24.19718752057719
 30
0.0
 10
30.03462180200222
 20
24.12501873692849
 30
0.0
 10
29.78462180200221
 20
23.98068116963108
 30
0.0
 10
29.53462180200221
 20
23.83634360233367
 30
0.0
 10
29.40962180200221
 20
23.76417481868497
 30
0.0
  0
SPLINE
  5
B7
330
1F
100
AcDbEntity
  8
0
  6
Continuous
 62
     7
370
    25
100
AcDbSpline
210
0.0
220
0.0
230
1.0
 70
    24
 71
     3
 72
     9
 73
     5
 74
     0
 42
0.000000001
 43
0.00000001
 40
0.0
 40
0.0
 40
0.0
 40
0.0
 40
0.5000000000000017
 40
1.0
 40
1.0
 40
1.0
 40
1.0
 10
29.40962180200221
 20
25.49622562625385
 30
0.0
 10
29.53462180200221
 20
25.42405684260514
 30
0.0
 10
29.78462180200222
 20
25.27971927530774
 30
0.0
 10
30.03462180200222
 20
25.13538170801033
 30
0.0
 10
30.15962180200222
 20
25.06321292436163
 30
0.0
  0
LINE
  5
B8
330
1F
100
AcDbEntity
  8
0
  6
Continuous
 62
     7
370
    25
100
AcDbLine
 10
27.709621802
 20
24.6302002225
 30
0.0
 11
27.509621802
 21
24.6302002225
 31
0.0
  0
ARC
  5
B9
330
1F
100
AcDbEntity
  8
0
  6
Continuous
 62
     7
370
    25
100
AcDbCircle
 10
29.409621802
 20
24.6302002225
 30
0.0
 40
1.900000000000002
100
AcDbArc
 50
0.0
 51
180.0
  0
LINE
  5
BA
330
1F
100
AcDbEntity
  8
0
  6
Continuous
 62
     7
370
    25
100
AcDbLine
 10
31.109621802
 20
24.6302002225
 30
0.0
 11
31.309621802
 21
24.6302002225
 31
0.0
  0
ARC
  5
BB
330
1F
100
AcDbEntity
  8
0
  6
Continuous
 62
     7
370
    25
100
AcDbCircle
 10
29.409621802
 20
24.6302002225
 30
0.0
 40
1.900000000000002
100
AcDbArc
 50
180.0
 51
0.0
  0
ARC
  5
BC
330
1F
100
AcDbEntity
  8
0
  6
Continuous
 62
     7
370
    25
100
AcDbCircle
 10
29.409621802
 20
24.6302002225
 30
0.0
 40
0.7500000000000049
100
AcDbArc
 50
240.0
 51
300.0
  0
ARC
  5
BD
330
1F
100
AcDbEntity
  8
0
  6
Continuous
 62
     7
370
    25
100
AcDbCircle
 10
29.409621802
 20
24.6302002225
 30
0.0
 40
0.75
100
AcDbArc
 50
120.0
 51
180.0
  0
ARC
  5
BE
330
1F
100
AcDbEntity
  8
0
  6
Continuous
 62
     7
370
    25
100
AcDbCircle
 10
29.409621802
 20
24.6302002225
 30
0.0
 40
0.7500000000000049
100
AcDbArc
 50
300.0
 51
0.0
  0
ARC
  5
BF
330
1F
100
AcDbEntity
  8
0
  6
Continuous
 62
     7
370
    25
100
AcDbCircle
 10
29.409621802
 20
24.6302002225
 30
0.0
 40
0.7500000000000031
100
AcDbArc
 50
180.0
 51
240.0
  0
LINE
  5
C0
330
1F
100
AcDbEntity
  8
0
  6
Continuous
 62
     7
370
    25
100
AcDbLine
 10
29.409621802
 20
24.6302002225
 30
0.0
 11
28.659621802
 21
24.6302002225
 31
0.0
  0
LINE
  5
C1
330
1F
100
AcDbEntity
  8
0
  6
Continuous
 62
     7
370
    25
100
AcDbLine
 10
29.409621802
 20
24.6302002225
 30
0.0
 11
30.159621802
 21
24.6302002225
 31
0.0
  0
ARC
  5
C2
330
1F
100
AcDbEntity
  8
0
  6
Continuous
 62
     7
370
    25
100
AcDbCircle
 10
29.409621802
 20
24.6302002225
 30
0.0
 40
0.7500000000000018
100
AcDbArc
 50
60.0
 51
120.0
  0
ARC
  5
C3
330
1F
100
AcDbEntity
  8
0
  6
Continuous
 62
     7
370
    25
100
AcDbCircle
 10
29.409621802
 20
24.6302002225
 30
0.0
 40
0.7500000000000036
100
AcDbArc
 50
0.0
 51
60.0
  0
ARC
  5
C4
330
1F
100
AcDbEntity
  8
0
  6
Continuous
 62
     7
370
    25
100
AcDbCircle
 10
19.909621802
 20
24.6302002225
 30
0.0
 40
0.8660254037844402
100
AcDbArc
 50
211.8254117195
 51
271.8254117195
  0
SPLINE
  5
C5
330
1F
100
AcDbEntity
  8
0
  6
Continuous
 62
     7
370
    25
100
AcDbSpline
210
0.0
220
0.0
230
1.0
 70
    24
 71
     3
 72
     9
 73
     5
 74
     0
 42
0.000000001
 43
0.00000001
 40
0.0
 40
0.0
 40
0.0
 40
0.0
 40
0.4999999999999999
 40
0.9999999999999999
 40
0.9999999999999999
 40
0.9999999999999999
 40
0.9999999999999999
 10
19.93720822310447
 20
23.76461429988819
 30
0.0
 10
19.80997278832703
 20
23.83276470319096
 30
0.0
 10
19.55550191877214
 20
23.96906550979647
 30
0.0
 10
19.30103104921726
 20
24.10536631640199
 30
0.0
 10
19.17379561443982
 20
24.17351671970476
 30
0.0
  0
ARC
  5
C6
330
1F
100
AcDbEntity
  8
0
  6
Continuous
 62
     7
370
    25
100
AcDbCircle
 10
19.909621802
 20
24.6302002225
 30
0.0
 40
0.8660254037844427
100
AcDbArc
 50
271.8254117195
 51
331.8254117195
  0
SPLINE
  5
C7
330
1F
100
AcDbEntity
  8
0
  6
Continuous
 62
     7
370
    25
100
AcDbSpline
210
0.0
220
0.0
230
1.0
 70
    24
 71
     3
 72
     9
 73
     5
 74
     0
 42
0.000000001
 43
0.00000001
 40
0.0
 40
0.0
 40
0.0
 40
0.0
 40
0.4999999999999973
 40
1.0
 40
1.0
 40
1.0
 40
1.0
 10
20.67303441066687
 20
24.22129780265284
 30
0.0
 10
20.5503967127398
 20
24.14518388552541
 30
0.0
 10
20.30512131688567
 20
23.99295605127052
 30
0.0
 10
20.05984592103153
 20
23.84072821701564
 30
0.0
 10
19.93720822310447
 20
23.76461429988819
 30
0.0
  0
ARC
  5
C8
330
1F
100
AcDbEntity
  8
0
  6
Continuous
 62
     7
370
    25
100
AcDbCircle
 10
19.909621802
 20
24.6302002225
 30
0.0
 40
0.8660254037844427
100
AcDbArc
 50
331.8254117195
 51
1.8254117195
  0
LINE
  5
C9
330
1F
100
AcDbEntity
  8
0
  6
Continuous
 62
     7
370
    25
100
AcDbLine
 10
20.6592412001
 20
24.6540907639
 30
0.0
 11
20.6730344107
 21
24.2212978027
 31
0.0
  0
LINE
  5
CA
330
1F
100
AcDbEntity
  8
0
  6
Continuous
 62
     7
370
    25
100
AcDbLine
 10
20.6592412001
 20
24.6540907639
 30
0.0
 11
20.7752077246
 21
24.6577866436
 31
0.0
  0
ARC
  5
CB
330
1F
100
AcDbEntity
  8
0
  6
Continuous
 62
     7
370
    25
100
AcDbCircle
 10
19.909621802
 20
24.6302002225
 30
0.0
 40
0.866025403784437
100
AcDbArc
 50
31.8254117195
 51
91.8254117195
  0
SPLINE
  5
CC
330
1F
100
AcDbEntity
  8
0
  6
Continuous
 62
     7
370
    25
100
AcDbSpline
210
0.0
220
0.0
230
1.0
 70
    24
 71
     3
 72
     9
 73
     5
 74
     0
 42
0.000000001
 43
0.00000001
 40
0.0
 40
0.0
 40
0.0
 40
0.0
 40
0.5000000000000016
 40
1.0
 40
1.0
 40
1.0
 40
1.0
 10
19.88203538089996
 20
25.49578614505062
 30
0.0
 10
20.00927081567741
 20
25.42763574174786
 30
0.0
 10
20.26374168523229
 20
25.29133493514234
 30
0.0
 10
20.51821255478717
 20
25.15503412853682
 30
0.0
 10
20.64544798956461
 20
25.08688372523406
 30
0.0
  0
ARC
  5
CD
330
1F
100
AcDbEntity
  8
0
  6
Continuous
 62
     7
370
    25
100
AcDbCircle
 10
19.909621802
 20
24.6302002225
 30
0.0
 40
0.8660254037844402
100
AcDbArc
 50
1.8254117195
 51
31.8254117195
  0
ARC
  5
CE
330
1F
100
AcDbEntity
  8
0
  6
Continuous
 62
     7
370
    25
100
AcDbCircle
 10
19.909621802
 20
24.6302002225
 30
0.0
 40
0.8660254037844394
100
AcDbArc
 50
91.8254117195
 51
151.8254117195
  0
ARC
  5
CF
330
1F
100
AcDbEntity
  8
0
  6
Continuous
 62
     7
370
    25
100
AcDbCircle
 10
19.909621802
 20
24.6302002225
 30
0.0
 40
0.8660254037844394
100
AcDbArc
 50
151.8254117195
 51
211.8254117195
  0
ARC
  5
D0
330
1F
100
AcDbEntity
  8
0
  6
Continuous
 62
     7
370
    25
100
AcDbCircle
 10
19.909621802
 20
24.6302002225
 30
0.0
 40
1.699999999999999
100
AcDbArc
 50
1.8254117195
 51
181.8254117195
  0
ARC
  5
D1
330
1F
100
AcDbEntity
  8
0
  6
Continuous
 62
     7
370
    25
100
AcDbCircle
 10
19.909621802
 20
24.6302002225
 30
0.0
 40
1.699999999999999
100
AcDbArc
 50
181.8254117195
 51
1.8254117195
  0
SPLINE
  5
D2
330
1F
100
AcDbEntity
  8
0
  6
Continuous
 62
     7
370
    25
100
AcDbSpline
210
0.0
220
0.0
230
1.0
 70
    24
 71
     3
 72
     9
 73
     5
 74
     0
 42
0.000000001
 43
0.00000001
 40
0.0
 40
0.0
 40
0.0
 40
0.0
 40
0.5000000000000007
 40
1.0
 40
1.0
 40
1.0
 40
1.0
 10
19.14620919333757
 20
25.03910264228597
 30
0.0
 10
19.26884689126464
 20
25.11521655941341
 30
0.0
 10
19.51412228711877
 20
25.26744439366829
 30
0.0
 10
19.7593976829729
 20
25.41967222792318
 30
0.0
 10
19.88203538089996
 20
25.49578614505062
 30
0.0
  0
SPLINE
  5
D3
330
1F
100
AcDbEntity
  8
0
  6
Continuous
 62
     7
370
    25
100
AcDbSpline
210
0.0
220
0.0
230
1.0
 70
    24
 71
     3
 72
     9
 73
     5
 74
     0
 42
0.000000001
 43
0.00000001
 40
0.0
 40
0.0
 40
0.0
 40
0.0
 40
0.5008695026951357
 40
0.9999999999999999
 40
0.9999999999999999
 40
0.9999999999999999
 40
0.9999999999999999
 10
19.17379561443982
 20
24.17351671970476
 30
0.0
 10
19.16918982020627
 20
24.31803385862951
 30
0.0
 10
19.15999422293238
 20
24.60656637687452
 30
0.0
 10
19.15079887294811
 20
24.89509113585251
 30
0.0
 10
19.14620919333757
 20
25.03910264228597
 30
0.0
  0
LINE
  5
D4
330
1F
100
AcDbEntity
  8
0
  6
Continuous
 62
     7
370
    25
100
AcDbLine
 10
20.6454479896
 20
25.0868837252
 30
0.0
 11
20.6592412001
 21
24.6540907639
 31
0.0
  0
LINE
  5
D5
330
1F
100
AcDbEntity
  8
0
  6
Continuous
 62
     7
370
    25
100
AcDbLine
 10
18.2104844996
 20
24.5760483285
 30
0.0
 11
18.0105859934
 21
24.5696775174
 31
0.0
  0
ARC
  5
D6
330
1F
100
AcDbEntity
  8
0
  6
Continuous
 62
     7
370
    25
100
AcDbCircle
 10
19.909621802
 20
24.6302002225
 30
0.0
 40
1.9
100
AcDbArc
 50
1.8254117195
 51
181.8254117195
  0
LINE
  5
D7
330
1F
100
AcDbEntity
  8
0
  6
Continuous
 62
     7
370
    25
100
AcDbLine
 10
21.6087591044
 20
24.6843521165
 30
0.0
 11
21.8086576106
 21
24.6907229275
 31
0.0
  0
ARC
  5
D8
330
1F
100
AcDbEntity
  8
0
  6
Continuous
 62
     7
370
    25
100
AcDbCircle
 10
19.909621802
 20
24.6302002225
 30
0.0
 40
1.9
100
AcDbArc
 50
181.8254117195
 51
1.8254117195
  0
ARC
  5
D9
330
1F
100
AcDbEntity
  8
0
  6
Continuous
 62
     7
370
    25
100
AcDbCircle
 10
19.909621802
 20
24.6302002225
 30
0.0
 40
0.7500000000000043
100
AcDbArc
 50
181.8254117195
 51
241.8254117195
  0
ARC
  5
DA
330
1F
100
AcDbEntity
  8
0
  6
Continuous
 62
     7
370
    25
100
AcDbCircle
 10
19.909621802
 20
24.6302002225
 30
0.0
 40
0.7499999999999981
100
AcDbArc
 50
61.8254117195
 51
121.8254117195
  0
ARC
  5
DB
330
1F
100
AcDbEntity
  8
0
  6
Continuous
 62
     7
370
    25
100
AcDbCircle
 10
19.909621802
 20
24.6302002225
 30
0.0
 40
0.7499999999999993
100
AcDbArc
 50
121.8254117195
 51
181.8254117195
  0
ARC
  5
DC
330
1F
100
AcDbEntity
  8
0
  6
Continuous
 62
     7
370
    25
100
AcDbCircle
 10
19.909621802
 20
24.6302002225
 30
0.0
 40
0.7500000000000038
100
AcDbArc
 50
301.8254117195
 51
1.8254117195
  0
ARC
  5
DD
330
1F
100
AcDbEntity
  8
0
  6
Continuous
 62
     7
370
    25
100
AcDbCircle
 10
19.909621802
 20
24.6302002225
 30
0.0
 40
0.7500000000000043
100
AcDbArc
 50
241.8254117195
 51
301.8254117195
  0
LINE
  5
DE
330
1F
100
AcDbEntity
  8
0
  6
Continuous
 62
     7
370
    25
100
AcDbLine
 10
19.909621802
 20
24.6302002225
 30
0.0
 11
19.1600024039
 21
24.606309681
 31
0.0
  0
LINE
  5
DF
330
1F
100
AcDbEntity
  8
0
  6
Continuous
 62
     7
370
    25
100
AcDbLine
 10
19.909621802
 20
24.6302002225
 30
0.0
 11
20.6592412001
 21
24.6540907639
 31
0.0
  0
ARC
  5
E0
330
1F
100
AcDbEntity
  8
0
  6
Continuous
 62
     7
370
    25
100
AcDbCircle
 10
19.909621802
 20
24.6302002225
 30
0.0
 40
0.7499999999999993
100
AcDbArc
 50
1.8254117195
 51
61.8254117195
  0
LINE
  5
E1
330
1F
100
AcDbEntity
  8
0
  6
Continuous
 62
     7
370
    25
100
AcDbLine
 10
23.659621802
 20
27.2302002225
 30
0.0
 11
24.534621802
 21
27.2302002225
 31
0.0
  0
LINE
  5
E2
330
1F
100
AcDbEntity
  8
0
  6
Continuous
 62
     7
370
    25
100
AcDbLine
 10
24.784621802
 20
27.2302002225
 30
0.0
 11
25.659621802
 21
27.2302002225
 31
0.0
  0
LINE
  5
E3
330
1F
100
AcDbEntity
  8
0
  6
Continuous
 62
     7
370
    25
100
AcDbLine
 10
23.659621802
 20
22.4302002225
 30
0.0
 11
25.659621802
 21
22.4302002225
 31
0.0
  0
SPLINE
  5
E4
330
1F
100
AcDbEntity
  8
0
  6
Continuous
 62
     7
370
    25
100
AcDbSpline
210
0.0
220
0.0
230
1.0
 70
     8
 71
     3
 72
    69
 73
    65
 74
     0
 42
0.000000001
 43
0.00000001
 40
0.0
 40
0.0
 40
0.0
 40
0.0
 40
0.0196155421265488
 40
0.0269510468775072
 40
0.0342865187393572
 40
0.0416219578428183
 40
0.0489573643186112
 40
0.0562927382974587
 40
0.0636280799100852
 40
0.070963389287217
 40
0.0746932614348482
 40
0.0862926109945127
 40
0.1050960085402828
 40
0.1157669220421955
 40
0.1278610500229227
 40
0.1413783299281911
 40
0.1563186918242674
 40
0.1726820584029307
 40
0.1904683449846408
 40
0.2286780331017116
 40
0.2627692281007555
 40
0.271020345333608
 40
0.2789885115042838
 40
0.2866737257275117
 40
0.2940759872611574
 40
0.3011952955197864
 40
0.3080316500910349
 40
0.3297870875933629
 40
0.3497857834655005
 40
0.3680275810275827
 40
0.3845123378883241
 40
0.3992399261418002
 40
0.4122102326966721
 40
0.42342315986252
 40
0.4473834584058165
 40
0.4713439744551962
 40
0.4953047094980464
 40
0.5192656650217135
 40
0.5432268425135031
 40
0.5605163907713222
 40
0.5786324958131216
 40
0.597575142227274
 40
0.6173443111093779
 40
0.6379399803906217
 40
0.6593621251028086
 40
0.6792088245027025
 40
0.7008058786526565
 40
0.7241531392967113
 40
0.7492504401204044
 40
0.7760975978902616
 40
0.7960531325292917
 40
0.8160086794856133
 40
0.8359642387648636
 40
0.8559198103726798
 40
0.8758753943146996
 40
0.8958309905965604
 40
0.9080317924263362
 40
0.9218183215606619
 40
0.937190499522317
 40
0.954148234767991
 40
0.9683269618272002
 40
0.9825055197220669
 40
0.9966839102800902
 40
0.9999999999999999
 40
0.9999999999999999
 40
0.9999999999999999
 40
0.9999999999999999
 10
27.83046095254507
 20
35.57155774758126
 30
0.0
 10
27.83124290532189
 20
35.56928867731299
 30
0.0
 10
27.83231728021338
 20
35.56617105666432
 30
0.0
 10
27.82302287060892
 20
35.56226828180799
 30
0.0
 10
27.81584553530457
 20
35.55976990518268
 30
0.0
 10
27.80678784348783
 20
35.55728276777077
 30
0.0
 10
27.79603500054751
 20
35.55480383282238
 30
0.0
 10
27.7835445689649
 20
35.55234059477638
 30
0.0
 10
27.76933664956323
 20
35.54986611278541
 30
0.0
 10
27.75602318380563
 20
35.54787148355673
 30
0.0
 10
27.73830349007094
 20
35.54519314914186
 30
0.0
 10
27.70886519608218
 20
35.54098942004479
 30
0.0
 10
27.66692336582411
 20
35.53591850750159
 30
0.0
 10
27.61822115132151
 20
35.53075839725654
 30
0.0
 10
27.57154015044752
 20
35.52624765620865
 30
0.0
 10
27.51420449186918
 20
35.52119823150458
 30
0.0
 10
27.44461824945239
 20
35.51561009421459
 30
0.0
 10
27.36109417226659
 20
35.50948574923694
 30
0.0
 10
27.2266034142026
 20
35.50043785158812
 30
0.0
 10
27.03658124525804
 20
35.48925494949196
 30
0.0
 10
26.84316142620606
 20
35.47949523120725
 30
0.0
 10
26.71473792409818
 20
35.47351770135883
 30
0.0
 10
26.65235591604709
 20
35.47070141239672
 30
0.0
 10
26.59096325127959
 20
35.46800963742956
 30
0.0
 10
26.53072697017136
 20
35.46544312070443
 30
0.0
 10
26.47180249747421
 20
35.46299921948727
 30
0.0
 10
26.37174205719805
 20
35.45897345710406
 30
0.0
 10
26.23138955830818
 20
35.45351509621248
 30
0.0
 10
26.05142940795547
 20
35.44670929940035
 30
0.0
 10
25.88233022784317
 20
35.4404554600783
 30
0.0
 10
25.72595963956473
 20
35.43474835385588
 30
0.0
 10
25.58376779948499
 20
35.42958705472938
 30
0.0
 10
25.45685616702756
 20
35.42497962087855
 30
0.0
 10
25.2982769334333
 20
35.41914407220827
 30
0.0
 10
25.10102030956115
 20
35.41184856416046
 30
0.0
 10
24.85867670355712
 20
35.40296104998507
 30
0.0
 10
24.61515539617319
 20
35.39399842581384
 30
0.0
 10
24.37190089246565
 20
35.38499131573518
 30
0.0
 10
24.15274468951008
 20
35.37671929801266
 30
0.0
 10
23.95547912767603
 20
35.36927768885578
 30
0.0
 10
23.77717186122385
 20
35.36268403769379
 30
0.0
 10
23.59388421440656
 20
35.35595186725433
 30
0.0
 10
23.40675321500339
 20
35.34909883904346
 30
0.0
 10
23.21711179059579
 20
35.34210311066882
 30
0.0
 10
23.03360536798594
 20
35.33530173489027
 30
0.0
 10
22.85435911603359
 20
35.32831758977327
 30
0.0
 10
22.67786819148365
 20
35.32083027889312
 30
0.0
 10
22.49769049138976
 20
35.31253950438239
 30
0.0
 10
22.31743106274266
 20
35.30342892795525
 30
0.0
 10
22.16017168936581
 20
35.29454977127896
 30
0.0
 10
22.02759091752292
 20
35.2862409461697
 30
0.0
 10
21.91941359925804
 20
35.27879856909066
 30
0.0
 10
21.82240457391918
 20
35.27135034033555
 30
0.0
 10
21.73695609212398
 20
35.26389634660305
 30
0.0
 10
21.6634178351277
 20
35.25645079811446
 30
0.0
 10
21.61003106171887
 20
35.24992750180445
 30
0.0
 10
21.57067274973614
 20
35.24427847303274
 30
0.0
 10
21.54089985529034
 20
35.23935549521498
 30
0.0
 10
21.5148411742463
 20
35.23397385879526
 30
0.0
 10
21.49666957535403
 20
35.22864718249877
 30
0.0
 10
21.48642569462613
 20
35.22352051259156
 30
0.0
 10
21.48387411983723
 20
35.21876330360364
 30
0.0
 10
21.48534375213001
 20
35.21524780064686
 30
0.0
 10
21.48971617116683
 20
35.21333422283146
 30
0.0
 10
21.49054496594031
 20
35.21297150295517
 30
0.0
  0
SPLINE
  5
E5
330
1F
100
AcDbEntity
  8
0
  6
Continuous
 62
     7
370
    25
100
AcDbSpline
210
0.0
220
0.0
230
1.0
 70
     8
 71
     3
 72
    69
 73
    65
 74
     0
 42
0.000000001
 43
0.00000001
 40
0.0
 40
0.0
 40
0.0
 40
0.0
 40
0.013964189057788
 40
0.0387954996513115
 40
0.0623686874440085
 40
0.0846836720827172
 40
0.1057403802562166
 40
0.1231756631071302
 40
0.1406110276513269
 40
0.1580464741762228
 40
0.1754820029692279
 40
0.1929176143177505
 40
0.2103533085091938
 40
0.2277890858309561
 40
0.238500852481756
 40
0.2503618957869577
 40
0.2633721844273109
 40
0.2775316815583769
 40
0.2928403453454401
 40
0.309298129311705
 40
0.3269049825729013
 40
0.3456608500000843
 40
0.3741540954274342
 40
0.4064701635670723
 40
0.4155696664605713
 40
0.4249316679811985
 40
0.4345561671184276
 40
0.4444431627712326
 40
0.4545926537528389
 40
0.4650046387948912
 40
0.4985669229171933
 40
0.5268283873462777
 40
0.5497870717402875
 40
0.5635259745660629
 40
0.5742801971391015
 40
0.5777462077279193
 40
0.5807345869906592
 40
0.5832453332739813
 40
0.5852784452110656
 40
0.586833921743923
 40
0.6195688568927658
 40
0.6523025716082499
 40
0.6608790084613406
 40
0.6694553649221732
 40
0.6780316416732103
 40
0.686607839396932
 40
0.6951839587758382
 40
0.703760000492445
 40
0.7140262798758844
 40
0.7282262215207163
 40
0.7463593040253298
 40
0.7625411772504802
 40
0.7809353499091727
 40
0.8015416016822122
 40
0.8243596851301283
 40
0.8511085567943858
 40
0.875240686347332
 40
0.896755667478031
 40
0.9156531385797709
 40
0.9319327830848774
 40
0.9455943301137504
 40
0.966072470669593
 40
0.9880388100926653
 40
1.0
 40
1.0
 40
1.0
 40
1.0
 10
27.83196839403002
 20
34.86623648445605
 30
0.0
 10
27.83241522504568
 20
34.86470648157833
 30
0.0
 10
27.8336566170406
 20
34.86045580680849
 30
0.0
 10
27.81402729781668
 20
34.85346430512501
 30
0.0
 10
27.77751034917397
 20
34.84540243742777
 30
0.0
 10
27.72633549007345
 20
34.83760556277531
 30
0.0
 10
27.66676508631467
 20
34.83033696031445
 30
0.0
 10
27.60130287969593
 20
34.82354998264156
 30
0.0
 10
27.53126768528093
 20
34.81719727683921
 30
0.0
 10
27.45261804342388
 20
34.81081745712369
 30
0.0
 10
27.36559328717985
 20
34.80441718287152
 30
0.0
 10
27.27045307594562
 20
34.79799172013703
 30
0.0
 10
27.16748453093219
 20
34.79155334536684
 30
0.0
 10
27.07119451576404
 20
34.78589270171914
 30
0.0
 10
26.9822526531753
 20
34.78099098556758
 30
0.0
 10
26.90007199995972
 20
34.77675538647784
 30
0.0
 10
26.80634561842786
 20
34.7721934146244
 30
0.0
 10
26.70025715184876
 20
34.76731413324004
 30
0.0
 10
26.58100708378702
 20
34.76211422588486
 30
0.0
 10
26.44783855661991
 20
34.75659781299665
 30
0.0
 10
26.3000661183497
 20
34.75075136987748
 30
0.0
 10
26.11224875494914
 20
34.74369558609379
 30
0.0
 10
25.87263530576958
 20
34.73483675762164
 30
0.0
 10
25.65347034102509
 20
34.72669481264951
 30
0.0
 10
25.49121553964899
 20
34.72069246795798
 30
0.0
 10
25.40075319982248
 20
34.71734752408234
 30
0.0
 10
25.30708806331061
 20
34.71388600521185
 30
0.0
 10
25.21025214166504
 20
34.71030720762411
 30
0.0
 10
25.11029008064304
 20
34.7066124770834
 30
0.0
 10
24.93179523927044
 20
34.70000120199985
 30
0.0
 10
24.69155876999724
 20
34.69114962622719
 30
0.0
 10
24.40961330484421
 20
34.68078618836081
 30
0.0
 10
24.19505106978417
 20
34.67285288249928
 30
0.0
 10
24.03976649176794
 20
34.66706930759995
 30
0.0
 10
23.94897758377073
 20
34.66366864182918
 30
0.0
 10
23.89339694764122
 20
34.66158184140662
 30
0.0
 10
23.86451394650556
 20
34.66049689612531
 30
0.0
 10
23.8403015887095
 20
34.65958821816862
 30
0.0
 10
23.82073252446978
 20
34.6588547728125
 30
0.0
 10
23.70437305960245
 20
34.65452848656951
 30
0.0
 10
23.4927502694001
 20
34.64671713233611
 30
0.0
 10
23.26828075980706
 20
34.63832360487145
 30
0.0
 10
23.12209528207912
 20
34.63278982952438
 30
0.0
 10
23.04780958802985
 20
34.62995960507925
 30
0.0
 10
22.97469520227434
 20
34.62715289394975
 30
0.0
 10
22.90280326752266
 20
34.6243732026722
 30
0.0
 10
22.83218673744514
 20
34.62160685039857
 30
0.0
 10
22.75834332681775
 20
34.61872754770646
 30
0.0
 10
22.67129952625778
 20
34.61507898177453
 30
0.0
 10
22.56247226981356
 20
34.61012484709173
 30
0.0
 10
22.44390914787453
 20
34.60437076821678
 30
0.0
 10
22.32171163205822
 20
34.59803163605045
 30
0.0
 10
22.20109280918616
 20
34.59133742416563
 30
0.0
 10
22.07569277568056
 20
34.58378818267955
 30
0.0
 10
21.94626700301707
 20
34.5751615136093
 30
0.0
 10
21.82657686770529
 20
34.56609964921761
 30
0.0
 10
21.72619655836328
 20
34.55725719761757
 30
0.0
 10
21.65093382127024
 20
34.54942452703217
 30
0.0
 10
21.59616282336592
 20
34.54260497220202
 30
0.0
 10
21.5576735775349
 20
34.53679611800484
 30
0.0
 10
21.5255252541095
 20
34.5308966172127
 30
0.0
 10
21.50022159611046
 20
34.52452569098065
 30
0.0
 10
21.48532268547073
 20
34.51849925516456
 30
0.0
 10
21.48624380290684
 20
34.51484030039731
 30
0.0
 10
21.48656854392977
 20
34.51355033164045
 30
0.0
  0
SPLINE
  5
E6
330
1F
100
AcDbEntity
  8
0
  6
Continuous
 62
     7
370
    25
100
AcDbSpline
210
0.0
220
0.0
230
1.0
 70
     8
 71
     3
 72
    74
 73
    70
 74
     0
 42
0.000000001
 43
0.00000001
 40
0.0
 40
0.0
 40
0.0
 40
0.0
 40
0.0073286099994432
 40
0.0197992788466267
 40
0.031831888132166
 40
0.0447042715479939
 40
0.0584164113873519
 40
0.0729682876806008
 40
0.0883598783709776
 40
0.1045911594448966
 40
0.1216621050302112
 40
0.1395726874714538
 40
0.1699961938869696
 40
0.196364214024685
 40
0.2186756779382642
 40
0.2283110015056515
 40
0.236931548044707
 40
0.244537295792883
 40
0.2511282256103633
 40
0.2567043210154908
 40
0.2612655682595597
 40
0.2939591230641381
 40
0.3266515673558473
 40
0.3352171994732432
 40
0.3437827581987485
 40
0.3523482441034897
 40
0.3609136577586075
 40
0.3694789997352613
 40
0.3780442706046214
 40
0.3873205796999885
 40
0.4009468452858213
 40
0.4189224501167823
 40
0.4352592945170572
 40
0.4540424745885732
 40
0.4752717144183596
 40
0.4989467016748287
 40
0.5247536665383041
 40
0.5483030792113638
 40
0.5695946456017728
 40
0.5886281006583477
 40
0.6054032087344442
 40
0.6199197642312738
 40
0.6289520217877287
 40
0.641625925209305
 40
0.6535214703450237
 40
0.6674653210309561
 40
0.6813193843965909
 40
0.6917835171013458
 40
0.7025530277829706
 40
0.7136279168205196
 40
0.7250081842935614
 40
0.7366938300061757
 40
0.7474254740002486
 40
0.7619750818497135
 40
0.7803421328982765
 40
0.793196005725078
 40
0.8074243085634685
 40
0.8230269752770303
 40
0.8400039333111456
 40
0.8583551036997952
 40
0.8974626922795202
 40
0.9322509103933351
 40
0.9406514260934801
 40
0.9487551861033615
 40
0.9565621893886609
 40
0.9640724350650635
 40
0.9712859224123555
 40
0.9782026508915612
 40
1.0
 40
1.0
 40
1.0
 40
1.0
 10
27.83410343193002
 20
34.16087714504832
 30
0.0
 10
27.83414313779405
 20
34.16006493026566
 30
0.0
 10
27.83425040881456
 20
34.15787061688746
 30
0.0
 10
27.82923472555218
 20
34.15436777400262
 30
0.0
 10
27.81932082980633
 20
34.15021012594137
 30
0.0
 10
27.80387618246547
 20
34.14581858820746
 30
0.0
 10
27.78182898407747
 20
34.14106810147141
 30
0.0
 10
27.75207819538562
 20
34.13595350701203
 30
0.0
 10
27.7135835760378
 20
34.13047642580452
 30
0.0
 10
27.66525360865516
 20
34.12463569926658
 30
0.0
 10
27.60599061242506
 20
34.11843421965277
 30
0.0
 10
27.51922706980633
 20
34.11043261477115
 30
0.0
 10
27.4029936174283
 20
34.10126033613565
 30
0.0
 10
27.25973341158063
 20
34.09158578512471
 30
0.0
 10
27.1420180064172
 20
34.08447121423668
 30
0.0
 10
27.05491629889445
 20
34.07953993412091
 30
0.0
 10
26.99752962693388
 20
34.0764044691659
 30
0.0
 10
26.94547709696052
 20
34.073647203822
 30
0.0
 10
26.89931595166436
 20
34.07126872454771
 30
0.0
 10
26.85951305438448
 20
34.06926683604345
 30
0.0
 10
26.75603737613512
 20
34.06419722017549
 30
0.0
 10
26.57764692346407
 20
34.05608913459911
 30
0.0
 10
26.37378301936906
 20
34.04773622595067
 30
0.0
 10
26.23095147834763
 20
34.04221905615073
 30
0.0
 10
26.15614273418702
 20
34.03939542649671
 30
0.0
 10
26.08025182468396
 20
34.03659305824376
 30
0.0
 10
26.00333195330307
 20
34.03381625627394
 30
0.0
 10
25.92543974357912
 20
34.03104843007254
 30
0.0
 10
25.8444485894451
 20
34.02827700472226
 30
0.0
 10
25.74684550161808
 20
34.02476956153945
 30
0.0
 10
25.61836237897693
 20
34.01997386499639
 30
0.0
 10
25.46525395751661
 20
34.01425421162976
 30
0.0
 10
25.2932931784212
 20
34.00784099374532
 30
0.0
 10
25.10869738209068
 20
34.00098502426555
 30
0.0
 10
24.89814146175241
 20
33.99319351388685
 30
0.0
 10
24.66306902437353
 20
33.98449296350108
 30
0.0
 10
24.42020227458183
 20
33.97551537998217
 30
0.0
 10
24.18669325108173
 20
33.96690114996899
 30
0.0
 10
23.9778392502939
 20
33.95917636709645
 30
0.0
 10
23.79374912202734
 20
33.95234124701368
 30
0.0
 10
23.63409204490393
 20
33.94640345288921
 30
0.0
 10
23.50830502531441
 20
33.94171102656971
 30
0.0
 10
23.39695633013874
 20
33.93763399485525
 30
0.0
 10
23.29515571180517
 20
33.93391986998387
 30
0.0
 10
23.18060616121035
 20
33.92969298070257
 30
0.0
 10
23.06502554963317
 20
33.92535443002672
 30
0.0
 10
22.95640174671179
 20
33.92120568958978
 30
0.0
 10
22.85920044351743
 20
33.91733732348106
 30
0.0
 10
22.7717286261282
 20
33.9137155931124
 30
0.0
 10
22.68403033516074
 20
33.90993743428376
 30
0.0
 10
22.59640484501747
 20
33.9059986291722
 30
0.0
 10
22.51230451246529
 20
33.90205881566906
 30
0.0
 10
22.42325150956392
 20
33.89766213445923
 30
0.0
 10
22.32214161948165
 20
33.89240012442932
 30
0.0
 10
22.22187518875636
 20
33.88684629033692
 30
0.0
 10
22.1280426189746
 20
33.88131114389105
 30
0.0
 10
22.04471908893112
 20
33.87610048931145
 30
0.0
 10
21.95934475244653
 20
33.87037488343721
 30
0.0
 10
21.8738073468285
 20
33.86413712589994
 30
0.0
 10
21.76083770700095
 20
33.85499460617795
 30
0.0
 10
21.64574544524987
 20
33.84374013976713
 30
0.0
 10
21.57329430199521
 20
33.83393306527665
 30
0.0
 10
21.53947905473518
 20
33.82793590980724
 30
0.0
 10
21.5255072819621
 20
33.82511669745274
 30
0.0
 10
21.51397251648891
 20
33.82242462572849
 30
0.0
 10
21.50464585810708
 20
33.81986048140026
 30
0.0
 10
21.49739519134662
 20
33.81742148022397
 30
0.0
 10
21.48766821231247
 20
33.81343206078062
 30
0.0
 10
21.48622914765668
 20
33.81024949257461
 30
0.0
 10
21.48513672897821
 20
33.8078335504279
 30
0.0
  0
SPLINE
  5
E7
330
1F
100
AcDbEntity
  8
0
  6
Continuous
 62
     7
370
    25
100
AcDbSpline
210
0.0
220
0.0
230
1.0
 70
     8
 71
     3
 72
    67
 73
    63
 74
     0
 42
0.000000001
 43
0.00000001
 40
0.0
 40
0.0
 40
0.0
 40
0.0
 40
0.0159963526756191
 40
0.0353734450622045
 40
0.0523633087397105
 40
0.0693601038742394
 40
0.0899748467627178
 40
0.1142068789774755
 40
0.1420554228141566
 40
0.1735195825096751
 40
0.2033555246526735
 40
0.2303407408545352
 40
0.2544746950606342
 40
0.275756910364899
 40
0.2941869702556256
 40
0.3057540394965401
 40
0.3173209307747756
 40
0.3288876465087999
 40
0.340454189117192
 40
0.3520205610186406
 40
0.3638730874758387
 40
0.3793701994283337
 40
0.3840317333973162
 40
0.3889433167132423
 40
0.394104948783491
 40
0.3995166289542457
 40
0.4051783565144975
 40
0.4110901306992118
 40
0.4166591797836117
 40
0.4249877433480636
 40
0.4343228624663826
 40
0.4456852344159935
 40
0.4590747442360512
 40
0.4744912564100286
 40
0.4919346148818826
 40
0.5114046430647516
 40
0.5329011438464918
 40
0.5530291076753039
 40
0.5721366967199826
 40
0.5902238655383374
 40
0.6072905719447189
 40
0.6233367771730544
 40
0.6383624460952013
 40
0.6523675475188359
 40
0.6796506912964398
 40
0.7050677233396785
 40
0.7286184332102326
 40
0.7503026286422073
 40
0.7701201363407484
 40
0.7904596829424714
 40
0.8107993532194067
 40
0.831139147736573
 40
0.8514790670589836
 40
0.8718191117516396
 40
0.8921592823795288
 40
0.9053146782885012
 40
0.9197031626596583
 40
0.9353246920703914
 40
0.9521792161562442
 40
0.9702666782424595
 40
0.9895870157740567
 40
1.0
 40
1.0
 40
1.0
 40
1.0
 10
27.8331761247067
 20
33.45517521495825
 30
0.0
 10
27.83299422154798
 20
33.45344309596705
 30
0.0
 10
27.83259197101488
 20
33.44961278431922
 30
0.0
 10
27.81739223408243
 20
33.44380826122783
 30
0.0
 10
27.79329693893169
 20
33.43775973677083
 30
0.0
 10
27.75870802827495
 20
33.43136413455809
 30
0.0
 10
27.70777955523306
 20
33.42399118228902
 30
0.0
 10
27.63151357328276
 20
33.41521107605458
 30
0.0
 10
27.52258188684133
 20
33.40502996497343
 30
0.0
 10
27.38138555041048
 20
33.39406571725864
 30
0.0
 10
27.21737297688106
 20
33.38322339528516
 30
0.0
 10
27.0476836251577
 20
33.37340206923995
 30
0.0
 10
26.88143541819438
 20
33.3647283012982
 30
0.0
 10
26.72427681693411
 20
33.35720384556864
 30
0.0
 10
26.59116001815669
 20
33.35129796301661
 30
0.0
 10
26.47935146520863
 20
33.34662179466744
 30
0.0
 10
26.38359945691319
 20
33.34276472104813
 30
0.0
 10
26.28557185995199
 20
33.33896513550422
 30
0.0
 10
26.1853980576372
 20
33.3352054633075
 30
0.0
 10
26.08236457607106
 20
33.33151530665318
 30
0.0
 10
25.96562875063491
 20
33.32727207931666
 30
0.0
 10
25.86770069371555
 20
33.32361105548812
 30
0.0
 10
25.79004461202
 20
33.32071631320773
 30
0.0
 10
25.74414000095873
 20
33.31900474498613
 30
0.0
 10
25.69562053478439
 20
33.31719727729865
 30
0.0
 10
25.64445807114661
 20
33.31529415885716
 30
0.0
 10
25.59062713678398
 20
33.31329322623152
 30
0.0
 10
25.53599325318724
 20
33.31127327249832
 30
0.0
 10
25.47253456433172
 20
33.30890224551282
 30
0.0
 10
25.39767211198425
 20
33.30609164502768
 30
0.0
 10
25.30351758012202
 20
33.30256841519525
 30
0.0
 10
25.19218978592214
 20
33.29841898910919
 30
0.0
 10
25.06011650871391
 20
33.29352046081227
 30
0.0
 10
24.90715368748625
 20
33.2878724951978
 30
0.0
 10
24.7333569136486
 20
33.28147447237041
 30
0.0
 10
24.53907741586087
 20
33.27432948602378
 30
0.0
 10
24.33632596500504
 20
33.26683990467004
 30
0.0
 10
24.13614828213358
 20
33.25942948601742
 30
0.0
 10
23.94915465701407
 20
33.2525227763178
 30
0.0
 10
23.77451634965459
 20
33.24606464368487
 30
0.0
 10
23.61235936378305
 20
33.2400572843032
 30
0.0
 10
23.46265186881566
 20
33.2345030758751
 30
0.0
 10
23.32522621279138
 20
33.22939121204445
 30
0.0
 10
23.15714755411277
 20
33.22318169597958
 30
0.0
 10
22.96460220556274
 20
33.21587407753101
 30
0.0
 10
22.75579004725115
 20
33.20733981139826
 30
0.0
 10
22.57317298044286
 20
33.19929984332367
 30
0.0
 10
22.41515948580981
 20
33.19174860642808
 30
0.0
 10
22.27444783500642
 20
33.1843732800805
 30
0.0
 10
22.14631811380465
 20
33.17703390270655
 30
0.0
 10
22.02734109476911
 20
33.16962215031402
 30
0.0
 10
21.91910735011
 20
33.16217066320514
 30
0.0
 10
21.82205841942755
 20
33.15468405824475
 30
0.0
 10
21.73659161878598
 20
33.14717454615279
 30
0.0
 10
21.6717101582313
 20
33.14048187112372
 30
0.0
 10
21.62191274984376
 20
33.13461004213439
 30
0.0
 10
21.58294644153188
 20
33.12947839374408
 30
0.0
 10
21.54778595307417
 20
33.1240193473665
 30
0.0
 10
21.51811145773558
 20
33.11824289647142
 30
0.0
 10
21.49663240805478
 20
33.11215040227257
 30
0.0
 10
21.48505670217574
 20
33.10684845492457
 30
0.0
 10
21.48595999520051
 20
33.10360691675238
 30
0.0
 10
21.4862763398086
 20
33.10247168920766
 30
0.0
  0
SPLINE
  5
E8
330
1F
100
AcDbEntity
  8
0
  6
Continuous
 62
     7
370
    25
100
AcDbSpline
210
0.0
220
0.0
230
1.0
 70
     8
 71
     3
 72
    25
 73
    21
 74
     0
 42
0.000000001
 43
0.00000001
 40
0.0
 40
0.0
 40
0.0
 40
0.0
 40
0.0203070993231457
 40
0.0836312735511715
 40
0.116284779684993
 40
0.1489382858155231
 40
0.210929676368719
 40
0.2747188218310719
 40
0.3367102063101112
 40
0.4005002349059703
 40
0.4623814854445553
 40
0.5261495529086013
 40
0.5865759041008163
 40
0.6487546240303157
 40
0.7091809678133725
 40
0.7713596794011702
 40
0.831796145182158
 40
0.8940855764421293
 40
0.9464483716830647
 40
1.0
 40
1.0
 40
1.0
 40
1.0
 10
21.67393356618506
 20
35.81686012371024
 30
0.0
 10
21.67498936614315
 20
35.81803231381981
 30
0.0
 10
21.67933749551926
 20
35.82285977588847
 30
0.0
 10
21.73330717526563
 20
35.83001032578755
 30
0.0
 10
21.82948251002634
 20
35.83824229169224
 30
0.0
 10
21.9533310198638
 20
35.84656351434011
 30
0.0
 10
22.1559273577991
 20
35.85714242567402
 30
0.0
 10
22.46586605208293
 20
35.86962056744374
 30
0.0
 10
22.84015832316472
 20
35.88192638368379
 30
0.0
 10
23.26102013168606
 20
35.89297242205728
 30
0.0
 10
23.72513500603072
 20
35.90463608312266
 30
0.0
 10
24.20662135832767
 20
35.91699089410909
 30
0.0
 10
24.6994862177851
 20
35.92971335262345
 30
0.0
 10
25.1805246846858
 20
35.94222987294953
 30
0.0
 10
25.64894395631474
 20
35.95460106531979
 30
0.0
 10
26.08314693235989
 20
35.96587703077166
 30
0.0
 10
26.4786323224721
 20
35.97730236129379
 30
0.0
 10
26.79891383131025
 20
35.98917540950109
 30
0.0
 10
27.05474122595107
 20
36.00090136885109
 30
0.0
 10
27.16924977266231
 20
36.00833488891943
 30
0.0
 10
27.22714669478682
 20
36.01209336760829
 30
0.0
  0
SPLINE
  5
E9
330
1F
100
AcDbEntity
  8
0
  6
Continuous
 62
     7
370
    25
100
AcDbSpline
210
0.0
220
0.0
230
1.0
 70
     8
 71
     3
 72
    26
 73
    22
 74
     0
 42
0.000000001
 43
0.00000001
 40
0.0
 40
0.0
 40
0.0
 40
0.0
 40
0.0388927947388668
 40
0.0778116256983875
 40
0.1358815250812152
 40
0.1928025436583742
 40
0.2480728485377454
 40
0.3041468172834895
 40
0.3617079582687811
 40
0.4200811287245016
 40
0.4785313615026869
 40
0.536317883044956
 40
0.5927491940305954
 40
0.6478957848019417
 40
0.7044981398681474
 40
0.7623874001164072
 40
0.8208645471919876
 40
0.8791867743230679
 40
0.93662294044054
 40
0.9925068910465616
 40
1.0
 40
1.0
 40
1.0
 40
1.0
 10
27.22714669478683
 20
36.0120933676083
 30
0.0
 10
27.18534485337492
 20
36.00793781162132
 30
0.0
 10
27.1017131869111
 20
35.99962391777033
 30
0.0
 10
26.91461378489457
 20
35.98503437515461
 30
0.0
 10
26.66272787263566
 20
35.96874630593046
 30
0.0
 10
26.33435446886006
 20
35.95130948039101
 30
0.0
 10
25.97073315255377
 20
35.93567826630334
 30
0.0
 10
25.57490599172918
 20
35.91910079994154
 30
0.0
 10
25.14946119882464
 20
35.90116482816182
 30
0.0
 10
24.70575317205895
 20
35.88249154046116
 30
0.0
 10
24.26029685664512
 20
35.86373319469526
 30
0.0
 10
23.82981298988827
 20
35.84561868729877
 30
0.0
 10
23.42763561471627
 20
35.82865462861812
 30
0.0
 10
23.05712271831883
 20
35.81317244738239
 30
0.0
 10
22.72123240249191
 20
35.79603457918971
 30
0.0
 10
22.42639764440613
 20
35.7778347789982
 30
0.0
 10
22.18565101170614
 20
35.75904479501565
 30
0.0
 10
22.00645885159756
 20
35.74043171849062
 30
0.0
 10
21.9021695758231
 20
35.7225733710661
 30
0.0
 10
21.85885911818534
 20
35.71090210629855
 30
0.0
 10
21.86905962396287
 20
35.70483335200557
 30
0.0
 10
21.87026563607044
 20
35.7041158394317
 30
0.0
  0
SPLINE
  5
EA
330
1F
100
AcDbEntity
  8
0
  6
Continuous
 62
     7
370
    25
100
AcDbSpline
210
0.0
220
0.0
230
1.0
 70
     8
 71
     3
 72
    29
 73
    25
 74
     0
 42
0.000000001
 43
0.00000001
 40
0.0
 40
0.0
 40
0.0
 40
0.0
 40
0.0352714956642763
 40
0.0816564915615658
 40
0.1288446112652653
 40
0.162726278984983
 40
0.1966306282986257
 40
0.2472185340692599
 40
0.2968055861350219
 40
0.3449546100676978
 40
0.3938037501082958
 40
0.4439484482593525
 40
0.4948005502593845
 40
0.5457197855169004
 40
0.5960608251546838
 40
0.6452212658131893
 40
0.6932625155339968
 40
0.7425719621649987
 40
0.7930025031801377
 40
0.8439451849728633
 40
0.894752907421115
 40
0.944788733042614
 40
0.9934723377568355
 40
1.0
 40
1.0
 40
1.0
 40
1.0
 10
27.44795790187094
 20
35.35133843157247
 30
0.0
 10
27.44656131726495
 20
35.34752750207453
 30
0.0
 10
27.44332810594384
 20
35.33870487840831
 30
0.0
 10
27.36938414597588
 20
35.32362735509128
 30
0.0
 10
27.24942447967856
 20
35.30820241418874
 30
0.0
 10
27.10038248141765
 20
35.29406096538811
 30
0.0
 10
26.91517039014989
 20
35.27948191353128
 30
0.0
 10
26.66255816693725
 20
35.263189807053
 30
0.0
 10
26.33439807809076
 20
35.24575416724065
 30
0.0
 10
25.97072143649622
 20
35.2301226456232
 30
0.0
 10
25.57490924201065
 20
35.21354526245293
 30
0.0
 10
25.14946030448461
 20
35.19560926763501
 30
0.0
 10
24.7057534135745
 20
35.17693598624808
 30
0.0
 10
24.2602967926589
 20
35.15817763878404
 30
0.0
 10
23.82981300651727
 20
35.14006313183564
 30
0.0
 10
23.4276356104211
 20
35.12309907303869
 30
0.0
 10
23.05712271949118
 20
35.10761689183335
 30
0.0
 10
22.7212324021664
 20
35.09047902363234
 30
0.0
 10
22.42639764449519
 20
35.07227922344314
 30
0.0
 10
22.18565101168222
 20
35.05348923945996
 30
0.0
 10
22.00645885160388
 20
35.03487616293511
 30
0.0
 10
21.90216957582139
 20
35.01701781551054
 30
0.0
 10
21.85885911818538
 20
35.005346550743
 30
0.0
 10
21.86905962396287
 20
34.99927779645001
 30
0.0
 10
21.87026563607044
 20
34.99856028387615
 30
0.0
  0
SPLINE
  5
EB
330
1F
100
AcDbEntity
  8
0
  6
Continuous
 62
     7
370
    25
100
AcDbSpline
210
0.0
220
0.0
230
1.0
 70
     8
 71
     3
 72
    29
 73
    25
 74
     0
 42
0.000000001
 43
0.00000001
 40
0.0
 40
0.0
 40
0.0
 40
0.0
 40
0.0352714956642768
 40
0.0816564915615663
 40
0.1288446112652657
 40
0.1627262789849834
 40
0.1966306282986261
 40
0.2472185340692603
 40
0.2968055861350223
 40
0.3449546100676982
 40
0.3938037501082962
 40
0.4439484482593528
 40
0.4948005502593849
 40
0.5457197855169006
 40
0.5960608251546841
 40
0.6452212658131896
 40
0.693262515533997
 40
0.7425719621649989
 40
0.7930025031801379
 40
0.8439451849728634
 40
0.894752907421115
 40
0.9447887330426141
 40
0.9934723377568355
 40
1.0
 40
1.0
 40
1.0
 40
1.0
 10
27.44795790187094
 20
34.64578287601692
 30
0.0
 10
27.44656131726495
 20
34.64197194651897
 30
0.0
 10
27.44332810594384
 20
34.63314932285276
 30
0.0
 10
27.36938414597588
 20
34.61807179953572
 30
0.0
 10
27.24942447967856
 20
34.60264685863319
 30
0.0
 10
27.10038248141765
 20
34.58850540983255
 30
0.0
 10
26.91517039014989
 20
34.57392635797573
 30
0.0
 10
26.66255816693725
 20
34.55763425149745
 30
0.0
 10
26.33439807809076
 20
34.5401986116851
 30
0.0
 10
25.97072143649622
 20
34.52456709006763
 30
0.0
 10
25.57490924201065
 20
34.50798970689737
 30
0.0
 10
25.14946030448461
 20
34.49005371207945
 30
0.0
 10
24.7057534135745
 20
34.47138043069253
 30
0.0
 10
24.2602967926589
 20
34.45262208322848
 30
0.0
 10
23.82981300651727
 20
34.43450757628008
 30
0.0
 10
23.4276356104211
 20
34.41754351748314
 30
0.0
 10
23.05712271949118
 20
34.4020613362778
 30
0.0
 10
22.7212324021664
 20
34.38492346807679
 30
0.0
 10
22.42639764449519
 20
34.36672366788758
 30
0.0
 10
22.18565101168223
 20
34.3479336839044
 30
0.0
 10
22.00645885160388
 20
34.32932060737954
 30
0.0
 10
21.90216957582139
 20
34.31146225995498
 30
0.0
 10
21.85885911818538
 20
34.29979099518745
 30
0.0
 10
21.86905962396287
 20
34.29372224089445
 30
0.0
 10
21.87026563607044
 20
34.29300472832059
 30
0.0
  0
SPLINE
  5
EC
330
1F
100
AcDbEntity
  8
0
  6
Continuous
 62
     7
370
    25
100
AcDbSpline
210
0.0
220
0.0
230
1.0
 70
     8
 71
     3
 72
    29
 73
    25
 74
     0
 42
0.000000001
 43
0.00000001
 40
0.0
 40
0.0
 40
0.0
 40
0.0
 40
0.0352714956642768
 40
0.0816564915615663
 40
0.1288446112652657
 40
0.1627262789849834
 40
0.1966306282986261
 40
0.2472185340692603
 40
0.2968055861350223
 40
0.3449546100676982
 40
0.3938037501082962
 40
0.4439484482593528
 40
0.4948005502593849
 40
0.5457197855169006
 40
0.5960608251546841
 40
0.6452212658131896
 40
0.693262515533997
 40
0.7425719621649989
 40
0.7930025031801379
 40
0.8439451849728634
 40
0.894752907421115
 40
0.9447887330426141
 40
0.9934723377568355
 40
1.0
 40
1.0
 40
1.0
 40
1.0
 10
27.44795790187094
 20
33.94022732046136
 30
0.0
 10
27.44656131726495
 20
33.93641639096342
 30
0.0
 10
27.44332810594384
 20
33.92759376729721
 30
0.0
 10
27.36938414597588
 20
33.91251624398016
 30
0.0
 10
27.24942447967856
 20
33.89709130307764
 30
0.0
 10
27.10038248141765
 20
33.88294985427699
 30
0.0
 10
26.91517039014989
 20
33.86837080242017
 30
0.0
 10
26.66255816693725
 20
33.85207869594189
 30
0.0
 10
26.33439807809076
 20
33.83464305612954
 30
0.0
 10
25.97072143649622
 20
33.81901153451208
 30
0.0
 10
25.57490924201065
 20
33.80243415134181
 30
0.0
 10
25.14946030448461
 20
33.7844981565239
 30
0.0
 10
24.7057534135745
 20
33.76582487513698
 30
0.0
 10
24.2602967926589
 20
33.74706652767293
 30
0.0
 10
23.82981300651727
 20
33.72895202072453
 30
0.0
 10
23.4276356104211
 20
33.71198796192759
 30
0.0
 10
23.05712271949118
 20
33.69650578072224
 30
0.0
 10
22.7212324021664
 20
33.67936791252123
 30
0.0
 10
22.42639764449519
 20
33.66116811233203
 30
0.0
 10
22.18565101168223
 20
33.64237812834885
 30
0.0
 10
22.00645885160388
 20
33.62376505182399
 30
0.0
 10
21.90216957582139
 20
33.60590670439943
 30
0.0
 10
21.85885911818538
 20
33.59423543963188
 30
0.0
 10
21.86905962396287
 20
33.5881666853389
 30
0.0
 10
21.87026563607044
 20
33.58744917276503
 30
0.0
  0
SPLINE
  5
ED
330
1F
100
AcDbEntity
  8
0
  6
Continuous
 62
     7
370
    25
100
AcDbSpline
210
0.0
220
0.0
230
1.0
 70
     8
 71
     3
 72
    29
 73
    25
 74
     0
 42
0.000000001
 43
0.00000001
 40
0.0
 40
0.0
 40
0.0
 40
0.0
 40
0.0352714956642768
 40
0.0816564915615663
 40
0.1288446112652658
 40
0.1627262789849836
 40
0.1966306282986263
 40
0.2472185340692606
 40
0.2968055861350226
 40
0.3449546100676985
 40
0.3938037501082965
 40
0.4439484482593532
 40
0.4948005502593853
 40
0.5457197855169011
 40
0.5960608251546846
 40
0.6452212658131902
 40
0.6932625155339975
 40
0.7425719621649995
 40
0.7930025031801385
 40
0.8439451849728642
 40
0.8947529074211158
 40
0.9447887330426149
 40
0.9934723377568364
 40
0.9999999999999999
 40
0.9999999999999999
 40
0.9999999999999999
 40
0.9999999999999999
 10
27.44795790187094
 20
33.2346717649058
 30
0.0
 10
27.44656131726495
 20
33.23086083540787
 30
0.0
 10
27.44332810594384
 20
33.22203821174166
 30
0.0
 10
27.36938414597588
 20
33.20696068842461
 30
0.0
 10
27.24942447967856
 20
33.19153574752208
 30
0.0
 10
27.10038248141765
 20
33.17739429872144
 30
0.0
 10
26.91517039014989
 20
33.16281524686462
 30
0.0
 10
26.66255816693725
 20
33.14652314038633
 30
0.0
 10
26.33439807809076
 20
33.12908750057398
 30
0.0
 10
25.97072143649622
 20
33.11345597895653
 30
0.0
 10
25.57490924201065
 20
33.09687859578625
 30
0.0
 10
25.14946030448461
 20
33.07894260096834
 30
0.0
 10
24.7057534135745
 20
33.06026931958142
 30
0.0
 10
24.2602967926589
 20
33.04151097211737
 30
0.0
 10
23.82981300651727
 20
33.02339646516898
 30
0.0
 10
23.4276356104211
 20
33.00643240637203
 30
0.0
 10
23.05712271949118
 20
32.99095022516669
 30
0.0
 10
22.7212324021664
 20
32.97381235696568
 30
0.0
 10
22.42639764449519
 20
32.95561255677647
 30
0.0
 10
22.18565101168223
 20
32.9368225727933
 30
0.0
 10
22.00645885160388
 20
32.91820949626843
 30
0.0
 10
21.90216957582139
 20
32.90035114884387
 30
0.0
 10
21.85885911818537
 20
32.88867988407634
 30
0.0
 10
21.86905962396287
 20
32.88261112978334
 30
0.0
 10
21.87026563607044
 20
32.88189361720947
 30
0.0
  0
SPLINE
  5
EE
330
1F
100
AcDbEntity
  8
0
  6
Continuous
 62
     7
370
    25
100
AcDbSpline
210
0.0
220
0.0
230
1.0
 70
     8
 71
     3
 72
    32
 73
    28
 74
     0
 42
0.000000001
 43
0.00000001
 40
0.0
 40
0.0
 40
0.0
 40
0.0
 40
0.0255943661206095
 40
0.0542004849242424
 40
0.1090997183201811
 40
0.1373933822562885
 40
0.165687046190893
 40
0.2198952588275349
 40
0.2478108279858215
 40
0.2757263971462499
 40
0.3299346083480597
 40
0.3578613340734681
 40
0.385787199175797
 40
0.4394802648122397
 40
0.4671562794723631
 40
0.4948322941305714
 40
0.5477288336846066
 40
0.6021593766426381
 40
0.6550559137527683
 40
0.6823036688210532
 40
0.7095502272799331
 40
0.7620360995392254
 40
0.8161006032002414
 40
0.8676854897745669
 40
0.9207663417923707
 40
0.9723512248162113
 40
1.0
 40
1.0
 40
1.0
 40
1.0
 10
27.77495189839058
 20
32.87163322341092
 30
0.0
 10
27.77188395032666
 20
32.8699410684372
 30
0.0
 10
27.76538704112394
 20
32.86635763840768
 30
0.0
 10
27.71453344791277
 20
32.85879168387071
 30
0.0
 10
27.62071926628676
 20
32.85060873176244
 30
0.0
 10
27.48427153434977
 20
32.8422388109099
 30
0.0
 10
27.32166340818842
 20
32.83382665696448
 30
0.0
 10
27.12110786536122
 20
32.82538049215264
 30
0.0
 10
26.8880435355978
 20
32.81711165469549
 30
0.0
 10
26.63403288977869
 20
32.80898660382476
 30
0.0
 10
26.35114073455758
 20
32.80119429615296
 30
0.0
 10
26.04626159852879
 20
32.79379968998535
 30
0.0
 10
25.7297194197844
 20
32.78617330742127
 30
0.0
 10
25.39748067015875
 20
32.77802299814503
 30
0.0
 10
25.05815490268814
 20
32.76968079244506
 30
0.0
 10
24.71809902338659
 20
32.76127970714543
 30
0.0
 10
24.29229031693787
 20
32.750694472151
 30
0.0
 10
23.79951088701216
 20
32.73834442908055
 30
0.0
 10
23.40772966457148
 20
32.72842921076283
 30
0.0
 10
23.11530589959199
 20
32.7210196740282
 30
0.0
 10
22.83971208338997
 20
32.71350624170039
 30
0.0
 10
22.52775345210799
 20
32.70337170846189
 30
0.0
 10
22.22250816452988
 20
32.69088686787069
 30
0.0
 10
21.98679418687119
 20
32.67812466767349
 30
0.0
 10
21.83553085908686
 20
32.66572276914525
 30
0.0
 10
21.76255017614701
 20
32.6556105901896
 30
0.0
 10
21.77375802637453
 20
32.64995929827284
 30
0.0
 10
21.77766903260907
 20
32.64798726639601
 30
0.0
  0
SPLINE
  5
EF
330
1F
100
AcDbEntity
  8
0
  6
Continuous
 62
     7
370
    25
100
AcDbSpline
210
0.0
220
0.0
230
1.0
 70
     8
 71
     3
 72
    27
 73
    23
 74
     0
 42
0.000000001
 43
0.00000001
 40
0.0
 40
0.0
 40
0.0
 40
0.0
 40
0.0461093437864717
 40
0.0969960533531454
 40
0.1487998892934587
 40
0.2008783104853658
 40
0.2525681484205043
 40
0.3032353317633828
 40
0.3524331629546535
 40
0.4023463596056282
 40
0.453583335085106
 40
0.505543123697879
 40
0.5575715081779583
 40
0.6090091027706003
 40
0.6592403822425957
 40
0.7083280912127544
 40
0.758711621012975
 40
0.8102406657270572
 40
0.862293007254207
 40
0.9142074500287815
 40
0.9653331824664906
 40
1.0
 40
1.0
 40
1.0
 40
1.0
 10
27.45072649833793
 20
35.88053067369688
 30
0.0
 10
27.44613517460975
 20
35.87561729551774
 30
0.0
 10
27.43647682242496
 20
35.8652814665323
 30
0.0
 10
27.3389271766376
 20
35.84802703095268
 30
0.0
 10
27.17623552876936
 20
35.82954061584868
 30
0.0
 10
26.94718290166897
 20
35.81071779593499
 30
0.0
 10
26.66259402991538
 20
35.79235758766153
 30
0.0
 10
26.3343890164098
 20
35.77492055534471
 30
0.0
 10
25.97072404729841
 20
35.75928939459548
 30
0.0
 10
25.57490872339606
 20
35.74271191477834
 30
0.0
 10
25.14946065137567
 20
35.72477594749066
 30
0.0
 10
24.70575362294087
 20
35.70610265966262
 30
0.0
 10
24.26029672866053
 20
35.68734431240797
 30
0.0
 10
23.82981417072725
 20
35.66922981179451
 30
0.0
 10
23.42763225930981
 20
35.65226572739379
 30
0.0
 10
23.05713588582043
 20
35.63678363875846
 30
0.0
 10
22.72118209880672
 20
35.61964541732735
 30
0.0
 10
22.42659154148293
 20
35.60144698115703
 30
0.0
 10
22.18492122950859
 20
35.58265184124854
 30
0.0
 10
22.0091563898308
 20
35.56405789798018
 30
0.0
 10
21.90390833833748
 20
35.5478990641264
 30
0.0
 10
21.88662916176529
 20
35.53859731221136
 30
0.0
 10
21.87964703963979
 20
35.53483868589137
 30
0.0
  0
SPLINE
  5
F0
330
1F
100
AcDbEntity
  8
0
  6
Continuous
 62
     7
370
    25
100
AcDbSpline
210
0.0
220
0.0
230
1.0
 70
     8
 71
     3
 72
    27
 73
    23
 74
     0
 42
0.000000001
 43
0.00000001
 40
0.0
 40
0.0
 40
0.0
 40
0.0
 40
0.0461093437864717
 40
0.0969960533531454
 40
0.1487998892934587
 40
0.2008783104853658
 40
0.2525681484205043
 40
0.3032353317633828
 40
0.3524331629546535
 40
0.4023463596056282
 40
0.453583335085106
 40
0.505543123697879
 40
0.5575715081779583
 40
0.6090091027706003
 40
0.6592403822425957
 40
0.7083280912127544
 40
0.758711621012975
 40
0.8102406657270572
 40
0.862293007254207
 40
0.9142074500287815
 40
0.9653331824664906
 40
1.0
 40
1.0
 40
1.0
 40
1.0
 10
27.45072649833793
 20
35.17497511814133
 30
0.0
 10
27.44613517460975
 20
35.17006173996219
 30
0.0
 10
27.43647682242496
 20
35.15972591097675
 30
0.0
 10
27.3389271766376
 20
35.14247147539711
 30
0.0
 10
27.17623552876936
 20
35.12398506029313
 30
0.0
 10
26.94718290166897
 20
35.10516224037944
 30
0.0
 10
26.66259402991538
 20
35.08680203210598
 30
0.0
 10
26.3343890164098
 20
35.06936499978916
 30
0.0
 10
25.97072404729841
 20
35.05373383903991
 30
0.0
 10
25.57490872339606
 20
35.03715635922279
 30
0.0
 10
25.14946065137567
 20
35.0192203919351
 30
0.0
 10
24.70575362294087
 20
35.00054710410707
 30
0.0
 10
24.26029672866053
 20
34.98178875685242
 30
0.0
 10
23.82981417072725
 20
34.96367425623896
 30
0.0
 10
23.42763225930981
 20
34.94671017183823
 30
0.0
 10
23.05713588582043
 20
34.93122808320291
 30
0.0
 10
22.72118209880672
 20
34.91408986177179
 30
0.0
 10
22.42659154148293
 20
34.89589142560148
 30
0.0
 10
22.18492122950859
 20
34.87709628569299
 30
0.0
 10
22.0091563898308
 20
34.85850234242462
 30
0.0
 10
21.90390833833748
 20
34.84234350857085
 30
0.0
 10
21.88662916176529
 20
34.8330417566558
 30
0.0
 10
21.87964703963979
 20
34.82928313033582
 30
0.0
  0
SPLINE
  5
F1
330
1F
100
AcDbEntity
  8
0
  6
Continuous
 62
     7
370
    25
100
AcDbSpline
210
0.0
220
0.0
230
1.0
 70
     8
 71
     3
 72
    27
 73
    23
 74
     0
 42
0.000000001
 43
0.00000001
 40
0.0
 40
0.0
 40
0.0
 40
0.0
 40
0.0461093437864722
 40
0.0969960533531459
 40
0.1487998892934592
 40
0.2008783104853663
 40
0.2525681484205048
 40
0.3032353317633832
 40
0.3524331629546539
 40
0.4023463596056286
 40
0.4535833350851063
 40
0.5055431236978793
 40
0.5575715081779585
 40
0.6090091027706005
 40
0.659240382242596
 40
0.7083280912127546
 40
0.7587116210129752
 40
0.8102406657270574
 40
0.8622930072542071
 40
0.9142074500287817
 40
0.9653331824664907
 40
1.0
 40
1.0
 40
1.0
 40
1.0
 10
27.45072649833793
 20
34.46941956258577
 30
0.0
 10
27.44613517460975
 20
34.46450618440664
 30
0.0
 10
27.43647682242496
 20
34.45417035542119
 30
0.0
 10
27.3389271766376
 20
34.43691591984155
 30
0.0
 10
27.17623552876936
 20
34.41842950473757
 30
0.0
 10
26.94718290166897
 20
34.39960668482388
 30
0.0
 10
26.66259402991538
 20
34.38124647655043
 30
0.0
 10
26.3343890164098
 20
34.3638094442336
 30
0.0
 10
25.97072404729841
 20
34.34817828348437
 30
0.0
 10
25.57490872339606
 20
34.33160080366724
 30
0.0
 10
25.14946065137567
 20
34.31366483637954
 30
0.0
 10
24.70575362294087
 20
34.29499154855151
 30
0.0
 10
24.26029672866053
 20
34.27623320129684
 30
0.0
 10
23.82981417072725
 20
34.2581187006834
 30
0.0
 10
23.42763225930981
 20
34.24115461628268
 30
0.0
 10
23.05713588582043
 20
34.22567252764735
 30
0.0
 10
22.72118209880672
 20
34.20853430621623
 30
0.0
 10
22.42659154148293
 20
34.19033587004592
 30
0.0
 10
22.1849212295086
 20
34.17154073013743
 30
0.0
 10
22.0091563898308
 20
34.15294678686907
 30
0.0
 10
21.90390833833747
 20
34.13678795301529
 30
0.0
 10
21.88662916176529
 20
34.12748620110025
 30
0.0
 10
21.87964703963979
 20
34.12372757478026
 30
0.0
  0
SPLINE
  5
F2
330
1F
100
AcDbEntity
  8
0
  6
Continuous
 62
     7
370
    25
100
AcDbSpline
210
0.0
220
0.0
230
1.0
 70
     8
 71
     3
 72
    27
 73
    23
 74
     0
 42
0.000000001
 43
0.00000001
 40
0.0
 40
0.0
 40
0.0
 40
0.0
 40
0.0461093437864721
 40
0.0969960533531458
 40
0.1487998892934591
 40
0.2008783104853661
 40
0.2525681484205046
 40
0.303235331763383
 40
0.3524331629546538
 40
0.4023463596056284
 40
0.4535833350851062
 40
0.5055431236978791
 40
0.5575715081779584
 40
0.6090091027706004
 40
0.6592403822425958
 40
0.7083280912127544
 40
0.758711621012975
 40
0.8102406657270572
 40
0.8622930072542069
 40
0.9142074500287815
 40
0.9653331824664905
 40
1.0
 40
1.0
 40
1.0
 40
1.0
 10
27.45072649833793
 20
33.76386400703021
 30
0.0
 10
27.44613517460975
 20
33.75895062885107
 30
0.0
 10
27.43647682242496
 20
33.74861479986563
 30
0.0
 10
27.33892717663759
 20
33.731360364286
 30
0.0
 10
27.17623552876936
 20
33.71287394918202
 30
0.0
 10
26.94718290166897
 20
33.69405112926832
 30
0.0
 10
26.66259402991538
 20
33.67569092099487
 30
0.0
 10
26.3343890164098
 20
33.65825388867805
 30
0.0
 10
25.97072404729841
 20
33.64262272792881
 30
0.0
 10
25.57490872339606
 20
33.62604524811167
 30
0.0
 10
25.14946065137567
 20
33.60810928082399
 30
0.0
 10
24.70575362294086
 20
33.58943599299596
 30
0.0
 10
24.26029672866053
 20
33.57067764574129
 30
0.0
 10
23.82981417072725
 20
33.55256314512785
 30
0.0
 10
23.42763225930981
 20
33.53559906072713
 30
0.0
 10
23.05713588582043
 20
33.5201169720918
 30
0.0
 10
22.72118209880672
 20
33.50297875066067
 30
0.0
 10
22.42659154148293
 20
33.48478031449037
 30
0.0
 10
22.1849212295086
 20
33.46598517458188
 30
0.0
 10
22.0091563898308
 20
33.44739123131351
 30
0.0
 10
21.90390833833748
 20
33.43123239745974
 30
0.0
 10
21.88662916176529
 20
33.4219306455447
 30
0.0
 10
21.87964703963979
 20
33.41817201922471
 30
0.0
  0
SPLINE
  5
F3
330
1F
100
AcDbEntity
  8
0
  6
Continuous
 62
     7
370
    25
100
AcDbSpline
210
0.0
220
0.0
230
1.0
 70
     8
 71
     3
 72
    27
 73
    23
 74
     0
 42
0.000000001
 43
0.00000001
 40
0.0
 40
0.0
 40
0.0
 40
0.0
 40
0.0461093437864731
 40
0.0969960533531467
 40
0.1487998892934599
 40
0.2008783104853669
 40
0.2525681484205054
 40
0.3032353317633837
 40
0.3524331629546544
 40
0.402346359605629
 40
0.4535833350851067
 40
0.5055431236978797
 40
0.5575715081779589
 40
0.6090091027706007
 40
0.6592403822425962
 40
0.7083280912127548
 40
0.7587116210129753
 40
0.8102406657270574
 40
0.8622930072542071
 40
0.9142074500287816
 40
0.9653331824664906
 40
1.0
 40
1.0
 40
1.0
 40
1.0
 10
27.45072649833793
 20
33.05830845147466
 30
0.0
 10
27.44613517460975
 20
33.05339507329552
 30
0.0
 10
27.43647682242496
 20
33.04305924431009
 30
0.0
 10
27.33892717663759
 20
33.02580480873044
 30
0.0
 10
27.17623552876936
 20
33.00731839362646
 30
0.0
 10
26.94718290166897
 20
32.98849557371276
 30
0.0
 10
26.66259402991538
 20
32.97013536543932
 30
0.0
 10
26.3343890164098
 20
32.95269833312248
 30
0.0
 10
25.97072404729841
 20
32.93706717237325
 30
0.0
 10
25.57490872339606
 20
32.92048969255611
 30
0.0
 10
25.14946065137567
 20
32.90255372526844
 30
0.0
 10
24.70575362294087
 20
32.8838804374404
 30
0.0
 10
24.26029672866053
 20
32.86512209018574
 30
0.0
 10
23.82981417072725
 20
32.84700758957229
 30
0.0
 10
23.42763225930981
 20
32.83004350517157
 30
0.0
 10
23.05713588582043
 20
32.81456141653624
 30
0.0
 10
22.72118209880672
 20
32.79742319510512
 30
0.0
 10
22.42659154148293
 20
32.7792247589348
 30
0.0
 10
22.1849212295086
 20
32.76042961902633
 30
0.0
 10
22.0091563898308
 20
32.74183567575796
 30
0.0
 10
21.90390833833747
 20
32.72567684190418
 30
0.0
 10
21.88662916176529
 20
32.71637508998914
 30
0.0
 10
21.87964703963979
 20
32.71261646366915
 30
0.0
  0
SPLINE
  5
F4
330
1F
100
AcDbEntity
  8
0
  6
Continuous
 62
     7
370
    25
100
AcDbSpline
210
0.0
220
0.0
230
1.0
 70
     8
 71
     3
 72
    10
 73
     6
 74
     0
 42
0.000000001
 43
0.00000001
 40
0.0
 40
0.0
 40
0.0
 40
0.0
 40
0.111913540929112
 40
0.5512455788220317
 40
1.0
 40
1.0
 40
1.0
 40
1.0
 10
27.74008483252966
 20
35.7159052927157
 30
0.0
 10
27.74630952705078
 20
35.71272211623918
 30
0.0
 10
27.77697011830543
 20
35.69704294154123
 30
0.0
 10
27.78289673460643
 20
35.66991511859784
 30
0.0
 10
27.73801554231137
 20
35.6435318279638
 30
0.0
 10
27.71533685684733
 20
35.6302002224694
 30
0.0
  0
SPLINE
  5
F5
330
1F
100
AcDbEntity
  8
0
  6
Continuous
 62
     7
370
    25
100
AcDbSpline
210
0.0
220
0.0
230
1.0
 70
     8
 71
     3
 72
    46
 73
    42
 74
     0
 42
0.000000001
 43
0.00000001
 40
0.0
 40
0.0
 40
0.0
 40
0.0
 40
0.0445101227850191
 40
0.0890210273531707
 40
0.1335327240646284
 40
0.1583648770203736
 40
0.1815315881876859
 40
0.2094454874565519
 40
0.2383979799508419
 40
0.2637620700517081
 40
0.2954623846852859
 40
0.3158329090661228
 40
0.3415739079515209
 40
0.3751295045231532
 40
0.4018473912997706
 40
0.4320387076166392
 40
0.4632440181349625
 40
0.5035051566083056
 40
0.5389399256945553
 40
0.5728922314764449
 40
0.6007874256065732
 40
0.611481562924059
 40
0.6226108663919229
 40
0.6337400365305641
 40
0.644869074807117
 40
0.6559979826887672
 40
0.6694939282326843
 40
0.6879546279842326
 40
0.711379166854389
 40
0.7242646044089542
 40
0.7396081454188957
 40
0.7574096018851146
 40
0.7776687545859581
 40
0.8044086230881368
 40
0.8335949124734885
 40
0.8601385654275245
 40
0.895297403598171
 40
0.924880626342296
 40
0.9567706865110849
 40
0.9924781935069191
 40
1.0
 40
1.0
 40
1.0
 40
1.0
 10
27.71533685736156
 20
35.63020022253739
 30
0.0
 10
27.67386162468972
 20
35.6253329981832
 30
0.0
 10
27.59091043086823
 20
35.61559846398608
 30
0.0
 10
27.40547700568276
 20
35.60073472189075
 30
0.0
 10
27.21232632481544
 20
35.58795475402609
 30
0.0
 10
27.03275900318574
 20
35.57734923823781
 30
0.0
 10
26.87368053494435
 20
35.56903740988082
 30
0.0
 10
26.69346848794214
 20
35.56057121491464
 30
0.0
 10
26.49526574559663
 20
35.55205592357093
 30
0.0
 10
26.2762898197373
 20
35.54333001697476
 30
0.0
 10
26.06919976645998
 20
35.53575702061008
 30
0.0
 10
25.85354713687889
 20
35.52805724946749
 30
0.0
 10
25.62666333017371
 20
35.51951330826466
 30
0.0
 10
25.37472543441202
 20
35.51013743456184
 30
0.0
 10
25.10466331931456
 20
35.50012254833476
 30
0.0
 10
24.83844045434658
 20
35.49029374959973
 30
0.0
 10
24.52978531278863
 20
35.47886024759043
 30
0.0
 10
24.20613187642429
 20
35.46693902788206
 30
0.0
 10
23.87957916213286
 20
35.45487742708672
 30
0.0
 10
23.59708056859359
 20
35.44436938969513
 30
0.0
 10
23.3930688310649
 20
35.43676079520846
 30
0.0
 10
23.25673597237014
 20
35.43171201849194
 30
0.0
 10
23.16775086401529
 20
35.42839387819949
 30
0.0
 10
23.07910932206111
 20
35.42507348102619
 30
0.0
 10
22.99207546813786
 20
35.42177855370008
 30
0.0
 10
22.9006869613748
 20
35.41833289231862
 30
0.0
 10
22.79310625715721
 20
35.41401757273784
 30
0.0
 10
22.65931840171391
 20
35.4082165247966
 30
0.0
 10
22.53322970379101
 20
35.40239393158908
 30
0.0
 10
22.41987006191441
 20
35.39681306163105
 30
0.0
 10
22.32281800198454
 20
35.39177152929983
 30
0.0
 10
22.21586738146641
 20
35.38587609379993
 30
0.0
 10
22.09432508163679
 20
35.37867465844243
 30
0.0
 10
21.96392429515722
 20
35.37016492390032
 30
0.0
 10
21.83975317815547
 20
35.36089412524797
 30
0.0
 10
21.72249099258189
 20
35.35073612820651
 30
0.0
 10
21.62726267498696
 20
35.34063611838738
 30
0.0
 10
21.55240685261785
 20
35.33011093723426
 30
0.0
 10
21.5028475258503
 20
35.31986709729204
 30
0.0
 10
21.48540811004436
 20
35.31213072354527
 30
0.0
 10
21.48489153648826
 20
35.30776651234565
 30
0.0
 10
21.4848016538134
 20
35.30700714909213
 30
0.0
  0
SPLINE
  5
F6
330
1F
100
AcDbEntity
  8
0
  6
Continuous
 62
     7
370
    25
100
AcDbSpline
210
0.0
220
0.0
230
1.0
 70
     8
 71
     3
 72
    59
 73
    55
 74
     0
 42
0.000000001
 43
0.00000001
 40
0.0
 40
0.0
 40
0.0
 40
0.0
 40
0.0022723666889421
 40
0.0278981005169626
 40
0.0562239176497866
 40
0.0872493487592691
 40
0.1209738664711486
 40
0.1413011382817337
 40
0.1616284379092837
 40
0.1819557653820591
 40
0.2022831207283251
 40
0.2226105039763433
 40
0.242937915154375
 40
0.2553432322026577
 40
0.2693911884736788
 40
0.2850817005669082
 40
0.3024146712843167
 40
0.3168549083191834
 40
0.3312949422262816
 40
0.3457347755825488
 40
0.3601744109650294
 40
0.3750857340995121
 40
0.3945529289596256
 40
0.4185750277985337
 40
0.4471508166003482
 40
0.4802788424912221
 40
0.5020066166951783
 40
0.5218671781574554
 40
0.5398603563842307
 40
0.5559859970000212
 40
0.570243961785557
 40
0.5826341287430515
 40
0.5931563922182125
 40
0.6018106631526728
 40
0.622255051793837
 40
0.6417862859560282
 40
0.6604043415088017
 40
0.6824830037617421
 40
0.7018537810207433
 40
0.7185163326423659
 40
0.735584076421892
 40
0.7562319931128832
 40
0.7804594372412365
 40
0.8082656476557687
 40
0.8396497487480596
 40
0.8695380024700726
 40
0.8965510025690903
 40
0.920688203009769
 40
0.9419491183657271
 40
0.960333325064708
 40
0.9719014024734075
 40
0.9834692995018334
 40
0.9950370186316833
 40
0.9999999999999999
 40
0.9999999999999999
 40
0.9999999999999999
 40
0.9999999999999999
 10
27.83396000030817
 20
34.95451584871027
 30
0.0
 10
27.83417320015817
 20
34.95426961849284
 30
0.0
 10
27.83679067861106
 20
34.95124662251706
 30
0.0
 10
27.82421882719888
 20
34.94512195691431
 30
0.0
 10
27.78852307034584
 20
34.93539779676139
 30
0.0
 10
27.71878223298428
 20
34.92445464173152
 30
0.0
 10
27.62785456810002
 20
34.91416834886602
 30
0.0
 10
27.52875606650667
 20
34.90508739887371
 30
0.0
 10
27.43582976676259
 20
34.89764687323451
 30
0.0
 10
27.33158319489406
 20
34.89019628601422
 30
0.0
 10
27.21644632574998
 20
34.88273578358934
 30
0.0
 10
27.09088966982497
 20
34.87527959204237
 30
0.0
 10
26.97301441187807
 20
34.86874613600413
 30
0.0
 10
26.86332840450745
 20
34.86308547782721
 30
0.0
 10
26.76045782894581
 20
34.85814648225594
 30
0.0
 10
26.64071116675218
 20
34.85273604824479
 30
0.0
 10
26.51484004322709
 20
34.84737772309443
 30
0.0
 10
26.38783182103219
 20
34.84222784944738
 30
0.0
 10
26.26521529181867
 20
34.83746645552076
 30
0.0
 10
26.13929653581227
 20
34.83274851158401
 30
0.0
 10
26.0089262474402
 20
34.82810602088016
 30
0.0
 10
25.86041350918247
 20
34.82272438306401
 30
0.0
 10
25.6787355961678
 20
34.81593892444909
 30
0.0
 10
25.44920967013939
 20
34.80738222029396
 30
0.0
 10
25.17020415461615
 20
34.79702036151717
 30
0.0
 10
24.89413853043039
 20
34.78679773340391
 30
0.0
 10
24.64570539353124
 20
34.77761581883784
 30
0.0
 10
24.44766488506429
 20
34.77032050502962
 30
0.0
 10
24.2689867224403
 20
34.7637288512655
 30
0.0
 10
24.10993304456115
 20
34.75784352468215
 30
0.0
 10
23.97049109211671
 20
34.75266349268904
 30
0.0
 10
23.85045009740177
 20
34.74818968381462
 30
0.0
 10
23.74947504070426
 20
34.74441887746459
 30
0.0
 10
23.62388574168573
 20
34.73974887330601
 30
0.0
 10
23.47202126427448
 20
34.73413745811467
 30
0.0
 10
23.29364149990393
 20
34.72751907773701
 30
0.0
 10
23.1154542666078
 20
34.72095091947347
 30
0.0
 10
22.9438875188815
 20
34.71446133247061
 30
0.0
 10
22.7847520783707
 20
34.7080270373362
 30
0.0
 10
22.64526972627171
 20
34.70201410369463
 30
0.0
 10
22.50850982253692
 20
34.69564759296225
 30
0.0
 10
22.36094654837668
 20
34.68826668495613
 30
0.0
 10
22.20007663253178
 20
34.6794909619037
 30
0.0
 10
22.03293154419788
 20
34.6693272300782
 30
0.0
 10
21.87713693641507
 20
34.65837230715051
 30
0.0
 10
21.74751008784845
 20
34.64752945204759
 30
0.0
 10
21.65063383902658
 20
34.63769626322915
 30
0.0
 10
21.58242043178325
 20
34.62901860959072
 30
0.0
 10
21.53698756684697
 20
34.62149805890036
 30
0.0
 10
21.51097074333963
 20
34.61559640451156
 30
0.0
 10
21.49624557063848
 20
34.61092135761082
 30
0.0
 10
21.48835855097464
 20
34.60706555311051
 30
0.0
 10
21.48461186663268
 20
34.60397837901251
 30
0.0
 10
21.48501443616899
 20
34.602195232395
 30
0.0
 10
21.48513529886978
 20
34.60165988161294
 30
0.0
  0
SPLINE
  5
F7
330
1F
100
AcDbEntity
  8
0
  6
Continuous
 62
     7
370
    25
100
AcDbSpline
210
0.0
220
0.0
230
1.0
 70
     8
 71
     3
 72
    76
 73
    72
 74
     0
 42
0.000000001
 43
0.00000001
 40
0.0
 40
0.0
 40
0.0
 40
0.0
 40
0.0015109545137238
 40
0.0099336881395083
 40
0.0183563408694889
 40
0.026778913405966
 40
0.0352014064512667
 40
0.0436238207077328
 40
0.0520461568777305
 40
0.0691389280627212
 40
0.0945405789973318
 40
0.1160941703075609
 40
0.1413401890338259
 40
0.1702777576111634
 40
0.1933079741717209
 40
0.2143324019141694
 40
0.2333508249709068
 40
0.250363048330798
 40
0.2653688979514499
 40
0.2783682209563938
 40
0.2893608860103873
 40
0.3039583782417535
 40
0.3183624976806387
 40
0.3325732495140175
 40
0.3465906392186737
 40
0.3601968703003811
 40
0.3742838212100033
 40
0.3888514910531682
 40
0.4038998779409989
 40
0.4194930729330431
 40
0.4392031649356414
 40
0.4630293042966387
 40
0.4909704607797535
 40
0.5230254247163586
 40
0.5516762720730762
 40
0.5778163100017218
 40
0.6014451229224076
 40
0.6225623380175999
 40
0.6411676264509318
 40
0.6525080451323689
 40
0.6638483271443446
 40
0.6751884739613249
 40
0.6865284870578285
 40
0.6978683679084289
 40
0.709035922187031
 40
0.7241935355677389
 40
0.7288232378266579
 40
0.733726689089169
 40
0.7389038885623772
 40
0.7443548353789003
 40
0.7500795286010867
 40
0.7560779672242652
 40
0.7561557892343485
 40
0.7567306059142562
 40
0.7582935117177878
 40
0.7641500470188545
 40
0.7736473776056464
 40
0.7867851816248667
 40
0.7959274930270651
 40
0.8062585825347823
 40
0.8177784128183858
 40
0.8304869422529154
 40
0.8443841249182368
 40
0.8594699105992145
 40
0.8757442447858957
 40
0.902724054898691
 40
0.9278993776124485
 40
0.9512700156741123
 40
0.9728357899952179
 40
0.9925965408000575
 40
1.0
 40
1.0
 40
1.0
 40
1.0
 10
27.82835907461479
 20
34.2549763739985
 30
0.0
 10
27.82892417973654
 20
34.25480150476604
 30
0.0
 10
27.83263943257476
 20
34.2536518365234
 30
0.0
 10
27.83329164996659
 20
34.25159557553774
 30
0.0
 10
27.83515222921525
 20
34.24875395352278
 30
0.0
 10
27.83382989376511
 20
34.24594594738626
 30
0.0
 10
27.83043602466376
 20
34.2431630129269
 30
0.0
 10
27.8246756911776
 20
34.2403946113246
 30
0.0
 10
27.81387211087541
 20
34.2367638336306
 30
0.0
 10
27.79065298581536
 20
34.23092874366929
 30
0.0
 10
27.74687376453567
 20
34.22320142555784
 30
0.0
 10
27.67968862495838
 20
34.21435777234335
 30
0.0
 10
27.59091876304846
 20
34.20497028717777
 30
0.0
 10
27.47943593870583
 20
34.19530895844089
 30
0.0
 10
27.35588230146451
 20
34.18616477925149
 30
0.0
 10
27.23635104094471
 20
34.17830467543472
 30
0.0
 10
27.11819837135085
 20
34.17122755424451
 30
0.0
 10
27.00480997016829
 20
34.16493589114085
 30
0.0
 10
26.89903907602416
 20
34.15942958993448
 30
0.0
 10
26.8032470031205
 20
34.15470612298407
 30
0.0
 10
26.7050813698816
 20
34.15010228301514
 30
0.0
 10
26.59974266826475
 20
34.14542626247714
 30
0.0
 10
26.48177954787673
 20
34.14046721020821
 30
0.0
 10
26.36160416919702
 20
34.1356670568757
 30
0.0
 10
26.24024496767146
 20
34.13108529668295
 30
0.0
 10
26.11613984429997
 20
34.12651053191532
 30
0.0
 10
25.98748761149384
 20
34.12173900800065
 30
0.0
 10
25.85160621024102
 20
34.11670693675521
 30
0.0
 10
25.70831565330871
 20
34.11140817710807
 30
0.0
 10
25.54596661648776
 20
34.10536205565255
 30
0.0
 10
25.35209965788653
 20
34.0981366977044
 30
0.0
 10
25.11398310785894
 20
34.08931233166988
 30
0.0
 10
24.83125709665054
 20
34.07888908720555
 30
0.0
 10
24.53052156224874
 20
34.06778188792372
 30
0.0
 10
24.23721105482407
 20
34.05693243729151
 30
0.0
 10
23.97552129302497
 20
34.04727078306567
 30
0.0
 10
23.7431493567033
 20
34.03866236585024
 30
0.0
 10
23.53995698600314
 20
34.03110775256651
 30
0.0
 10
23.38007801557102
 20
34.02517144047098
 30
0.0
 10
23.25357362406507
 20
34.02047942766107
 30
0.0
 10
23.15117799206525
 20
34.01664683629097
 30
0.0
 10
23.05076969473235
 20
34.01286131532175
 30
0.0
 10
22.95248070850326
 20
34.00910326714573
 30
0.0
 10
22.85692410721776
 20
34.00545637342697
 30
0.0
 10
22.75320702805228
 20
34.00123514728007
 30
0.0
 10
22.67059675326792
 20
33.99759636259468
 30
0.0
 10
22.60639794472842
 20
33.99466912261527
 30
0.0
 10
22.56863988541698
 20
33.99291516290156
 30
0.0
 10
22.52933287895139
 20
33.99105472988139
 30
0.0
 10
22.48857917547903
 20
33.98908884527692
 30
0.0
 10
22.4464901654233
 20
33.98701208360591
 30
0.0
 10
22.41809095145442
 20
33.98559197396904
 30
0.0
 10
22.4022413683358
 20
33.98477787113409
 30
0.0
 10
22.39696737078066
 20
33.98450268384717
 30
0.0
 10
22.37800331156867
 20
33.98351141052684
 30
0.0
 10
22.33835912939663
 20
33.98140758273614
 30
0.0
 10
22.27331493999732
 20
33.97786517700975
 30
0.0
 10
22.20368363498062
 20
33.97391192318038
 30
0.0
 10
22.13528716856311
 20
33.96985514870218
 30
0.0
 10
22.07287935897643
 20
33.96599918909683
 30
0.0
 10
22.00662076730599
 20
33.96169927687995
 30
0.0
 10
21.93770239356494
 20
33.9569554951544
 30
0.0
 10
21.86748588968724
 20
33.95176725033746
 30
0.0
 10
21.79750579390754
 20
33.94613712834891
 30
0.0
 10
21.71623764884436
 20
33.93886852701696
 30
0.0
 10
21.63563246660873
 20
33.9304043787694
 30
0.0
 10
21.56722213365329
 20
33.92124177775703
 30
0.0
 10
21.52103585596258
 20
33.91292073106899
 30
0.0
 10
21.49613809434583
 20
33.90540243142119
 30
0.0
 10
21.48248987723396
 20
33.89999836568106
 30
0.0
 10
21.48713880874992
 20
33.89694191712321
 30
0.0
 10
21.48840585000735
 20
33.89610889852298
 30
0.0
  0
SPLINE
  5
F8
330
1F
100
AcDbEntity
  8
0
  6
Continuous
 62
     7
370
    25
100
AcDbSpline
210
0.0
220
0.0
230
1.0
 70
     8
 71
     3
 72
    72
 73
    68
 74
     0
 42
0.000000001
 43
0.00000001
 40
0.0
 40
0.0
 40
0.0
 40
0.0
 40
0.014620861871142
 40
0.0220958091904737
 40
0.0295707235963383
 40
0.0370456052167023
 40
0.0445204541795406
 40
0.0519952706128288
 40
0.0594700546445407
 40
0.0669448064026587
 40
0.071533087158736
 40
0.0791533351624923
 40
0.0880981535196375
 40
0.0992703700344873
 40
0.1126698487328386
 40
0.1282964261942575
 40
0.1461499116698945
 40
0.1662300871364049
 40
0.188536707324459
 40
0.2279220674541724
 40
0.2628060878485742
 40
0.2700212292715105
 40
0.277009151940369
 40
0.2837698553820602
 40
0.2903033391956527
 40
0.2966096030586271
 40
0.3026886467342699
 40
0.3085404700805324
 40
0.3374944324186279
 40
0.3626881384007982
 40
0.3841207095636771
 40
0.3934273138516639
 40
0.4017930940526604
 40
0.4092180322523499
 40
0.4157021127336461
 40
0.4212453220751383
 40
0.4258476493500917
 40
0.4664899215786246
 40
0.5071329297952009
 40
0.5477766839729978
 40
0.5711605107379243
 40
0.594712153220645
 40
0.6184316382770041
 40
0.6423189921498358
 40
0.6663742404856426
 40
0.6922130310832403
 40
0.7205835421990221
 40
0.7514853664964551
 40
0.7849180473881087
 40
0.8190661543136257
 40
0.8532143821161515
 40
0.8608838157660433
 40
0.8685532555244109
 40
0.8762227013948419
 40
0.8838921533809254
 40
0.8915616114862489
 40
0.899231075714399
 40
0.9069005460689658
 40
0.9156067759838941
 40
0.9286531158021165
 40
0.9460389679860585
 40
0.9548194991387693
 40
0.9643972304787236
 40
0.9747721471194757
 40
0.9859442329017675
 40
0.9979134704000204
 40
1.0
 40
1.0
 40
1.0
 40
1.0
 10
27.83034572337406
 20
33.54320023014282
 30
0.0
 10
27.83164877446862
 20
33.54153762786602
 30
0.0
 10
27.83361801325936
 20
33.53902501657186
 30
0.0
 10
27.82713371348991
 20
33.53571554124296
 30
0.0
 10
27.82125563483245
 20
33.53321081414956
 30
0.0
 10
27.8134244116273
 20
33.53071739393921
 30
0.0
 10
27.80391115534944
 20
33.52823233216551
 30
0.0
 10
27.79264957380627
 20
33.52576111625955
 30
0.0
 10
27.77966522552092
 20
33.52328474504765
 30
0.0
 10
27.76685232588272
 20
33.52118407932251
 30
0.0
 10
27.75273333943616
 20
33.51892773487013
 30
0.0
 10
27.73624593287461
 20
33.51640643353101
 30
0.0
 10
27.71230238870634
 20
33.51307683863148
 30
0.0
 10
27.67998384902847
 20
33.50901999947965
 30
0.0
 10
27.63631386974809
 20
33.5041332716013
 30
0.0
 10
27.578720048516
 20
33.49841428616637
 30
0.0
 10
27.50430444899708
 20
33.49186290417352
 30
0.0
 10
27.40990243389937
 20
33.48448229654508
 30
0.0
 10
27.26608556722238
 20
33.47443145336931
 30
0.0
 10
27.07025564544529
 20
33.46263554017817
 30
0.0
 10
26.88114026410098
 20
33.4529043516394
 30
0.0
 10
26.75997395886863
 20
33.44714573535222
 30
0.0
 10
26.70719588131193
 20
33.44470279794056
 30
0.0
 10
26.65519588890773
 20
33.44235627436391
 30
0.0
 10
26.60408823311995
 20
33.44010601322229
 30
0.0
 10
26.5539814871511
 20
33.43795254733426
 30
0.0
 10
26.50497560119025
 20
33.43589398085656
 30
0.0
 10
26.39363773620023
 20
33.43133635755309
 30
0.0
 10
26.22396698657894
 20
33.42467025361913
 30
0.0
 10
25.99986849484052
 20
33.41621713405772
 30
0.0
 10
25.82831636251533
 20
33.40992855135492
 30
0.0
 10
25.70617317787785
 20
33.40550363441135
 30
0.0
 10
25.62701948464692
 20
33.40264895340265
 30
0.0
 10
25.55621144373314
 20
33.40009949927722
 30
0.0
 10
25.49397959445246
 20
33.39785394770091
 30
0.0
 10
25.44050431830149
 20
33.39591670270557
 30
0.0
 10
25.2765446146602
 20
33.38988129929501
 30
0.0
 10
24.99425556965879
 20
33.379462611497
 30
0.0
 10
24.58830832217053
 20
33.36458775407237
 30
0.0
 10
24.24068629835245
 20
33.35153773446562
 30
0.0
 10
23.95444679618139
 20
33.34072454327386
 30
0.0
 10
23.72731244499984
 20
33.33231392481068
 30
0.0
 10
23.50371363880392
 20
33.32409308121331
 30
0.0
 10
23.28500131724676
 20
33.31605169020428
 30
0.0
 10
23.06780488010988
 20
33.30812015018206
 30
0.0
 10
22.84759145988501
 20
33.29962600960145
 30
0.0
 10
22.62180637023465
 20
33.28991886250887
 30
0.0
 10
22.39422201215086
 20
33.27904859971157
 30
0.0
 10
22.175975139125
 20
33.26715861583841
 30
0.0
 10
21.97860164719937
 20
33.25473480756168
 30
0.0
 10
21.85404282450758
 20
33.24545318545975
 30
0.0
 10
21.7826464651803
 20
33.2393979152593
 30
0.0
 10
21.75111754670075
 20
33.23658094932789
 30
0.0
 10
21.72127686398191
 20
33.23376218612942
 30
0.0
 10
21.69314060358481
 20
33.23094233141977
 30
0.0
 10
21.6667254158237
 20
33.22811870246158
 30
0.0
 10
21.64204644178838
 20
33.22530132445953
 30
0.0
 10
21.61808527401329
 20
33.22232442453522
 30
0.0
 10
21.59117257301379
 20
33.21882994142646
 30
0.0
 10
21.55965838672313
 20
33.214334711304
 30
0.0
 10
21.53415975571673
 20
33.20988283915332
 30
0.0
 10
21.51572737217539
 20
33.20585376212399
 30
0.0
 10
21.50365796965417
 20
33.20262569284369
 30
0.0
 10
21.49371067797612
 20
33.19913916003031
 30
0.0
 10
21.48715750098492
 20
33.19539476795548
 30
0.0
 10
21.48410736261505
 20
33.19258071895774
 30
0.0
 10
21.4848592040573
 20
33.19101677504427
 30
0.0
 10
21.48497081229703
 20
33.19078461302527
 30
0.0
  0
SPLINE
  5
F9
330
1F
100
AcDbEntity
  8
0
  6
Continuous
 62
     7
370
    25
100
AcDbSpline
210
0.0
220
0.0
230
1.0
 70
    24
 71
     3
 72
    10
 73
     6
 74
     0
 42
0.000000001
 43
0.00000001
 40
0.0
 40
0.0
 40
0.0
 40
0.0
 40
0.3129845260606395
 40
0.7237044645837829
 40
1.0
 40
1.0
 40
1.0
 40
1.0
 10
27.22714669478683
 20
36.0120933676083
 30
0.0
 10
27.26914455606744
 20
36.01209336760831
 30
0.0
 10
27.36625491514588
 20
36.01209336760832
 30
0.0
 10
27.4438187394651
 20
36.01209336760813
 30
0.0
 10
27.44411558788381
 20
36.01209336760822
 30
0.0
 10
27.44423497077386
 20
36.01209336760827
 30
0.0
  0
LINE
  5
FA
330
1F
100
AcDbEntity
  8
0
  6
Continuous
 62
     7
370
    25
100
AcDbLine
 10
24.659621802
 20
32.4302002225
 30
0.0
 11
27.334621802
 21
32.4302002225
 31
0.0
  0
LINE
  5
FB
330
1F
100
AcDbEntity
  8
0
  6
Continuous
 62
     7
370
    25
100
AcDbLine
 10
21.984621802
 20
32.4302002225
 30
0.0
 11
24.659621802
 21
32.4302002225
 31
0.0
  0
LINE
  5
FC
330
1F
100
AcDbEntity
  8
0
  6
Continuous
 62
     7
370
    25
100
AcDbLine
 10
27.834621802
 20
35.6302002225
 30
0.0
 11
27.7153368568
 21
35.6302002225
 31
0.0
  0
LINE
  5
FD
330
1F
100
AcDbEntity
  8
0
  6
Continuous
 62
     7
370
    25
100
AcDbLine
 10
24.659621802
 20
36.1302002225
 30
0.0
 11
27.334621802
 21
36.1302002225
 31
0.0
  0
LINE
  5
FE
330
1F
100
AcDbEntity
  8
0
  6
Continuous
 62
     7
370
    25
100
AcDbLine
 10
21.984621802
 20
36.1302002225
 30
0.0
 11
24.659621802
 21
36.1302002225
 31
0.0
  0
LINE
  5
FF
330
1F
100
AcDbEntity
  8
0
  6
Continuous
 62
     7
370
    25
100
AcDbLine
 10
31.0968183968
 20
27.2302002225
 30
0.0
 11
31.0968183968
 21
25.5039093563
 31
0.0
  0
LINE
  5
100
330
1F
100
AcDbEntity
  8
0
  6
Continuous
 62
     7
370
    25
100
AcDbLine
 10
31.0968183968
 20
23.7564910886
 30
0.0
 11
31.0968183968
 21
22.4302002225
 31
0.0
  0
LINE
  5
101
330
1F
100
AcDbEntity
  8
0
  6
Continuous
 62
     7
370
    25
100
AcDbLine
 10
31.659621802
 20
27.2302002225
 30
0.0
 11
31.0968183968
 21
27.2302002225
 31
0.0
  0
LINE
  5
102
330
1F
100
AcDbEntity
  8
0
  6
Continuous
 62
     7
370
    25
100
AcDbLine
 10
31.659621802
 20
22.4302002225
 30
0.0
 11
31.0968183968
 21
22.4302002225
 31
0.0
  0
LINE
  5
103
330
1F
100
AcDbEntity
  8
0
  6
Continuous
 62
     7
370
    25
100
AcDbLine
 10
18.2224252072
 20
27.2302002225
 30
0.0
 11
18.2224252072
 21
25.5039093563
 31
0.0
  0
LINE
  5
104
330
1F
100
AcDbEntity
  8
0
  6
Continuous
 62
     7
370
    25
100
AcDbLine
 10
18.2224252072
 20
23.7564910886
 30
0.0
 11
18.2224252072
 21
22.4302002225
 31
0.0
  0
LINE
  5
105
330
1F
100
AcDbEntity
  8
0
  6
Continuous
 62
     7
370
    25
100
AcDbLine
 10
18.2224252072
 20
22.4302002225
 30
0.0
 11
17.659621802
 21
22.4302002225
 31
0.0
  0
LINE
  5
106
330
1F
100
AcDbEntity
  8
0
  6
Continuous
 62
     7
370
    25
100
AcDbLine
 10
18.2224252072
 20
27.2302002225
 30
0.0
 11
17.659621802
 21
27.2302002225
 31
0.0
  0
LINE
  5
107
330
1F
100
AcDbEntity
  8
0
  6
Continuous
 62
     7
370
    25
100
AcDbLine
 10
31.0968183968
 20
22.4302002225
 30
0.0
 11
25.659621802
 21
22.4302002225
 31
0.0
  0
LINE
  5
108
330
1F
100
AcDbEntity
  8
0
  6
Continuous
 62
     7
370
    25
100
AcDbLine
 10
31.0968183968
 20
27.2302002225
 30
0.0
 11
25.659621802
 21
27.2302002225
 31
0.0
  0
LINE
  5
109
330
1F
100
AcDbEntity
  8
0
  6
Continuous
 62
     7
370
    25
100
AcDbLine
 10
25.659621802
 20
27.2302002225
 30
0.0
 11
25.659621802
 21
22.4302002225
 31
0.0
  0
LINE
  5
10A
330
1F
100
AcDbEntity
  8
0
  6
Continuous
 62
     7
370
    25
100
AcDbLine
 10
23.659621802
 20
27.2302002225
 30
0.0
 11
23.659621802
 21
22.4302002225
 31
0.0
  0
LINE
  5
10B
330
1F
100
AcDbEntity
  8
0
  6
Continuous
 62
     7
370
    25
100
AcDbLine
 10
23.659621802
 20
22.4302002225
 30
0.0
 11
18.2224252072
 21
22.4302002225
 31
0.0
  0
LINE
  5
10C
330
1F
100
AcDbEntity
  8
0
  6
Continuous
 62
     7
370
    25
100
AcDbLine
 10
23.659621802
 20
27.2302002225
 30
0.0
 11
18.2224252072
 21
27.2302002225
 31
0.0
  0
LINE
  5
10D
330
1F
100
AcDbEntity
  8
0
  6
Continuous
 62
     7
370
    25
100
AcDbLine
 10
25.659621802
 20
27.4302002225
 30
0.0
 11
23.659621802
 21
27.4302002225
 31
0.0
  0
LINE
  5
10E
330
1F
100
AcDbEntity
  8
0
  6
Continuous
 62
     7
370
    25
100
AcDbLine
 10
23.659621802
 20
27.2302002225
 30
0.0
 11
23.659621802
 21
27.4302002225
 31
0.0
  0
LINE
  5
10F
330
1F
100
AcDbEntity
  8
0
  6
Continuous
 62
     7
370
    25
100
AcDbLine
 10
25.659621802
 20
27.4302002225
 30
0.0
 11
25.659621802
 21
27.2302002225
 31
0.0
  0
LINE
  5
110
330
1F
100
AcDbEntity
  8
0
  6
Continuous
 62
     7
370
    25
100
AcDbLine
 10
24.659621802
 20
36.9302002225
 30
0.0
 11
27.134621802
 21
36.9302002225
 31
0.0
  0
LINE
  5
111
330
1F
100
AcDbEntity
  8
0
  6
Continuous
 62
     7
370
    25
100
AcDbLine
 10
22.184621802
 20
36.9302002225
 30
0.0
 11
24.659621802
 21
36.9302002225
 31
0.0
  0
LINE
  5
112
330
1F
100
AcDbEntity
  8
0
  6
Continuous
 62
     7
370
    25
100
AcDbLine
 10
24.659621802
 20
36.7302002225
 30
0.0
 11
21.984621802
 21
36.7302002225
 31
0.0
  0
LINE
  5
113
330
1F
100
AcDbEntity
  8
0
  6
Continuous
 62
     7
370
    25
100
AcDbLine
 10
27.334621802
 20
36.7302002225
 30
0.0
 11
24.659621802
 21
36.7302002225
 31
0.0
  0
LINE
  5
114
330
1F
100
AcDbEntity
  8
0
  6
Continuous
 62
     7
370
    25
100
AcDbLine
 10
24.784621802
 20
26.6302002225
 30
0.0
 11
24.534621802
 21
26.6302002225
 31
0.0
  0
ENDSEC
  0
SECTION
  2
OBJECTS
  0
DICTIONARY
  5
C
330
0
100
AcDbDictionary
281
     1
  3
ACAD_GROUP
350
D
  3
ACAD_LAYOUT
350
1A
  3
ACAD_MLINESTYLE
350
17
  3
ACAD_PLOTSETTINGS
350
19
  3
ACAD_PLOTSTYLENAME
350
E
  3
ACAD_SCALELIST
350
47
  0
DICTIONARY
  5
D
102
{ACAD_REACTORS
330
C
102
}
330
C
100
AcDbDictionary
281
     1
  0
DICTIONARY
  5
1A
102
{ACAD_REACTORS
330
C
102
}
330
C
100
AcDbDictionary
281
     1
  3
Layout1
350
1E
  3
Layout2
350
26
  3
Model
350
22
  0
DICTIONARY
  5
17
102
{ACAD_REACTORS
330
C
102
}
330
C
100
AcDbDictionary
281
     1
  3
Standard
350
18
  0
DICTIONARY
  5
19
102
{ACAD_REACTORS
330
C
102
}
330
C
100
AcDbDictionary
281
     1
  0
ACDBDICTIONARYWDFLT
  5
E
102
{ACAD_REACTORS
330
C
102
}
330
C
100
AcDbDictionary
281
     1
  3
Normal
350
F
100
AcDbDictionaryWithDefault
340
F
  0
DICTIONARY
  5
47
102
{ACAD_REACTORS
330
C
102
}
330
C
100
AcDbDictionary
281
     1
  3
A0
350
48
  3
A1
350
49
  3
A2
350
4A
  3
A3
350
4B
  3
A4
350
4C
  3
A5
350
4D
  3
A6
350
4E
  3
A7
350
4F
  3
A8
350
50
  3
A9
350
51
  3
B0
350
52
  3
B1
350
53
  3
B2
350
54
  3
B3
350
55
  3
B4
350
56
  3
B5
350
57
  3
B6
350
58
  3
B7
350
59
  3
B8
350
5A
  3
B9
350
5B
  3
C0
350
5C
  3
C1
350
5D
  3
C2
350
5E
  3
C3
350
5F
  3
C4
350
60
  3
C5
350
61
  3
C6
350
62
  3
C7
350
63
  3
C8
350
64
  3
C9
350
65
  3
D0
350
66
  3
D1
350
67
  3
D2
350
68
  0
LAYOUT
  5
1E
102
{ACAD_REACTORS
330
1A
102
}
330
1A
100
AcDbPlotSettings
  1

  2
none_device
  4

  6

 40
0.0
 41
0.0
 42
0.0
 43
0.0
 44
0.0
 45
0.0
 46
0.0
 47
0.0
 48
0.0
 49
0.0
140
0.0
141
0.0
142
1.0
143
1.0
 70
   688
 72
     1
 73
     0
 74
     5
  7

 75
    16
147
1.0
148
0.0
149
0.0
100
AcDbLayout
  1
Layout1
 70
     1
 71
     1
 10
0.0
 20
0.0
 11
420.0
 21
297.0
 12
0.0
 22
0.0
 32
0.0
 14
1.0000000000E+20
 24
1.0000000000E+20
 34
1.0000000000E+20
 15
-1.0000000000E+20
 25
-1.0000000000E+20
 35
-1.0000000000E+20
146
0.0
 13
0.0
 23
0.0
 33
0.0
 16
1.0
 26
0.0
 36
0.0
 17
0.0
 27
1.0
 37
0.0
 76
     0
330
1B
  0
LAYOUT
  5
26
102
{ACAD_REACTORS
330
1A
102
}
330
1A
100
AcDbPlotSettings
  1

  2
none_device
  4

  6

 40
0.0
 41
0.0
 42
0.0
 43
0.0
 44
0.0
 45
0.0
 46
0.0
 47
0.0
 48
0.0
 49
0.0
140
0.0
141
0.0
142
1.0
143
1.0
 70
   688
 72
     1
 73
     0
 74
     5
  7

 75
    16
147
1.0
148
0.0
149
0.0
100
AcDbLayout
  1
Layout2
 70
     1
 71
     2
 10
0.0
 20
0.0
 11
0.0
 21
0.0
 12
0.0
 22
0.0
 32
0.0
 14
0.0
 24
0.0
 34
0.0
 15
0.0
 25
0.0
 35
0.0
146
0.0
 13
0.0
 23
0.0
 33
0.0
 16
1.0
 26
0.0
 36
0.0
 17
0.0
 27
1.0
 37
0.0
 76
     0
330
23
  0
LAYOUT
  5
22
102
{ACAD_REACTORS
330
1A
102
}
330
1A
100
AcDbPlotSettings
  1

  2
none_device
  4
Letter_(8.50_x_11.00_Inches)
  6

 40
6.35
 41
6.35
 42
6.35000508
 43
6.35000508
 44
215.9
 45
279.4
 46
0.0
 47
0.0
 48
0.0
 49
0.0
140
0.0
141
0.0
142
1.0
143
1.0
 70
  1712
 72
     1
 73
     0
 74
     0
  7

 75
     0
147
1.0
148
0.0
149
0.0
100
AcDbLayout
  1
Model
 70
     1
 71
     0
 10
0.0
 20
0.0
 11
50.0
 21
50.0
 12
0.0
 22
0.0
 32
0.0
 14
0.0
 24
0.0
 34
0.0
 15
50.0
 25
50.0
 35
0.0
146
0.0
 13
0.0
 23
0.0
 33
0.0
 16
1.0
 26
0.0
 36
0.0
 17
0.0
 27
1.0
 37
0.0
 76
     0
330
1F
331
29
  0
MLINESTYLE
  5
18
102
{ACAD_REACTORS
330
17
102
}
330
17
100
AcDbMlineStyle
  2
Standard
 70
     0
  3

 62
   256
 51
90.0
 52
90.0
 71
     2
 49
0.5
 62
   256
  6
BYLAYER
 49
-0.5
 62
   256
  6
BYLAYER
  0
ACDBPLACEHOLDER
  5
F
102
{ACAD_REACTORS
330
E
102
}
330
E
  0
SCALE
  5
48
102
{ACAD_REACTORS
330
47
102
}
330
47
100
AcDbScale
 70
     0
300
1:1
140
1.0
141
1.0
290
     1
  0
SCALE
  5
49
102
{ACAD_REACTORS
330
47
102
}
330
47
100
AcDbScale
 70
     0
300
1:2
140
1.0
141
2.0
290
     0
  0
SCALE
  5
4A
102
{ACAD_REACTORS
330
47
102
}
330
47
100
AcDbScale
 70
     0
300
1:4
140
1.0
141
4.0
290
     0
  0
SCALE
  5
4B
102
{ACAD_REACTORS
330
47
102
}
330
47
100
AcDbScale
 70
     0
300
1:5
140
1.0
141
5.0
290
     0
  0
SCALE
  5
4C
102
{ACAD_REACTORS
330
47
102
}
330
47
100
AcDbScale
 70
     0
300
1:8
140
1.0
141
8.0
290
     0
  0
SCALE
  5
4D
102
{ACAD_REACTORS
330
47
102
}
330
47
100
AcDbScale
 70
     0
300
1:10
140
1.0
141
10.0
290
     0
  0
SCALE
  5
4E
102
{ACAD_REACTORS
330
47
102
}
330
47
100
AcDbScale
 70
     0
300
1:16
140
1.0
141
16.0
290
     0
  0
SCALE
  5
4F
102
{ACAD_REACTORS
330
47
102
}
330
47
100
AcDbScale
 70
     0
300
1:20
140
1.0
141
20.0
290
     0
  0
SCALE
  5
50
102
{ACAD_REACTORS
330
47
102
}
330
47
100
AcDbScale
 70
     0
300
1:30
140
1.0
141
30.0
290
     0
  0
SCALE
  5
51
102
{ACAD_REACTORS
330
47
102
}
330
47
100
AcDbScale
 70
     0
300
1:40
140
1.0
141
40.0
290
     0
  0
SCALE
  5
52
102
{ACAD_REACTORS
330
47
102
}
330
47
100
AcDbScale
 70
     0
300
1:50
140
1.0
141
50.0
290
     0
  0
SCALE
  5
53
102
{ACAD_REACTORS
330
47
102
}
330
47
100
AcDbScale
 70
     0
300
1:100
140
1.0
141
100.0
290
     0
  0
SCALE
  5
54
102
{ACAD_REACTORS
330
47
102
}
330
47
100
AcDbScale
 70
     0
300
2:1
140
2.0
141
1.0
290
     0
  0
SCALE
  5
55
102
{ACAD_REACTORS
330
47
102
}
330
47
100
AcDbScale
 70
     0
300
4:1
140
4.0
141
1.0
290
     0
  0
SCALE
  5
56
102
{ACAD_REACTORS
330
47
102
}
330
47
100
AcDbScale
 70
     0
300
8:1
140
8.0
141
1.0
290
     0
  0
SCALE
  5
57
102
{ACAD_REACTORS
330
47
102
}
330
47
100
AcDbScale
 70
     0
300
10:1
140
10.0
141
1.0
290
     0
  0
SCALE
  5
58
102
{ACAD_REACTORS
330
47
102
}
330
47
100
AcDbScale
 70
     0
300
100:1
140
100.0
141
1.0
290
     0
  0
SCALE
  5
59
102
{ACAD_REACTORS
330
47
102
}
330
47
100
AcDbScale
 70
     0
300
1/128" = 1'-0"
140
0.0078125
141
12.0
290
     0
  0
SCALE
  5
5A
102
{ACAD_REACTORS
330
47
102
}
330
47
100
AcDbScale
 70
     0
300
1/64" = 1'-0"
140
0.015625
141
12.0
290
     0
  0
SCALE
  5
5B
102
{ACAD_REACTORS
330
47
102
}
330
47
100
AcDbScale
 70
     0
300
1/32" = 1'-0"
140
0.03125
141
12.0
290
     0
  0
SCALE
  5
5C
102
{ACAD_REACTORS
330
47
102
}
330
47
100
AcDbScale
 70
     0
300
1/16" = 1'-0"
140
0.0625
141
12.0
290
     0
  0
SCALE
  5
5D
102
{ACAD_REACTORS
330
47
102
}
330
47
100
AcDbScale
 70
     0
300
3/32" = 1'-0"
140
0.09375
141
12.0
290
     0
  0
SCALE
  5
5E
102
{ACAD_REACTORS
330
47
102
}
330
47
100
AcDbScale
 70
     0
300
1/8" = 1'-0"
140
0.125
141
12.0
290
     0
  0
SCALE
  5
5F
102
{ACAD_REACTORS
330
47
102
}
330
47
100
AcDbScale
 70
     0
300
3/16" = 1'-0"
140
0.1875
141
12.0
290
     0
  0
SCALE
  5
60
102
{ACAD_REACTORS
330
47
102
}
330
47
100
AcDbScale
 70
     0
300
1/4" = 1'-0"
140
0.25
141
12.0
290
     0
  0
SCALE
  5
61
102
{ACAD_REACTORS
330
47
102
}
330
47
100
AcDbScale
 70
     0
300
3/8" = 1'-0"
140
0.375
141
12.0
290
     0
  0
SCALE
  5
62
102
{ACAD_REACTORS
330
47
102
}
330
47
100
AcDbScale
 70
     0
300
1/2" = 1'-0"
140
0.5
141
12.0
290
     0
  0
SCALE
  5
63
102
{ACAD_REACTORS
330
47
102
}
330
47
100
AcDbScale
 70
     0
300
3/4" = 1'-0"
140
0.75
141
12.0
290
     0
  0
SCALE
  5
64
102
{ACAD_REACTORS
330
47
102
}
330
47
100
AcDbScale
 70
     0
300
1" = 1'-0"
140
1.0
141
12.0
290
     0
  0
SCALE
  5
65
102
{ACAD_REACTORS
330
47
102
}
330
47
100
AcDbScale
 70
     0
300
1-1/2" = 1'-0"
140
1.5
141
12.0
290
     0
  0
SCALE
  5
66
102
{ACAD_REACTORS
330
47
102
}
330
47
100
AcDbScale
 70
     0
300
3" = 1'-0"
140
3.0
141
12.0
290
     0
  0
SCALE
  5
67
102
{ACAD_REACTORS
330
47
102
}
330
47
100
AcDbScale
 70
     0
300
6" = 1'-0"
140
6.0
141
12.0
290
     0
  0
SCALE
  5
68
102
{ACAD_REACTORS
330
47
102
}
330
47
100
AcDbScale
 70
     0
300
1'-0" = 1'-0"
140
12.0
141
12.0
290
     0
  0
ENDSEC
  0
EOF
