  0
SECTION
  2
HEADER
  9
$ACADVER
  1
AC1015
  9
$ACADMAINTVER
 70
     6
  9
$DWGCODEPAGE
  3
ANSI_1251
  9
$INSBASE
 10
0.0
 20
0.0
 30
0.0
  9
$EXTMIN
 10
-1.905
 20
-2.03
 30
0.0
  9
$EXTMAX
 10
1.905
 20
2.03
 30
0.0
  9
$LIMMIN
 10
0.0
 20
0.0
  9
$LIMMAX
 10
420.0
 20
297.0
  9
$ORTHOMODE
 70
     0
  9
$REGENMODE
 70
     1
  9
$FILLMODE
 70
     1
  9
$QTEXTMODE
 70
     0
  9
$MIRRTEXT
 70
     1
  9
$LTSCALE
 40
1.0
  9
$ATTMODE
 70
     1
  9
$TEXTSIZE
 40
4.0
  9
$TRACEWID
 40
1.0
  9
$TEXTSTYLE
  7
Standard
  9
$CLAYER
  8
0
  9
$CELTYPE
  6
ByLayer
  9
$CECOLOR
 62
   256
  9
$CELTSCALE
 40
1.0
  9
$DISPSILH
 70
     0
  9
$DIMSCALE
 40
1.0
  9
$DIMASZ
 40
6.0
  9
$DIMEXO
 40
0.0
  9
$DIMDLI
 40
3.75
  9
$DIMRND
 40
0.0
  9
$DIMDLE
 40
0.0
  9
$DIMEXE
 40
1.0
  9
$DIMTP
 40
0.0
  9
$DIMTM
 40
0.0
  9
$DIMTXT
 40
4.0
  9
$DIMCEN
 40
2.5
  9
$DIMTSZ
 40
0.0
  9
$DIMTOL
 70
     0
  9
$DIMLIM
 70
     0
  9
$DIMTIH
 70
     1
  9
$DIMTOH
 70
     1
  9
$DIMSE1
 70
     0
  9
$DIMSE2
 70
     0
  9
$DIMTAD
 70
     1
  9
$DIMZIN
 70
     0
  9
$DIMBLK
  1

  9
$DIMASO
 70
     1
  9
$DIMSHO
 70
     1
  9
$DIMPOST
  1

  9
$DIMAPOST
  1

  9
$DIMALT
 70
     0
  9
$DIMALTD
 70
     3
  9
$DIMALTF
 40
0.0393700787
  9
$DIMLFAC
 40
1.0
  9
$DIMTOFL
 70
     1
  9
$DIMTVP
 40
0.0
  9
$DIMTIX
 70
     0
  9
$DIMSOXD
 70
     0
  9
$DIMSAH
 70
     0
  9
$DIMBLK1
  1

  9
$DIMBLK2
  1

  9
$DIMSTYLE
  2
ISO-25
  9
$DIMCLRD
 70
     0
  9
$DIMCLRE
 70
     0
  9
$DIMCLRT
 70
     0
  9
$DIMTFAC
 40
1.0
  9
$DIMGAP
 40
3.0
  9
$DIMJUST
 70
     0
  9
$DIMSD1
 70
     0
  9
$DIMSD2
 70
     0
  9
$DIMTOLJ
 70
     0
  9
$DIMTZIN
 70
     0
  9
$DIMALTZ
 70
     0
  9
$DIMALTTZ
 70
     0
  9
$DIMUPT
 70
     0
  9
$DIMDEC
 70
     2
  9
$DIMTDEC
 70
     4
  9
$DIMALTU
 70
     2
  9
$DIMALTTD
 70
     3
  9
$DIMTXSTY
  7
Standard
  9
$DIMAUNIT
 70
     0
  9
$DIMADEC
 70
     2
  9
$DIMALTRND
 40
0.0
  9
$DIMAZIN
 70
     0
  9
$DIMDSEP
 70
    44
  9
$DIMATFIT
 70
     3
  9
$DIMFRAC
 70
     0
  9
$DIMLDRBLK
  1

  9
$DIMLUNIT
 70
     2
  9
$DIMLWD
 70
    -2
  9
$DIMLWE
 70
    -2
  9
$DIMTMOVE
 70
     0
  9
$LUNITS
 70
     2
  9
$LUPREC
 70
     2
  9
$SKETCHINC
 40
1.0
  9
$FILLETRAD
 40
0.0
  9
$AUNITS
 70
     0
  9
$AUPREC
 70
     2
  9
$MENU
  1
.
  9
$ELEVATION
 40
0.0
  9
$PELEVATION
 40
0.0
  9
$THICKNESS
 40
0.0
  9
$LIMCHECK
 70
     0
  9
$CHAMFERA
 40
0.0
  9
$CHAMFERB
 40
0.0
  9
$CHAMFERC
 40
0.0
  9
$CHAMFERD
 40
0.0
  9
$SKPOLY
 70
     0
  9
$TDCREATE
 40
2460650.565913831
  9
$TDUCREATE
 40
2460650.399247165
  9
$TDUPDATE
 40
2460650.565990695
  9
$TDUUPDATE
 40
2460650.399324028
  9
$TDINDWG
 40
0.0000000116
  9
$TDUSRTIMER
 40
0.0000000116
  9
$USRTIMER
 70
     1
  9
$ANGBASE
 50
0.0
  9
$ANGDIR
 70
     0
  9
$PDMODE
 70
     0
  9
$PDSIZE
 40
-1.0
  9
$PLINEWID
 40
0.0
  9
$SPLFRAME
 70
     0
  9
$SPLINETYPE
 70
     6
  9
$SPLINESEGS
 70
     8
  9
$HANDSEED
  5
1CE
  9
$SURFTAB1
 70
     6
  9
$SURFTAB2
 70
     6
  9
$SURFTYPE
 70
     6
  9
$SURFU
 70
     6
  9
$SURFV
 70
     6
  9
$UCSBASE
  2

  9
$UCSNAME
  2

  9
$UCSORG
 10
0.0
 20
0.0
 30
0.0
  9
$UCSXDIR
 10
1.0
 20
0.0
 30
0.0
  9
$UCSYDIR
 10
0.0
 20
1.0
 30
0.0
  9
$UCSORTHOREF
  2

  9
$UCSORTHOVIEW
 70
     0
  9
$UCSORGTOP
 10
0.0
 20
0.0
 30
0.0
  9
$UCSORGBOTTOM
 10
0.0
 20
0.0
 30
0.0
  9
$UCSORGLEFT
 10
0.0
 20
0.0
 30
0.0
  9
$UCSORGRIGHT
 10
0.0
 20
0.0
 30
0.0
  9
$UCSORGFRONT
 10
0.0
 20
0.0
 30
0.0
  9
$UCSORGBACK
 10
0.0
 20
0.0
 30
0.0
  9
$PUCSBASE
  2

  9
$PUCSNAME
  2

  9
$PUCSORG
 10
0.0
 20
0.0
 30
0.0
  9
$PUCSXDIR
 10
1.0
 20
0.0
 30
0.0
  9
$PUCSYDIR
 10
0.0
 20
1.0
 30
0.0
  9
$PUCSORTHOREF
  2

  9
$PUCSORTHOVIEW
 70
     0
  9
$PUCSORGTOP
 10
0.0
 20
0.0
 30
0.0
  9
$PUCSORGBOTTOM
 10
0.0
 20
0.0
 30
0.0
  9
$PUCSORGLEFT
 10
0.0
 20
0.0
 30
0.0
  9
$PUCSORGRIGHT
 10
0.0
 20
0.0
 30
0.0
  9
$PUCSORGFRONT
 10
0.0
 20
0.0
 30
0.0
  9
$PUCSORGBACK
 10
0.0
 20
0.0
 30
0.0
  9
$USERI1
 70
     0
  9
$USERI2
 70
     0
  9
$USERI3
 70
     0
  9
$USERI4
 70
     0
  9
$USERI5
 70
     0
  9
$USERR1
 40
0.0
  9
$USERR2
 40
0.0
  9
$USERR3
 40
0.0
  9
$USERR4
 40
0.0
  9
$USERR5
 40
0.0
  9
$WORLDVIEW
 70
     1
  9
$SHADEDGE
 70
     3
  9
$SHADEDIF
 70
    70
  9
$TILEMODE
 70
     1
  9
$MAXACTVP
 70
    64
  9
$PINSBASE
 10
0.0
 20
0.0
 30
0.0
  9
$PLIMCHECK
 70
     0
  9
$PEXTMIN
 10
1.0000000000E+20
 20
1.0000000000E+20
 30
1.0000000000E+20
  9
$PEXTMAX
 10
-1.0000000000E+20
 20
-1.0000000000E+20
 30
-1.0000000000E+20
  9
$PLIMMIN
 10
0.0
 20
0.0
  9
$PLIMMAX
 10
420.0
 20
297.0
  9
$UNITMODE
 70
     0
  9
$VISRETAIN
 70
     1
  9
$PLINEGEN
 70
     0
  9
$PSLTSCALE
 70
     1
  9
$TREEDEPTH
 70
  3020
  9
$CMLSTYLE
  2
Standard
  9
$CMLJUST
 70
     0
  9
$CMLSCALE
 40
20.0
  9
$PROXYGRAPHICS
 70
     1
  9
$MEASUREMENT
 70
     1
  9
$CELWEIGHT
370
    -1
  9
$ENDCAPS
280
     0
  9
$JOINSTYLE
280
     0
  9
$LWDISPLAY
290
     1
  9
$INSUNITS
 70
     4
  9
$HYPERLINKBASE
  1

  9
$STYLESHEET
  1

  9
$XEDIT
290
     1
  9
$CEPSNTYPE
380
     0
  9
$PSTYLEMODE
290
     1
  9
$FINGERPRINTGUID
  2
{700b7113-d251-4cee-878a-787b77123e8b}
  9
$VERSIONGUID
  2
{FAEB1C32-E019-11D5-929B-00C0DF256EC4}
  9
$EXTNAMES
290
     1
  9
$PSVPSCALE
 40
0.0
  9
$OLESTARTUP
290
     0
  0
ENDSEC
  0
SECTION
  2
CLASSES
  0
CLASS
  1
ACDBDICTIONARYWDFLT
  2
AcDbDictionaryWithDefault
  3
ObjectDBX Classes
 90
        0
280
     0
281
     0
  0
CLASS
  1
VISUALSTYLE
  2
AcDbVisualStyle
  3
ObjectDBX Classes
 90
     4095
280
     0
281
     0
  0
CLASS
  1
MATERIAL
  2
AcDbMaterial
  3
ObjectDBX Classes
 90
     1153
280
     0
281
     0
  0
CLASS
  1
SCALE
  2
AcDbScale
  3
ObjectDBX Classes
 90
     1153
280
     0
281
     0
  0
CLASS
  1
TABLESTYLE
  2
AcDbTableStyle
  3
ObjectDBX Classes
 90
     4095
280
     0
281
     0
  0
CLASS
  1
MLEADERSTYLE
  2
AcDbMLeaderStyle
  3
ACDB_MLEADERSTYLE_CLASS
 90
     4095
280
     0
281
     0
  0
CLASS
  1
SUN
  2
AcDbSun
  3
SCENEOE
 90
     1153
280
     0
281
     0
  0
CLASS
  1
ACDBPLACEHOLDER
  2
AcDbPlaceHolder
  3
ObjectDBX Classes
 90
        0
280
     0
281
     0
  0
CLASS
  1
LAYOUT
  2
AcDbLayout
  3
ObjectDBX Classes
 90
        0
280
     0
281
     0
  0
ENDSEC
  0
SECTION
  2
TABLES
  0
TABLE
  2
VPORT
  5
8
330
0
100
AcDbSymbolTable
 70
     1
  0
VPORT
  5
29
330
8
100
AcDbSymbolTableRecord
100
AcDbViewportTableRecord
  2
*Active
 70
     0
 10
0.0
 20
0.0
 11
1.0
 21
1.0
 12
0.0
 22
0.0
 13
0.0
 23
0.0
 14
10.0
 24
10.0
 15
10.0
 25
10.0
 16
0.0
 26
0.0
 36
1.0
 17
0.0
 27
0.0
 37
0.0
 40
4.1412
 41
0.9384236453
 42
50.0
 43
0.0
 44
0.0
 50
0.0
 51
0.0
 71
     0
 72
   100
 73
     1
 74
     3
 75
     0
 76
     0
 77
     0
 78
     0
281
     0
 65
     1
110
0.0
120
0.0
130
0.0
111
1.0
121
0.0
131
0.0
112
0.0
122
1.0
132
0.0
 79
     0
146
0.0
  0
ENDTAB
  0
TABLE
  2
LTYPE
  5
5
330
0
100
AcDbSymbolTable
 70
     6
  0
LTYPE
  5
14
330
5
100
AcDbSymbolTableRecord
100
AcDbLinetypeTableRecord
  2
ByBlock
 70
     0
  3

 72
    65
 73
     0
 40
0.0
  0
LTYPE
  5
15
330
5
100
AcDbSymbolTableRecord
100
AcDbLinetypeTableRecord
  2
ByLayer
 70
     0
  3

 72
    65
 73
     0
 40
0.0
  0
LTYPE
  5
16
330
5
100
AcDbSymbolTableRecord
100
AcDbLinetypeTableRecord
  2
Continuous
 70
     0
  3
Solid line
 72
    65
 73
     0
 40
0.0
  0
LTYPE
  5
5E
330
5
100
AcDbSymbolTableRecord
100
AcDbLinetypeTableRecord
  2
HIDDEN
 70
     0
  3
Hidden __ __ __ __ __ __ __ __ __ __ __ __ __ __
 72
    65
 73
     2
 40
1.905
 49
1.27
 74
     0
 49
-0.635
 74
     0
  0
LTYPE
  5
5F
330
5
100
AcDbSymbolTableRecord
100
AcDbLinetypeTableRecord
  2
PHANTOM
 70
     0
  3
Phantom ______  __  __  ______  __  __  ______
 72
    65
 73
     6
 40
12.7
 49
6.35
 74
     0
 49
-1.27
 74
     0
 49
1.27
 74
     0
 49
-1.27
 74
     0
 49
1.27
 74
     0
 49
-1.27
 74
     0
  0
LTYPE
  5
60
330
5
100
AcDbSymbolTableRecord
100
AcDbLinetypeTableRecord
  2
CENTER
 70
     0
  3
Center ____ _ ____ _ ____ _ ____ _ ____ _ ____
 72
    65
 73
     4
 40
10.16
 49
6.35
 74
     0
 49
-1.27
 74
     0
 49
1.27
 74
     0
 49
-1.27
 74
     0
  0
LTYPE
  5
61
330
5
100
AcDbSymbolTableRecord
100
AcDbLinetypeTableRecord
  2
CENTERX2
 70
     0
  3
Center (2x) ________  __  ________  __  _____
 72
    65
 73
     4
 40
20.32
 49
12.7
 74
     0
 49
-2.54
 74
     0
 49
2.54
 74
     0
 49
-2.54
 74
     0
  0
LTYPE
  5
62
330
5
100
AcDbSymbolTableRecord
100
AcDbLinetypeTableRecord
  2
DOT2
 70
     0
  3
Dot (.5x) ........................................
 72
    65
 73
     2
 40
0.635
 49
0.0
 74
     0
 49
-0.635
 74
     0
  0
ENDTAB
  0
TABLE
  2
LAYER
  5
2
330
0
100
AcDbSymbolTable
 70
     1
  0
LAYER
  5
10
330
2
100
AcDbSymbolTableRecord
100
AcDbLayerTableRecord
  2
0
 70
     0
 62
     7
  6
Continuous
370
    -3
390
F
  0
ENDTAB
  0
TABLE
  2
STYLE
  5
3
330
0
100
AcDbSymbolTable
 70
     1
  0
STYLE
  5
11
330
3
100
AcDbSymbolTableRecord
100
AcDbTextStyleTableRecord
  2
Standard
 70
     0
 40
0.0
 41
1.0
 50
0.0
 71
     0
 42
4.0
  3
txt
  4

  0
ENDTAB
  0
TABLE
  2
VIEW
  5
6
330
0
100
AcDbSymbolTable
 70
     0
  0
ENDTAB
  0
TABLE
  2
UCS
  5
7
330
0
100
AcDbSymbolTable
 70
     0
  0
ENDTAB
  0
TABLE
  2
APPID
  5
9
330
0
100
AcDbSymbolTable
 70
     1
  0
APPID
  5
12
330
9
100
AcDbSymbolTableRecord
100
AcDbRegAppTableRecord
  2
ACAD
 70
     0
  0
ENDTAB
  0
TABLE
  2
DIMSTYLE
  5
A
330
0
100
AcDbSymbolTable
 70
     1
100
AcDbDimStyleTable
  0
DIMSTYLE
105
27
330
A
100
AcDbSymbolTableRecord
100
AcDbDimStyleTableRecord
  2
ISO-25
 70
     0
 41
2.5
 42
0.625
 43
3.75
 44
1.25
 73
     0
 74
     0
 77
     1
 78
     8
140
2.5
141
2.5
143
0.0393700787
147
0.625
171
     3
172
     1
178
     0
271
     2
272
     2
274
     3
278
    44
283
     0
284
     8
340
11
  0
ENDTAB
  0
TABLE
  2
BLOCK_RECORD
  5
1
330
0
100
AcDbSymbolTable
 70
     1
  0
BLOCK_RECORD
  5
1F
330
1
100
AcDbSymbolTableRecord
100
AcDbBlockTableRecord
  2
*Model_Space
340
22
  0
BLOCK_RECORD
  5
1B
330
1
100
AcDbSymbolTableRecord
100
AcDbBlockTableRecord
  2
*Paper_Space
340
1E
  0
BLOCK_RECORD
  5
23
330
1
100
AcDbSymbolTableRecord
100
AcDbBlockTableRecord
  2
*Paper_Space0
340
26
  0
ENDTAB
  0
ENDSEC
  0
SECTION
  2
BLOCKS
  0
BLOCK
  5
20
330
1F
100
AcDbEntity
  8
0
100
AcDbBlockBegin
  2
*Model_Space
 70
     0
 10
0.0
 20
0.0
 30
0.0
  3
*Model_Space
  1

  0
ENDBLK
  5
21
330
1F
100
AcDbEntity
  8
0
100
AcDbBlockEnd
  0
BLOCK
  5
1C
330
1B
100
AcDbEntity
 67
     1
  8
0
100
AcDbBlockBegin
  2
*Paper_Space
 70
     0
 10
0.0
 20
0.0
 30
0.0
  3
*Paper_Space
  1

  0
ENDBLK
  5
1D
330
1B
100
AcDbEntity
 67
     1
  8
0
100
AcDbBlockEnd
  0
BLOCK
  5
24
330
23
100
AcDbEntity
  8
0
100
AcDbBlockBegin
  2
*Paper_Space0
 70
     0
 10
0.0
 20
0.0
 30
0.0
  3
*Paper_Space0
  1

  0
ENDBLK
  5
25
330
23
100
AcDbEntity
  8
0
100
AcDbBlockEnd
  0
ENDSEC
  0
SECTION
  2
ENTITIES
  0
SPLINE
  5
63
330
1F
100
AcDbEntity
  8
0
  6
Continuous
 62
     7
370
    25
100
AcDbSpline
210
0.0
220
0.0
230
1.0
 70
     8
 71
     3
 72
    17
 73
    13
 74
     0
 42
0.00000001
 43
0.00000001
 40
0.0
 40
0.0
 40
0.0
 40
0.0
 40
0.1186032347978904
 40
0.23120135096859
 40
0.3350884644543292
 40
0.4284320944167715
 40
0.5346996177850715
 40
0.6193023730059253
 40
0.6897038231581698
 40
0.7773288545069031
 40
0.8867560900668907
 40
1.0
 40
1.0
 40
1.0
 40
1.0
 10
-1.579959085106399
 20
-0.3975282689804435
 30
0.0
 10
-1.579360674221473
 20
-0.4127397184097147
 30
0.0
 10
-1.578194151189744
 20
-0.4423924312065535
 30
0.0
 10
-1.56963378273558
 20
-0.4846331665172821
 30
0.0
 10
-1.558194667948764
 20
-0.5226973923832055
 30
0.0
 10
-1.543581834070419
 20
-0.5588009331792066
 30
0.0
 10
-1.526857155766777
 20
-0.5912310676646563
 30
0.0
 10
-1.508771070008807
 20
-0.6194586981327534
 30
0.0
 10
-1.489919791795645
 20
-0.6442328404222375
 30
0.0
 10
-1.466693004050231
 20
-0.6695015363465076
 30
0.0
 10
-1.436627246913474
 20
-0.6957918549738934
 30
0.0
 10
-1.412347802170714
 20
-0.7108620390160174
 30
0.0
 10
-1.400000000000001
 20
-0.7185262855916682
 30
0.0
  0
SPLINE
  5
64
330
1F
100
AcDbEntity
  8
0
  6
Continuous
 62
     7
370
    25
100
AcDbSpline
210
0.0
220
0.0
230
1.0
 70
     8
 71
     3
 72
    11
 73
     7
 74
     0
 42
0.00000001
 43
0.00000001
 40
0.0
 40
0.0
 40
0.0
 40
0.0
 40
0.16667202119797
 40
0.4041840219891024
 40
0.6775521903125564
 40
1.0
 40
1.0
 40
1.0
 40
1.0
 10
-1.4
 20
-0.5138160140025833
 30
0.0
 10
-1.403295829627399
 20
-0.508220610024757
 30
0.0
 10
-1.411288302899266
 20
-0.4946516086521431
 30
0.0
 10
-1.420767248355869
 20
-0.4699197785103923
 30
0.0
 10
-1.428489612118204
 20
-0.4382628996164721
 30
0.0
 10
-1.429496188175559
 20
-0.4150396563211394
 30
0.0
 10
-1.430040933964455
 20
-0.4024715409788523
 30
0.0
  0
SPLINE
  5
65
330
1F
100
AcDbEntity
  8
0
  6
Continuous
 62
     7
370
    25
100
AcDbSpline
210
0.0
220
0.0
230
1.0
 70
     8
 71
     3
 72
    15
 73
    11
 74
     0
 42
0.00000001
 43
0.00000001
 40
0.0
 40
0.0
 40
0.0
 40
0.0
 40
0.1292393772045681
 40
0.2500117788037378
 40
0.3750130274720604
 40
0.5000160349969681
 40
0.6250170199960674
 40
0.7500122399274765
 40
0.8707868205984672
 40
1.0
 40
1.0
 40
1.0
 40
1.0
 10
-1.579959085156636
 20
0.4024717315437854
 30
0.0
 10
-1.58001826282323
 20
0.367981758933774
 30
0.0
 10
-1.5801327411967
 20
0.3012613863226285
 30
0.0
 10
-1.579912340969238
 20
0.201253148026022
 30
0.0
 10
-1.579970941360536
 20
0.102405772487419
 30
0.0
 10
-1.57995907361701
 20
0.0024558505136524
 30
0.0
 10
-1.579947275532996
 20
-0.0974917928245139
 30
0.0
 10
-1.580005667819175
 20
-0.1963363416040733
 30
0.0
 10
-1.579786027171425
 20
-0.2963330913565427
 30
0.0
 10
-1.579900115405454
 20
-0.363045889640817
 30
0.0
 10
-1.579959085106398
 20
-0.3975282689804432
 30
0.0
  0
SPLINE
  5
66
330
1F
100
AcDbEntity
  8
0
  6
Continuous
 62
     7
370
    25
100
AcDbSpline
210
0.0
220
0.0
230
1.0
 70
     8
 71
     3
 72
    14
 73
    10
 74
     0
 42
0.00000001
 43
0.00000001
 40
0.0
 40
0.0
 40
0.0
 40
0.0
 40
0.1395449812956323
 40
0.2856845942627243
 40
0.4285363436205158
 40
0.5713968071214173
 40
0.7142596838640477
 40
0.8604370253306695
 40
1.0
 40
1.0
 40
1.0
 40
1.0
 10
-1.430040933964456
 20
-0.402471540978853
 30
0.0
 10
-1.430088460088809
 20
-0.3652337492626662
 30
0.0
 10
-1.43018575833219
 20
-0.2889983782811688
 30
0.0
 10
-1.430001658092524
 20
-0.1747192872756526
 30
0.0
 10
-1.43005390187566
 20
-0.0596050126605592
 30
0.0
 10
-1.430027942398521
 20
0.054618301073483
 30
0.0
 10
-1.430080334719895
 20
0.1697443226429411
 30
0.0
 10
-1.429895612952759
 20
0.2840380916171065
 30
0.0
 10
-1.429993247046017
 20
0.3602866757244628
 30
0.0
 10
-1.430040934067115
 20
0.3975284599999591
 30
0.0
  0
SPLINE
  5
67
330
1F
100
AcDbEntity
  8
0
  6
Continuous
 62
     7
370
    25
100
AcDbSpline
210
0.0
220
0.0
230
1.0
 70
     8
 71
     3
 72
    12
 73
     8
 74
     0
 42
0.00000001
 43
0.00000001
 40
0.0
 40
0.0
 40
0.0
 40
0.0
 40
0.2811327064275653
 40
0.5189193778356734
 40
0.7229540641823131
 40
0.8994209699602661
 40
1.0
 40
1.0
 40
1.0
 40
1.0
 10
1.43007663535925
 20
-0.4033542763071945
 30
0.0
 10
1.429632059331822
 20
-0.4141913890024816
 30
0.0
 10
1.428811453581302
 20
-0.4341947100277511
 30
0.0
 10
1.423187339360821
 20
-0.461609025119371
 30
0.0
 10
1.415487160261281
 20
-0.4841554185189936
 30
0.0
 10
1.40806135440481
 20
-0.5012375265585803
 30
0.0
 10
1.40214711229434
 20
-0.5101346472807787
 30
0.0
 10
1.4
 20
-0.5133646667710268
 30
0.0
  0
SPLINE
  5
68
330
1F
100
AcDbEntity
  8
0
  6
Continuous
 62
     7
370
    25
100
AcDbSpline
210
0.0
220
0.0
230
1.0
 70
     8
 71
     3
 72
    17
 73
    13
 74
     0
 42
0.00000001
 43
0.00000001
 40
0.0
 40
0.0
 40
0.0
 40
0.0
 40
0.0108724672289708
 40
0.0954316411700293
 40
0.1656974549347117
 40
0.2530408359342342
 40
0.3620217758466803
 40
0.493650164947833
 40
0.6067266591528956
 40
0.7306557137594183
 40
0.8629747952571823
 40
1.0
 40
1.0
 40
1.0
 40
1.0
 10
1.4
 20
-0.7187536549728862
 30
0.0
 10
1.4012318936853
 20
-0.7180952541039561
 30
0.0
 10
1.412044677357984
 20
-0.7123162276744865
 30
0.0
 10
1.429453270818348
 20
-0.6999173901419172
 30
0.0
 10
1.453988541946606
 20
-0.6807991807678729
 30
0.0
 10
1.478862957318595
 20
-0.6571353284733724
 30
0.0
 10
1.505822697097421
 20
-0.6246191681980017
 30
0.0
 10
1.530124441880679
 20
-0.5860614619611083
 30
0.0
 10
1.550578640793801
 20
-0.5432439432776239
 30
0.0
 10
1.5661579760969
 20
-0.4983579463546454
 30
0.0
 10
1.577598364920116
 20
-0.4489021399410641
 30
0.0
 10
1.579139472952951
 20
-0.4142657971073523
 30
0.0
 10
1.579923490489306
 20
-0.3966450336058293
 30
0.0
  0
SPLINE
  5
69
330
1F
100
AcDbEntity
  8
0
  6
Continuous
 62
     7
370
    25
100
AcDbSpline
210
0.0
220
0.0
230
1.0
 70
     8
 71
     3
 72
    14
 73
    10
 74
     0
 42
0.00000001
 43
0.00000001
 40
0.0
 40
0.0
 40
0.0
 40
0.0
 40
0.1395527536549661
 40
0.2857037406492528
 40
0.4285609458822793
 40
0.5714265117851373
 40
0.7142858386468302
 40
0.8604296413379876
 40
1.0
 40
1.0
 40
1.0
 40
1.0
 10
1.430076636391537
 20
0.3966457291760109
 30
0.0
 10
1.430012262938147
 20
0.3593758677359774
 30
0.0
 10
1.429880472371856
 20
0.2830739779629984
 30
0.0
 10
1.430129827132751
 20
0.1687933258419736
 30
0.0
 10
1.430059095875962
 20
0.0537341444288484
 30
0.0
 10
1.430094141595585
 20
-0.0604121518441683
 30
0.0
 10
1.43002361866973
 20
-0.1754739139770659
 30
0.0
 10
1.430272134080336
 20
-0.2897675656004892
 30
0.0
 10
1.43014079435249
 20
-0.3660772600828285
 30
0.0
 10
1.430076635359337
 20
-0.4033542763071785
 30
0.0
  0
SPLINE
  5
6A
330
1F
100
AcDbEntity
  8
0
  6
Continuous
 62
     7
370
    25
100
AcDbSpline
210
0.0
220
0.0
230
1.0
 70
     8
 71
     3
 72
    15
 73
    11
 74
     0
 42
0.00000001
 43
0.00000001
 40
0.0
 40
0.0
 40
0.0
 40
0.0
 40
0.1292406453592612
 40
0.2500550567881981
 40
0.3750657976442373
 40
0.5000758138240433
 40
0.625076413454158
 40
0.7500587805017145
 40
0.8708018014829959
 40
0.9999999999999999
 40
0.9999999999999999
 40
0.9999999999999999
 40
0.9999999999999999
 10
1.579923490489392
 20
-0.3966450336058118
 30
0.0
 10
1.579843863004015
 20
-0.3621237588305116
 30
0.0
 10
1.579689799587491
 20
-0.2953319279761935
 30
0.0
 10
1.579986382790701
 20
-0.1953127600682294
 30
0.0
 10
1.579907549543713
 20
-0.0964859845488827
 30
0.0
 10
1.579923471156262
 20
0.0034023959215234
 30
0.0
 10
1.579939506777937
 20
0.1032852142094433
 30
0.0
 10
1.579860362235545
 20
0.2020866354097755
 30
0.0
 10
1.580157984093093
 20
0.3020782679044676
 30
0.0
 10
1.58000339852713
 20
0.368843212654774
 30
0.0
 10
1.579923491032563
 20
0.4033549694716045
 30
0.0
  0
SPLINE
  5
6B
330
1F
100
AcDbEntity
  8
0
  6
Continuous
 62
     7
370
    25
100
AcDbSpline
210
0.0
220
0.0
230
1.0
 70
     8
 71
     3
 72
    16
 73
    12
 74
     0
 42
0.00000001
 43
0.00000001
 40
0.0
 40
0.0
 40
0.0
 40
0.0
 40
0.0810156162266283
 40
0.1522870384522993
 40
0.241003582860084
 40
0.3517849264266162
 40
0.4856510924034853
 40
0.6006381206287311
 40
0.7265946784057041
 40
0.8609662906923531
 40
1.0
 40
1.0
 40
1.0
 40
1.0
 10
-1.4
 20
0.7189241529327169
 30
0.0
 10
-1.408733500373818
 20
0.7135339132824636
 30
0.0
 10
-1.425150074970132
 20
0.703401747767744
 30
0.0
 10
-1.449359629917816
 20
0.6847582337022302
 30
0.0
 10
-1.474707772547627
 20
0.6615972480182875
 30
0.0
 10
-1.502237542073755
 20
0.6294482911046805
 30
0.0
 10
-1.527267332331648
 20
0.5912573448038366
 30
0.0
 10
-1.548507191966465
 20
0.5487157711104651
 30
0.0
 10
-1.564860119628739
 20
0.504033684680109
 30
0.0
 10
-1.57707618449092
 20
0.4547147829502079
 30
0.0
 10
-1.578987255763469
 20
0.4200829290259946
 30
0.0
 10
-1.579959085156637
 20
0.4024717315437856
 30
0.0
  0
SPLINE
  5
6C
330
1F
100
AcDbEntity
  8
0
  6
Continuous
 62
     7
370
    25
100
AcDbSpline
210
0.0
220
0.0
230
1.0
 70
     8
 71
     3
 72
    12
 73
     8
 74
     0
 42
0.00000001
 43
0.00000001
 40
0.0
 40
0.0
 40
0.0
 40
0.0
 40
0.2697218974631116
 40
0.497959316989772
 40
0.6936563576827615
 40
0.862710959946191
 40
0.9999999999999999
 40
0.9999999999999999
 40
0.9999999999999999
 40
0.9999999999999999
 10
-1.430040934067115
 20
0.3975284599999585
 30
0.0
 10
-1.429745203569729
 20
0.408367231746297
 30
0.0
 10
-1.429199227296108
 20
0.428377721908865
 30
0.0
 10
-1.424173943466542
 20
0.4558897992365252
 30
0.0
 10
-1.417121984468212
 20
0.4786435268943665
 30
0.0
 10
-1.409480511966549
 20
0.4973875780798068
 30
0.0
 10
-1.402933892021097
 20
0.5078206505707494
 30
0.0
 10
-1.4
 20
0.5124962707215672
 30
0.0
  0
SPLINE
  5
6D
330
1F
100
AcDbEntity
  8
0
  6
Continuous
 62
     7
370
    25
100
AcDbSpline
210
0.0
220
0.0
230
1.0
 70
     8
 71
     3
 72
    12
 73
     8
 74
     0
 42
0.00000001
 43
0.00000001
 40
0.0
 40
0.0
 40
0.0
 40
0.0
 40
0.0231106345181038
 40
0.2170662688122544
 40
0.4387139216871492
 40
0.6957114954144734
 40
1.0
 40
1.0
 40
1.0
 40
1.0
 10
1.4
 20
0.5132783409895506
 30
0.0
 10
1.400547700894212
 20
0.5125144832109616
 30
0.0
 10
1.405691972871632
 20
0.5053399611193395
 30
0.0
 10
1.41298581495495
 20
0.4888707731017661
 30
0.0
 10
1.422502046575415
 20
0.4632588572004117
 30
0.0
 10
1.429012309784503
 20
0.4318801936976694
 30
0.0
 10
1.429702477586456
 20
0.4090322325819521
 30
0.0
 10
1.430076636391536
 20
0.3966457291760103
 30
0.0
  0
SPLINE
  5
6E
330
1F
100
AcDbEntity
  8
0
  6
Continuous
 62
     7
370
    25
100
AcDbSpline
210
0.0
220
0.0
230
1.0
 70
     8
 71
     3
 72
    18
 73
    14
 74
     0
 42
0.00000001
 43
0.00000001
 40
0.0
 40
0.0
 40
0.0
 40
0.0
 40
0.1347869357190627
 40
0.2644295103348147
 40
0.3854300276309317
 40
0.4954023206649001
 40
0.6226197104303403
 40
0.7268559837934007
 40
0.8143998400188164
 40
0.8723794148818858
 40
0.9237581479868521
 40
0.9684784589750034
 40
1.0
 40
1.0
 40
1.0
 40
1.0
 10
1.579923491032563
 20
0.4033549694716051
 30
0.0
 10
1.578984583877446
 20
0.4203852576899558
 30
0.0
 10
1.577142604475266
 20
0.4537958456702743
 30
0.0
 10
1.565619734952972
 20
0.501322326245891
 30
0.0
 10
1.550314902351343
 20
0.5442768780596258
 30
0.0
 10
1.530617489402699
 20
0.5850925848416971
 30
0.0
 10
1.507666292030945
 20
0.6217278014469838
 30
0.0
 10
1.48235024127175
 20
0.6531823768271098
 30
0.0
 10
1.459920060420645
 20
0.6754479027751842
 30
0.0
 10
1.440820198204889
 20
0.6914035054020831
 30
0.0
 10
1.425140145591412
 20
0.7029364907968978
 30
0.0
 10
1.411771453665047
 20
0.7119603417300844
 30
0.0
 10
1.403443231965564
 20
0.7167947109598869
 30
0.0
 10
1.4
 20
0.7187934395319702
 30
0.0
  0
SPLINE
  5
70
330
1F
100
AcDbEntity
  8
0
  6
Continuous
 62
     7
370
    25
100
AcDbSpline
210
0.0
220
0.0
230
1.0
 70
     8
 71
     3
 72
    14
 73
    10
 74
     0
 42
0.00000001
 43
0.00000001
 40
0.0
 40
0.0
 40
0.0
 40
0.0
 40
0.0897603486587087
 40
0.2414682960046379
 40
0.3931794084690413
 40
0.544889105202659
 40
0.6965928341847729
 40
0.8431739791089833
 40
0.9999999999999999
 40
0.9999999999999999
 40
0.9999999999999999
 40
0.9999999999999999
 10
-1.580023982122566
 20
0.2606233943742285
 30
0.0
 10
-1.580007722041355
 20
0.2408979032991703
 30
0.0
 10
-1.579963980075535
 20
0.1878334846675156
 30
0.0
 10
-1.579989116462439
 20
0.1014730520710825
 30
0.0
 10
-1.579983791044173
 20
0.0015217961432983
 30
0.0
 10
-1.579975995507158
 20
-0.0984258358985884
 30
0.0
 10
-1.580012090618941
 20
-0.1972715005585336
 30
0.0
 10
-1.579876813085484
 20
-0.2972706113647181
 30
0.0
 10
-1.579947066489978
 20
-0.3639849897702381
 30
0.0
 10
-1.579983379283881
 20
-0.3984685210785489
 30
0.0
  0
SPLINE
  5
71
330
1F
100
AcDbEntity
  8
0
  6
Continuous
 62
     7
370
    25
100
AcDbSpline
210
0.0
220
0.0
230
1.0
 70
     8
 71
     3
 72
    14
 73
    10
 74
     0
 42
0.00000001
 43
0.00000001
 40
0.0
 40
0.0
 40
0.0
 40
0.0
 40
0.1464296324658804
 40
0.2857701178657547
 40
0.4286371383225371
 40
0.5703170343743126
 40
0.70724927222801
 40
0.8473116086451612
 40
1.0
 40
1.0
 40
1.0
 40
1.0
 10
1.579990038447522
 20
-0.3988454416691266
 30
0.0
 10
1.579967435047923
 20
-0.3597341431326082
 30
0.0
 10
1.579923322554714
 20
-0.283405054515467
 30
0.0
 10
1.580007880497177
 20
-0.1691206170407925
 30
0.0
 10
1.579985859777822
 20
-0.0561818414180887
 30
0.0
 10
1.579988879921204
 20
0.0560725812719741
 30
0.0
 10
1.580078934730909
 20
0.1675966747763679
 30
0.0
 10
1.580139072384675
 20
0.2821734875904382
 30
0.0
 10
1.580041124668798
 20
0.3603700220944688
 30
0.0
 10
1.579990038615869
 20
0.4011545596900264
 30
0.0
  0
SPLINE
  5
73
330
1F
100
AcDbEntity
  8
0
  6
Continuous
 62
     7
370
    25
100
AcDbSpline
210
0.0
220
0.0
230
1.0
 70
     8
 71
     3
 72
    11
 73
     7
 74
     0
 42
0.00000001
 43
0.00000001
 40
0.0
 40
0.0
 40
0.0
 40
0.0
 40
0.0995798149647131
 40
0.4051070318326798
 40
0.7061360673408452
 40
1.0
 40
1.0
 40
1.0
 40
1.0
 10
0.3004442738963882
 20
1.5
 30
0.0
 10
0.2997440702061688
 20
1.502954694806038
 30
0.0
 10
0.2968955266662598
 20
1.514974878246524
 30
0.0
 10
0.2927963876531947
 20
1.530744777358337
 30
0.0
 10
0.2882175106736702
 20
1.547170995486659
 30
0.0
 10
0.2860616264825297
 20
1.553158302895008
 30
0.0
 10
0.2849966675055931
 20
1.55611589996743
 30
0.0
  0
SPLINE
  5
76
330
1F
100
AcDbEntity
  8
0
  6
Continuous
 62
     7
370
    25
100
AcDbSpline
210
0.0
220
0.0
230
1.0
 70
     8
 71
     3
 72
    11
 73
     7
 74
     0
 42
0.00000001
 43
0.00000001
 40
0.0
 40
0.0
 40
0.0
 40
0.0
 40
0.1332938501875044
 40
0.4187766563489378
 40
0.7097171357782506
 40
1.0
 40
1.0
 40
1.0
 40
1.0
 10
-0.9498896630554999
 20
1.5
 30
0.0
 10
-0.9557294109835444
 20
1.506409357772164
 30
0.0
 10
-0.9740764698147429
 20
1.52654599133324
 30
0.0
 10
-0.9995344986791356
 20
1.552283032970216
 30
0.0
 10
-1.025214893856281
 20
1.576242940943918
 30
0.0
 10
-1.035530396362535
 20
1.582874776127645
 30
0.0
 10
-1.040682311966255
 20
1.586186941981283
 30
0.0
  0
SPLINE
  5
77
330
1F
100
AcDbEntity
  8
0
  6
Continuous
 62
     7
370
    25
100
AcDbSpline
210
0.0
220
0.0
230
1.0
 70
     8
 71
     3
 72
    13
 73
     9
 74
     0
 42
0.00000001
 43
0.00000001
 40
0.0
 40
0.0
 40
0.0
 40
0.0
 40
0.1464322427067802
 40
0.3784490454963341
 40
0.5133321308317992
 40
0.6616664654986194
 40
0.8238918161591324
 40
1.0
 40
1.0
 40
1.0
 40
1.0
 10
-0.2718623886618007
 20
-1.5
 30
0.0
 10
-0.2672286171959427
 20
-1.507571221612954
 30
0.0
 10
-0.2552527957792501
 20
-1.527138780913411
 30
0.0
 10
-0.2373025892677237
 20
-1.549860375034969
 30
0.0
 10
-0.2183391276931106
 20
-1.569204659027734
 30
0.0
 10
-0.2011914861702678
 20
-1.582974283115258
 30
0.0
 10
-0.181719877352721
 20
-1.594583481174406
 30
0.0
 10
-0.1676844957556619
 20
-1.598392793231562
 30
0.0
 10
-0.1603788481904144
 20
-1.600375602973012
 30
0.0
  0
SPLINE
  5
79
330
1F
100
AcDbEntity
  8
0
  6
Continuous
 62
     7
370
    25
100
AcDbSpline
210
0.0
220
0.0
230
1.0
 70
     8
 71
     3
 72
     9
 73
     5
 74
     0
 42
0.00000001
 43
0.00000001
 40
0.0
 40
0.0
 40
0.0
 40
0.0
 40
0.4833997751354217
 40
1.0
 40
1.0
 40
1.0
 40
1.0
 10
-0.0672734787061139
 20
1.508490711521157
 30
0.0
 10
-0.0673083146588091
 20
1.508403973313369
 30
0.0
 10
-0.0673803791372949
 20
1.508224539618424
 30
0.0
 10
-0.0682389983042117
 20
1.50280152867356
 30
0.0
 10
-0.068682561158914
 20
1.5
 30
0.0
  0
SPLINE
  5
86
330
1F
100
AcDbEntity
  8
0
  6
Continuous
 62
     7
370
    25
100
AcDbSpline
210
0.0
220
0.0
230
1.0
 70
     8
 71
     3
 72
    17
 73
    13
 74
     0
 42
0.00000001
 43
0.00000001
 40
0.0
 40
0.0
 40
0.0
 40
0.0
 40
0.0688826380619974
 40
0.2068914208376939
 40
0.3063717203421528
 40
0.3634032680480156
 40
0.4451983162381737
 40
0.5521051370384623
 40
0.64791802899341
 40
0.7558035721396437
 40
0.8739590947165947
 40
1.0
 40
1.0
 40
1.0
 40
1.0
 10
0.2682947778860164
 20
1.595395244570948
 30
0.0
 10
0.2686955361272405
 20
1.595873100368905
 30
0.0
 10
0.2698992275692645
 20
1.597308357028292
 30
0.0
 10
0.2693662270642875
 20
1.608467074230439
 30
0.0
 10
0.2684860749556115
 20
1.624408450542822
 30
0.0
 10
0.2675066021199322
 20
1.642910086761415
 30
0.0
 10
0.2666172267597258
 20
1.663298016175201
 30
0.0
 10
0.2656900087092481
 20
1.689662580848536
 30
0.0
 10
0.2648479332148492
 20
1.720852437757184
 30
0.0
 10
0.2641621095177719
 20
1.755330277257683
 30
0.0
 10
0.2636304718697566
 20
1.794936821995254
 30
0.0
 10
0.2635000231517926
 20
1.823360935564743
 30
0.0
 10
0.2634326926234581
 20
1.838031915961825
 30
0.0
  0
SPLINE
  5
87
330
1F
100
AcDbEntity
  8
0
  6
Continuous
 62
     7
370
    25
100
AcDbSpline
210
0.0
220
0.0
230
1.0
 70
     8
 71
     3
 72
    16
 73
    12
 74
     0
 42
0.00000001
 43
0.00000001
 40
0.0
 40
0.0
 40
0.0
 40
0.0
 40
0.0693868358462645
 40
0.141744073863772
 40
0.2339215284243122
 40
0.3478688490472982
 40
0.4832188369875617
 40
0.5981292805054205
 40
0.7235110382105374
 40
0.8580406578977824
 40
1.0
 40
1.0
 40
1.0
 40
1.0
 10
0.118886941951299
 20
1.714969523897381
 30
0.0
 10
0.1190376038030485
 20
1.708855279714161
 30
0.0
 10
0.1193453772356077
 20
1.696365044807821
 30
0.0
 10
0.1199507819348472
 20
1.6767701814707
 30
0.0
 10
0.1207870424346316
 20
1.65405498223138
 30
0.0
 10
0.1220069759493679
 20
1.628032600602087
 30
0.0
 10
0.1235640857501662
 20
1.60299002987543
 30
0.0
 10
0.1254279098853201
 20
1.580438090094347
 30
0.0
 10
0.1275308262499457
 20
1.561437781294711
 30
0.0
 10
0.1300299047855553
 20
1.544969528883465
 30
0.0
 10
0.1319730023350233
 20
1.537842210596804
 30
0.0
 10
0.1329706582558154
 20
1.534182789951658
 30
0.0
  0
SPLINE
  5
8C
330
1F
100
AcDbEntity
  8
0
  6
Continuous
 62
     7
370
    25
100
AcDbSpline
210
0.0
220
0.0
230
1.0
 70
     8
 71
     3
 72
    13
 73
     9
 74
     0
 42
0.00000001
 43
0.00000001
 40
0.0
 40
0.0
 40
0.0
 40
0.0
 40
0.127246287647525
 40
0.2766539309649672
 40
0.4398842630817201
 40
0.6159625240188148
 40
0.8033463264770854
 40
1.0
 40
1.0
 40
1.0
 40
1.0
 10
-1.04991018978669
 20
1.591226505540128
 30
0.0
 10
-1.049870791486905
 20
1.591634772780938
 30
0.0
 10
-1.049785133235413
 20
1.592522411541506
 30
0.0
 10
-1.051975564763865
 20
1.598331293488716
 30
0.0
 10
-1.055549681326524
 20
1.608204510372237
 30
0.0
 10
-1.060561095501961
 20
1.622918129427311
 30
0.0
 10
-1.066685809776485
 20
1.642239389407143
 30
0.0
 10
-1.071355406292988
 20
1.658521364941967
 30
0.0
 10
-1.07374656175638
 20
1.6668588593309
 30
0.0
  0
SPLINE
  5
8D
330
1F
100
AcDbEntity
  8
0
  6
Continuous
 62
     7
370
    25
100
AcDbSpline
210
0.0
220
0.0
230
1.0
 70
     8
 71
     3
 72
    13
 73
     9
 74
     0
 42
0.00000001
 43
0.00000001
 40
0.0
 40
0.0
 40
0.0
 40
0.0
 40
0.2604247558910752
 40
0.4871808254214394
 40
0.6758729250851074
 40
0.8245417462710807
 40
0.9427123823529819
 40
1.0
 40
1.0
 40
1.0
 40
1.0
 10
-1.220261243974436
 20
1.636699133570475
 30
0.0
 10
-1.216055090641259
 20
1.621699364621424
 30
0.0
 10
-1.20818657120771
 20
1.593639052948187
 30
0.0
 10
-1.197392356284273
 20
1.5610672923247
 30
0.0
 10
-1.188380664711133
 20
1.537247393300875
 30
0.0
 10
-1.180635687476888
 20
1.520272359952434
 30
0.0
 10
-1.174358467456885
 20
1.508123977490698
 30
0.0
 10
-1.169848672456005
 20
1.501999620072781
 30
0.0
 10
-1.168376211593172
 20
1.5
 30
0.0
  0
SPLINE
  5
8E
330
1F
100
AcDbEntity
  8
0
  6
Continuous
 62
     7
370
    25
100
AcDbSpline
210
0.0
220
0.0
230
1.0
 70
     8
 71
     3
 72
    14
 73
    10
 74
     0
 42
0.00000001
 43
0.00000001
 40
0.0
 40
0.0
 40
0.0
 40
0.0
 40
0.1897506171375782
 40
0.3021646603978103
 40
0.4257510821677039
 40
0.5594467559774545
 40
0.7014589245207723
 40
0.8493072672024813
 40
1.0
 40
1.0
 40
1.0
 40
1.0
 10
0.0827942411150346
 20
1.547257474285802
 30
0.0
 10
0.0829742474864523
 20
1.548591208418891
 30
0.0
 10
0.0832608951132658
 20
1.55071508726295
 30
0.0
 10
0.0854330315187709
 20
1.562974673363447
 30
0.0
 10
0.0881758570865229
 20
1.577246811877127
 30
0.0
 10
0.0921900465425935
 20
1.596985006241376
 30
0.0
 10
0.09751222014867
 20
1.62189585973523
 30
0.0
 10
0.1039971580028966
 20
1.651135073650618
 30
0.0
 10
0.1090328516798265
 20
1.672842149109762
 30
0.0
 10
0.1115746876415602
 20
1.683799095374961
 30
0.0
  0
SPLINE
  5
8F
330
1F
100
AcDbEntity
  8
0
  6
Continuous
 62
     7
370
    25
100
AcDbSpline
210
0.0
220
0.0
230
1.0
 70
     8
 71
     3
 72
    14
 73
    10
 74
     0
 42
0.00000001
 43
0.00000001
 40
0.0
 40
0.0
 40
0.0
 40
0.0
 40
0.1912332490564281
 40
0.3032262869566411
 40
0.4259336165250957
 40
0.558625257351002
 40
0.6999436064483464
 40
0.8479023948237496
 40
1.0
 40
1.0
 40
1.0
 40
1.0
 10
-0.0335024983165791
 20
1.721882048163361
 30
0.0
 10
-0.0371076177536763
 20
1.706347288970195
 30
0.0
 10
-0.0428240242171969
 20
1.681714818559576
 30
0.0
 10
-0.0498320242778696
 20
1.64969977005021
 30
0.0
 10
-0.0552142440765588
 20
1.624035914993877
 30
0.0
 10
-0.0600641031297375
 20
1.599294267022002
 30
0.0
 10
-0.0639490877213061
 20
1.577144866043253
 30
0.0
 10
-0.0666259844868734
 20
1.558655211497607
 30
0.0
 10
-0.0670018452849494
 20
1.5511418840996
 30
0.0
 10
-0.0671923678950173
 20
1.547333402998379
 30
0.0
  0
SPLINE
  5
90
330
1F
100
AcDbEntity
  8
0
  6
Continuous
 62
     7
370
    25
100
AcDbSpline
210
0.0
220
0.0
230
1.0
 70
     8
 71
     3
 72
    10
 73
     6
 74
     0
 42
0.00000001
 43
0.00000001
 40
0.0
 40
0.0
 40
0.0
 40
0.0
 40
0.1435229196514834
 40
0.5297141555461089
 40
1.0
 40
1.0
 40
1.0
 40
1.0
 10
-0.0948424204810234
 20
-1.606998169863916
 30
0.0
 10
-0.0941109728761809
 20
-1.608860248292367
 30
0.0
 10
-0.0914113472605219
 20
-1.615732804290272
 30
0.0
 10
-0.0853650120644329
 20
-1.638159892364229
 30
0.0
 10
-0.0816135600577493
 20
-1.662341446662612
 30
0.0
 10
-0.0795536628166304
 20
-1.675619376620523
 30
0.0
  0
SPLINE
  5
91
330
1F
100
AcDbEntity
  8
0
  6
Continuous
 62
     7
370
    25
100
AcDbSpline
210
0.0
220
0.0
230
1.0
 70
     8
 71
     3
 72
     9
 73
     5
 74
     0
 42
0.00000001
 43
0.00000001
 40
0.0
 40
0.0
 40
0.0
 40
0.0
 40
0.717906935843385
 40
1.0
 40
1.0
 40
1.0
 40
1.0
 10
0.0290726689536697
 20
-1.523921026547559
 30
0.0
 10
0.0257471264730184
 20
-1.5174697595246
 30
0.0
 10
0.021114851292748
 20
-1.508483543204818
 30
0.0
 10
0.0142574579667573
 20
-1.501866595151676
 30
0.0
 10
0.0123230348713015
 20
-1.5
 30
0.0
  0
SPLINE
  5
94
330
1F
100
AcDbEntity
  8
0
  6
Continuous
 62
     7
370
    25
100
AcDbSpline
210
0.0
220
0.0
230
1.0
 70
     8
 71
     3
 72
    15
 73
    11
 74
     0
 42
0.00000001
 43
0.00000001
 40
0.0
 40
0.0
 40
0.0
 40
0.0
 40
0.1328193668021982
 40
0.2675090428923477
 40
0.4018131866251025
 40
0.5334925966084461
 40
0.6605365147932528
 40
0.7813234184959469
 40
0.8947031766232516
 40
1.0
 40
1.0
 40
1.0
 40
1.0
 10
1.300656251112004
 20
1.543719031960078
 30
0.0
 10
1.300657753215208
 20
1.546594908672912
 30
0.0
 10
1.300660778573635
 20
1.5523871590461
 30
0.0
 10
1.300663243372866
 20
1.568522232047822
 30
0.0
 10
1.300664751300402
 20
1.589515240488671
 30
0.0
 10
1.300665418041028
 20
1.614763532137276
 30
0.0
 10
1.300665557331752
 20
1.642651960419603
 30
0.0
 10
1.300665379879606
 20
1.671698816834978
 30
0.0
 10
1.30066505980588
 20
1.700512601358477
 30
0.0
 10
1.300664855581945
 20
1.719623191052912
 30
0.0
 10
1.300664757244338
 20
1.728825293874531
 30
0.0
  0
SPLINE
  5
95
330
1F
100
AcDbEntity
  8
0
  6
Continuous
 62
     7
370
    25
100
AcDbSpline
210
0.0
220
0.0
230
1.0
 70
     8
 71
     3
 72
    15
 73
    11
 74
     0
 42
0.00000001
 43
0.00000001
 40
0.0
 40
0.0
 40
0.0
 40
0.0
 40
0.0790969598908229
 40
0.1722568728101263
 40
0.279965204421891
 40
0.4021438495455982
 40
0.5378523499118919
 40
0.6850410512911422
 40
0.8404833754440234
 40
1.0
 40
1.0
 40
1.0
 40
1.0
 10
1.152086962673512
 20
1.748303694433366
 30
0.0
 10
1.15208698210407
 20
1.741142516922915
 30
0.0
 10
1.15208702441982
 20
1.725546948581335
 30
0.0
 10
1.152087381462415
 20
1.700322787019808
 30
0.0
 10
1.152088018209812
 20
1.671916220561895
 30
0.0
 10
1.152089086153705
 20
1.641367973745101
 30
0.0
 10
1.152090731063164
 20
1.610413327181551
 30
0.0
 10
1.152093200958952
 20
1.581676570381211
 30
0.0
 10
1.152096601959358
 20
1.557171010342141
 30
0.0
 10
1.152100063719005
 20
1.547261972049919
 30
0.0
 10
1.152101816989443
 20
1.542243361378747
 30
0.0
  0
SPLINE
  5
98
330
1F
100
AcDbEntity
  8
0
  6
Continuous
 62
     7
370
    25
100
AcDbSpline
210
0.0
220
0.0
230
1.0
 70
     8
 71
     3
 72
    13
 73
     9
 74
     0
 42
0.00000001
 43
0.00000001
 40
0.0
 40
0.0
 40
0.0
 40
0.0
 40
0.1285008332470117
 40
0.3699722762838012
 40
0.6076103412267003
 40
0.8025477855442906
 40
0.9543232270831763
 40
1.0
 40
1.0
 40
1.0
 40
1.0
 10
0.1802014133457831
 20
-1.596982298804711
 30
0.0
 10
0.1799710990490377
 20
-1.593613507894639
 30
0.0
 10
0.1793079912506334
 20
-1.583914277081655
 30
0.0
 10
0.1784659707507897
 20
-1.570147272164835
 30
0.0
 10
0.1778573205587622
 20
-1.557885543246445
 30
0.0
 10
0.1776047624962213
 20
-1.550768469902975
 30
0.0
 10
0.1776016556736306
 20
-1.547478721037123
 30
0.0
 10
0.177592734546342
 20
-1.547783129726819
 30
0.0
 10
0.1775906708150922
 20
-1.547853548823567
 30
0.0
  0
SPLINE
  5
A4
330
1F
100
AcDbEntity
  8
0
  6
Continuous
 62
     7
370
    25
100
AcDbSpline
210
0.0
220
0.0
230
1.0
 70
     8
 71
     3
 72
    12
 73
     8
 74
     0
 42
0.00000001
 43
0.00000001
 40
0.0
 40
0.0
 40
0.0
 40
0.0
 40
0.1366984454531626
 40
0.3974628463383897
 40
0.659191522801581
 40
0.9229290625199102
 40
1.0
 40
1.0
 40
1.0
 40
1.0
 10
0.1840765327102045
 20
-1.705440063750628
 30
0.0
 10
0.1840651234087162
 20
-1.700817618205137
 30
0.0
 10
0.1840319498533823
 20
-1.687377448073981
 30
0.0
 10
0.1836628248316662
 20
-1.665285508831513
 30
0.0
 10
0.1828342427122419
 20
-1.640011989118808
 30
0.0
 10
0.1819034293908284
 20
-1.621847801302842
 30
0.0
 10
0.1812593924599983
 20
-1.61227589341517
 30
0.0
 10
0.1811137489876325
 20
-1.610111287885283
 30
0.0
  0
CIRCLE
  5
C5
330
1F
100
AcDbEntity
  8
0
  6
Continuous
 62
     7
370
    25
100
AcDbCircle
 10
-1.0
 20
1.1
 30
0.0
 40
0.25
  0
SPLINE
  5
DF
330
1F
100
AcDbEntity
  8
0
  6
Continuous
 62
     7
370
    25
100
AcDbSpline
210
0.0
220
0.0
230
1.0
 70
     8
 71
     3
 72
    10
 73
     6
 74
     0
 42
0.00000001
 43
0.00000001
 40
0.0
 40
0.0
 40
0.0
 40
0.0
 40
0.6569410427713227
 40
0.9866632720559351
 40
1.0
 40
1.0
 40
1.0
 40
1.0
 10
0.1271862863022892
 20
1.753330799150058
 30
0.0
 10
0.1259605264840467
 20
1.747328518917946
 30
0.0
 10
0.1241195512453557
 20
1.738313662076867
 30
0.0
 10
0.1222036838477022
 20
1.729015798718754
 30
0.0
 10
0.121550635787012
 20
1.726336516921967
 30
0.0
 10
0.1215252479516668
 20
1.726232357413356
 30
0.0
  0
SPLINE
  5
E0
330
1F
100
AcDbEntity
  8
0
  6
Continuous
 62
     7
370
    25
100
AcDbSpline
210
0.0
220
0.0
230
1.0
 70
     8
 71
     3
 72
    14
 73
    10
 74
     0
 42
0.00000001
 43
0.00000001
 40
0.0000000000000001
 40
0.0000000000000001
 40
0.0000000000000001
 40
0.0000000000000001
 40
0.0000186448043412
 40
0.0000186448043412
 40
0.0000186448043412
 40
0.000046763085334
 40
0.000046763085334
 40
0.000046763085334
 40
0.0000750860267434
 40
0.0000750860267434
 40
0.0000750860267434
 40
0.0000750860267434
 10
0.1356262177906482
 20
1.827614241032658
 30
0.0
 10
0.135530024558956
 20
1.821422083779605
 30
0.0
 10
0.1352717019989444
 20
1.815232848048125
 30
0.0
 10
0.1348595427355884
 20
1.809056831271704
 30
0.0
 10
0.1342381768113237
 20
1.799745949013942
 30
0.0
 10
0.1332660235179768
 20
1.790455265766077
 30
0.0
 10
0.131981473588277
 20
1.781199684860578
 30
0.0
 10
0.1306885640861982
 20
1.771883870641683
 30
0.0
 10
0.1290769970904994
 20
1.762561450042624
 30
0.0
 10
0.1271862862601768
 20
1.753330799138219
 30
0.0
  0
SPLINE
  5
E1
330
1F
100
AcDbEntity
  8
0
  6
Continuous
 62
     7
370
    25
100
AcDbSpline
210
0.0
220
0.0
230
1.0
 70
     8
 71
     3
 72
     8
 73
     4
 74
     0
 42
0.00000001
 43
0.00000001
 40
0.0000000000000011
 40
0.0000000000000011
 40
0.0000000000000011
 40
0.0000000000000011
 40
0.0000394822735147
 40
0.0000394822735147
 40
0.0000394822735147
 40
0.0000394822735147
 10
0.1357646310522099
 20
1.867084405360397
 30
0.0
 10
0.1358346448239151
 20
1.853933860713773
 30
0.0
 10
0.1357976128713277
 20
1.840723982572329
 30
0.0
 10
0.1356262177963227
 20
1.827614241035139
 30
0.0
  0
SPLINE
  5
E3
330
1F
100
AcDbEntity
  8
0
  6
Continuous
 62
     7
370
    25
100
AcDbSpline
210
0.0
220
0.0
230
1.0
 70
     8
 71
     3
 72
    14
 73
    10
 74
     0
 42
0.00000001
 43
0.00000001
 40
0.0
 40
0.0
 40
0.0
 40
0.0
 40
0.060911484050651
 40
0.1362558719053051
 40
0.2120375969860239
 40
0.2815782185519742
 40
0.4053951805036466
 40
0.7584193516777785
 40
1.0
 40
1.0
 40
1.0
 40
1.0
 10
0.0283120951348496
 20
-1.533785454991903
 30
0.0
 10
0.0282505219338028
 20
-1.534413415277853
 30
0.0
 10
0.028112785834849
 20
-1.535818130293711
 30
0.0
 10
0.0280518910782306
 20
-1.539161991833959
 30
0.0
 10
0.0281681839427672
 20
-1.54311145712729
 30
0.0
 10
0.0285496600705562
 20
-1.548022690670989
 30
0.0
 10
0.0297602310639304
 20
-1.557086256265041
 30
0.0
 10
0.0319770684771011
 20
-1.566458188479864
 30
0.0
 10
0.034312838195723
 20
-1.573186412373308
 30
0.0
 10
0.035261832795925
 20
-1.575920007253371
 30
0.0
  0
SPLINE
  5
E6
330
1F
100
AcDbEntity
  8
0
  6
Continuous
 62
     7
370
    25
100
AcDbSpline
210
0.0
220
0.0
230
1.0
 70
     8
 71
     3
 72
    14
 73
    10
 74
     0
 42
0.00000001
 43
0.00000001
 40
0.0000000000000001
 40
0.0000000000000001
 40
0.0000000000000001
 40
0.0000000000000001
 40
0.0000268712644089
 40
0.0000268712644089
 40
0.0000268712644089
 40
0.0000538318432204
 40
0.0000538318432204
 40
0.0000538318432204
 40
0.0000774436584486
 40
0.0000774436584486
 40
0.0000774436584486
 40
0.0000774436584486
 10
-1.190674394136764
 20
1.697594253648885
 30
0.0
 10
-1.183013367771221
 20
1.699361203405069
 30
0.0
 10
-1.174510480791737
 20
1.701170669256351
 30
0.0
 10
-1.165809556284856
 20
1.702669961241352
 30
0.0
 10
-1.157092598101453
 20
1.704172016054911
 30
0.0
 10
-1.147913830461755
 20
1.705412808588429
 30
0.0
 10
-1.139113064966764
 20
1.706136982115046
 30
0.0
 10
-1.131387021403914
 20
1.70677272183756
 30
0.0
 10
-1.12374128925399
 20
1.707025236614457
 30
0.0
 10
-1.116841379414711
 20
1.706805739669202
 30
0.0
  0
LWPOLYLINE
  5
E7
330
1F
100
AcDbEntity
  8
0
  6
Continuous
 62
     7
370
    25
100
AcDbPolyline
 90
       14
 70
   128
 43
0.0
 10
0.111578735
 20
1.6838173428
 10
0.111012757
 20
1.6880393998
 10
0.1059668331
 20
1.6944867321
 10
0.0963596657
 20
1.7015032561
 10
0.0828459672
 20
1.7086108072
 10
0.066346674
 20
1.7153250176
 10
0.0479861856
 20
1.7211883249
 10
0.0290157389
 20
1.7258011544
 10
0.0107281386
 20
1.7288491494
 10
-0.0056303457
 20
1.7301245941
 10
-0.0189449102
 20
1.729540569
 10
-0.0283081894
 20
1.7271368745
 10
-0.0330820913
 20
1.7230773184
 10
-0.0335008203
 20
1.7218895056
  0
SPLINE
  5
E8
330
1F
100
AcDbEntity
  8
0
  6
Continuous
 62
     7
370
    25
100
AcDbSpline
210
0.0
220
0.0
230
1.0
 70
     8
 71
     3
 72
     8
 73
     4
 74
     0
 42
0.00000001
 43
0.00000001
 40
0.0
 40
0.0
 40
0.0
 40
0.0
 40
1.0
 40
1.0
 40
1.0
 40
1.0
 10
0.035261832795925
 20
-1.575920007253371
 30
0.0
 10
0.0420299714890865
 20
-1.594130539048769
 30
0.0
 10
0.0502492693558564
 20
-1.612152240254134
 30
0.0
 10
0.0557695961484775
 20
-1.638054159291566
 30
0.0
  0
SPLINE
  5
E9
330
1F
100
AcDbEntity
  8
0
  6
Continuous
 62
     7
370
    25
100
AcDbSpline
210
0.0
220
0.0
230
1.0
 70
     8
 71
     3
 72
     8
 73
     4
 74
     0
 42
0.00000001
 43
0.00000001
 40
0.0
 40
0.0
 40
0.0
 40
0.0
 40
0.0000166826455207
 40
0.0000166826455207
 40
0.0000166826455207
 40
0.0000166826455207
 10
0.0557695961484776
 20
-1.638054159291566
 30
0.0
 10
0.0567761191649066
 20
-1.642776864787136
 30
0.0
 10
0.0578240352830868
 20
-1.647500250309461
 30
0.0
 10
0.0589053891220099
 20
-1.65221879695773
 30
0.0
  0
SPLINE
  5
EA
330
1F
100
AcDbEntity
  8
0
  6
Continuous
 62
     7
370
    25
100
AcDbSpline
210
0.0
220
0.0
230
1.0
 70
     8
 71
     3
 72
     8
 73
     4
 74
     0
 42
0.00000001
 43
0.00000001
 40
0.0
 40
0.0
 40
0.0
 40
0.0
 40
0.0000342939834863
 40
0.0000342939834863
 40
0.0000342939834863
 40
0.0000342939834863
 10
0.0589053891220102
 20
-1.652218796957731
 30
0.0
 10
0.0611282937955404
 20
-1.661918563138939
 30
0.0
 10
0.0628186036847281
 20
-1.672752680387781
 30
0.0
 10
0.0638050742946302
 20
-1.683904378155184
 30
0.0
  0
LWPOLYLINE
  5
EC
330
1F
100
AcDbEntity
  8
0
  6
Continuous
 62
     7
370
    25
100
AcDbPolyline
 90
       15
 70
   128
 43
0.0
 10
1.3006655012
 20
1.7287346259
 10
1.3006615378
 20
1.728952788
 10
1.2981015326
 20
1.7347272412
 10
1.2909692827
 20
1.7407474105
 10
1.2797194403
 20
1.7466295342
 10
1.2650691381
 20
1.7519986505
 10
1.2479522741
 20
1.7565124996
 10
1.2294599801
 20
1.7598833418
 10
1.2107710657
 20
1.7618962993
 10
1.1930768747
 20
1.7624230541
 10
1.1775053409
 20
1.7614300278
 10
1.1650490874
 20
1.7589805217
 10
1.1565021505
 20
1.7552306821
 10
1.1524093632
 20
1.7504195462
 10
1.1520871111
 20
1.7482967197
  0
SPLINE
  5
F1
330
1F
100
AcDbEntity
  8
0
  6
Continuous
 62
     7
370
    25
100
AcDbSpline
210
0.0
220
0.0
230
1.0
 70
     8
 71
     3
 72
     8
 73
     4
 74
     0
 42
0.00000001
 43
0.00000001
 40
0.0000000000000002
 40
0.0000000000000002
 40
0.0000000000000002
 40
0.0000000000000002
 40
0.0000216789919617
 40
0.0000216789919617
 40
0.0000216789919617
 40
0.0000216789919617
 10
0.0638050742946579
 20
-1.68390437815542
 30
0.0
 10
0.0643975350253092
 20
-1.690951722010788
 30
0.0
 10
0.0646725372941252
 20
-1.698216433666878
 30
0.0
 10
0.0645136461365979
 20
-1.705440063750623
 30
0.0
  0
SPLINE
  5
F2
330
1F
100
AcDbEntity
  8
0
  6
Continuous
 62
     7
370
    25
100
AcDbSpline
210
0.0
220
0.0
230
1.0
 70
     8
 71
     3
 72
     8
 73
     4
 74
     0
 42
0.00000001
 43
0.00000001
 40
0.0
 40
0.0
 40
0.0
 40
0.0
 40
0.0000111934149212
 40
0.0000111934149212
 40
0.0000111934149212
 40
0.0000111934149212
 10
0.0645136461366093
 20
-1.705440063750639
 30
0.0
 10
0.0644316029763452
 20
-1.709169972008966
 30
0.0
 10
0.0643303685683505
 20
-1.7128992987204
 30
0.0
 10
0.0642104692630722
 20
-1.716627600261426
 30
0.0
  0
SPLINE
  5
F3
330
1F
100
AcDbEntity
  8
0
  6
Continuous
 62
     7
370
    25
100
AcDbSpline
210
0.0
220
0.0
230
1.0
 70
     8
 71
     3
 72
    16
 73
    12
 74
     0
 42
0.00000001
 43
0.00000001
 40
0.0
 40
0.0
 40
0.0
 40
0.0
 40
0.0287445301811439
 40
0.1628019553212554
 40
0.2963739343591354
 40
0.4283804202675695
 40
0.5584607547484721
 40
0.6871235122681374
 40
0.8154759752394328
 40
0.944727706114277
 40
1.0
 40
1.0
 40
1.0
 40
1.0
 10
-0.073598654603932
 20
-1.71958064753459
 30
0.0
 10
-0.0737546546775947
 20
-1.719844090696888
 30
0.0
 10
-0.0746382007596666
 20
-1.721336168030131
 30
0.0
 10
-0.067743752920651
 20
-1.723524140090879
 30
0.0
 10
-0.0532381200761727
 20
-1.725643449726105
 30
0.0
 10
-0.0319572477526527
 20
-1.726487881543783
 30
0.0
 10
-0.0074416171739067
 20
-1.726033180206312
 30
0.0
 10
0.0177520134459075
 20
-1.724353076766673
 30
0.0
 10
0.0407686377013873
 20
-1.721655438407931
 30
0.0
 10
0.0559928860203566
 20
-1.718891412673611
 30
0.0
 10
0.062316342286537
 20
-1.71714940187062
 30
0.0
 10
0.0642104692630722
 20
-1.716627600261426
 30
0.0
  0
LWPOLYLINE
  5
F4
330
1F
100
AcDbEntity
  8
0
  6
Continuous
 62
     7
370
    25
100
AcDbPolyline
 90
       13
 70
   128
 43
0.0
 10
-1.0807357514
 20
1.8767328848
 10
-1.0836423051
 20
1.8822498852
 10
-1.0914224822
 20
1.887967827
 10
-1.1035460766
 20
1.8934970419
 10
-1.1191868851
 20
1.898460723
 10
-1.1372790127
 20
1.9025206037
 10
-1.1565895107
 20
1.9054000097
 10
-1.1758024006
 20
1.9069027144
 10
-1.1936083557
 20
1.9069263109
 10
-1.2087939295
 20
1.9054691912
 10
-1.2203242504
 20
1.9026306554
 10
-1.227413546
 20
1.8986041453
 10
-1.2295921202
 20
1.8939894125
  0
SPLINE
  5
F5
330
1F
100
AcDbEntity
  8
0
  6
Continuous
 62
     7
370
    25
100
AcDbSpline
210
0.0
220
0.0
230
1.0
 70
     8
 71
     3
 72
    10
 73
     6
 74
     0
 42
0.00000001
 43
0.00000001
 40
0.0
 40
0.0
 40
0.0
 40
0.0
 40
0.0653938237027278
 40
0.8616490099664749
 40
0.9999999999999999
 40
0.9999999999999999
 40
0.9999999999999999
 40
0.9999999999999999
 10
-1.225173837797285
 20
1.680220014295333
 30
0.0
 10
-1.22540059104365
 20
1.679981534616032
 30
0.0
 10
-1.228388361129174
 20
1.676839253465735
 30
0.0
 10
-1.231311866325334
 20
1.672959969641976
 30
0.0
 10
-1.228989420452875
 20
1.670062527983938
 30
0.0
 10
-1.228645625714617
 20
1.669633615858039
 30
0.0
  0
SPLINE
  5
F6
330
1F
100
AcDbEntity
  8
0
  6
Continuous
 62
     7
370
    25
100
AcDbSpline
210
0.0
220
0.0
230
1.0
 70
     8
 71
     3
 72
    11
 73
     7
 74
     0
 42
0.00000001
 43
0.00000001
 40
0.0
 40
0.0
 40
0.0
 40
0.0
 40
0.3240958576144947
 40
0.648046367568473
 40
0.9968164988364342
 40
1.0
 40
1.0
 40
1.0
 40
1.0
 10
-1.116841379414711
 20
1.706805739669202
 30
0.0
 10
-1.11045220149456
 20
1.706159373129955
 30
0.0
 10
-1.097676711016594
 20
1.704866929928243
 30
0.0
 10
-1.085783007423611
 20
1.699757672837537
 30
0.0
 10
-1.080189065405654
 20
1.69544719546487
 30
0.0
 10
-1.080924066281621
 20
1.69278943889991
 30
0.0
 10
-1.080930714532778
 20
1.692765398883449
 30
0.0
  0
SPLINE
  5
F7
330
1F
100
AcDbEntity
  8
0
  6
Continuous
 62
     7
370
    25
100
AcDbSpline
210
0.0
220
0.0
230
1.0
 70
     8
 71
     3
 72
    14
 73
    10
 74
     0
 42
0.00000001
 43
0.00000001
 40
0.0000000000000435
 40
0.0000000000000435
 40
0.0000000000000435
 40
0.0000000000000435
 40
0.0000280670261915
 40
0.0000280670261915
 40
0.0000280670261915
 40
0.0000543176800793
 40
0.0000543176800793
 40
0.0000543176800793
 40
0.0000564836970528
 40
0.0000564836970528
 40
0.0000564836970528
 40
0.0000564836970528
 10
-1.190674394100841
 20
1.697594253675746
 30
0.0
 10
-1.198561908638589
 20
1.695187014553126
 30
0.0
 10
-1.205693305796423
 20
1.692406205406132
 30
0.0
 10
-1.211503863243319
 20
1.689489842819817
 30
0.0
 10
-1.216948214948072
 20
1.686757281656177
 30
0.0
 10
-1.22137646340083
 20
1.683835962782451
 30
0.0
 10
-1.224442718488505
 20
1.68093660703471
 30
0.0
 10
-1.224695267320252
 20
1.680697804689186
 30
0.0
 10
-1.224939026514066
 20
1.680458899209655
 30
0.0
 10
-1.225173837797285
 20
1.680220014295333
 30
0.0
  0
LWPOLYLINE
  5
F8
330
1F
100
AcDbEntity
  8
0
  6
Continuous
 62
     7
370
    25
100
AcDbPolyline
 90
       20
 70
   128
 43
0.0
 10
0.0642104693
 20
-1.8723837911
 10
0.0527275754
 20
-1.8700604528
 10
0.0378657884
 20
-1.8674878298
 10
0.0205774825
 20
-1.864830781
 10
0.0019705286
 20
-1.8622595756
 10
-0.0167627009
 20
-1.8599389819
 10
-0.0344217415
 20
-1.8580177084
 10
-0.049874965
 20
-1.8566188743
 10
-0.0621320966
 20
-1.8558321199
 10
-0.0704076736
 20
-1.8557078618
 10
-0.0741713799
 20
-1.856254063
 10
-0.0731820292
 20
-1.8574357216
 10
-0.0675030212
 20
-1.8591771146
 10
-0.0574982787
 20
-1.8613666498
 10
-0.0438089263
 20
-1.8638640172
 10
-0.0273122064
 20
-1.8665091804
 10
-0.0090652633
 20
-1.8691326316
 10
0.0097626008
 20
-1.8715662548
 10
0.0279648571
 20
-1.8736540982
 10
0.0340765327
 20
-1.8742883479
  0
LWPOLYLINE
  5
FD
330
1F
100
AcDbEntity
  8
0
  6
Continuous
 62
     7
370
    25
100
AcDbPolyline
 90
       24
 70
   128
 43
0.0
 10
0.2046258224
 20
1.9990604973
 10
0.2223278227
 20
1.9948823619
 10
0.2379417254
 20
1.9911377274
 10
0.2504471513
 20
1.9880713084
 10
0.2590268625
 20
1.9858834973
 10
0.2631201689
 20
1.9847172691
 10
0.2624595702
 20
1.9846488375
 10
0.2570882371
 20
1.9856826747
 10
0.2473571897
 20
1.9877512187
 10
0.2339023585
 20
1.9907192887
 10
0.2176030261
 20
1.9943929193
 10
0.1995243646
 20
1.9985320363
 10
0.180847827
 20
2.0028661456
 10
0.1627939376
 20
2.0071120102
 10
0.1465425303
 20
2.01099216
 10
0.1331556455
 20
2.0142530245
 10
0.1235081254
 20
2.0166815041
 10
0.1182304418
 20
2.018118896
 10
0.117667495
 20
2.0184712656
 10
0.1218560739
 20
2.0177155853
 10
0.130522452
 20
2.0159012394
 10
0.1431002757
 20
2.0131467966
 10
0.1587675756
 20
2.0096322616
 10
0.1765004832
 20
2.0055873116
  0
LWPOLYLINE
  5
FF
330
1F
100
AcDbEntity
  8
0
  6
Continuous
 62
     7
370
    25
100
AcDbPolyline
 90
       15
 70
   128
 43
0.0
 10
1.3006646114
 20
1.9196775741
 10
1.3006601564
 20
1.9200454796
 10
1.2980711005
 20
1.9258204979
 10
1.2909152223
 20
1.9318386927
 10
1.2796483328
 20
1.9377167205
 10
1.2649881038
 20
1.9430801661
 10
1.2478683543
 20
1.9475873917
 10
1.2293795682
 20
1.9509512987
 10
1.2106994338
 20
1.9529576149
 10
1.1930178274
 20
1.953478543
 10
1.1774610219
 20
1.9524809013
 10
1.165019946
 20
1.9500282371
 10
1.156487064
 20
1.9462767786
 10
1.1524058987
 20
1.9414654842
 10
1.152086457
 20
1.939387191
  0
LWPOLYLINE
  5
127
330
1F
100
AcDbEntity
  8
0
  6
Continuous
 62
     7
370
    25
100
AcDbPolyline
 90
        3
 70
   128
 43
0.0
 10
-1.4300194125
 20
0.4058120842
 10
-1.4151224238
 20
0.4045677289
 10
-1.4
 20
0.4031506273
  0
LWPOLYLINE
  5
128
330
1F
100
AcDbEntity
  8
0
  6
Continuous
 62
     7
370
    25
100
AcDbPolyline
 90
        3
 70
   128
 43
0.0
 10
1.4
 20
-0.3972119777
 10
1.4172840045
 20
-0.3953399366
 10
1.4305534689
 20
-0.3940304503
  0
LWPOLYLINE
  5
129
330
1F
100
AcDbEntity
  8
0
  6
Continuous
 62
     7
370
    25
100
AcDbPolyline
 90
        3
 70
   128
 43
0.0
 10
1.4
 20
0.4027880223
 10
1.4134058486
 20
0.4042558568
 10
1.429963139
 20
0.4059138538
  0
LWPOLYLINE
  5
12A
330
1F
100
AcDbEntity
  8
0
  6
Continuous
 62
     7
370
    25
100
AcDbPolyline
 90
        7
 70
   128
 43
0.0
 10
-1.4
 20
-1.4058073514
 10
-1.4113833614
 20
-1.3931842723
 10
-1.4209822682
 20
-1.3786410961
 10
-1.4267407474
 20
-1.3645155579
 10
-1.428266368
 20
-1.3517702899
 10
-1.4254551615
 20
-1.3412738609
 10
-1.4235064867
 20
-1.3383112794
  0
LWPOLYLINE
  5
134
330
1F
100
AcDbEntity
  8
0
  6
Continuous
 62
     7
370
    25
100
AcDbPolyline
 90
        3
 70
   128
 43
0.0
 10
0.1266606802
 20
-1.5
 10
0.1223548906
 20
-1.5005025076
 10
0.1040622691
 20
-1.5
  0
LWPOLYLINE
  5
136
330
1F
100
AcDbEntity
  8
0
  6
Continuous
 62
     7
370
    25
100
AcDbPolyline
 90
        3
 70
   128
 43
0.0
 10
1.3408300277
 20
-1.5306099627
 10
1.3402500974
 20
-1.5396852187
 10
1.3353050078
 20
-1.5581541382
  0
LWPOLYLINE
  5
13B
330
1F
100
AcDbEntity
  8
0
  6
Continuous
 62
     7
370
    25
100
AcDbPolyline
 90
       11
 70
   128
 43
0.0
 10
0.1802029628
 20
-1.5970047322
 10
0.1802361672
 20
-1.6001170468
 10
0.177347458
 20
-1.6114007038
 10
0.16991787
 20
-1.62210265
 10
0.1584161946
 20
-1.631547615
 10
0.1435681633
 20
-1.6391396415
 10
0.1263106556
 20
-1.6443996885
 10
0.1077325838
 20
-1.6469958581
 10
0.0890061853
 20
-1.6467643376
 10
0.0713130564
 20
-1.6437197353
 10
0.0557695961
 20
-1.6380541593
  0
LWPOLYLINE
  5
13C
330
1F
100
AcDbEntity
  8
0
  6
Continuous
 62
     7
370
    25
100
AcDbPolyline
 90
       10
 70
   128
 43
0.0
 10
0.181113749
 20
-1.6101112879
 10
0.1803243523
 20
-1.6187812667
 10
0.1748438168
 20
-1.6303473763
 10
0.164645366
 20
-1.6408785768
 10
0.1504309063
 20
-1.6496500603
 10
0.1331787451
 20
-1.6560581312
 10
0.1140762589
 20
-1.6596617553
 10
0.0944381726
 20
-1.6602129138
 10
0.0756160736
 20
-1.6576736735
 10
0.0589053891
 20
-1.652218797
  0
LINE
  5
13E
330
1F
100
AcDbEntity
  8
0
  6
Continuous
 62
     7
370
    25
100
AcDbLine
 10
-1.5799833794
 20
0.4015314793
 30
0.0
 11
-1.5800207414
 21
0.3432323432
 31
0.0
  0
LINE
  5
13F
330
1F
100
AcDbEntity
  8
0
  6
Continuous
 62
     7
370
    25
100
AcDbLine
 10
-1.4
 20
-1.3085206486
 30
0.0
 11
-1.5418107565
 21
-1.4882426101
 31
0.0
  0
LINE
  5
140
330
1F
100
AcDbEntity
  8
0
  6
Continuous
 62
     7
370
    25
100
AcDbLine
 10
-1.424054445
 20
-1.5811589764
 30
0.0
 11
-1.3600154387
 21
-1.5
 31
0.0
  0
LINE
  5
141
330
1F
100
AcDbEntity
  8
0
  6
Continuous
 62
     7
370
    25
100
AcDbLine
 10
0.0822096304
 20
1.5
 30
0.0
 11
0.0827943236
 21
1.508865276
 31
0.0
  0
LINE
  5
142
330
1F
100
AcDbEntity
  8
0
  6
Continuous
 62
     7
370
    25
100
AcDbLine
 10
1.3408300277
 20
-1.9553665657
 30
0.0
 11
1.3408300277
 21
-1.5
 31
0.0
  0
LINE
  5
143
330
1F
100
AcDbEntity
  8
0
  6
Continuous
 62
     7
370
    25
100
AcDbLine
 10
1.1908300277
 20
-1.5
 30
0.0
 11
1.1908300277
 21
-1.9553665657
 31
0.0
  0
LINE
  5
144
330
1F
100
AcDbEntity
  8
0
  6
Continuous
 62
     7
370
    25
100
AcDbLine
 10
0.2821034975
 20
1.5624070582
 30
0.0
 11
0.2682604067
 21
1.5896167435
 31
0.0
  0
LINE
  5
145
330
1F
100
AcDbEntity
  8
0
  6
Continuous
 62
     7
370
    25
100
AcDbLine
 10
0.1377171451
 20
1.5228237323
 30
0.0
 11
0.149328856
 21
1.5
 31
0.0
  0
LINE
  5
146
330
1F
100
AcDbEntity
  8
0
  6
Continuous
 62
     7
370
    25
100
AcDbLine
 10
1.3006645517
 20
1.5
 30
0.0
 11
1.3006645517
 21
1.5452805745
 31
0.0
  0
LINE
  5
147
330
1F
100
AcDbEntity
  8
0
  6
Continuous
 62
     7
370
    25
100
AcDbLine
 10
1.1520865425
 20
1.5434291715
 30
0.0
 11
1.1520865425
 21
1.5
 31
0.0
  0
LINE
  5
148
330
1F
100
AcDbEntity
  8
0
  6
Continuous
 62
     7
370
    25
100
AcDbLine
 10
0.1789050381
 20
-1.5317427315
 30
0.0
 11
0.1823362945
 21
-1.5
 31
0.0
  0
LINE
  5
149
330
1F
100
AcDbEntity
  8
0
  6
Continuous
 62
     7
370
    25
100
AcDbLine
 10
0.0314624868
 20
-1.5
 30
0.0
 11
0.0297631114
 21
-1.5157210095
 31
0.0
  0
LINE
  5
14A
330
1F
100
AcDbEntity
  8
0
  6
Continuous
 62
     7
370
    25
100
AcDbLine
 10
-0.1537452653
 20
-1.601358613
 30
0.0
 11
-0.0713259029
 21
-1.6092497205
 31
0.0
  0
LINE
  5
14B
330
1F
100
AcDbEntity
  8
0
  6
Continuous
 62
     7
370
    25
100
AcDbLine
 10
-1.0354293508
 20
1.5832255151
 30
0.0
 11
-1.0615137768
 21
1.5993459997
 31
0.0
  0
LINE
  5
14C
330
1F
100
AcDbEntity
  8
0
  6
Continuous
 62
     7
370
    25
100
AcDbLine
 10
0.082795724
 20
1.5093279578
 30
0.0
 11
0.082795724
 21
1.5467933074
 31
0.0
  0
LINE
  5
14D
330
1F
100
AcDbEntity
  8
0
  6
Continuous
 62
     7
370
    25
100
AcDbLine
 10
-0.0671934199
 20
1.5469316053
 30
0.0
 11
-0.0671934199
 21
1.5094662557
 31
0.0
  0
LINE
  5
14E
330
1F
100
AcDbEntity
  8
0
  6
Continuous
 62
     7
370
    25
100
AcDbLine
 10
0.1774736629
 20
-1.549714775
 30
0.0
 11
0.1790076454
 21
-1.5307935056
 31
0.0
  0
LINE
  5
14F
330
1F
100
AcDbEntity
  8
0
  6
Continuous
 62
     7
370
    25
100
AcDbLine
 10
0.0295833534
 20
-1.5176218687
 30
0.0
 11
0.0282731973
 21
-1.5337822978
 31
0.0
  0
LINE
  5
150
330
1F
100
AcDbEntity
  8
0
  6
Continuous
 62
     7
370
    25
100
AcDbLine
 10
-1.4079326007
 20
-1.8742843836
 30
0.0
 11
-1.4079326007
 21
-1.5607271731
 31
0.0
  0
LINE
  5
151
330
1F
100
AcDbEntity
  8
0
  6
Continuous
 62
     7
370
    25
100
AcDbLine
 10
-1.5579326007
 20
-1.5347007932
 30
0.0
 11
-1.5579326007
 21
-1.8742843836
 31
0.0
  0
LINE
  5
152
330
1F
100
AcDbEntity
  8
0
  6
Continuous
 62
     7
370
    25
100
AcDbLine
 10
0.1115743848
 20
1.6837977421
 30
0.0
 11
0.1215288773
 21
1.7262314984
 31
0.0
  0
LINE
  5
153
330
1F
100
AcDbEntity
  8
0
  6
Continuous
 62
     7
370
    25
100
AcDbLine
 10
-0.0178360586
 20
1.7886644649
 30
0.0
 11
-0.0335029101
 21
1.7218802104
 31
0.0
  0
LINE
  5
154
330
1F
100
AcDbEntity
  8
0
  6
Continuous
 62
     7
370
    25
100
AcDbLine
 10
-0.0135000883
 20
1.8306416187
 30
0.0
 11
-0.0178455792
 21
1.7886211048
 31
0.0
  0
LINE
  5
155
330
1F
100
AcDbEntity
  8
0
  6
Continuous
 62
     7
370
    25
100
AcDbLine
 10
-0.0134861161
 20
1.9546043172
 30
0.0
 11
-0.0134861161
 21
1.830547617
 31
0.0
  0
LINE
  5
156
330
1F
100
AcDbEntity
  8
0
  6
Continuous
 62
     7
370
    25
100
AcDbLine
 10
-0.0795122473
 20
-1.6758491434
 30
0.0
 11
-0.0743214809
 21
-1.7196512063
 31
0.0
  0
LINE
  5
157
330
1F
100
AcDbEntity
  8
0
  6
Continuous
 62
     7
370
    25
100
AcDbLine
 10
-1.0807221261
 20
1.692139177
 30
0.0
 11
-1.0807221261
 21
1.8763867923
 31
0.0
  0
LINE
  5
158
330
1F
100
AcDbEntity
  8
0
  6
Continuous
 62
     7
370
    25
100
AcDbLine
 10
-1.2295923177
 20
1.8940101532
 30
0.0
 11
-1.2295923177
 21
1.6697146833
 31
0.0
  0
LINE
  5
159
330
1F
100
AcDbEntity
  8
0
  6
Continuous
 62
     7
370
    25
100
AcDbLine
 10
-0.0743633541
 20
-1.719387667
 30
0.0
 11
-0.0743633541
 21
-1.8564594476
 31
0.0
  0
LINE
  5
15A
330
1F
100
AcDbEntity
  8
0
  6
Continuous
 62
     7
370
    25
100
AcDbLine
 10
0.181113749
 20
-1.6101112879
 30
0.0
 11
0.1802014133
 21
-1.5969822988
 31
0.0
  0
LINE
  5
15B
330
1F
100
AcDbEntity
  8
0
  6
Continuous
 62
     7
370
    25
100
AcDbLine
 10
0.1173180402
 20
2.0184725125
 30
0.0
 11
0.1173180402
 21
1.9550093017
 31
0.0
  0
LINE
  5
15C
330
1F
100
AcDbEntity
  8
0
  6
Continuous
 62
     7
370
    25
100
AcDbLine
 10
0.2634344342
 20
1.8380366773
 30
0.0
 11
0.2634344342
 21
1.9845630453
 31
0.0
  0
LINE
  5
15D
330
1F
100
AcDbEntity
  8
0
  6
Continuous
 62
     7
370
    25
100
AcDbLine
 10
-1.2292762519
 20
1.6694094482
 30
0.0
 11
-1.2200788101
 21
1.6360288091
 31
0.0
  0
LINE
  5
15E
330
1F
100
AcDbEntity
  8
0
  6
Continuous
 62
     7
370
    25
100
AcDbLine
 10
-1.0735523512
 20
1.6661176295
 30
0.0
 11
-1.080896229
 21
1.6927710552
 31
0.0
  0
LINE
  5
15F
330
1F
100
AcDbEntity
  8
0
  6
Continuous
 62
     7
370
    25
100
AcDbLine
 10
1.1520863527
 20
1.9393937206
 30
0.0
 11
1.1520863527
 21
1.7483373945
 31
0.0
  0
LINE
  5
160
330
1F
100
AcDbEntity
  8
0
  6
Continuous
 62
     7
370
    25
100
AcDbLine
 10
1.3006652145
 20
1.7287885053
 30
0.0
 11
1.3006652145
 21
1.9198448315
 31
0.0
  0
LINE
  5
161
330
1F
100
AcDbEntity
  8
0
  6
Continuous
 62
     7
370
    25
100
AcDbLine
 10
0.1840765327
 20
-1.8976946196
 30
0.0
 11
0.1840765327
 21
-1.7054400638
 31
0.0
  0
LINE
  5
162
330
1F
100
AcDbEntity
  8
0
  6
Continuous
 62
     7
370
    25
100
AcDbLine
 10
0.0340765327
 20
-1.8718134373
 30
0.0
 11
0.0340765327
 21
-1.8976946196
 31
0.0
  0
LINE
  5
175
330
1F
100
AcDbEntity
  8
0
  6
Continuous
 62
     7
370
    25
100
AcDbLine
 10
1.4
 20
1.5
 30
0.0
 11
-1.4
 21
1.5
 31
0.0
  0
LINE
  5
176
330
1F
100
AcDbEntity
  8
0
  6
Continuous
 62
     7
370
    25
100
AcDbLine
 10
1.4
 20
-1.5
 30
0.0
 11
1.4
 21
1.5
 31
0.0
  0
LINE
  5
177
330
1F
100
AcDbEntity
  8
0
  6
Continuous
 62
     7
370
    25
100
AcDbLine
 10
-1.4
 20
-1.5
 30
0.0
 11
1.4
 21
-1.5
 31
0.0
  0
LINE
  5
178
330
1F
100
AcDbEntity
  8
0
  6
Continuous
 62
     7
370
    25
100
AcDbLine
 10
-1.4
 20
1.5
 30
0.0
 11
-1.4
 21
-1.5
 31
0.0
  0
LINE
  5
179
330
1F
100
AcDbEntity
  8
0
  6
Continuous
 62
     7
370
    25
100
AcDbLine
 10
-1.605
 20
-0.4
 30
0.0
 11
-1.605
 21
0.4
 31
0.0
  0
LINE
  5
17A
330
1F
100
AcDbEntity
  8
0
  6
Continuous
 62
     7
370
    25
100
AcDbLine
 10
1.605
 20
0.4
 30
0.0
 11
1.605
 21
-0.4
 31
0.0
  0
LINE
  5
17B
330
1F
100
AcDbEntity
  8
0
  6
Continuous
 62
     7
370
    25
100
AcDbLine
 10
1.905
 20
-1.65
 30
0.0
 11
1.905
 21
1.65
 31
0.0
  0
LINE
  5
17C
330
1F
100
AcDbEntity
  8
0
  6
Continuous
 62
     7
370
    25
100
AcDbLine
 10
1.4
 20
-1.4
 30
0.0
 11
1.905
 21
-1.4
 31
0.0
  0
LINE
  5
17D
330
1F
100
AcDbEntity
  8
0
  6
Continuous
 62
     7
370
    25
100
AcDbLine
 10
-1.905
 20
-1.4
 30
0.0
 11
-1.4721823639
 21
-1.4
 31
0.0
  0
LINE
  5
17E
330
1F
100
AcDbEntity
  8
0
  6
Continuous
 62
     7
370
    25
100
AcDbLine
 10
-1.905
 20
1.65
 30
0.0
 11
-1.905
 21
-1.65
 31
0.0
  0
LINE
  5
17F
330
1F
100
AcDbEntity
  8
0
  6
Continuous
 62
     7
370
    25
100
AcDbLine
 10
-1.4
 20
1.4
 30
0.0
 11
-1.905
 21
1.4
 31
0.0
  0
LINE
  5
180
330
1F
100
AcDbEntity
  8
0
  6
Continuous
 62
     7
370
    25
100
AcDbLine
 10
1.905
 20
1.4
 30
0.0
 11
1.4
 21
1.4
 31
0.0
  0
LINE
  5
181
330
1F
100
AcDbEntity
  8
0
  6
Continuous
 62
     7
370
    25
100
AcDbLine
 10
0.1357646311
 20
1.8670844054
 30
0.0
 11
0.135764631
 21
1.9515917534
 31
0.0
  0
LINE
  5
182
330
1F
100
AcDbEntity
  8
0
  6
Continuous
 62
     7
370
    25
100
AcDbLine
 10
0.0642104693
 20
-1.7166276003
 30
0.0
 11
0.0642104693
 21
-1.8723837911
 31
0.0
  0
LINE
  5
183
330
1F
100
AcDbEntity
  8
0
  6
Continuous
 62
     7
370
    25
100
AcDbLine
 10
1.3408300277
 20
-1.9553665657
 30
0.0
 11
1.1908300277
 21
-1.9553665657
 31
0.0
  0
LINE
  5
184
330
1F
100
AcDbEntity
  8
0
  6
Continuous
 62
     7
370
    25
100
AcDbLine
 10
0.2046258224
 20
1.9990604973
 30
0.0
 11
0.1765004832
 21
2.0055873116
 31
0.0
  0
LINE
  5
185
330
1F
100
AcDbEntity
  8
0
  6
Continuous
 62
     7
370
    25
100
AcDbLine
 10
0.1840765327
 20
-1.8976946196
 30
0.0
 11
0.0340765327
 21
-1.8976946196
 31
0.0
  0
LINE
  5
186
330
1F
100
AcDbEntity
  8
0
  6
Continuous
 62
     7
370
    25
100
AcDbLine
 10
-1.4079326007
 20
-1.8742843836
 30
0.0
 11
-1.5579326007
 21
-1.8742843836
 31
0.0
  0
LINE
  5
187
330
1F
100
AcDbEntity
  8
0
  6
Continuous
 62
     7
370
    25
100
AcDbLine
 10
0.915
 20
2.03
 30
0.0
 11
1.625
 21
2.03
 31
0.0
  0
LINE
  5
188
330
1F
100
AcDbEntity
  8
0
  6
Continuous
 62
     7
370
    25
100
AcDbLine
 10
1.625
 20
2.03
 30
0.0
 11
1.625
 21
1.4
 31
0.0
  0
LINE
  5
189
330
1F
100
AcDbEntity
  8
0
  6
Continuous
 62
     7
370
    25
100
AcDbLine
 10
0.915
 20
1.5
 30
0.0
 11
0.915
 21
2.03
 31
0.0
  0
LINE
  5
18A
330
1F
100
AcDbEntity
  8
0
  6
Continuous
 62
     7
370
    25
100
AcDbLine
 10
-0.915
 20
-2.03
 30
0.0
 11
-1.625
 21
-2.03
 31
0.0
  0
LINE
  5
18B
330
1F
100
AcDbEntity
  8
0
  6
Continuous
 62
     7
370
    25
100
AcDbLine
 10
-1.625
 20
-2.03
 30
0.0
 11
-1.625
 21
-1.4
 31
0.0
  0
LINE
  5
18C
330
1F
100
AcDbEntity
  8
0
  6
Continuous
 62
     7
370
    25
100
AcDbLine
 10
-0.915
 20
-1.5
 30
0.0
 11
-0.915
 21
-2.03
 31
0.0
  0
LINE
  5
18D
330
1F
100
AcDbEntity
  8
0
  6
Continuous
 62
     7
370
    25
100
AcDbLine
 10
-1.625
 20
2.03
 30
0.0
 11
-0.915
 21
2.03
 31
0.0
  0
LINE
  5
18E
330
1F
100
AcDbEntity
  8
0
  6
Continuous
 62
     7
370
    25
100
AcDbLine
 10
-1.625
 20
1.4
 30
0.0
 11
-1.625
 21
2.03
 31
0.0
  0
LINE
  5
18F
330
1F
100
AcDbEntity
  8
0
  6
Continuous
 62
     7
370
    25
100
AcDbLine
 10
-0.915
 20
2.03
 30
0.0
 11
-0.915
 21
1.5
 31
0.0
  0
LINE
  5
190
330
1F
100
AcDbEntity
  8
0
  6
Continuous
 62
     7
370
    25
100
AcDbLine
 10
0.355
 20
-2.03
 30
0.0
 11
-0.355
 21
-2.03
 31
0.0
  0
LINE
  5
191
330
1F
100
AcDbEntity
  8
0
  6
Continuous
 62
     7
370
    25
100
AcDbLine
 10
-0.355
 20
-2.03
 30
0.0
 11
-0.355
 21
-1.5
 31
0.0
  0
LINE
  5
192
330
1F
100
AcDbEntity
  8
0
  6
Continuous
 62
     7
370
    25
100
AcDbLine
 10
0.355
 20
-1.5
 30
0.0
 11
0.355
 21
-2.03
 31
0.0
  0
LINE
  5
193
330
1F
100
AcDbEntity
  8
0
  6
Continuous
 62
     7
370
    25
100
AcDbLine
 10
1.625
 20
-1.4
 30
0.0
 11
1.625
 21
-2.03
 31
0.0
  0
LINE
  5
194
330
1F
100
AcDbEntity
  8
0
  6
Continuous
 62
     7
370
    25
100
AcDbLine
 10
1.625
 20
-2.03
 30
0.0
 11
0.915
 21
-2.03
 31
0.0
  0
LINE
  5
195
330
1F
100
AcDbEntity
  8
0
  6
Continuous
 62
     7
370
    25
100
AcDbLine
 10
0.915
 20
-2.03
 30
0.0
 11
0.915
 21
-1.5
 31
0.0
  0
LINE
  5
196
330
1F
100
AcDbEntity
  8
0
  6
Continuous
 62
     7
370
    25
100
AcDbLine
 10
-0.355
 20
2.03
 30
0.0
 11
0.355
 21
2.03
 31
0.0
  0
LINE
  5
197
330
1F
100
AcDbEntity
  8
0
  6
Continuous
 62
     7
370
    25
100
AcDbLine
 10
-0.355
 20
1.5
 30
0.0
 11
-0.355
 21
2.03
 31
0.0
  0
LINE
  5
198
330
1F
100
AcDbEntity
  8
0
  6
Continuous
 62
     7
370
    25
100
AcDbLine
 10
0.355
 20
2.03
 30
0.0
 11
0.355
 21
1.5
 31
0.0
  0
LINE
  5
199
330
1F
100
AcDbEntity
  8
0
  6
Continuous
 62
     7
370
    25
100
AcDbLine
 10
-0.915
 20
-1.65
 30
0.0
 11
-0.355
 21
-1.65
 31
0.0
  0
LINE
  5
19A
330
1F
100
AcDbEntity
  8
0
  6
Continuous
 62
     7
370
    25
100
AcDbLine
 10
1.905
 20
1.65
 30
0.0
 11
1.625
 21
1.65
 31
0.0
  0
LINE
  5
19B
330
1F
100
AcDbEntity
  8
0
  6
Continuous
 62
     7
370
    25
100
AcDbLine
 10
-0.355
 20
1.65
 30
0.0
 11
-0.915
 21
1.65
 31
0.0
  0
LINE
  5
19C
330
1F
100
AcDbEntity
  8
0
  6
Continuous
 62
     7
370
    25
100
AcDbLine
 10
-1.625
 20
1.65
 30
0.0
 11
-1.905
 21
1.65
 31
0.0
  0
LINE
  5
19D
330
1F
100
AcDbEntity
  8
0
  6
Continuous
 62
     7
370
    25
100
AcDbLine
 10
1.625
 20
-1.65
 30
0.0
 11
1.905
 21
-1.65
 31
0.0
  0
LINE
  5
19E
330
1F
100
AcDbEntity
  8
0
  6
Continuous
 62
     7
370
    25
100
AcDbLine
 10
0.355
 20
-1.65
 30
0.0
 11
0.915
 21
-1.65
 31
0.0
  0
LINE
  5
19F
330
1F
100
AcDbEntity
  8
0
  6
Continuous
 62
     7
370
    25
100
AcDbLine
 10
-1.905
 20
-1.65
 30
0.0
 11
-1.625
 21
-1.65
 31
0.0
  0
LINE
  5
1A0
330
1F
100
AcDbEntity
  8
0
  6
Continuous
 62
     7
370
    25
100
AcDbLine
 10
0.915
 20
1.65
 30
0.0
 11
0.355
 21
1.65
 31
0.0
  0
LINE
  5
1A1
330
1F
100
AcDbEntity
  8
0
  6
Continuous
 62
     7
370
    25
100
AcDbLine
 10
-1.5796616159
 20
0.4
 30
0.0
 11
-1.605
 21
0.4
 31
0.0
  0
LINE
  5
1A2
330
1F
100
AcDbEntity
  8
0
  6
Continuous
 62
     7
370
    25
100
AcDbLine
 10
1.605
 20
0.4
 30
0.0
 11
1.5792568034
 21
0.4
 31
0.0
  0
LINE
  5
1A3
330
1F
100
AcDbEntity
  8
0
  6
Continuous
 62
     7
370
    25
100
AcDbLine
 10
1.605
 20
-0.4
 30
0.0
 11
1.5797555437
 21
-0.4
 31
0.0
  0
LINE
  5
1A4
330
1F
100
AcDbEntity
  8
0
  6
Continuous
 62
     7
370
    25
100
AcDbLine
 10
-1.5798930035
 20
-0.4
 30
0.0
 11
-1.605
 21
-0.4
 31
0.0
  0
LINE
  5
1A5
330
1F
100
AcDbEntity
  8
0
  6
Continuous
 62
     7
370
    25
100
AcDbLine
 10
1.3408300277
 20
-1.8306312213
 30
0.0
 11
1.1908300277
 21
-1.8306312213
 31
0.0
  0
LINE
  5
1A6
330
1F
100
AcDbEntity
  8
0
  6
Continuous
 62
     7
370
    25
100
AcDbLine
 10
-1.4079326007
 20
-1.7347007932
 30
0.0
 11
-1.5579326007
 21
-1.7347007932
 31
0.0
  0
LINE
  5
1A7
330
1F
100
AcDbEntity
  8
0
  6
Continuous
 62
     7
370
    25
100
AcDbLine
 10
0.1840765317
 20
-1.7054400638
 30
0.0
 11
0.0645136461
 21
-1.7054400638
 31
0.0
  0
ARC
  5
1A8
330
1F
100
AcDbEntity
  8
0
  6
Continuous
 62
     7
370
    25
100
AcDbCircle
 10
-0.2296251635
 20
-1.4257574864
 30
0.0
 40
0.0848759875935309
100
AcDbArc
 50
241.0115621548
 51
298.9884378452
  0
ARC
  5
1A9
330
1F
100
AcDbEntity
  8
0
  6
Continuous
 62
     7
370
    25
100
AcDbCircle
 10
0.2163949016
 20
1.5300969041
 30
0.0
 40
0.0733799650687882
100
AcDbArc
 50
20.4463504041
 51
204.2143532817
  0
ARC
  5
1AA
330
1F
100
AcDbEntity
  8
0
  6
Continuous
 62
     7
370
    25
100
AcDbCircle
 10
-1.4829326007
 20
-1.5347007932
 30
0.0
 40
0.0750000000000001
100
AcDbArc
 50
141.7245699644
 51
321.7245699644
  0
ARC
  5
1AB
330
1F
100
AcDbEntity
  8
0
  6
Continuous
 62
     7
370
    25
100
AcDbCircle
 10
1.2267912166
 20
1.4435361714
 30
0.0
 40
0.0738889963204009
100
AcDbArc
 50
49.8332972704
 51
130.1667027296
  0
ARC
  5
1AC
330
1F
100
AcDbEntity
  8
0
  6
Continuous
 62
     7
370
    25
100
AcDbCircle
 10
-1.0750514136
 20
1.519296678
 30
0.0
 40
0.0752115492235066
100
AcDbArc
 50
58.3780908354
 51
194.8663597089
  0
ARC
  5
1AD
330
1F
100
AcDbEntity
  8
0
  6
Continuous
 62
     7
370
    25
100
AcDbCircle
 10
-0.1467566804
 20
-1.52587422
 30
0.0
 40
0.0757356434376113
100
AcDbArc
 50
259.5866220319
 51
19.9767385469
  0
ARC
  5
1AE
330
1F
100
AcDbEntity
  8
0
  6
Continuous
 62
     7
370
    25
100
AcDbCircle
 10
0.0078019716
 20
1.5092243197
 30
0.0
 40
0.0749938825598924
100
AcDbArc
 50
0.1135451517
 51
180.2507558648
  0
ARC
  5
1AF
330
1F
100
AcDbEntity
  8
0
  6
Continuous
 62
     7
370
    25
100
AcDbCircle
 10
0.2024350008
 20
1.5573025493
 30
0.0
 40
0.0733300278488372
100
AcDbArc
 50
26.1194953995
 51
208.0880664724
  0
ARC
  5
1B0
330
1F
100
AcDbEntity
  8
0
  6
Continuous
 62
     7
370
    25
100
AcDbCircle
 10
1.2267006803
 20
1.5444332092
 30
0.0
 40
0.0746216492339819
100
AcDbArc
 50
48.439915154
 51
180.8397780821
  0
ARC
  5
1B1
330
1F
100
AcDbEntity
  8
0
  6
Continuous
 62
     7
370
    25
100
AcDbCircle
 10
1.2259981329
 20
1.5450028158
 30
0.0
 40
0.0746669760810281
100
AcDbArc
 50
0.1893105184
 51
47.7465441427
  0
ARC
  5
1B2
330
1F
100
AcDbEntity
  8
0
  6
Continuous
 62
     7
370
    25
100
AcDbCircle
 10
0.105341586
 20
-1.5228932285
 30
0.0
 40
0.0740938269435651
100
AcDbArc
 50
261.7779750872
 51
353.1404208962
  0
ARC
  5
1B3
330
1F
100
AcDbEntity
  8
0
  6
Continuous
 62
     7
370
    25
100
AcDbCircle
 10
0.1034249573
 20
-1.5227407076
 30
0.0
 40
0.0739955653844422
100
AcDbArc
 50
174.5563655905
 51
263.263848455
  0
ARC
  5
1B4
330
1F
100
AcDbEntity
  8
0
  6
Continuous
 62
     7
370
    25
100
AcDbCircle
 10
-0.0644023782
 20
-1.533800688
 30
0.0
 40
0.0757659895615052
100
AcDbArc
 50
264.7534504283
 51
26.4949885563
  0
ARC
  5
1B5
330
1F
100
AcDbEntity
  8
0
  6
Continuous
 62
     7
370
    25
100
AcDbCircle
 10
-1.1012408407
 20
1.535735597
 30
0.0
 40
0.074996727878868
100
AcDbArc
 50
58.0302900479
 51
208.4567611287
  0
ARC
  5
1B6
330
1F
100
AcDbEntity
  8
0
  6
Continuous
 62
     7
370
    25
100
AcDbCircle
 10
0.007801086
 20
1.5466574829
 30
0.0
 40
0.0749948388160917
100
AcDbArc
 50
0.1381340052
 51
179.8249357942
  0
ARC
  5
1B7
330
1F
100
AcDbEntity
  8
0
  6
Continuous
 62
     7
370
    25
100
AcDbCircle
 10
0.8487070706
 20
4.704744819
 30
0.0
 40
2.925850909594608
100
AcDbArc
 50
255.8967444794
 51
258.460921452
  0
ARC
  5
1B8
330
1F
100
AcDbEntity
  8
0
  6
Continuous
 62
     7
370
    25
100
AcDbCircle
 10
-1.1662897358
 20
1.6481134891
 30
0.0
 40
0.0551630095465217
100
AcDbArc
 50
116.2345787762
 51
191.9892063599
  0
ARC
  5
1B9
330
1F
100
AcDbEntity
  8
0
  6
Continuous
 62
     7
370
    25
100
AcDbCircle
 10
-1.1309662752
 20
1.6483581842
 30
0.0
 40
0.060130104149035
100
AcDbArc
 50
17.796579705
 51
76.4139441178
  0
ARC
  5
1BA
330
1F
100
AcDbEntity
  8
0
  6
Continuous
 62
     7
370
    25
100
AcDbCircle
 10
0.0005028273
 20
-1.5323877697
 30
0.0
 40
0.1642085780697465
100
AcDbArc
 50
240.8321848194
 51
292.6747239221
  0
ARC
  5
1BB
330
1F
100
AcDbEntity
  8
0
  6
Continuous
 62
     7
370
    25
100
AcDbCircle
 10
0.0280279796
 20
1.6616232754
 30
0.0
 40
0.135065316465858
100
AcDbArc
 50
42.7644936814
 51
109.8507815098
  0
ARC
  5
1BC
330
1F
100
AcDbEntity
  8
0
  6
Continuous
 62
     7
370
    25
100
AcDbCircle
 10
0.052639358
 20
1.4151331578
 30
0.0
 40
0.4207463166241558
100
AcDbArc
 50
78.6245509097
 51
99.0441894458
  0
ARC
  5
1BD
330
1F
100
AcDbEntity
  8
0
  6
Continuous
 62
     7
370
    25
100
AcDbCircle
 10
0.0529289185
 20
1.5461847644
 30
0.0
 40
0.4137832549212873
100
AcDbArc
 50
78.4518675014
 51
99.2362774723
  0
ARC
  5
1BE
330
1F
100
AcDbEntity
  8
0
  6
Continuous
 62
     7
370
    25
100
AcDbCircle
 10
0.0476603877
 20
-1.950457069
 30
0.0
 40
0.0798081570330477
100
AcDbArc
 50
78.0315343369
 51
99.7998168069
  0
ARC
  5
1BF
330
1F
100
AcDbEntity
  8
0
  6
Continuous
 62
     7
370
    25
100
AcDbCircle
 10
-1.4417846236
 20
1.6365815451
 30
0.0
 40
2.039089133040682
100
AcDbArc
 50
266.4607592671
 51
270.3299876298
  0
ARC
  5
1C0
330
1F
100
AcDbEntity
  8
0
  6
Continuous
 62
     7
370
    25
100
AcDbCircle
 10
-1.5692568111
 20
-0.3467376024
 30
0.0
 40
0.0519054481110767
100
AcDbArc
 50
258.1009036558
 51
271.7607802726
  0
ARC
  5
1C1
330
1F
100
AcDbEntity
  8
0
  6
Continuous
 62
     7
370
    25
100
AcDbCircle
 10
-1.4418297499
 20
2.4353978566
 30
0.0
 40
2.03790491660365
100
AcDbArc
 50
266.4599711633
 51
270.3314477261
  0
ARC
  5
1C2
330
1F
100
AcDbEntity
  8
0
  6
Continuous
 62
     7
370
    25
100
AcDbCircle
 10
-1.5692580419
 20
0.4532455394
 30
0.0
 40
0.051888635684649
100
AcDbArc
 50
258.0983757482
 51
271.7627106895
  0
ARC
  5
1C3
330
1F
100
AcDbEntity
  8
0
  6
Continuous
 62
     7
370
    25
100
AcDbCircle
 10
1.460420179
 20
0.5953532482
 30
0.0
 40
0.9991715034692769
100
AcDbArc
 50
268.2597049866
 51
276.8691452315
  0
ARC
  5
1C4
330
1F
100
AcDbEntity
  8
0
  6
Continuous
 62
     7
370
    25
100
AcDbCircle
 10
1.4604147455
 20
1.3954304292
 30
0.0
 40
0.999248743641668
100
AcDbArc
 50
268.2601492649
 51
276.8689259265
  0
ARC
  5
1C5
330
1F
100
AcDbEntity
  8
0
  6
Continuous
 62
     7
370
    25
100
AcDbCircle
 10
-1.5452021436
 20
-1.8640459359
 30
0.0
 40
1.474364072186262
100
AcDbArc
 50
84.3480867982
 51
85.5297623688
  0
ARC
  5
1C6
330
1F
100
AcDbEntity
  8
0
  6
Continuous
 62
     7
370
    25
100
AcDbCircle
 10
1.2658300277
 20
-1.4481230441
 30
0.0
 40
0.0761729704480739
100
AcDbArc
 50
222.9250851217
 51
317.0749148783
  0
ARC
  5
1C7
330
1F
100
AcDbEntity
  8
0
  6
Continuous
 62
     7
370
    25
100
AcDbCircle
 10
-1.205
 20
0.4
 30
0.0
 40
0.3999999999999999
100
AcDbArc
 50
119.176395855
 51
180.0
  0
ARC
  5
1C8
330
1F
100
AcDbEntity
  8
0
  6
Continuous
 62
     7
370
    25
100
AcDbCircle
 10
1.205
 20
0.4
 30
0.0
 40
0.399999999999998
100
AcDbArc
 50
0.0
 51
60.823604145
  0
ARC
  5
1C9
330
1F
100
AcDbEntity
  8
0
  6
Continuous
 62
     7
370
    25
100
AcDbCircle
 10
1.205
 20
-0.4
 30
0.0
 40
0.3999999999999988
100
AcDbArc
 50
299.176395855
 51
0.0
  0
ARC
  5
1CA
330
1F
100
AcDbEntity
  8
0
  6
Continuous
 62
     7
370
    25
100
AcDbCircle
 10
-1.205
 20
-0.4
 30
0.0
 40
0.4000000000000008
100
AcDbArc
 50
180.0
 51
240.823604145
  0
ARC
  5
1CB
330
1F
100
AcDbEntity
  8
0
  6
Continuous
 62
     7
370
    25
100
AcDbCircle
 10
1.2660017065
 20
-1.5289916145
 30
0.0
 40
0.0751890972897045
100
AcDbArc
 50
181.2333128523
 51
337.1788565065
  0
ARC
  5
1CC
330
1F
100
AcDbEntity
  8
0
  6
Continuous
 62
     7
370
    25
100
AcDbCircle
 10
0.1026827603
 20
-1.5428195212
 30
0.0
 40
0.075108079725316
100
AcDbArc
 50
206.1488543599
 51
354.7325773498
  0
ENDSEC
  0
SECTION
  2
OBJECTS
  0
DICTIONARY
  5
C
330
0
100
AcDbDictionary
281
     1
  3
ACAD_GROUP
350
D
  3
ACAD_LAYOUT
350
1A
  3
ACAD_MLINESTYLE
350
17
  3
ACAD_PLOTSETTINGS
350
19
  3
ACAD_PLOTSTYLENAME
350
E
  3
ACAD_SCALELIST
350
47
  3
DWGPROPS
350
1CD
  0
DICTIONARY
  5
D
102
{ACAD_REACTORS
330
C
102
}
330
C
100
AcDbDictionary
281
     1
  0
DICTIONARY
  5
1A
102
{ACAD_REACTORS
330
C
102
}
330
C
100
AcDbDictionary
281
     1
  3
Layout1
350
1E
  3
Layout2
350
26
  3
Model
350
22
  0
DICTIONARY
  5
17
102
{ACAD_REACTORS
330
C
102
}
330
C
100
AcDbDictionary
281
     1
  3
Standard
350
18
  0
DICTIONARY
  5
19
102
{ACAD_REACTORS
330
C
102
}
330
C
100
AcDbDictionary
281
     1
  0
ACDBDICTIONARYWDFLT
  5
E
102
{ACAD_REACTORS
330
C
102
}
330
C
100
AcDbDictionary
281
     1
  3
Normal
350
F
100
AcDbDictionaryWithDefault
340
F
  0
DICTIONARY
  5
47
102
{ACAD_REACTORS
330
C
102
}
330
C
100
AcDbDictionary
281
     1
  3
A0
350
48
  3
A1
350
49
  3
A2
350
4A
  3
A3
350
4B
  3
A4
350
4C
  3
A5
350
4D
  3
A6
350
4E
  3
A7
350
4F
  3
A8
350
50
  3
A9
350
51
  3
B0
350
52
  3
B1
350
53
  3
B2
350
54
  3
B3
350
55
  3
B4
350
56
  3
B5
350
57
  3
B6
350
58
  0
XRECORD
  5
1CD
102
{ACAD_REACTORS
330
C
102
}
330
C
100
AcDbXrecord
280
     1
  1
DWGPROPS COOKIE
  2

  3

  4

  6

  7

  8
s9sar
  9

300
=
301
=
302
=
303
=
304
=
305
=
306
=
307
=
308
=
309
=
 40
0.0
 41
2460650.399247165
 42
2460650.399324028
  1

 90
        0
  0
LAYOUT
  5
1E
102
{ACAD_REACTORS
330
1A
102
}
330
1A
100
AcDbPlotSettings
  1

  2
none_device
  4

  6

 40
0.0
 41
0.0
 42
0.0
 43
0.0
 44
0.0
 45
0.0
 46
0.0
 47
0.0
 48
0.0
 49
0.0
140
0.0
141
0.0
142
1.0
143
1.0
 70
   688
 72
     1
 73
     0
 74
     5
  7

 75
    16
147
1.0
148
0.0
149
0.0
100
AcDbLayout
  1
Layout1
 70
     1
 71
     1
 10
0.0
 20
0.0
 11
420.0
 21
297.0
 12
0.0
 22
0.0
 32
0.0
 14
1.0000000000E+20
 24
1.0000000000E+20
 34
1.0000000000E+20
 15
-1.0000000000E+20
 25
-1.0000000000E+20
 35
-1.0000000000E+20
146
0.0
 13
0.0
 23
0.0
 33
0.0
 16
1.0
 26
0.0
 36
0.0
 17
0.0
 27
1.0
 37
0.0
 76
     0
330
1B
  0
LAYOUT
  5
26
102
{ACAD_REACTORS
330
1A
102
}
330
1A
100
AcDbPlotSettings
  1

  2
none_device
  4

  6

 40
0.0
 41
0.0
 42
0.0
 43
0.0
 44
0.0
 45
0.0
 46
0.0
 47
0.0
 48
0.0
 49
0.0
140
0.0
141
0.0
142
1.0
143
1.0
 70
   688
 72
     1
 73
     0
 74
     5
  7

 75
    16
147
1.0
148
0.0
149
0.0
100
AcDbLayout
  1
Layout2
 70
     1
 71
     2
 10
0.0
 20
0.0
 11
0.0
 21
0.0
 12
0.0
 22
0.0
 32
0.0
 14
0.0
 24
0.0
 34
0.0
 15
0.0
 25
0.0
 35
0.0
146
0.0
 13
0.0
 23
0.0
 33
0.0
 16
1.0
 26
0.0
 36
0.0
 17
0.0
 27
1.0
 37
0.0
 76
     0
330
23
  0
LAYOUT
  5
22
102
{ACAD_REACTORS
330
1A
102
}
330
1A
100
AcDbPlotSettings
  1

  2
none_device
  4
ANSI_A_(11.00_x_8.50_Inches)
  6

 40
6.35
 41
19.05
 42
6.35000508
 43
19.05000254
 44
279.4
 45
215.9
 46
133.34999746
 47
88.89999873
 48
0.0
 49
0.0
140
0.0
141
0.0
142
2.0726600985
143
1.0
 70
  1696
 72
     0
 73
     0
 74
     0
  7

 75
     0
147
0.0179189148
148
-1300.4909072572
149
0.0
100
AcDbLayout
  1
Model
 70
     1
 71
     0
 10
0.0
 20
0.0
 11
420.0
 21
297.0
 12
0.0
 22
0.0
 32
0.0
 14
-1.905
 24
-2.03
 34
0.0
 15
1.905
 25
2.03
 35
0.0
146
0.0
 13
0.0
 23
0.0
 33
0.0
 16
1.0
 26
0.0
 36
0.0
 17
0.0
 27
1.0
 37
0.0
 76
     0
330
1F
331
29
  0
MLINESTYLE
  5
18
102
{ACAD_REACTORS
330
17
102
}
330
17
100
AcDbMlineStyle
  2
Standard
 70
     0
  3

 62
   256
 51
90.0
 52
90.0
 71
     2
 49
0.5
 62
   256
  6
BYLAYER
 49
-0.5
 62
   256
  6
BYLAYER
  0
ACDBPLACEHOLDER
  5
F
102
{ACAD_REACTORS
330
E
102
}
330
E
  0
SCALE
  5
48
102
{ACAD_REACTORS
330
47
102
}
330
47
100
AcDbScale
 70
     0
300
1:1
140
1.0
141
1.0
290
     1
  0
SCALE
  5
49
102
{ACAD_REACTORS
330
47
102
}
330
47
100
AcDbScale
 70
     0
300
1:2
140
1.0
141
2.0
290
     0
  0
SCALE
  5
4A
102
{ACAD_REACTORS
330
47
102
}
330
47
100
AcDbScale
 70
     0
300
1:4
140
1.0
141
4.0
290
     0
  0
SCALE
  5
4B
102
{ACAD_REACTORS
330
47
102
}
330
47
100
AcDbScale
 70
     0
300
1:5
140
1.0
141
5.0
290
     0
  0
SCALE
  5
4C
102
{ACAD_REACTORS
330
47
102
}
330
47
100
AcDbScale
 70
     0
300
1:8
140
1.0
141
8.0
290
     0
  0
SCALE
  5
4D
102
{ACAD_REACTORS
330
47
102
}
330
47
100
AcDbScale
 70
     0
300
1:10
140
1.0
141
10.0
290
     0
  0
SCALE
  5
4E
102
{ACAD_REACTORS
330
47
102
}
330
47
100
AcDbScale
 70
     0
300
1:16
140
1.0
141
16.0
290
     0
  0
SCALE
  5
4F
102
{ACAD_REACTORS
330
47
102
}
330
47
100
AcDbScale
 70
     0
300
1:20
140
1.0
141
20.0
290
     0
  0
SCALE
  5
50
102
{ACAD_REACTORS
330
47
102
}
330
47
100
AcDbScale
 70
     0
300
1:30
140
1.0
141
30.0
290
     0
  0
SCALE
  5
51
102
{ACAD_REACTORS
330
47
102
}
330
47
100
AcDbScale
 70
     0
300
1:40
140
1.0
141
40.0
290
     0
  0
SCALE
  5
52
102
{ACAD_REACTORS
330
47
102
}
330
47
100
AcDbScale
 70
     0
300
1:50
140
1.0
141
50.0
290
     0
  0
SCALE
  5
53
102
{ACAD_REACTORS
330
47
102
}
330
47
100
AcDbScale
 70
     0
300
1:100
140
1.0
141
100.0
290
     0
  0
SCALE
  5
54
102
{ACAD_REACTORS
330
47
102
}
330
47
100
AcDbScale
 70
     0
300
2:1
140
2.0
141
1.0
290
     0
  0
SCALE
  5
55
102
{ACAD_REACTORS
330
47
102
}
330
47
100
AcDbScale
 70
     0
300
4:1
140
4.0
141
1.0
290
     0
  0
SCALE
  5
56
102
{ACAD_REACTORS
330
47
102
}
330
47
100
AcDbScale
 70
     0
300
8:1
140
8.0
141
1.0
290
     0
  0
SCALE
  5
57
102
{ACAD_REACTORS
330
47
102
}
330
47
100
AcDbScale
 70
     0
300
10:1
140
10.0
141
1.0
290
     0
  0
SCALE
  5
58
102
{ACAD_REACTORS
330
47
102
}
330
47
100
AcDbScale
 70
     0
300
100:1
140
100.0
141
1.0
290
     0
  0
ENDSEC
  0
EOF
